<svg width="421" height="283" viewBox="0 0 421 283" fill="none" xmlns="http://www.w3.org/2000/svg">
<path d="M212.25 213.913C172.321 213.913 139.837 181.429 139.837 141.5C139.837 101.572 172.321 69.0872 212.25 69.0872C252.178 69.0872 284.663 101.572 284.663 141.5C284.663 181.429 252.178 213.913 212.25 213.913ZM212.25 69.7369C172.68 69.7369 140.487 101.93 140.487 141.5C140.487 181.07 172.68 213.263 212.25 213.263C251.82 213.263 284.013 181.07 284.013 141.5C284.013 101.93 251.82 69.7369 212.25 69.7369Z" fill="#EBEBEB"/>
<path d="M212.25 206.064C176.649 206.064 147.686 177.1 147.686 141.5C147.686 105.9 176.65 76.9364 212.25 76.9364C247.85 76.9364 276.814 105.9 276.814 141.5C276.814 177.101 247.851 206.064 212.25 206.064ZM212.25 77.5856C177.007 77.5856 148.335 106.257 148.335 141.5C148.335 176.742 177.007 205.414 212.25 205.414C247.492 205.414 276.164 176.743 276.164 141.5C276.164 106.257 247.492 77.5856 212.25 77.5856Z" fill="#EBEBEB"/>
<path d="M167.906 30.8734L167.304 31.1166L171.778 42.1903L172.38 41.9471L167.906 30.8734Z" fill="#EBEBEB"/>
<path d="M174.364 46.8576L173.762 47.1008L181.141 65.3669L181.743 65.1237L174.364 46.8576Z" fill="#EBEBEB"/>
<path d="M102.663 94.6302L102.409 95.2278L113.403 99.894L113.656 99.2964L102.663 94.6302Z" fill="#EBEBEB"/>
<path d="M118.53 101.366L118.276 101.963L136.41 109.66L136.664 109.063L118.53 101.366Z" fill="#EBEBEB"/>
<path d="M112.696 181.376L101.622 185.85L101.865 186.452L112.939 181.978L112.696 181.376Z" fill="#EBEBEB"/>
<path d="M135.87 172.014L117.604 179.394L117.847 179.996L136.113 172.616L135.87 172.014Z" fill="#EBEBEB"/>
<path d="M170.042 240.083L165.375 251.077L165.973 251.331L170.639 240.337L170.042 240.083Z" fill="#EBEBEB"/>
<path d="M179.808 217.078L172.111 235.212L172.709 235.466L180.406 217.332L179.808 217.078Z" fill="#EBEBEB"/>
<path d="M252.727 240.816L252.125 241.059L256.599 252.133L257.201 251.89L252.727 240.816Z" fill="#EBEBEB"/>
<path d="M243.363 217.644L242.761 217.887L250.141 236.153L250.743 235.91L243.363 217.644Z" fill="#EBEBEB"/>
<path d="M311.083 183.1L310.829 183.698L321.823 188.364L322.077 187.767L311.083 183.1Z" fill="#EBEBEB"/>
<path d="M288.077 173.335L287.823 173.933L305.957 181.63L306.211 181.032L288.077 173.335Z" fill="#EBEBEB"/>
<path d="M322.639 96.5544L311.565 101.028L311.809 101.63L322.882 97.1564L322.639 96.5544Z" fill="#EBEBEB"/>
<path d="M306.657 103.015L288.391 110.395L288.634 110.997L306.9 103.617L306.657 103.015Z" fill="#EBEBEB"/>
<path d="M258.511 31.6628L253.845 42.6565L254.443 42.9101L259.109 31.9165L258.511 31.6628Z" fill="#EBEBEB"/>
<path d="M251.778 47.5305L244.081 65.6646L244.679 65.9184L252.376 47.7844L251.778 47.5305Z" fill="#EBEBEB"/>
<path d="M212.575 13.0497H211.925V42.4285H212.575V13.0497Z" fill="#EBEBEB"/>
<path d="M212.575 49.0513H211.925V59.2529H212.575V49.0513Z" fill="#EBEBEB"/>
<path d="M121.648 50.4419L121.189 50.9014L141.965 71.6722L142.425 71.2127L121.648 50.4419Z" fill="#EBEBEB"/>
<path d="M147.118 75.8944L146.659 76.3539L153.873 83.5674L154.333 83.1079L147.118 75.8944Z" fill="#EBEBEB"/>
<path d="M113.178 141.175H83.7997V141.825H113.178V141.175Z" fill="#EBEBEB"/>
<path d="M130.003 141.175H119.801V141.825H130.003V141.175Z" fill="#EBEBEB"/>
<path d="M141.964 211.33L121.188 232.101L121.647 232.56L142.424 211.789L141.964 211.33Z" fill="#EBEBEB"/>
<path d="M153.878 199.433L146.664 206.646L147.123 207.106L154.338 199.892L153.878 199.433Z" fill="#EBEBEB"/>
<path d="M212.575 240.571H211.925V269.95H212.575V240.571Z" fill="#EBEBEB"/>
<path d="M212.575 223.748H211.925V233.949H212.575V223.748Z" fill="#EBEBEB"/>
<path d="M282.528 211.32L282.069 211.779L302.845 232.55L303.305 232.09L282.528 211.32Z" fill="#EBEBEB"/>
<path d="M270.657 199.422L270.198 199.881L277.413 207.095L277.872 206.635L270.657 199.422Z" fill="#EBEBEB"/>
<path d="M340.7 141.175H311.322V141.825H340.7V141.175Z" fill="#EBEBEB"/>
<path d="M304.699 141.175H294.497V141.825H304.699V141.175Z" fill="#EBEBEB"/>
<path d="M302.85 50.4496L282.073 71.2205L282.533 71.68L303.31 50.9092L302.85 50.4496Z" fill="#EBEBEB"/>
<path d="M277.409 75.8928L270.194 83.1063L270.654 83.5658L277.868 76.3523L277.409 75.8928Z" fill="#EBEBEB"/>
<path d="M213.731 141.5C213.731 142.318 213.068 142.981 212.25 142.981C211.432 142.981 210.769 142.318 210.769 141.5C210.769 140.682 211.431 140.019 212.25 140.019C213.068 140.019 213.731 140.682 213.731 141.5Z" fill="#EBEBEB"/>
<path d="M350.981 240.3C350.211 238.879 350.205 237.134 350.981 235.714C351.756 237.134 351.751 238.879 350.981 240.3Z" fill="#DBDBDB"/>
<path d="M355.289 242.074C355.729 240.53 356.942 239.291 358.482 238.831C358.047 240.378 356.826 241.611 355.289 242.074Z" fill="#DBDBDB"/>
<path d="M357.101 246.423C358.497 245.653 360.221 245.647 361.617 246.423C360.221 247.198 358.497 247.193 357.101 246.423Z" fill="#DBDBDB"/>
<path d="M355.354 250.799C356.891 251.263 358.112 252.495 358.548 254.042C357.008 253.583 355.794 252.343 355.354 250.799Z" fill="#DBDBDB"/>
<path d="M351.073 252.639C351.843 254.06 351.848 255.805 351.073 257.225C350.297 255.805 350.303 254.06 351.073 252.639Z" fill="#DBDBDB"/>
<path d="M346.765 250.865C346.325 252.409 345.111 253.648 343.572 254.108C344.006 252.561 345.227 251.329 346.765 250.865Z" fill="#DBDBDB"/>
<path d="M344.953 246.517C343.556 247.287 341.832 247.292 340.437 246.517C341.832 245.741 343.556 245.747 344.953 246.517Z" fill="#DBDBDB"/>
<path d="M346.699 242.14C345.163 241.677 343.942 240.445 343.506 238.897C345.046 239.357 346.259 240.596 346.699 242.14Z" fill="#DBDBDB"/>
<path d="M194.504 35.0491C193.734 33.6284 193.728 31.8829 194.504 30.4628C195.279 31.8829 195.274 33.6278 194.504 35.0491Z" fill="#DBDBDB"/>
<path d="M198.812 36.8228C199.252 35.2787 200.465 34.0392 202.005 33.5796C201.57 35.1265 200.349 36.3586 198.812 36.8228Z" fill="#DBDBDB"/>
<path d="M200.624 41.1714C202.02 40.4016 203.744 40.3965 205.139 41.1714C203.745 41.9462 202.02 41.9412 200.624 41.1714Z" fill="#DBDBDB"/>
<path d="M198.878 45.5471C200.414 46.0107 201.635 47.2429 202.071 48.7903C200.53 48.3313 199.317 47.0912 198.878 45.5471Z" fill="#DBDBDB"/>
<path d="M194.596 47.3872C195.365 48.8084 195.371 50.5534 194.596 51.9735C193.82 50.5534 193.825 48.8084 194.596 47.3872Z" fill="#DBDBDB"/>
<path d="M190.287 45.6134C189.847 47.1575 188.634 48.397 187.094 48.8566C187.529 47.3097 188.75 46.0775 190.287 45.6134Z" fill="#DBDBDB"/>
<path d="M188.475 41.2648C187.079 42.0346 185.355 42.0402 183.959 41.2648C185.355 40.49 187.079 40.4956 188.475 41.2648Z" fill="#DBDBDB"/>
<path d="M190.222 36.8891C188.685 36.4255 187.464 35.1933 187.028 33.6459C188.569 34.1049 189.782 35.345 190.222 36.8891Z" fill="#DBDBDB"/>
<path d="M34.5702 207.744C33.8004 206.322 33.7947 204.577 34.5702 203.157C35.3456 204.577 35.3399 206.322 34.5702 207.744Z" fill="#DBDBDB"/>
<path d="M38.879 209.517C39.3188 207.973 40.5317 206.734 42.0724 206.274C41.6366 207.822 40.4157 209.054 38.879 209.517Z" fill="#DBDBDB"/>
<path d="M40.6903 213.866C42.0866 213.096 43.8107 213.091 45.2064 213.866C43.8112 214.641 42.0866 214.636 40.6903 213.866Z" fill="#DBDBDB"/>
<path d="M38.9436 218.242C40.4803 218.706 41.7017 219.938 42.137 221.485C40.5969 221.026 39.384 219.786 38.9436 218.242Z" fill="#DBDBDB"/>
<path d="M34.6623 220.082C35.4321 221.503 35.4378 223.249 34.6623 224.669C33.8869 223.249 33.8926 221.504 34.6623 220.082Z" fill="#DBDBDB"/>
<path d="M30.3533 218.309C29.9135 219.853 28.7006 221.092 27.1605 221.552C27.5958 220.004 28.8166 218.772 30.3533 218.309Z" fill="#DBDBDB"/>
<path d="M28.5417 213.96C27.1453 214.73 25.4213 214.735 24.0261 213.96C25.4213 213.185 27.1453 213.19 28.5417 213.96Z" fill="#DBDBDB"/>
<path d="M30.2883 209.584C28.7517 209.12 27.5308 207.888 27.095 206.341C28.6351 206.8 29.8486 208.04 30.2883 209.584Z" fill="#DBDBDB"/>
<path d="M63.2171 19.6448C62.4614 18.9469 62.4564 17.8092 63.2171 17.113C63.9778 17.8092 63.9727 18.9469 63.2171 19.6448Z" fill="#DBDBDB"/>
<path d="M65.596 20.6238C65.5422 19.6016 66.3329 18.7917 67.3585 18.8336C67.4162 19.8586 66.6187 20.6618 65.596 20.6238Z" fill="#DBDBDB"/>
<path d="M66.5961 23.0249C67.2804 22.2698 68.4061 22.2647 69.0887 23.0249C68.4061 23.7844 67.2798 23.7799 66.5961 23.0249Z" fill="#DBDBDB"/>
<path d="M65.6316 25.44C66.6549 25.4021 67.4524 26.2058 67.3941 27.2303C66.3685 27.2727 65.5778 26.4628 65.6316 25.44Z" fill="#DBDBDB"/>
<path d="M63.268 26.4559C64.0236 27.1538 64.0287 28.2915 63.268 28.9877C62.5073 28.2915 62.5124 27.1532 63.268 26.4559Z" fill="#DBDBDB"/>
<path d="M60.8897 25.4769C60.9434 26.4991 60.1527 27.309 59.1271 27.2671C59.0689 26.2421 59.8663 25.439 60.8897 25.4769Z" fill="#DBDBDB"/>
<path d="M59.8895 23.0763C59.2052 23.8314 58.0794 23.8365 57.3969 23.0763C58.0794 22.3162 59.2052 22.3207 59.8895 23.0763Z" fill="#DBDBDB"/>
<path d="M60.8534 20.6601C59.8307 20.698 59.0326 19.8948 59.0903 18.8704C60.1165 18.8279 60.9072 19.6379 60.8534 20.6601Z" fill="#DBDBDB"/>
<path d="M395.219 163.136C394.464 162.438 394.459 161.3 395.219 160.604C395.98 161.301 395.975 162.439 395.219 163.136Z" fill="#DBDBDB"/>
<path d="M397.598 164.116C397.545 163.093 398.335 162.284 399.361 162.325C399.419 163.35 398.622 164.153 397.598 164.116Z" fill="#DBDBDB"/>
<path d="M398.598 166.516C399.282 165.761 400.408 165.756 401.091 166.516C400.408 167.276 399.282 167.271 398.598 166.516Z" fill="#DBDBDB"/>
<path d="M397.634 168.932C398.657 168.894 399.455 169.697 399.397 170.722C398.371 170.764 397.581 169.954 397.634 168.932Z" fill="#DBDBDB"/>
<path d="M395.27 169.947C396.026 170.645 396.031 171.783 395.27 172.479C394.51 171.783 394.515 170.645 395.27 169.947Z" fill="#DBDBDB"/>
<path d="M392.892 168.968C392.946 169.99 392.155 170.8 391.13 170.758C391.071 169.734 391.869 168.931 392.892 168.968Z" fill="#DBDBDB"/>
<path d="M391.892 166.567C391.208 167.323 390.082 167.328 389.399 166.567C390.082 165.807 391.208 165.812 391.892 166.567Z" fill="#DBDBDB"/>
<path d="M392.856 164.152C391.833 164.19 391.035 163.387 391.094 162.362C392.119 162.32 392.909 163.13 392.856 164.152Z" fill="#DBDBDB"/>
<path d="M236.964 241.363C236.208 240.665 236.203 239.527 236.964 238.831C237.725 239.528 237.719 240.665 236.964 241.363Z" fill="#DBDBDB"/>
<path d="M239.343 242.342C239.289 241.32 240.08 240.51 241.105 240.552C241.163 241.577 240.366 242.38 239.343 242.342Z" fill="#DBDBDB"/>
<path d="M240.343 244.743C241.027 243.988 242.153 243.983 242.836 244.743C242.153 245.503 241.027 245.498 240.343 244.743Z" fill="#DBDBDB"/>
<path d="M239.379 247.159C240.402 247.121 241.2 247.924 241.142 248.949C240.116 248.991 239.325 248.181 239.379 247.159Z" fill="#DBDBDB"/>
<path d="M237.015 248.174C237.771 248.872 237.776 250.01 237.015 250.706C236.255 250.01 236.26 248.872 237.015 248.174Z" fill="#DBDBDB"/>
<path d="M234.636 247.195C234.69 248.217 233.899 249.027 232.874 248.985C232.816 247.961 233.614 247.157 234.636 247.195Z" fill="#DBDBDB"/>
<path d="M233.636 244.794C232.952 245.549 231.826 245.555 231.144 244.794C231.827 244.034 232.952 244.039 233.636 244.794Z" fill="#DBDBDB"/>
<path d="M234.601 242.379C233.577 242.417 232.78 241.613 232.838 240.588C233.864 240.547 234.655 241.357 234.601 242.379Z" fill="#DBDBDB"/>
<path d="M352.346 39.5045C351.591 38.8066 351.586 37.669 352.346 36.9728C353.107 37.669 353.102 38.8066 352.346 39.5045Z" fill="#DBDBDB"/>
<path d="M354.725 40.4837C354.671 39.4615 355.462 38.6516 356.487 38.6934C356.546 39.7185 355.748 40.5216 354.725 40.4837Z" fill="#DBDBDB"/>
<path d="M355.725 42.8842C356.409 42.1292 357.535 42.1241 358.218 42.8842C357.535 43.6444 356.409 43.6398 355.725 42.8842Z" fill="#DBDBDB"/>
<path d="M354.761 45.2998C355.784 45.2618 356.582 46.065 356.524 47.09C355.498 47.1325 354.707 46.3225 354.761 45.2998Z" fill="#DBDBDB"/>
<path d="M352.397 46.3157C353.153 47.0136 353.158 48.1512 352.397 48.8474C351.636 48.1512 351.641 47.0136 352.397 46.3157Z" fill="#DBDBDB"/>
<path d="M350.018 45.3366C350.072 46.3588 349.281 47.1688 348.256 47.1269C348.198 46.1018 348.996 45.2987 350.018 45.3366Z" fill="#DBDBDB"/>
<path d="M349.018 42.9356C348.335 43.6907 347.208 43.6958 346.526 42.9356C347.208 42.1755 348.335 42.1806 349.018 42.9356Z" fill="#DBDBDB"/>
<path d="M349.983 40.52C348.96 40.5579 348.162 39.7547 348.22 38.7297C349.246 38.6878 350.037 39.4978 349.983 40.52Z" fill="#DBDBDB"/>
<path d="M365.993 138.662C364.418 141.187 363.451 144.108 363.114 147.06C362.409 153.297 365.656 159.25 365.058 165.416C364.747 166.093 364.408 166.769 364.029 167.433C364.026 167.444 364.016 167.457 364.009 167.466C364.005 167.47 364.002 167.474 364.003 167.482C363.999 167.487 363.999 167.487 363.999 167.487C363.996 167.491 363.996 167.491 363.996 167.499C363.992 167.531 364.011 167.56 364.033 167.578C364.096 167.508 364.155 167.435 364.211 167.366C364.324 167.236 364.428 167.106 364.529 166.973C364.679 166.787 364.817 166.599 364.954 166.403C364.976 166.421 365.028 166.32 365.037 166.291C368.854 160.813 368.629 153.547 369.247 147.118C369.597 143.442 370.792 139.955 371.202 136.312C371.298 135.442 371.729 133.856 370.439 133.856C368.986 133.86 366.636 137.626 365.993 138.662Z" fill="#263238"/>
<path d="M365.499 144.071C363.171 151.266 368.198 159.441 364.691 166.312C364.585 166.505 364.483 166.693 364.373 166.882C364.296 167.013 364.219 167.143 364.138 167.271C364.138 167.271 364.138 167.271 364.135 167.275C364.101 167.326 364.067 167.377 364.029 167.433C364.027 167.444 364.016 167.457 364.009 167.466C364.006 167.47 364.002 167.474 364.003 167.482C363.999 167.487 363.999 167.487 363.999 167.487C363.996 167.491 363.996 167.491 363.997 167.499C363.992 167.531 364.011 167.56 364.033 167.578C364.041 167.585 364.054 167.588 364.058 167.591C364.082 167.596 364.109 167.589 364.13 167.564C364.271 167.371 364.403 167.172 364.529 166.973C364.847 166.481 365.113 165.975 365.331 165.459C365.338 165.458 365.334 165.454 365.334 165.454C366.895 162.434 367.573 159.201 367.794 155.648C368.064 151.286 368.08 146.99 368.441 142.602C368.486 142.06 369.027 140.021 368.124 140.07C366.982 140.132 365.77 143.241 365.499 144.071ZM366.148 143.082C366.323 142.689 367.581 140.087 368.188 140.556C368.549 140.833 368.045 142.924 368.031 143.233C367.973 144.427 367.913 145.614 367.855 146.808C367.739 149.319 367.64 151.828 367.52 154.335C367.365 157.435 366.977 160.467 365.991 163.324C367.321 156.835 363.318 149.422 366.148 143.082Z" fill="#455A64"/>
<path d="M345.558 208.243C345.537 208.34 345.577 208.494 345.73 208.445C352.206 206.362 358.327 211.098 364.897 209.447C367.533 208.779 370 207.518 372.352 206.178C374.085 205.188 375.842 204.117 377.281 202.724C377.475 202.538 378.416 201.822 378.424 201.343C378.455 197.701 368.065 201.105 366.366 201.523C359.733 203.137 353.669 204.604 347.518 207.3C346.877 207.574 346.233 207.867 345.591 208.177C345.571 208.182 345.563 208.211 345.558 208.243Z" fill="#263238"/>
<path d="M345.559 208.243C345.796 208.17 346.028 208.094 346.262 208.026C350.548 207.214 354.95 207.701 359.312 207.749C363.714 207.793 367.697 207.013 371.558 204.838C372.239 204.453 375.024 203.028 374.632 201.834C374.281 200.759 371.551 201.921 370.918 202.088C366.191 203.294 361.546 204.558 356.729 205.399C353.648 205.936 350.535 206.461 347.518 207.299C346.876 207.573 346.233 207.866 345.59 208.176C345.572 208.182 345.563 208.211 345.559 208.243ZM348.55 207.391C352.025 206.508 355.576 205.944 359.122 205.29C361.557 204.845 363.965 204.301 366.356 203.655C367.664 203.298 368.971 202.926 370.284 202.581C370.944 202.408 371.601 202.239 372.26 202.086C372.59 202.004 373.685 201.712 373.808 202.214C374.142 203.574 366.187 207.904 357.898 207.362C354.787 207.159 351.625 207.02 348.55 207.391Z" fill="#455A64"/>
<path d="M357.544 200.228C357.515 200.247 357.514 200.282 357.533 200.304C357.548 200.33 357.581 200.342 357.618 200.323C357.763 200.24 357.905 200.162 358.05 200.079C358.579 199.778 359.094 199.467 359.601 199.148C359.693 199.087 359.786 199.034 359.878 198.973C359.906 198.974 359.926 198.976 359.948 198.965C365.569 195.628 372.626 196.032 377.787 191.804C380.085 189.921 381.869 187.509 383.403 184.981C384.064 183.888 386.728 180.731 385.488 179.395C384.522 178.357 382.286 179.456 381.349 179.927C378.374 181.42 375.873 183.952 373.477 186.212C371.128 188.424 368.905 190.753 366.625 193.029C364.509 195.137 362.228 196.911 359.844 198.618C359.088 199.156 358.32 199.692 357.544 200.228Z" fill="#263238"/>
<path d="M357.544 200.228C357.515 200.247 357.514 200.282 357.533 200.304C357.996 200.022 358.46 199.74 358.924 199.465C358.63 199.67 358.336 199.875 358.05 200.079C358.579 199.778 359.094 199.467 359.601 199.148C359.855 198.975 360.108 198.802 360.367 198.633C363.551 196.853 366.88 195.345 370.303 194.057C372.007 193.414 373.535 192.583 374.942 191.396C377.499 189.237 382.035 183.761 381.734 182.668C381.417 181.506 379.747 183.262 379.311 183.609C375.806 186.429 372.703 189.681 369.041 192.317C366.577 194.086 364.09 195.832 361.608 197.58C361.012 197.912 360.421 198.256 359.844 198.617C359.088 199.156 358.32 199.692 357.544 200.228ZM381.253 182.785C381.686 183.118 380.497 184.596 380.187 184.988C378.682 186.869 377.088 188.756 375.397 190.479C373.602 192.313 371.487 193.272 369.116 194.14C367.172 194.853 365.225 195.7 363.33 196.659C365.762 195.042 368.181 193.399 370.5 191.64C372.424 190.176 374.195 188.539 375.984 186.915C376.876 186.102 377.769 185.296 378.694 184.523C378.943 184.312 380.864 182.486 381.253 182.785Z" fill="#455A64"/>
<path d="M317.204 219.309C317.193 219.337 317.21 219.363 317.234 219.37C317.258 219.382 317.289 219.375 317.306 219.341C317.371 219.207 317.437 219.078 317.502 218.945C317.739 218.457 317.961 217.968 318.173 217.478C318.21 217.386 318.252 217.3 318.289 217.209C318.31 217.196 318.325 217.187 318.337 217.168C320.79 211.878 326.187 208.618 327.855 202.904C328.596 200.359 328.693 197.685 328.548 195.051C328.484 193.914 328.852 190.248 327.266 189.89C326.031 189.613 324.941 191.549 324.488 192.367C323.052 194.966 322.488 198.09 321.864 200.962C321.25 203.774 320.789 206.609 320.258 209.432C319.764 212.051 318.979 214.507 318.085 216.965C317.8 217.741 317.505 218.523 317.204 219.309Z" fill="#263238"/>
<path d="M317.204 219.309C317.193 219.337 317.21 219.364 317.234 219.37C317.433 218.929 317.632 218.488 317.835 218.052C317.722 218.35 317.609 218.65 317.501 218.944C317.738 218.456 317.961 217.967 318.173 217.477C318.273 217.222 318.372 216.966 318.477 216.711C319.924 213.796 321.613 211.008 323.483 208.334C324.412 207.002 325.118 205.62 325.555 204.038C326.348 201.159 326.926 194.843 326.152 194.191C325.333 193.496 324.99 195.629 324.843 196.105C323.686 199.947 323.042 203.905 321.675 207.691C320.754 210.236 319.805 212.774 318.859 215.312C318.588 215.857 318.326 216.407 318.083 216.964C317.8 217.741 317.505 218.523 317.204 219.309ZM319.663 213.766C320.638 211.35 321.589 208.921 322.409 206.458C323.087 204.41 323.565 202.312 324.063 200.216C324.309 199.168 324.56 198.124 324.851 197.089C324.928 196.807 325.421 194.496 325.857 194.52C326.344 194.546 326.214 196.233 326.184 196.678C326.025 198.821 325.803 201.013 325.427 203.135C325.031 205.388 323.957 207.161 322.651 208.995C321.579 210.5 320.573 212.104 319.663 213.766Z" fill="#455A64"/>
<path d="M315.337 223.741C315.435 223.77 315.592 223.769 315.807 223.706C322.036 223.05 328.245 224.603 334.503 223.957C337.235 223.674 339.957 222.91 342.263 221.369C343.251 220.712 346.669 218.449 346.455 216.921C345.827 212.326 323.278 220.258 315.756 223.265C315.609 223.297 315.499 223.336 315.417 223.384C315.178 223.513 315.165 223.68 315.337 223.741Z" fill="#263238"/>
<path d="M315.337 223.741C315.817 223.623 316.302 223.5 316.787 223.385C318.307 223.199 319.829 223.045 321.361 222.976C323.789 222.868 326.206 223.064 328.633 223.097C332.428 223.151 336.165 222.33 339.524 220.548C340.253 220.167 342.379 219.194 342.269 218.085C342.165 217.073 340.5 217.599 339.931 217.702C331.847 219.215 323.818 221.286 315.83 223.297C315.687 223.324 315.551 223.35 315.417 223.384C315.178 223.513 315.165 223.68 315.337 223.741ZM319.153 222.806C322.273 222.051 325.391 221.301 328.51 220.574C330.955 220.001 333.398 219.441 335.849 218.887C337.06 218.616 338.264 218.327 339.481 218.075C339.96 217.976 341.816 217.577 341.812 218.209C341.815 218.79 340.386 219.64 340.126 219.794C336.018 222.249 331.429 222.852 326.735 222.658C324.198 222.548 321.665 222.558 319.153 222.806Z" fill="#455A64"/>
<path d="M355.162 183.202C355.094 183.269 355.071 183.342 355.078 183.412C355.085 183.518 355.166 183.612 355.277 183.652C355.328 183.678 355.387 183.684 355.446 183.681C355.479 183.694 355.514 183.694 355.552 183.674C358.918 181.776 363.641 180.432 367.056 178.659C369.678 177.295 372.021 175.462 374.133 173.394C376.467 171.112 378.64 168.536 380.356 165.748C381.173 164.418 383.332 161.33 382.535 159.596C380.903 156.024 373.184 165.372 372.165 166.376C366.477 171.963 360.793 177.554 355.162 183.202Z" fill="#263238"/>
<path d="M355.078 183.412C355.085 183.518 355.166 183.612 355.277 183.651C355.494 183.47 355.711 183.281 355.929 183.1C357.3 182.152 358.672 181.206 360.098 180.331C362.417 178.908 364.929 177.811 367.201 176.314C371.158 173.702 379.779 164.325 378.427 162.8C377.722 162.005 376.065 163.967 375.612 164.414C373.823 166.187 372.27 168.172 370.456 169.925C368.56 171.769 366.554 173.494 364.555 175.226C361.472 177.888 358.379 180.534 355.323 183.231C355.238 183.292 355.162 183.352 355.078 183.412ZM357.973 181.355C360.71 179.007 363.426 176.634 366.15 174.267C368.028 172.631 369.896 170.971 371.653 169.201C372.633 168.209 373.555 167.163 374.478 166.118C374.93 165.612 375.38 165.098 375.866 164.62C376.284 164.209 377.894 162.456 378.176 163.33C378.448 164.172 376.161 167.012 375.623 167.67C374.742 168.734 373.851 169.784 372.918 170.808C371.079 172.811 369.081 174.694 366.788 176.181C364.503 177.66 361.999 178.763 359.7 180.224C359.123 180.593 358.543 180.967 357.973 181.355Z" fill="#455A64"/>
<path d="M321.742 179.973C325.228 186.619 332.756 190.214 333.151 200.336C333.148 200.375 333.196 200.386 333.218 200.368C333.233 200.366 333.244 200.353 333.242 200.338C333.314 199.347 333.354 198.352 333.35 197.351C333.357 191.97 332.316 186.464 330.302 181.52C329.082 178.551 327.455 175.725 325.404 173.256C324.354 171.994 322.178 168.911 320.466 168.84C316.77 168.689 321.104 178.766 321.742 179.973Z" fill="#263238"/>
<path d="M322.912 176.766C323.856 181.173 327.108 184.734 329.303 188.554C330.815 191.188 332.089 193.964 332.901 196.874C333.028 198.032 333.133 199.194 333.218 200.369C333.234 200.367 333.244 200.354 333.242 200.339C333.314 199.348 333.354 198.353 333.35 197.351C333.332 197.294 333.322 197.236 333.305 197.179C333.028 194.031 332.318 190.881 331.404 187.932C330.121 183.778 328.252 179.801 325.868 176.171C325.458 175.54 324.238 172.95 323.169 173.242C322.144 173.52 322.78 176.152 322.912 176.766ZM323.384 173.666C324.127 173.592 326.443 177.562 327.336 179.168C329.263 182.622 330.743 186.328 331.732 190.158C332.167 191.836 332.467 193.506 332.698 195.19C332.062 193.336 331.259 191.538 330.331 189.798C328.399 186.176 325.631 182.949 324.01 179.179C323.585 178.194 323.258 177.159 323.089 176.095C323.024 175.672 322.707 173.733 323.384 173.666Z" fill="#455A64"/>
<path d="M335.6 152.482C334.585 154.994 333.848 157.637 333.451 160.32C332.668 165.566 333.183 170.812 334.808 175.842C334.837 175.929 334.863 176.022 334.897 176.112C334.873 176.371 334.854 176.634 334.85 176.895C334.844 176.954 334.842 177.01 334.841 177.073C334.843 177.089 334.843 177.096 334.846 177.112L334.85 177.116C334.874 177.164 334.958 177.167 334.974 177.095C335.056 176.79 335.141 176.481 335.231 176.176C337.015 169.883 339.835 164.006 340.676 157.451C340.855 156.019 342.368 146.732 338.796 147.436C337.134 147.763 336.111 151.204 335.6 152.482Z" fill="#263238"/>
<path d="M336.521 154.088C335.264 157.925 335.17 162.379 334.958 166.388C334.792 169.501 334.655 172.692 334.809 175.841C334.816 176.097 334.832 176.36 334.848 176.615C334.845 176.706 334.848 176.8 334.85 176.895C334.842 176.967 334.842 177.038 334.845 177.112L334.849 177.115C334.874 177.164 334.958 177.167 334.973 177.095C335.055 176.79 335.141 176.48 335.23 176.175C335.232 175.926 335.225 175.678 335.226 175.43C335.683 171.868 336.647 168.43 337.606 164.946C338.124 163.067 338.595 161.185 338.931 159.267C339.251 157.422 339.686 155.461 339.588 153.577C339.544 152.757 339.433 151.126 338.223 151.397C337.206 151.624 336.79 153.278 336.521 154.088ZM339.194 153.393C339.316 155.618 338.774 158.048 338.347 160.229C337.946 162.316 337.372 164.37 336.804 166.416C336.202 168.584 335.589 170.793 335.207 173.024C335.19 170.085 335.2 167.148 335.418 164.191C335.586 161.88 335.811 159.571 336.146 157.281C336.317 156.099 336.543 154.926 336.956 153.797C337.099 153.399 337.253 152.995 337.446 152.624C338.062 151.43 339.143 152.389 339.194 153.393Z" fill="#455A64"/>
<path d="M378.786 146.418C378.736 146.514 378.694 146.608 378.644 146.704C378.571 146.853 378.697 146.971 378.823 146.974C378.895 146.975 378.958 146.942 378.998 146.867C379.088 146.696 379.182 146.522 379.272 146.352L379.276 146.347C379.349 146.206 379.423 146.073 379.496 145.932C379.697 145.723 379.907 145.522 380.129 145.331C382.48 143.242 385.957 141.872 388.505 140.233C390.828 138.746 393.075 137.132 395.059 135.207C397.065 133.265 398.831 131.022 399.894 128.417C400.178 127.716 401.009 125.976 400.225 125.278C399.234 124.395 396.9 126.125 396.13 126.533C393.471 127.958 391.04 129.787 388.853 131.861C384.457 136.027 381.439 141.043 378.786 146.418Z" fill="#263238"/>
<path d="M379.633 145.296C379.329 145.657 379.041 146.031 378.786 146.418C378.736 146.514 378.694 146.608 378.644 146.704C378.571 146.853 378.697 146.971 378.823 146.974C378.864 146.908 378.905 146.84 378.95 146.777C379.059 146.637 379.163 146.492 379.272 146.352L379.276 146.347C379.549 145.998 379.833 145.663 380.128 145.331C381.164 144.164 382.321 143.111 383.626 142.08C385.808 140.361 388.052 138.723 390.172 136.924C391.233 136.022 399.396 129.072 397.296 127.64C396.904 127.366 396.326 127.839 396.027 128.017C394.98 128.65 394.046 129.484 393.151 130.307C391.059 132.222 389.034 134.221 387.078 136.277C384.388 139.109 381.871 142.098 379.633 145.296ZM386.194 137.62C387.887 135.786 389.638 134.014 391.433 132.286C392.307 131.445 393.183 130.593 394.105 129.799C394.56 129.404 396.793 127.685 397.171 128.09C397.724 128.684 395.25 131.629 394.527 132.408C393.702 133.295 392.836 134.143 391.949 134.964C390.159 136.618 388.26 138.152 386.332 139.641C384.629 140.963 382.653 142.319 380.964 143.912C382.592 141.721 384.347 139.629 386.194 137.62Z" fill="#455A64"/>
<path d="M350.634 170.67C350.639 170.778 350.65 170.881 350.655 170.989C350.667 171.154 350.835 171.193 350.946 171.132C351.008 171.098 351.046 171.037 351.044 170.952C351.036 170.759 351.029 170.561 351.022 170.369L351.023 170.364C351.016 170.205 351.013 170.052 351.006 169.894C351.075 169.613 351.155 169.334 351.251 169.057C352.237 166.07 354.557 163.141 355.938 160.444C357.2 157.992 358.334 155.468 359.085 152.808C359.845 150.121 360.247 147.296 359.86 144.508C359.754 143.76 359.6 141.837 358.571 141.627C357.271 141.361 356.119 144.028 355.659 144.768C354.074 147.334 352.889 150.137 352.037 153.028C350.325 158.837 350.232 164.69 350.634 170.67Z" fill="#263238"/>
<path d="M350.804 169.274C350.721 169.739 350.66 170.207 350.634 170.67C350.639 170.777 350.65 170.881 350.654 170.988C350.666 171.153 350.834 171.192 350.946 171.132C350.948 171.053 350.949 170.975 350.957 170.898C350.98 170.722 350.999 170.544 351.022 170.368L351.023 170.363C351.085 169.924 351.162 169.492 351.251 169.056C351.561 167.527 352.034 166.036 352.645 164.488C353.669 161.907 354.79 159.364 355.72 156.744C356.185 155.432 359.759 145.323 357.223 145.139C356.746 145.099 356.484 145.798 356.316 146.102C355.727 147.175 355.338 148.365 354.976 149.526C354.128 152.232 353.38 154.978 352.719 157.738C351.812 161.537 351.134 165.385 350.804 169.274ZM352.626 159.343C353.171 156.907 353.796 154.495 354.481 152.1C354.815 150.935 355.146 149.757 355.545 148.608C355.74 148.039 356.809 145.431 357.339 145.592C358.116 145.828 357.454 149.617 357.22 150.652C356.951 151.834 356.627 153.002 356.273 154.158C355.554 156.487 354.681 158.767 353.761 161.022C352.951 163.02 351.922 165.184 351.261 167.409C351.569 164.698 352.038 162.007 352.626 159.343Z" fill="#455A64"/>
<path d="M335.711 171.234C335.088 176.95 334.692 182.592 334.713 188.344C334.728 192.776 334.739 197.274 333.751 201.619C332.571 206.812 329.56 212.126 325.633 216.362C327.59 215.079 329.537 213.769 331.48 212.428C335.429 209.701 339.386 206.877 342.625 203.304C342.945 202.952 343.247 202.587 343.551 202.222C343.542 202.19 343.539 202.154 343.558 202.117C346.285 196.83 348.047 191.424 349.079 185.75C348.919 182.569 348.462 179.629 347.675 176.448C346.898 173.304 346.163 170.255 346.175 166.992C346.176 166.807 346.448 166.767 346.468 166.961C346.93 171.401 349.043 176.166 349.788 180.84C349.865 180.123 349.936 179.403 349.995 178.677C350.548 171.74 350.032 164.483 354.217 158.517C354.357 158.317 354.632 158.552 354.507 158.751C350.262 165.507 351.685 174.578 350.796 182.179C350.134 187.833 348.836 193.767 346.072 198.839C347.883 196.126 349.425 193.228 350.935 190.335C360.049 172.884 369.788 155.709 383.312 141.247C383.444 141.106 383.68 141.291 383.548 141.438C369.427 157.279 360.457 176.2 350.382 194.644C350.268 194.853 350.149 195.061 350.033 195.269C352.326 193.091 355.078 191.273 357.705 189.802C357.838 189.728 357.975 189.903 357.847 190C354.297 192.686 351.286 195.855 347.958 198.76C346.346 201.281 344.54 203.663 342.388 205.783C339.82 208.312 336.946 210.481 334.002 212.548C338.614 210.392 343.248 208.289 347.711 205.792C354.45 202.022 361.024 197.869 367.205 193.235C367.295 193.167 367.392 193.305 367.306 193.376C361.058 198.506 354.553 203.231 347.536 207.267C341.601 210.68 335.307 214.095 328.722 216.173C321.688 220.934 314.272 225.622 306.254 228.343C305.872 228.473 305.686 227.942 306.036 227.767C307.582 226.99 309.103 226.185 310.614 225.368C312.49 223.056 314.758 221.084 316.528 218.646C318.611 215.778 320.311 212.711 321.66 209.437C321.759 209.196 322.106 209.357 322.026 209.596C320.511 214.142 317.956 219.554 314.312 223.309C316.487 222.064 318.636 220.787 320.761 219.467C326.984 213.895 332.005 206.639 333.194 198.303C333.804 194.02 333.682 189.69 333.788 185.377C333.907 180.574 334.551 175.907 335.395 171.184C335.43 170.981 335.733 171.029 335.711 171.234Z" fill="#263238"/>
<path d="M345.819 154.067C349.518 149.591 352.719 144.742 355.74 139.791C358.749 134.832 361.502 129.717 364.042 124.498C365.327 121.894 366.486 119.233 367.676 116.585C368.78 113.901 369.946 111.239 370.953 108.515C373.1 103.12 374.839 97.5337 376.301 91.9003C377.743 86.2539 378.815 80.5203 379.644 74.7499C380.381 68.9683 380.843 63.1475 380.881 57.3154C380.834 51.4862 380.576 45.6513 379.775 39.8725C378.939 34.1225 377.774 28.3085 375.215 23.0498L375.009 23.1449C375.971 25.8685 376.688 28.6504 377.131 31.4968C377.64 34.3234 377.972 37.1834 378.202 40.0485C378.661 45.7787 378.799 51.5343 378.611 57.2787L378.459 61.5859C378.404 63.0213 378.268 64.4533 378.176 65.8864L378.042 68.0372L377.838 70.1823C377.695 71.612 377.581 73.0457 377.413 74.472C376.736 80.1796 375.82 85.8639 374.535 91.4718C373.198 97.0679 371.601 102.589 369.571 107.996C368.623 110.722 367.517 113.387 366.473 116.078C365.342 118.732 364.241 121.401 363.014 124.014C360.625 129.269 358.019 134.43 355.153 139.445C352.276 144.45 349.207 149.374 345.646 153.92L345.819 154.067Z" fill="#37474F"/>
<path d="M355.198 139.734C356.864 139.352 358.314 138.476 359.713 137.565C360.404 137.094 361.085 136.606 361.727 136.07C362.395 135.563 363.007 134.996 363.63 134.436C366.067 132.148 368.267 129.622 370.308 126.984C371.324 125.662 372.307 124.315 373.293 122.966C374.216 121.581 375.135 120.184 375.898 118.704C377.44 115.753 378.762 112.688 379.702 109.469L379.499 109.368C378.45 110.687 377.516 112.053 376.623 113.436C375.712 114.81 374.798 116.172 373.936 117.562C373.073 118.952 372.185 120.317 371.401 121.754C370.577 123.162 369.728 124.559 368.834 125.925C367.019 128.636 365.045 131.243 362.829 133.632C362.275 134.228 361.726 134.834 361.123 135.38C360.545 135.957 359.928 136.486 359.298 137.002C358.027 137.994 356.676 138.987 355.156 139.512L355.198 139.734Z" fill="#37474F"/>
<path d="M362.975 125.627C360.803 120.574 359.305 115.249 358.171 109.887C357.028 104.524 356.214 99.0879 355.928 93.6221C355.629 88.1573 355.775 82.6937 356.059 77.2477C356.089 74.5122 356.41 71.8005 356.575 69.0599C356.632 67.6851 356.847 66.3318 356.982 64.9621C357.102 63.5884 357.264 62.2198 357.349 60.8291L357.127 60.7799C355.439 66.0596 354.251 71.539 353.794 77.0937C353.178 82.6456 353.609 88.2462 354.118 93.7715C354.638 99.3098 355.69 104.783 357.067 110.152C358.511 115.504 360.309 120.767 362.772 125.729L362.975 125.627Z" fill="#37474F"/>
<path d="M371.565 105.039C375.234 102.176 378.195 98.5112 380.721 94.6036C383.204 90.6546 385.137 86.3722 386.651 81.9455C387.315 79.7059 388.057 77.4764 388.51 75.1762C388.723 74.0261 389.058 72.8912 389.17 71.7247C389.308 70.5622 389.421 69.3956 389.528 68.2308C389.742 65.9 389.606 63.5528 389.579 61.2271C389.418 58.9009 389.073 56.5853 388.706 54.2987L388.479 54.314C388.231 56.6357 388.117 58.9297 387.981 61.2113C387.843 62.3506 387.751 63.4877 387.637 64.622C387.538 65.7568 387.479 66.8928 387.268 68.0129C386.933 70.2605 386.75 72.5228 386.303 74.7483C386.029 77.0095 385.439 79.201 384.914 81.4158C383.657 85.7802 381.983 90.0433 379.747 94.0223C377.534 97.9962 374.853 101.803 371.429 104.858L371.565 105.039Z" fill="#37474F"/>
<path d="M376.575 87.1187C376.386 82.5131 376.157 77.9098 375.859 73.3037C375.685 71.0018 375.497 68.7027 375.235 66.394C375.097 65.2484 374.957 64.0621 374.678 62.9035C374.416 61.7494 374.115 60.6378 373.814 59.5182C372.581 55.0615 371.453 50.5868 369.908 46.2455C368.424 41.893 366.644 37.6101 365.028 33.3334L364.802 33.3504C364.948 35.7259 365.484 37.9729 365.996 40.2301C366.518 42.4833 367.122 44.7105 367.743 46.9298C368.97 51.3729 370.66 55.6683 372.073 60.035C372.424 61.1234 372.778 62.2203 373.08 63.2991C373.395 64.3677 373.579 65.4669 373.773 66.5989C374.143 68.8527 374.443 71.1337 374.729 73.4147C375.328 77.9766 375.858 82.5539 376.348 87.1339L376.575 87.1187Z" fill="#37474F"/>
<path d="M351.111 146.72C350.752 144.219 350.508 141.703 350.393 139.187C350.236 136.675 350.198 134.16 350.275 131.655C350.323 129.146 350.689 126.666 350.73 124.174C350.745 121.67 350.888 119.187 350.708 116.582L350.485 116.539C349.431 118.918 348.791 121.443 348.466 123.994C348.271 125.268 348.255 126.556 348.256 127.841C348.33 129.126 348.354 130.408 348.458 131.686C348.61 134.242 348.877 136.785 349.263 139.307C349.686 141.823 350.171 144.325 350.89 146.771L351.111 146.72Z" fill="#37474F"/>
<path d="M367.682 129.161C369.038 126.23 370.171 123.208 371.151 120.118C371.623 118.571 372.274 117.044 372.381 115.396C372.502 113.764 372.483 112.073 371.912 110.435L371.685 110.429C371.003 111.995 370.554 113.485 370.143 115.01C369.721 116.522 369.66 118.12 369.385 119.686C369.123 121.254 368.809 122.819 368.472 124.381C368.17 125.954 367.811 127.516 367.467 129.086L367.682 129.161Z" fill="#37474F"/>
<path d="M355.071 93.3193C354.229 91.6383 353.404 89.9522 352.646 88.24C351.858 86.5448 351.111 84.8333 350.447 83.099C349.771 81.3676 349.321 79.5649 348.594 77.8935C347.874 76.2035 347.159 74.5541 346.328 72.7775L346.102 72.8007C345.689 74.7624 345.98 76.7514 346.442 78.6203C346.894 80.5147 347.923 82.1708 348.796 83.8569C349.687 85.5408 350.65 87.1748 351.649 88.7817C352.685 90.367 353.724 91.9428 354.88 93.4421L355.071 93.3193Z" fill="#37474F"/>
<path d="M357.761 110.263C359.074 107.274 360.104 104.173 360.95 101.002C361.353 99.4151 361.911 97.8274 361.931 96.1583C361.952 94.4988 361.809 92.7968 361.141 91.1854L360.914 91.1934C360.327 92.8189 359.989 94.3516 359.673 95.9093C359.331 97.4556 359.368 99.0636 359.166 100.655C358.97 102.245 358.723 103.835 358.435 105.421C358.183 107.016 357.864 108.602 357.545 110.192L357.761 110.263Z" fill="#37474F"/>
<path d="M349.704 136.914C348.525 134.897 347.571 132.777 346.739 130.667C346.321 129.605 346.183 128.461 345.665 127.469C345.147 126.463 344.665 125.46 343.828 124.431L343.604 124.469C343.208 125.728 343.253 127.004 343.514 128.197C343.752 129.41 344.488 130.432 345.104 131.46C345.714 132.497 346.389 133.488 347.127 134.425C347.885 135.348 348.652 136.252 349.528 137.059L349.704 136.914Z" fill="#37474F"/>
<path d="M374.943 69.0962C374.161 67.2799 373.314 65.4976 372.49 63.7017L369.882 58.383C368.99 56.6221 368.251 54.7645 367.093 53.1492C365.946 51.5349 364.695 49.949 363.045 48.6829L362.86 48.8147C363.467 50.7754 364.266 52.5549 365.145 54.3157C366.004 56.081 367.245 57.6274 368.305 59.2846L371.498 64.2547L374.744 69.2049L374.943 69.0962Z" fill="#37474F"/>
<path d="M387.525 75.1653C388.283 74.0503 388.972 72.8985 389.682 71.7546C390.374 70.6017 391.039 69.4335 391.671 68.246C392.305 67.0608 393.118 65.9418 393.469 64.6219C393.831 63.3144 394.101 61.9453 393.908 60.4737L393.691 60.4058C392.695 61.4795 391.999 62.6013 391.365 63.7684C390.718 64.9236 390.466 66.2525 390.013 67.5051C389.093 69.9995 388.215 72.5306 387.322 75.0635L387.525 75.1653Z" fill="#37474F"/>
<path d="M379.847 57.7156C380.998 55.7855 381.885 53.7168 382.668 51.6017C383.407 49.4724 383.976 47.2757 384.374 45.0355C384.598 43.9176 384.724 42.7834 384.878 41.644C384.952 40.5018 385.018 39.3466 384.844 38.205C384.758 37.6345 384.687 37.0651 384.586 36.5002C384.436 35.9404 384.309 35.3807 384.136 34.8316C383.849 33.724 383.305 32.6752 382.767 31.6705L382.548 31.7311C382.461 34.0438 382.657 36.1708 382.577 38.3369C382.535 40.4786 382.764 42.6351 382.571 44.8085C382.412 46.9757 382.083 49.1458 381.578 51.2841C381.104 53.4304 380.456 55.5512 379.646 57.6097L379.847 57.7156Z" fill="#37474F"/>
<path d="M132.763 154.649C132.659 148.843 131.934 143.077 131.006 137.354C130.064 131.63 128.826 125.954 127.358 120.338C126.64 117.525 125.788 114.75 124.968 111.964C124.06 109.208 123.213 106.428 122.205 103.705C120.325 98.2112 118.01 92.8382 115.454 87.61C112.875 82.3847 109.957 77.3332 106.833 72.4118C103.631 67.5419 100.193 62.8215 96.4266 58.3682C92.5976 53.9726 88.605 49.7101 84.2355 45.8438C79.8598 42.0216 75.192 38.3652 69.8263 36.0372L69.7312 36.2433C72.2341 37.6854 74.5886 39.3308 76.7768 41.2042C79.0028 43.0194 81.1157 44.9749 83.1545 47.0007C87.2319 51.0532 91.0819 55.3333 94.6771 59.8172L97.365 63.1866C98.257 64.3129 99.0857 65.4879 99.9488 66.6363L101.247 68.3564L102.488 70.1184C103.309 71.2973 104.156 72.4593 104.956 73.6525C108.156 78.4261 111.16 83.339 113.833 88.4336C116.46 93.5525 118.84 98.7846 120.817 104.21C121.871 106.897 122.766 109.64 123.723 112.363C124.591 115.114 125.493 117.857 126.262 120.64C127.867 126.184 129.247 131.798 130.334 137.472C131.407 143.144 132.28 148.88 132.535 154.65L132.763 154.649Z" fill="#37474F"/>
<path d="M130.558 137.662C131.575 136.288 132.106 134.68 132.574 133.078C132.793 132.27 132.992 131.456 133.131 130.632C133.308 129.811 133.404 128.983 133.512 128.153C133.873 124.83 133.9 121.48 133.734 118.148C133.645 116.484 133.514 114.82 133.385 113.155C133.185 111.503 132.974 109.844 132.59 108.224C131.84 104.978 130.85 101.792 129.469 98.7358L129.248 98.7913C129.31 100.475 129.49 102.12 129.711 103.752C129.914 105.387 130.106 107.016 130.356 108.633C130.606 110.249 130.82 111.865 131.159 113.465C131.449 115.07 131.714 116.684 131.924 118.302C132.31 121.542 132.508 124.807 132.38 128.062C132.347 128.875 132.325 129.693 132.222 130.499C132.158 131.314 132.035 132.116 131.892 132.918C131.572 134.499 131.193 136.131 130.38 137.519L130.558 137.662Z" fill="#37474F"/>
<path d="M127.283 121.891C122.345 119.467 117.744 116.399 113.392 113.065C109.035 109.737 104.879 106.14 101.105 102.175C97.322 98.2203 93.8773 93.977 90.5498 89.6567C88.7924 87.5602 87.2715 85.2922 85.6132 83.1041C84.7619 82.023 84.0442 80.8559 83.2552 79.7279C82.4526 78.6072 81.6851 77.4622 80.844 76.3506L80.6437 76.4576C82.7979 81.5646 85.4615 86.4984 88.729 91.0139C91.8743 95.6302 95.8453 99.6024 99.8282 103.467C103.826 107.333 108.188 110.805 112.727 113.984C117.306 117.109 122.096 119.935 127.195 122.1L127.283 121.891Z" fill="#37474F"/>
<path d="M120.407 100.668C121.33 96.1056 121.193 91.397 120.569 86.7858C119.884 82.1718 118.565 77.6619 116.834 73.3162C115.881 71.1829 114.992 69.0078 113.84 66.9662C113.253 65.9542 112.769 64.8743 112.095 63.916C111.443 62.9436 110.77 61.9848 110.094 61.03C108.739 59.1214 107.108 57.4274 105.574 55.679C103.938 54.0173 102.17 52.484 100.403 50.9863L100.24 51.1454C101.562 53.0698 102.968 54.8861 104.351 56.7063C104.987 57.6617 105.657 58.5849 106.308 59.5205C106.972 60.4459 107.666 61.3475 108.235 62.3352C109.443 64.2602 110.776 66.0963 111.886 68.0773C113.148 69.9722 114.128 72.02 115.169 74.044C117.054 78.1758 118.558 82.5023 119.449 86.9788C120.355 91.4361 120.797 96.0716 120.184 100.619L120.407 100.668Z" fill="#37474F"/>
<path d="M112.55 83.8015C109.41 80.427 106.241 77.0802 103.017 73.7776C101.386 72.143 99.7485 70.5191 98.0465 68.9366C97.1964 68.1567 96.3179 67.3467 95.3524 66.6488C94.402 65.943 93.4506 65.295 92.4935 64.6407C88.6571 62.0591 84.8887 59.3955 80.8911 57.1044C76.9319 54.7657 72.7933 52.6715 68.7832 50.476L68.6224 50.6367C70.2791 52.3449 72.1486 53.7022 74.0062 55.0832C75.8689 56.4546 77.7769 57.7525 79.6923 59.0339C83.5156 61.6086 87.5942 63.7702 91.5081 66.1672C92.4833 66.7649 93.4664 67.3671 94.3969 67.9903C95.332 68.5964 96.1872 69.3113 97.0707 70.0448C98.818 71.5159 100.53 73.0526 102.231 74.5983C105.654 77.6723 109.035 80.8028 112.388 83.9616L112.55 83.8015Z" fill="#37474F"/>
<path d="M132 145.626C130.1 143.961 128.278 142.21 126.553 140.374C124.8 138.569 123.134 136.683 121.562 134.732C119.966 132.794 118.63 130.674 117.04 128.755C115.422 126.844 113.914 124.865 112.083 123.004L111.885 123.117C112.633 125.61 113.79 127.944 115.203 130.092C115.884 131.186 116.71 132.175 117.547 133.149C118.439 134.077 119.292 135.035 120.202 135.937C121.981 137.78 123.84 139.537 125.774 141.201C127.732 142.836 129.729 144.421 131.866 145.81L132 145.626Z" fill="#37474F"/>
<path d="M133.157 121.51C132.279 118.402 131.173 115.371 129.906 112.387C129.258 110.904 128.758 109.321 127.768 108C126.798 106.682 125.683 105.41 124.183 104.538L124.007 104.682C124.508 106.315 125.136 107.738 125.817 109.163C126.481 110.586 127.473 111.839 128.285 113.208C129.106 114.569 129.886 115.961 130.647 117.367C131.44 118.757 132.185 120.177 132.945 121.593L133.157 121.51Z" fill="#37474F"/>
<path d="M100.257 102.503C98.5247 101.774 96.8007 101.03 95.1112 100.223C93.4098 99.449 91.7288 98.6357 90.0959 97.7504C88.455 96.876 86.9404 95.8 85.3007 95.0042C83.6548 94.1886 82.0383 93.4024 80.2514 92.5936L80.0952 92.7583C81.058 94.5169 82.5732 95.8379 84.1404 96.9564C85.7162 98.1008 87.5755 98.6883 89.3357 99.4003C91.1079 100.099 92.9021 100.713 94.7059 101.284C96.5251 101.813 98.3391 102.333 100.192 102.72L100.257 102.503Z" fill="#37474F"/>
<path d="M113.326 113.617C112.378 110.493 111.142 107.469 109.721 104.51C108.994 103.043 108.384 101.475 107.314 100.194C106.25 98.9199 105.034 97.7206 103.478 96.9321L103.311 97.0855C103.923 98.7015 104.664 100.085 105.438 101.474C106.185 102.871 107.259 104.067 108.142 105.407C109.027 106.742 109.874 108.111 110.688 109.502C111.534 110.877 112.324 112.289 113.117 113.704L113.326 113.617Z" fill="#37474F"/>
<path d="M124.551 139.096C122.343 138.332 120.239 137.343 118.235 136.282C117.226 135.747 116.376 134.968 115.337 134.553C114.289 134.126 113.271 133.678 111.966 133.442L111.82 133.616C112.339 134.83 113.203 135.769 114.178 136.506C115.148 137.271 116.372 137.568 117.509 137.948C118.647 138.339 119.805 138.652 120.975 138.882C122.151 139.09 123.321 139.278 124.512 139.32L124.551 139.096Z" fill="#37474F"/>
<path d="M99.5831 71.1784C97.807 70.3079 96.0049 69.5053 94.2101 68.6784L88.7691 66.3368C86.9455 65.5806 85.1761 64.6513 83.2455 64.1781C81.3245 63.6987 79.3424 63.3081 77.2652 63.4208L77.2108 63.6415C78.9473 64.735 80.7115 65.5665 82.525 66.3317C84.3266 67.1128 86.2742 67.4796 88.1584 68.0478L93.8167 69.7436L99.5022 71.3906L99.5831 71.1784Z" fill="#37474F"/>
<path d="M113.086 67.5985C112.937 66.2582 112.709 64.9361 112.505 63.6048C112.28 62.2792 112.025 60.9593 111.732 59.6462C111.443 58.3337 111.331 56.956 110.739 55.725C110.163 54.4962 109.477 53.2821 108.373 52.2899L108.164 52.3793C108.106 53.843 108.308 55.1476 108.585 56.4466C108.846 57.745 109.519 58.9178 109.99 60.1635C110.914 62.6562 111.895 65.1494 112.865 67.6534L113.086 67.5985Z" fill="#37474F"/>
<path d="M95.9014 59.3456C95.5193 57.1314 94.8463 54.9829 94.0653 52.8677C93.24 50.7701 92.2433 48.732 91.087 46.7719C90.53 45.7769 89.8882 44.8334 89.2633 43.8683C88.5762 42.9531 87.8743 42.0334 86.9993 41.2789C86.5624 40.9025 86.1379 40.5159 85.6941 40.1526C85.2164 39.8248 84.7551 39.483 84.2667 39.1785C83.3282 38.5242 82.2325 38.0821 81.1695 37.6689L81.0427 37.8574C82.4815 39.6703 84.0142 41.1578 85.363 42.8541C86.7248 44.5074 88.3022 45.9959 89.5695 47.772C90.8589 49.521 92.0214 51.3831 93.0295 53.3347C94.0664 55.2727 94.9544 57.3046 95.6789 59.3954L95.9014 59.3456Z" fill="#37474F"/>
<path d="M24.2661 104.736C23.1318 101.844 33.969 109.761 43.0516 112.139C57.4841 115.918 72.5912 122.211 78.7481 131.794C81.6681 136.34 76.2532 131.065 65.206 128.824C56.0736 126.972 34.3947 130.565 24.2661 104.736Z" fill="#455A64"/>
<path d="M24.2859 104.161C26.006 106.196 27.9309 108.037 30.0014 109.681C32.061 111.337 34.2611 112.807 36.5766 114.047C38.9 115.266 41.3202 116.304 43.8418 117C44.4683 117.186 45.1034 117.334 45.7384 117.494L47.6872 117.949C48.9861 118.255 50.2828 118.572 51.5773 118.904C56.7403 120.266 61.883 121.831 66.78 124.046C69.2252 125.153 71.6012 126.435 73.8132 127.965C76.0002 129.517 78.0576 131.306 79.6282 133.47C77.8267 131.503 75.7279 129.858 73.4566 128.512C71.2005 127.141 68.808 126.01 66.3686 125.002C63.9172 124.017 61.4257 123.128 58.8928 122.357C56.3662 121.568 53.813 120.851 51.2416 120.197C49.9591 119.858 48.6726 119.533 47.3821 119.218L45.4452 118.75C44.7909 118.579 44.1282 118.425 43.484 118.213C40.8912 117.419 38.3968 116.32 36.0683 114.956C31.4158 112.226 27.3321 108.543 24.2859 104.161Z" fill="white"/>
<path d="M32.528 41.3299C37.4256 39.1672 46.0985 69.0469 44.9857 69.5387C43.8724 70.03 26.9631 43.788 32.528 41.3299Z" fill="#FFC727"/>
<path d="M43.445 33.5796C48.7932 33.3339 46.0747 64.3281 44.8589 64.3841C43.6437 64.4396 37.3673 33.8586 43.445 33.5796Z" fill="#FFC727"/>
<path d="M56.1314 35.2857C61.184 37.0572 47.0742 64.7873 45.9264 64.3849C44.778 63.9819 50.391 33.2718 56.1314 35.2857Z" fill="#FFC727"/>
<path d="M62.7202 46.5313C66.9154 49.8583 44.5142 71.4495 43.5605 70.6939C42.6068 69.9377 57.9527 42.7516 62.7202 46.5313Z" fill="#FFC727"/>
<path d="M39.5232 62.4015C39.2079 61.5933 42.5123 59.3157 45.9773 59.5517C49.4424 59.7872 52.2814 63.1124 51.8722 63.7022C48.4711 68.6077 45.2834 78.189 44.1491 78.2484C42.2751 78.3458 42.3306 69.5875 39.5232 62.4015Z" fill="#455A64"/>
<path d="M72.9908 73.3151C69.4516 71.4541 61.4665 93.2768 62.2708 93.7001C63.0756 94.1224 77.0128 75.4297 72.9908 73.3151Z" fill="#FFC727"/>
<path d="M65.2509 66.9833C61.2781 66.5282 61.7247 89.7614 62.6275 89.865C63.5308 89.9685 69.7653 67.5006 65.2509 66.9833Z" fill="#FFC727"/>
<path d="M55.7108 67.6081C51.8558 68.6711 60.9565 90.0529 61.8321 89.8106C62.7089 89.5695 60.0911 66.4003 55.7108 67.6081Z" fill="#FFC727"/>
<path d="M50.2286 75.6527C46.9327 77.9178 62.5255 95.148 63.2743 94.6335C64.0231 94.1184 53.9732 73.0785 50.2286 75.6527Z" fill="#FFC727"/>
<path d="M66.7049 88.6599C66.9817 88.0735 64.635 86.208 62.041 86.2074C59.4471 86.2068 57.1621 88.5399 57.4372 89.0006C59.7221 92.829 61.6092 100.131 62.4514 100.233C63.8421 100.4 64.2467 93.871 66.7049 88.6599Z" fill="#455A64"/>
<path d="M44.5216 72.8934C44.0535 77.3156 44.0767 81.7774 44.7135 86.1373C45.0327 88.3124 45.4436 90.4762 46.1115 92.5585C46.4002 93.6136 46.8111 94.6239 47.1903 95.6432C47.3612 96.1611 47.6363 96.6332 47.8536 97.1301C48.0959 97.6152 48.2895 98.1251 48.5702 98.5881C50.5857 102.423 53.6353 105.59 56.9085 108.519C60.1794 111.46 63.6756 114.207 67.0693 117.124C70.4382 120.062 73.7402 123.171 76.5153 126.782C77.8924 128.59 79.1325 130.517 80.1541 132.564C80.4105 133.075 80.6364 133.601 80.878 134.119C81.0999 134.646 81.3037 135.181 81.512 135.714L82.0423 137.347L82.4815 138.973C83.6475 143.308 84.4665 147.741 84.7857 152.212C84.9538 154.446 84.9776 156.689 84.8966 158.921C84.8123 161.153 84.6057 163.388 84.1167 165.562C84.6023 161.14 84.4042 156.685 83.8088 152.311C83.6843 151.215 83.4828 150.127 83.3181 149.037C83.0962 147.956 82.9258 146.866 82.6621 145.795C82.4085 144.722 82.1844 143.643 81.8833 142.583L81.4599 140.986L80.9788 139.405C80.3749 137.266 79.604 135.288 78.5914 133.363C77.5851 131.451 76.3704 129.647 75.0177 127.947C72.3218 124.531 69.1075 121.516 65.7596 118.639C62.4338 115.729 58.9337 112.972 55.6327 109.916C53.9902 108.382 52.3941 106.775 50.9333 105.029C50.5642 104.596 50.2218 104.138 49.8663 103.692C49.5381 103.223 49.1837 102.775 48.8798 102.287C48.2295 101.337 47.7387 100.301 47.1858 99.3019C46.9084 98.8027 46.7216 98.261 46.4856 97.7431C46.2751 97.2139 46.0068 96.7079 45.846 96.1617C45.4849 95.0846 45.0938 94.0177 44.8527 92.91C44.2709 90.7219 43.9465 88.4816 43.7434 86.2459C43.5464 84.0057 43.5673 81.7587 43.6766 79.5275C43.7954 77.2958 44.0467 75.0703 44.5216 72.8934Z" fill="#455A64"/>
<path d="M61.2786 91.859C61.878 94.5752 62.4701 97.2502 63.0966 99.9092C63.4294 101.234 63.7221 102.564 64.0968 103.872C64.4296 105.191 64.8088 106.494 65.1971 107.793C66.0019 110.381 66.8747 112.937 67.9042 115.443C68.9842 117.926 70.2096 120.331 71.6529 122.72C69.5683 120.869 67.881 118.571 66.4983 116.127C65.1631 113.656 64.0985 111.046 63.28 108.371C62.5012 105.685 61.908 102.951 61.5639 100.188C61.2181 97.4279 61.0506 94.6386 61.2786 91.859Z" fill="#455A64"/>
<path d="M393.728 77.4475C389.648 73.9813 372.837 100.163 373.765 100.95C374.693 101.738 398.365 81.3863 393.728 77.4475Z" fill="#FFC727"/>
<path d="M385.465 66.9131C380.407 65.1574 374.202 95.645 375.351 96.044C376.501 96.443 391.213 68.9083 385.465 66.9131Z" fill="#FFC727"/>
<path d="M372.817 64.9417C367.47 65.2038 373.113 95.8006 374.328 95.7412C375.544 95.6817 378.894 64.6434 372.817 64.9417Z" fill="#FFC727"/>
<path d="M363.304 73.8506C358.335 75.8474 373.674 102.917 374.802 102.463C375.932 102.009 368.949 71.5815 363.304 73.8506Z" fill="#FFC727"/>
<path d="M381.03 95.6607C381.562 94.9753 379.042 91.8527 375.653 91.0937C372.264 90.3347 368.596 92.7153 368.821 93.3973C370.687 99.0675 371.019 109.16 372.09 109.539C373.859 110.164 376.296 101.751 381.03 95.6607Z" fill="#455A64"/>
<path d="M379.919 107.968C383.583 109.571 371.52 129.433 370.687 129.069C369.855 128.704 375.756 106.147 379.919 107.968Z" fill="#FFC727"/>
<path d="M389.697 110.062C392.533 112.881 374.105 127.037 373.46 126.396C372.816 125.756 386.475 106.858 389.697 110.062Z" fill="#FFC727"/>
<path d="M395.166 117.905C396.742 121.58 374.357 127.819 373.999 126.984C373.641 126.148 393.374 113.729 395.166 117.905Z" fill="#FFC727"/>
<path d="M392.304 127.209C392.592 131.198 369.398 129.774 369.332 128.867C369.267 127.961 391.977 122.677 392.304 127.209Z" fill="#FFC727"/>
<path d="M371.856 122.459C372.142 121.877 375.064 122.546 376.684 124.572C378.304 126.597 377.907 129.839 377.376 129.912C372.959 130.517 366.076 133.602 365.471 133.007C364.472 132.025 369.32 127.633 371.856 122.459Z" fill="#455A64"/>
<path d="M373.256 104.299C372.447 108.671 371.157 112.943 369.307 116.941C368.383 118.936 367.373 120.894 366.142 122.7C365.565 123.629 364.884 124.481 364.23 125.35C363.919 125.798 363.521 126.173 363.171 126.587C362.801 126.983 362.47 127.417 362.07 127.781C359.047 130.885 355.223 133.054 351.252 134.932C347.28 136.821 343.147 138.462 339.065 140.292C335 142.152 330.949 144.194 327.262 146.866C325.429 148.207 323.691 149.703 322.13 151.375C321.739 151.791 321.373 152.232 320.994 152.659C320.631 153.102 320.284 153.557 319.933 154.008L318.96 155.423L318.077 156.857C315.727 160.681 313.681 164.699 312.104 168.894C311.307 170.989 310.647 173.132 310.09 175.296C309.536 177.46 309.099 179.661 308.949 181.885C309.741 177.507 311.198 173.292 313.012 169.268C313.444 168.252 313.946 167.267 314.414 166.269C314.934 165.295 315.407 164.299 315.964 163.347C316.513 162.39 317.034 161.42 317.625 160.488L318.484 159.078L319.395 157.699C320.582 155.82 321.884 154.142 323.402 152.585C324.91 151.038 326.588 149.654 328.368 148.408C331.923 145.9 335.862 143.923 339.89 142.117C343.906 140.272 348.045 138.624 352.079 136.634C354.09 135.629 356.077 134.543 357.974 133.285C358.451 132.974 358.909 132.632 359.377 132.306C359.824 131.949 360.292 131.62 360.722 131.239C361.616 130.513 362.38 129.659 363.195 128.859C363.602 128.459 363.936 127.993 364.309 127.563C364.661 127.116 365.063 126.707 365.372 126.229C366.024 125.299 366.703 124.388 367.249 123.394C368.429 121.462 369.377 119.406 370.208 117.321C371.033 115.229 371.652 113.069 372.182 110.898C372.7 108.725 373.092 106.52 373.256 104.299Z" fill="#455A64"/>
<path d="M372.745 128.695C370.249 129.922 367.79 131.13 365.321 132.301C364.079 132.868 362.856 133.47 361.601 133.994C360.363 134.557 359.109 135.074 357.851 135.581C355.327 136.568 352.785 137.482 350.185 138.243C347.572 138.949 344.928 139.494 342.16 139.857C344.907 140.33 347.755 140.213 350.528 139.768C353.292 139.268 355.996 138.471 358.597 137.44C361.181 136.371 363.687 135.128 366.06 133.671C368.432 132.219 370.716 130.608 372.745 128.695Z" fill="#455A64"/>
<path d="M85.3478 131.839C86.3343 134.559 86.1328 137.913 86.0117 140.749C85.8764 144.002 85.4627 147.226 84.8802 150.426C84.342 153.406 83.6566 156.356 82.9196 159.286C82.9117 159.313 82.9032 159.341 82.8953 159.368C82.8489 159.563 82.7996 159.755 82.7498 159.946C82.7227 160.183 82.6915 160.424 82.6502 160.668C82.6366 160.739 82.5829 160.782 82.524 160.79C82.4442 160.803 82.3632 160.759 82.374 160.656C82.3865 160.525 82.4023 160.391 82.4114 160.263C82.8879 154.761 79.7149 149.739 79.5225 144.288C79.4183 141.301 80.1366 138.308 80.693 135.391C81.0003 133.776 81.079 131.682 81.7072 130.164C81.8731 129.759 81.9121 129.325 82.3638 129.11C83.7573 128.453 85.0048 130.887 85.3478 131.839Z" fill="#263238"/>
<path d="M84.0442 133.878C83.1793 133.167 82.6705 135.139 82.5018 135.678C81.3687 139.31 80.7353 143.638 81.384 147.398C82.0892 151.53 82.8391 155.668 82.5329 159.854C82.4928 159.99 82.452 160.126 82.4118 160.263C82.4028 160.39 82.3869 160.524 82.3745 160.655C82.3631 160.758 82.4441 160.803 82.5244 160.789C82.5386 160.703 82.5522 160.625 82.5624 160.542C82.6829 160.153 82.7927 159.76 82.8957 159.367C82.9037 159.34 82.9122 159.313 82.9201 159.285C83.6406 156.483 83.9666 153.545 84.3674 150.71C84.9322 146.698 85.3375 142.627 85.012 138.577C84.9362 137.599 84.8224 136.623 84.6458 135.658C84.5592 135.174 84.4687 134.224 84.0442 133.878ZM84.5309 136.328C84.6877 137.351 84.789 138.378 84.8451 139.414C85.0392 142.975 84.7036 146.544 84.2247 150.073C83.8161 153.087 83.4821 156.224 82.7084 159.208C82.9031 156.828 82.7424 154.437 82.405 152.055C82.1565 150.268 81.7819 148.511 81.5158 146.726C81.2113 144.713 81.4304 142.728 81.7304 140.722C82.002 138.888 82.2494 136.898 82.9348 135.161C83.0746 134.808 83.4765 134.023 83.7827 134.077C84.3255 134.173 84.4721 135.924 84.5309 136.328Z" fill="#455A64"/>
<path d="M60.6394 173.863C60.6476 173.856 60.6357 173.844 60.6282 173.851Z" fill="#263238"/>
<path d="M82.6689 211.869C82.7362 211.913 82.751 211.972 82.7311 212.03V212.037C82.7187 212.089 82.6751 212.135 82.6196 212.146C82.5845 212.152 82.5432 212.15 82.5059 212.131C79.1399 210.429 75.9239 207.721 72.0236 207.523C68.9723 207.363 66.35 207.741 63.4521 206.491C60.5338 205.233 57.8419 203.269 55.699 200.928C54.7119 199.853 53.8289 198.675 53.0558 197.436C52.6873 196.839 51.4823 195.354 51.6532 194.587C52.4383 191.009 63.0564 197.374 64.468 198.233C70.7133 202.031 77.07 206.304 82.2795 211.465C82.2959 211.483 82.3021 211.504 82.2942 211.524C82.2897 211.549 82.2783 211.573 82.2568 211.585C82.3932 211.677 82.5313 211.769 82.6689 211.869Z" fill="#263238"/>
<path d="M82.6688 211.869C82.5313 211.77 82.3937 211.677 82.2556 211.585C82.2771 211.572 82.2884 211.548 82.293 211.524C78.8415 208.906 75.1795 206.528 71.5027 204.243C67.5532 201.79 63.5097 199.278 59.2647 197.363C58.6851 197.099 56.2717 195.655 55.7657 196.591C55.2784 197.489 57.7705 199.67 58.3031 200.148C61.4523 202.964 65.562 204.256 69.5348 205.421C72.1152 206.18 74.6486 206.904 76.9584 208.329C78.8981 209.524 80.6935 210.938 82.619 212.147C82.6745 212.136 82.718 212.089 82.7305 212.038C81.7445 211.412 80.7925 210.721 79.8433 210.042C80.8072 210.701 81.7706 211.368 82.7305 212.031C82.7503 211.973 82.7356 211.913 82.6688 211.869ZM73.9682 206.553C70.103 205.044 65.9565 204.383 62.2328 202.479C60.4499 201.57 58.7717 200.406 57.4252 198.912C57.1643 198.628 55.9066 197.365 56.1913 196.862C56.3815 196.525 57.3861 196.833 57.5322 196.892C58.6347 197.298 59.6988 197.793 60.7437 198.324C64.383 200.18 67.9154 202.279 71.3833 204.431C73.3094 205.626 75.1948 206.871 77.066 208.143C76.0868 207.531 75.0629 206.979 73.9682 206.553Z" fill="#455A64"/>
<path d="M67.3103 137.794C67.7292 141.023 67.0777 144.392 66.1987 147.499C64.1577 154.684 60.2167 161.359 58.9675 168.77C58.9171 169.062 58.8735 169.354 58.8333 169.643C58.9001 170.026 58.8486 169.933 58.7264 169.482C58.7264 169.482 58.7196 169.482 58.723 169.478C58.1813 167.51 56.309 158.821 57.1653 152.585C57.7042 148.696 59.0428 145.02 60.3882 141.352C61.1579 139.26 61.9079 137.159 62.6912 135.074C62.9448 134.404 63.2991 132.494 64.3111 132.347C66.2695 132.054 67.1434 136.529 67.3103 137.794Z" fill="#263238"/>
<path d="M63.9133 138.441C63.5578 138.263 63.2867 138.386 63.0428 138.67C62.7694 139.001 62.7179 139.558 62.6188 139.941C62.4202 140.706 62.2221 141.465 62.0268 142.227C60.6656 147.488 58.8368 152.86 58.3286 158.292C57.9918 161.889 58.1825 165.533 58.7168 169.126C58.7185 169.244 58.7208 169.361 58.7225 169.479C58.7191 169.482 58.7259 169.482 58.7259 169.482C58.8481 169.934 58.8997 170.025 58.8329 169.643C58.8731 169.354 58.9166 169.062 58.967 168.77C58.967 168.366 58.9806 167.962 59.0049 167.556C59.1764 164.747 59.979 162.054 60.8422 159.392C62.4745 154.333 63.9212 149.179 64.5512 143.887C64.6836 142.718 64.8047 141.5 64.6717 140.323C64.6129 139.787 64.4815 138.728 63.9133 138.441ZM64.387 140.14C64.4346 140.409 64.4549 140.655 64.464 140.924C64.4917 141.482 64.4612 142.047 64.4232 142.606C64.3276 143.96 64.1153 145.296 63.8822 146.63C63.0433 151.398 61.6357 155.951 60.202 160.563C59.4934 162.838 58.9042 165.156 58.757 167.544C58.5589 165.545 58.4508 163.543 58.4559 161.549C58.474 156.421 59.9043 151.568 61.1682 146.642C61.4829 145.425 61.7976 144.202 62.1117 142.985C62.2657 142.373 62.423 141.764 62.5804 141.156L62.813 140.24C62.9669 139.628 62.8775 139.371 63.5595 139.183C64.4029 138.952 64.2721 139.431 64.387 140.14Z" fill="#455A64"/>
<path d="M72.4254 167.834C73.314 170.221 73.9683 172.697 74.3877 175.206C75.2248 180.248 74.4505 186.076 75.775 191.097C75.8927 191.424 75.9991 191.761 76.0902 192.098C76.1287 192.224 76.1598 192.349 76.191 192.475C76.2063 192.545 76.0987 192.58 76.0687 192.517C75.9646 192.304 75.8604 192.091 75.7489 191.879C75.7455 191.875 75.7495 191.871 75.7455 191.867C75.6918 191.755 75.6306 191.643 75.5774 191.531C73.0785 186.641 69.871 182.172 68.8081 176.678C68.1515 173.3 67.1055 163.985 69.335 163.276C70.3278 162.962 71.8809 166.385 72.4254 167.834Z" fill="#263238"/>
<path d="M70.3984 168.328C69.8652 168.58 69.885 169.622 69.8522 170.059C69.7673 171.188 69.8709 172.402 69.9762 173.532C70.1697 175.681 70.6497 177.791 71.2338 179.863C72.3511 183.82 73.7446 187.818 75.5779 191.532C75.6316 191.644 75.6922 191.756 75.746 191.868C75.7494 191.872 75.746 191.876 75.7494 191.88C75.8609 192.092 75.965 192.305 76.0691 192.518C76.0991 192.581 76.2067 192.546 76.1914 192.476C76.1603 192.35 76.1291 192.224 76.0907 192.099C74.4476 187.79 73.7599 183.263 73.1876 178.679C73.0631 177.649 72.2294 167.46 70.3984 168.328ZM72.0636 172.462C72.2237 173.422 72.3579 174.385 72.4847 175.355C72.7869 177.608 73.0411 179.87 73.3693 182.12C73.7293 184.565 74.1906 187.021 74.9009 189.397C73.7672 186.674 72.7003 183.932 71.8423 181.089C71.2859 179.224 70.7816 177.339 70.4618 175.418C70.2909 174.377 70.1709 173.323 70.1397 172.266C70.1177 171.761 69.9048 168.843 70.5082 168.593C71.2593 168.284 71.9973 172.046 72.0636 172.462Z" fill="#455A64"/>
<path d="M93.7302 157.885C94.9618 159.399 94.3805 162.419 93.7144 164.012C92.7601 166.293 91.0179 168.078 89.1049 169.59C86.3292 171.787 83.2298 173.48 80.8922 176.19C78.5693 178.873 79.3193 178.065 77.6937 181.507C77.6632 181.575 77.5975 181.575 77.5449 181.517C77.4651 181.438 77.4011 181.245 77.4441 180.967C77.4453 180.94 77.4538 180.906 77.4583 180.874C78.9537 175.218 81.8567 170.763 85.7049 166.348C87.8885 163.846 89.2056 160.674 91.4787 158.262C92.3214 157.368 92.8829 156.84 93.7302 157.885Z" fill="#263238"/>
<path d="M92.4251 160.86C91.592 160.465 90.5454 162.156 90.1181 162.766C88.8848 164.535 87.6798 166.298 86.1425 167.822C84.7864 169.161 83.4308 170.465 82.2609 171.97C80.4768 174.265 79.0505 176.827 78.0464 179.545C77.8229 180.002 77.6231 180.478 77.4431 180.968C77.4001 181.246 77.4646 181.439 77.5438 181.518C77.5636 181.453 77.5835 181.395 77.6038 181.331C78.9611 177.697 81.2715 174.906 84.4604 172.489C87.6317 170.087 90.6173 167.418 92.3119 163.734C92.6142 163.08 93.1937 161.228 92.4251 160.86ZM92.2915 163.263C92.0193 163.898 91.7023 164.514 91.3486 165.11C90.705 166.185 89.9432 167.19 89.1089 168.122C87.6181 169.776 85.8776 171.122 84.11 172.46C82.0311 174.044 80.2176 175.882 78.8824 178.023C79.9131 175.731 81.2155 173.561 82.8161 171.593C84.2453 169.843 85.9925 168.425 87.4613 166.724C88.1377 165.938 88.7371 165.096 89.3359 164.254C89.6562 163.794 89.9766 163.334 90.2964 162.881C90.5799 162.475 91.4878 161.032 92.0946 161.15C92.8796 161.298 92.4025 163.009 92.2915 163.263Z" fill="#455A64"/>
<path d="M41.9021 143.604C46.9038 149.254 51.5547 155.192 55.9808 161.298C56.0396 161.376 56.0323 161.469 55.9847 161.533C55.9808 161.549 55.9729 161.563 55.9621 161.573C55.9915 161.612 56.021 161.652 56.0436 161.69C56.0725 161.737 56.0538 161.781 56.0181 161.807C56.0074 161.81 56.0006 161.817 55.9898 161.819C55.9859 161.823 55.9791 161.822 55.9791 161.822C55.9513 161.828 55.9168 161.819 55.8902 161.798C52.7721 158.742 49.8391 155.879 45.9128 153.856C42.3215 152.01 38.7823 150.473 35.6631 147.848C33.0012 145.599 25.449 134.508 26.6784 131.862C27.507 130.079 37.9186 139.114 41.9021 143.604Z" fill="#263238"/>
<path d="M35.7072 139.833C35.0563 139.204 33.141 136.72 31.9201 137.224C30.6959 137.732 32.6452 140.238 33.0063 140.768C34.3437 142.708 35.7587 144.618 37.4545 146.27C39.1434 147.914 41.1465 149.005 43.0958 150.291C47.8921 153.464 52.1229 157.587 55.9791 161.823C55.9791 161.823 55.9859 161.823 55.9898 161.821C56.0006 161.818 56.0074 161.811 56.0181 161.808C56.0538 161.782 56.073 161.738 56.0436 161.691C56.021 161.652 55.9915 161.613 55.9621 161.574C55.9729 161.564 55.9802 161.551 55.9847 161.534C49.9467 153.679 42.7919 146.718 35.7072 139.833ZM55.5597 161.286C52.9346 158.341 50.0746 155.537 47.0482 153.006C43.5209 150.053 39.2617 148.15 36.211 144.64C34.758 142.971 33.1902 141.083 32.2105 139.092C32.0769 138.824 31.5794 137.922 31.9162 137.566C32.2133 137.247 33.0742 137.643 34.1519 138.629C35.0433 139.448 35.8906 140.32 36.7566 141.169C40.1673 144.5 43.5599 147.849 46.837 151.317C49.8719 154.529 52.7784 157.853 55.5597 161.286Z" fill="#455A64"/>
<path d="M62.715 185.006C62.7207 185.033 62.7127 185.06 62.698 185.088C62.6709 185.152 62.6069 185.198 62.5316 185.174C62.3748 185.119 62.2141 185.073 62.0545 185.022C62.0437 185.032 62.033 185.035 62.012 185.034C58.4338 184.574 55.5296 185.179 52.0878 186.059C49.5266 186.714 46.9123 186.675 44.3472 186.047C41.563 185.368 38.9509 184.054 36.542 182.521C35.5595 181.891 32.4159 180.482 32.9287 178.759C33.772 175.923 43.3086 179.616 44.9585 180.149C47.9107 181.104 50.8392 181.955 53.8905 182.541C56.8795 183.118 59.872 183.611 62.6539 184.909C62.6975 184.929 62.7167 184.964 62.715 185.006Z" fill="#263238"/>
<path d="M60.8189 184.572C60.8155 184.569 60.8189 184.565 60.8189 184.565C59.0903 184.17 57.3685 183.703 55.6258 183.401C53.6743 183.058 51.678 183.101 49.719 182.765C46.0519 182.128 42.5625 180.797 38.9373 179.99C38.4647 179.887 37.5325 179.702 37.7815 180.508C37.884 180.857 38.3906 181.142 38.6554 181.33C39.4569 181.906 40.3206 182.399 41.2109 182.828C44.2322 184.27 47.7363 185.321 51.1125 185.172C55.0253 184.993 58.8305 184.256 62.6969 185.088C62.7116 185.061 62.7201 185.034 62.7138 185.006C62.0946 184.806 61.4573 184.668 60.8189 184.572ZM52.3453 184.809C48.1184 185.143 43.7138 184.044 40.0376 181.91C39.6901 181.705 38.7766 181.121 38.4602 180.856C38.1574 180.603 37.7215 180.063 38.8734 180.208C39.145 180.242 39.4071 180.335 39.6737 180.401C40.6104 180.635 41.5398 180.895 42.4714 181.16C44.4552 181.725 46.4345 182.321 48.4552 182.745C50.2567 183.126 52.0544 183.279 53.8882 183.391C56.1013 183.527 58.2702 184.048 60.4346 184.514C57.7664 184.186 55.0083 184.598 52.3453 184.809Z" fill="#455A64"/>
<path d="M52.4046 177.251C52.4205 177.304 52.4228 177.362 52.4075 177.417C52.4035 177.448 52.3922 177.472 52.378 177.499C52.3633 177.533 52.3384 177.564 52.3141 177.588C52.3067 177.601 52.2999 177.608 52.2892 177.611C52.2258 177.658 52.1392 177.68 52.0367 177.636C51.499 177.441 50.993 177.208 50.5125 176.945C44.5865 174.685 38.5144 172.3 33.6927 168.113C31.2311 165.974 29.099 163.486 27.2471 160.805C26.3381 159.493 23.8392 156.734 24.6655 154.892C25.467 153.1 27.1118 154.237 28.2206 154.987C31.0942 156.922 33.9066 158.976 36.5204 161.253C39.1206 163.517 41.4254 166.022 43.4613 168.798C45.8855 172.107 48.21 175.538 52.2094 177.04C52.3226 177.08 52.3826 177.157 52.4046 177.251Z" fill="#263238"/>
<path d="M41.4599 168.872C38.133 165.325 34.4325 162.086 30.6273 159.062C30.1354 158.668 28.7085 157.654 28.4855 158.792C28.2269 160.133 30.2073 161.712 30.9623 162.51C33.8388 165.536 36.898 168.408 40.2351 170.926C43.9554 173.741 47.9678 176.012 52.3787 177.499C52.3934 177.472 52.4041 177.447 52.4081 177.417C45.234 174.754 39.0109 170.09 33.5829 164.774C32.276 163.49 30.9522 162.195 29.7545 160.807C29.5626 160.585 28.4646 159.088 28.8919 158.68C29.266 158.323 30.8129 159.547 30.9957 159.703C31.86 160.417 32.7209 161.134 33.5812 161.858C36.8131 164.599 39.7886 167.517 42.7085 170.582C45.521 173.528 48.6798 175.825 52.4081 177.416C52.4234 177.361 52.4211 177.302 52.4053 177.25C48.0595 175.338 44.7026 172.325 41.4599 168.872Z" fill="#455A64"/>
<path d="M41.5088 115.612C43.5039 118.347 45.2404 121.221 46.1896 124.492C47.6352 129.496 47.5503 134.731 48.2685 139.853C48.2674 139.874 48.2736 139.895 48.2764 139.912C48.4694 141.3 48.7253 142.682 49.0886 144.046C49.1628 144.336 49.2437 144.626 49.3315 144.917C49.3524 144.991 49.3394 145.056 49.3032 145.095C49.2709 145.125 49.2318 145.147 49.1866 145.156C49.1481 145.164 49.1034 145.166 49.0626 145.151L49.0592 145.147C49.0015 145.128 48.9477 145.084 48.92 145.01C48.7751 144.599 48.6477 144.186 48.5238 143.77C48.4966 143.762 48.4762 143.747 48.4604 143.715C45.4012 137.323 41.9304 130.864 38.4569 124.54C36.9208 121.742 35.4928 118.843 34.5062 115.798C33.9193 113.996 33.205 111.219 34.5204 109.553C34.6007 109.446 34.7264 109.344 34.8702 109.364C37.7624 109.857 39.9279 113.45 41.5088 115.612Z" fill="#263238"/>
<path d="M38.3154 116.018C36.9315 115.572 37.2139 117.208 37.4381 118.037C38.0324 120.229 39.0189 122.379 39.8792 124.493C40.8488 126.877 41.854 129.25 42.8937 131.602C44.8572 136.044 47.5995 140.467 49.053 145.125C49.0524 145.132 49.0592 145.139 49.0592 145.146L49.0626 145.15C49.1033 145.165 49.148 145.164 49.1865 145.155C49.2318 145.146 49.2709 145.124 49.3031 145.094C49.2318 144.742 49.1599 144.397 49.0886 144.045C48.8118 142.668 48.5458 141.288 48.2764 139.911C48.2736 139.894 48.2679 139.873 48.2685 139.852C46.9582 133.219 45.5172 126.647 42.0334 120.565C41.2195 119.152 40.0168 116.564 38.3154 116.018ZM42.454 121.817C44.5187 125.669 45.8998 129.765 46.854 133.966C47.6131 137.32 48.1281 140.718 48.8249 144.083C47.8621 141.381 46.4505 138.812 45.2353 136.196C43.3262 132.088 41.5201 127.933 39.8322 123.734C39.4225 122.725 39.0234 121.713 38.6312 120.694C38.2825 119.795 37.5371 118.391 37.5343 117.405C37.5258 115.497 39.1191 116.792 39.6375 117.357C40.0898 117.85 40.4458 118.425 40.8018 118.986C41.391 119.909 41.9417 120.855 42.454 121.817Z" fill="#455A64"/>
<path d="M83.7839 150.096C82.91 156.382 81.7106 162.447 80.0019 168.561C78.4476 174.123 76.8311 179.686 76.0755 185.426C75.072 193.05 75.7608 201.404 79.6458 208.034C73.1527 200.514 68.0689 191.812 64.3401 182.447C58.0779 166.722 52.4054 150.558 44.8029 135.408C44.6767 135.156 44.328 135.353 44.4225 135.603C47.5389 143.874 51.1981 151.942 54.387 160.189C57.5537 168.378 60.4918 176.672 63.8052 184.802C64.1635 185.682 64.537 186.551 64.9214 187.412C60.0668 181.396 52.9493 176.965 45.9638 174.395C45.8743 174.362 45.8375 174.497 45.9213 174.534C50.8851 176.719 55.412 179.817 59.391 183.487C62.8685 186.693 65.5145 190.408 68.3145 194.164C74.6441 205.428 83.4788 214.77 94.7422 221.744C94.8594 221.817 94.9697 221.64 94.8554 221.563C90.3749 218.551 86.3037 215.104 82.6321 211.302C76.3846 203.033 76.0914 191.993 77.9541 181.961C78.931 176.699 80.3234 171.535 81.5691 166.334C82.8324 161.061 84.2129 155.567 84.0805 150.108C84.0759 149.915 83.8099 149.907 83.7839 150.096Z" fill="#263238"/>
<path d="M344.512 51.6566L69.2645 68.589L79.9737 242.673L355.221 225.741L344.512 51.6566Z" fill="#FFC727"/>
<path d="M86.9269 234.817L77.1238 75.532L337.574 59.5023L337.591 59.7848L347.377 218.788L347.094 218.805L86.9269 234.817ZM77.7232 76.0623L87.4567 234.218L346.777 218.258L337.043 60.1023L77.7232 76.0623Z" fill="white"/>
<g opacity="0.1">
<path d="M77.9052 208.937L76.964 193.646L349.676 135.445L353.443 196.659L77.9052 208.937Z" fill="white"/>
<path d="M76.3177 183.138L75.4211 168.576L346.087 77.1316L348.57 117.476L76.3177 183.138Z" fill="white"/>
</g>
<path d="M349.138 126.349C355.807 135.38 371.526 145.453 374.091 153.393C376.406 160.563 370.812 164.334 370.812 164.334C370.812 164.334 379.715 166.796 380.854 174.386C381.44 178.292 375.715 182.658 375.715 182.658C375.715 182.658 382.764 184.943 383.36 191.754C383.836 197.181 378.029 200.745 378.029 200.745C378.029 200.745 383.769 206.088 382.48 211.772C379.866 223.299 333.968 232.263 323.576 216.741C318.732 209.506 330.062 207.925 330.062 207.925C330.062 207.925 313.22 206.264 311.131 196.849C309.04 187.434 323.885 186.269 323.885 186.269C323.885 186.269 307.578 184.516 306.396 174.536C305.166 164.147 320.214 165.524 320.214 165.524C320.214 165.524 308.656 160.598 309.501 152.75C310.895 139.792 338.126 151.798 347.745 147.435L349.138 126.349Z" fill="#D3766A"/>
<path d="M377.193 201.442C377.343 201.4 377.431 201.601 377.285 201.669C362.907 208.296 345.078 211.171 329.454 208.085C328.941 207.984 328.883 207.108 329.469 207.111C346.181 207.212 361.022 205.969 377.193 201.442Z" fill="#263238"/>
<path d="M375.958 182.712C376.132 182.662 376.217 182.952 376.039 183.033C361.187 189.781 341.016 192.466 323.425 186.788C322.822 186.594 322.476 185.815 323.187 185.986C335.171 188.874 361.42 186.861 375.958 182.712Z" fill="#263238"/>
<path d="M319.062 164.707C336.14 169.498 353.035 168.333 370.217 164.642C370.441 164.595 370.486 164.915 370.31 165.007C362.397 169.103 351.199 170.313 342.408 170.519C333.986 170.715 326.348 169.201 318.894 165.304C318.605 165.153 318.696 164.605 319.062 164.707Z" fill="#263238"/>
<path d="M73.8433 143.292C68.3316 153.072 53.966 164.998 52.3953 173.193C50.9764 180.592 56.9907 183.649 56.9907 183.649C56.9907 183.649 48.4571 187.184 48.2573 194.856C48.1543 198.804 54.3712 202.436 54.3712 202.436C54.3712 202.436 47.6562 205.567 47.899 212.401C48.0926 217.845 54.2925 220.67 54.2925 220.67C54.2925 220.67 49.2512 226.676 51.2277 232.159C55.2355 243.278 101.886 246.547 110.297 229.866C114.217 222.092 102.778 221.913 102.778 221.913C102.778 221.913 119.289 218.199 120.208 208.599C121.129 198.999 106.252 199.662 106.252 199.662C106.252 199.662 122.222 195.923 122.171 185.873C122.119 175.412 107.353 178.624 107.353 178.624C107.353 178.624 118.219 172.318 116.418 164.633C113.445 151.943 87.8926 167.199 77.8104 164.047L73.8433 143.292Z" fill="#D3766A"/>
<path d="M55.2082 221.259C55.0542 221.236 54.9909 221.447 55.1448 221.496C70.2276 226.309 88.2739 226.977 103.403 221.998C103.899 221.835 103.85 220.958 103.268 221.033C86.6936 223.183 71.8124 223.769 55.2082 221.259Z" fill="#263238"/>
<path d="M54.1371 202.518C53.9571 202.491 53.909 202.789 54.0952 202.847C69.6631 207.723 90.0102 207.914 106.773 200.122C107.347 199.856 107.595 199.04 106.91 199.297C95.3714 203.633 69.0733 204.854 54.1371 202.518Z" fill="#263238"/>
<path d="M108.396 177.672C92.0344 184.522 75.124 185.438 57.6188 183.881C57.3907 183.862 57.3856 184.186 57.5718 184.255C65.9271 187.35 77.1888 187.178 85.9392 186.304C94.3216 185.466 101.716 183.027 108.636 178.245C108.904 178.059 108.746 177.526 108.396 177.672Z" fill="#263238"/>
<path d="M92.7607 82.7764C91.9909 81.3551 91.9853 79.6102 92.7607 78.1901C93.5361 79.6102 93.531 81.3557 92.7607 82.7764ZM97.0696 84.5508C98.6063 84.0866 99.8278 82.8545 100.262 81.3076C98.7224 81.7666 97.5094 83.0067 97.0696 84.5508ZM98.8814 88.8993C100.278 89.6691 102.002 89.6742 103.397 88.8993C102.002 88.1239 100.278 88.1296 98.8814 88.8993ZM97.1347 93.2751C97.5745 94.8191 98.788 96.0592 100.328 96.5183C99.8929 94.9708 98.6714 93.7386 97.1347 93.2751ZM92.8529 95.1152C92.0832 96.5364 92.0775 98.2814 92.8529 99.7015C93.6284 98.2814 93.6227 96.5364 92.8529 95.1152ZM88.544 93.3413C87.0073 93.8054 85.7859 95.0376 85.3512 96.5845C86.8913 96.1249 88.1042 94.8848 88.544 93.3413ZM86.7328 88.9927C85.3365 88.223 83.6124 88.2179 82.2167 88.9927C83.6124 89.7676 85.3365 89.7625 86.7328 88.9927ZM88.4795 84.6164C88.0397 83.0724 86.8262 81.8323 85.2861 81.3732C85.7213 82.9207 86.9422 84.1529 88.4795 84.6164ZM116.103 202.767C115.333 201.346 115.327 199.601 116.103 198.181C116.878 199.6 116.872 201.346 116.103 202.767ZM120.411 204.541C121.948 204.077 123.169 202.845 123.604 201.298C122.064 201.757 120.851 202.997 120.411 204.541ZM122.223 208.89C123.619 209.659 125.343 209.664 126.738 208.89C125.343 208.115 123.619 208.12 122.223 208.89ZM120.476 213.265C120.916 214.809 122.129 216.049 123.669 216.508C123.234 214.962 122.013 213.73 120.476 213.265ZM116.194 215.105C115.424 216.527 115.419 218.272 116.194 219.692C116.97 218.272 116.964 216.527 116.194 215.105ZM111.886 213.332C110.349 213.796 109.128 215.028 108.693 216.575C110.233 216.116 111.446 214.876 111.886 213.332ZM110.074 208.983C108.678 208.213 106.954 208.208 105.558 208.983C106.954 209.758 108.678 209.753 110.074 208.983ZM111.821 204.607C111.381 203.063 110.167 201.823 108.627 201.364C109.063 202.911 110.284 204.143 111.821 204.607ZM305.023 193.507C305.792 192.086 305.798 190.341 305.023 188.921C304.247 190.341 304.253 192.087 305.023 193.507ZM309.331 195.282C310.868 194.818 312.089 193.586 312.524 192.039C310.984 192.498 309.771 193.738 309.331 195.282ZM311.143 199.63C312.539 200.4 314.263 200.405 315.658 199.63C314.263 198.855 312.539 198.861 311.143 199.63ZM309.396 204.006C309.836 205.55 311.049 206.79 312.589 207.249C312.154 205.702 310.933 204.47 309.396 204.006ZM305.114 205.846C304.344 207.267 304.339 209.012 305.114 210.433C305.89 209.012 305.884 207.267 305.114 205.846ZM300.806 204.072C299.269 204.537 298.048 205.769 297.613 207.316C299.153 206.856 300.366 205.616 300.806 204.072ZM298.994 199.724C297.598 198.954 295.874 198.948 294.479 199.724C295.874 200.499 297.598 200.493 298.994 199.724ZM300.741 195.348C300.301 193.803 299.088 192.564 297.547 192.105C297.983 193.652 299.204 194.884 300.741 195.348ZM313.918 81.1451C314.674 80.4473 314.679 79.3096 313.918 78.6134C313.158 79.3096 313.163 80.4473 313.918 81.1451ZM316.297 82.1243C317.32 82.1622 318.118 81.3591 318.059 80.3341C317.034 80.2922 316.244 81.1021 316.297 82.1243ZM317.297 84.5247C317.981 85.2798 319.107 85.2849 319.79 84.5247C319.107 83.7646 317.981 83.7697 317.297 84.5247ZM316.333 86.9404C316.279 87.9626 317.07 88.7726 318.095 88.7307C318.154 87.7057 317.356 86.9025 316.333 86.9404ZM313.969 87.9564C313.214 88.6543 313.209 89.7919 313.969 90.4881C314.73 89.7914 314.725 88.6537 313.969 87.9564ZM311.591 86.9772C310.568 86.9393 309.77 87.7424 309.828 88.7675C310.854 88.8093 311.644 87.9994 311.591 86.9772ZM310.59 84.5762C309.907 83.8212 308.78 83.8161 308.098 84.5762C308.781 85.3364 309.907 85.3318 310.59 84.5762ZM311.555 82.1606C311.608 81.1384 310.818 80.3284 309.792 80.3703C309.734 81.3953 310.532 82.1985 311.555 82.1606ZM148.451 167.238C149.206 166.54 149.211 165.402 148.451 164.706C147.69 165.402 147.695 166.54 148.451 167.238ZM150.829 168.217C151.852 168.255 152.65 167.452 152.592 166.427C151.566 166.385 150.776 167.195 150.829 168.217ZM151.829 170.617C152.513 171.372 153.639 171.377 154.322 170.617C153.639 169.858 152.513 169.862 151.829 170.617ZM150.865 173.034C150.811 174.056 151.602 174.866 152.628 174.824C152.685 173.799 151.888 172.996 150.865 173.034ZM148.501 174.049C147.746 174.747 147.741 175.884 148.501 176.581C149.262 175.884 149.257 174.747 148.501 174.049ZM146.123 173.07C145.1 173.032 144.302 173.836 144.361 174.86C145.386 174.902 146.176 174.092 146.123 173.07ZM145.123 170.669C144.439 169.914 143.313 169.909 142.63 170.669C143.313 171.43 144.439 171.424 145.123 170.669ZM146.087 168.254C146.141 167.231 145.35 166.422 144.324 166.463C144.266 167.488 145.064 168.292 146.087 168.254Z" fill="#FFC727"/>
<path opacity="0.8" d="M92.7607 82.7764C91.9909 81.3551 91.9853 79.6102 92.7607 78.1901C93.5361 79.6102 93.531 81.3557 92.7607 82.7764ZM97.0696 84.5508C98.6063 84.0866 99.8278 82.8545 100.262 81.3076C98.7224 81.7666 97.5094 83.0067 97.0696 84.5508ZM98.8814 88.8993C100.278 89.6691 102.002 89.6742 103.397 88.8993C102.002 88.1239 100.278 88.1296 98.8814 88.8993ZM97.1347 93.2751C97.5745 94.8191 98.788 96.0592 100.328 96.5183C99.8929 94.9708 98.6714 93.7386 97.1347 93.2751ZM92.8529 95.1152C92.0832 96.5364 92.0775 98.2814 92.8529 99.7015C93.6284 98.2814 93.6227 96.5364 92.8529 95.1152ZM88.544 93.3413C87.0073 93.8054 85.7859 95.0376 85.3512 96.5845C86.8913 96.1249 88.1042 94.8848 88.544 93.3413ZM86.7328 88.9927C85.3365 88.223 83.6124 88.2179 82.2167 88.9927C83.6124 89.7676 85.3365 89.7625 86.7328 88.9927ZM88.4795 84.6164C88.0397 83.0724 86.8262 81.8323 85.2861 81.3732C85.7213 82.9207 86.9422 84.1529 88.4795 84.6164ZM116.103 202.767C115.333 201.346 115.327 199.601 116.103 198.181C116.878 199.6 116.872 201.346 116.103 202.767ZM120.411 204.541C121.948 204.077 123.169 202.845 123.604 201.298C122.064 201.757 120.851 202.997 120.411 204.541ZM122.223 208.89C123.619 209.659 125.343 209.664 126.738 208.89C125.343 208.115 123.619 208.12 122.223 208.89ZM120.476 213.265C120.916 214.809 122.129 216.049 123.669 216.508C123.234 214.962 122.013 213.73 120.476 213.265ZM116.194 215.105C115.424 216.527 115.419 218.272 116.194 219.692C116.97 218.272 116.964 216.527 116.194 215.105ZM111.886 213.332C110.349 213.796 109.128 215.028 108.693 216.575C110.233 216.116 111.446 214.876 111.886 213.332ZM110.074 208.983C108.678 208.213 106.954 208.208 105.558 208.983C106.954 209.758 108.678 209.753 110.074 208.983ZM111.821 204.607C111.381 203.063 110.167 201.823 108.627 201.364C109.063 202.911 110.284 204.143 111.821 204.607ZM305.023 193.507C305.792 192.086 305.798 190.341 305.023 188.921C304.247 190.341 304.253 192.087 305.023 193.507ZM309.331 195.282C310.868 194.818 312.089 193.586 312.524 192.039C310.984 192.498 309.771 193.738 309.331 195.282ZM311.143 199.63C312.539 200.4 314.263 200.405 315.658 199.63C314.263 198.855 312.539 198.861 311.143 199.63ZM309.396 204.006C309.836 205.55 311.049 206.79 312.589 207.249C312.154 205.702 310.933 204.47 309.396 204.006ZM305.114 205.846C304.344 207.267 304.339 209.012 305.114 210.433C305.89 209.012 305.884 207.267 305.114 205.846ZM300.806 204.072C299.269 204.537 298.048 205.769 297.613 207.316C299.153 206.856 300.366 205.616 300.806 204.072ZM298.994 199.724C297.598 198.954 295.874 198.948 294.479 199.724C295.874 200.499 297.598 200.493 298.994 199.724ZM300.741 195.348C300.301 193.803 299.088 192.564 297.547 192.105C297.983 193.652 299.204 194.884 300.741 195.348ZM313.918 81.1451C314.674 80.4473 314.679 79.3096 313.918 78.6134C313.158 79.3096 313.163 80.4473 313.918 81.1451ZM316.297 82.1243C317.32 82.1622 318.118 81.3591 318.059 80.3341C317.034 80.2922 316.244 81.1021 316.297 82.1243ZM317.297 84.5247C317.981 85.2798 319.107 85.2849 319.79 84.5247C319.107 83.7646 317.981 83.7697 317.297 84.5247ZM316.333 86.9404C316.279 87.9626 317.07 88.7726 318.095 88.7307C318.154 87.7057 317.356 86.9025 316.333 86.9404ZM313.969 87.9564C313.214 88.6543 313.209 89.7919 313.969 90.4881C314.73 89.7914 314.725 88.6537 313.969 87.9564ZM311.591 86.9772C310.568 86.9393 309.77 87.7424 309.828 88.7675C310.854 88.8093 311.644 87.9994 311.591 86.9772ZM310.59 84.5762C309.907 83.8212 308.78 83.8161 308.098 84.5762C308.781 85.3364 309.907 85.3318 310.59 84.5762ZM311.555 82.1606C311.608 81.1384 310.818 80.3284 309.792 80.3703C309.734 81.3953 310.532 82.1985 311.555 82.1606ZM148.451 167.238C149.206 166.54 149.211 165.402 148.451 164.706C147.69 165.402 147.695 166.54 148.451 167.238ZM150.829 168.217C151.852 168.255 152.65 167.452 152.592 166.427C151.566 166.385 150.776 167.195 150.829 168.217ZM151.829 170.617C152.513 171.372 153.639 171.377 154.322 170.617C153.639 169.858 152.513 169.862 151.829 170.617ZM150.865 173.034C150.811 174.056 151.602 174.866 152.628 174.824C152.685 173.799 151.888 172.996 150.865 173.034ZM148.501 174.049C147.746 174.747 147.741 175.884 148.501 176.581C149.262 175.884 149.257 174.747 148.501 174.049ZM146.123 173.07C145.1 173.032 144.302 173.836 144.361 174.86C145.386 174.902 146.176 174.092 146.123 173.07ZM145.123 170.669C144.439 169.914 143.313 169.909 142.63 170.669C143.313 171.43 144.439 171.424 145.123 170.669ZM146.087 168.254C146.141 167.231 145.35 166.422 144.324 166.463C144.266 167.488 145.064 168.292 146.087 168.254Z" fill="white"/>
</svg>
