<svg width="191" height="105" viewBox="0 0 191 105" fill="none" xmlns="http://www.w3.org/2000/svg">
<path d="M0 25C0 13.9543 8.95431 5 20 5H160C171.046 5 180 13.9543 180 25V85C180 96.0457 171.046 105 160 105H20C8.95431 105 0 96.0457 0 85V25Z" fill="#FFC727"/>
<path d="M1.64684 97L1 87.6374L188.411 52L191 89.4825L1.64684 97Z" fill="white" fill-opacity="0.27"/>
<path d="M0.617064 81L0 72.2087L186.291 17L188 41.3575L0.617064 81Z" fill="white" fill-opacity="0.27"/>
<path d="M149.469 61.3594H90.5312C89.116 61.3594 87.9688 62.4367 87.9688 63.7656V66.1719C87.9688 67.5008 89.116 68.5781 90.5312 68.5781H149.469C150.884 68.5781 152.031 67.5008 152.031 66.1719V63.7656C152.031 62.4367 150.884 61.3594 149.469 61.3594Z" fill="#9DB8D3"/>
<path d="M94.375 22.8594H102.062C102.742 22.8594 103.394 23.1129 103.874 23.5641C104.355 24.0154 104.625 24.6274 104.625 25.2656V61.3594H91.8125V25.2656C91.8125 24.6274 92.0825 24.0154 92.563 23.5641C93.0436 23.1129 93.6954 22.8594 94.375 22.8594Z" fill="url(#paint0_linear_58_9759)"/>
<path d="M120 26.4688H125.125C125.805 26.4688 126.456 26.7223 126.937 27.1735C127.418 27.6248 127.688 28.2368 127.688 28.875V61.3594H117.438V28.875C117.438 28.2368 117.707 27.6248 118.188 27.1735C118.669 26.7223 119.32 26.4688 120 26.4688Z" fill="#455A64"/>
<path d="M143.062 26.4688H145.625C146.305 26.4688 146.956 26.7223 147.437 27.1735C147.918 27.6248 148.188 28.2368 148.188 28.875V61.3594H140.5V28.875C140.5 28.2368 140.77 27.6248 141.251 27.1735C141.731 26.7223 142.383 26.4688 143.062 26.4688Z" fill="#668594"/>
<path d="M130.25 19.25H137.938C138.617 19.25 139.269 19.5035 139.749 19.9548C140.23 20.406 140.5 21.0181 140.5 21.6562V61.3594H127.688V21.6562C127.688 21.0181 127.957 20.406 128.438 19.9548C128.919 19.5035 129.57 19.25 130.25 19.25Z" fill="url(#paint1_linear_58_9759)"/>
<path d="M107.188 8.42188H108.469C109.148 8.42188 109.8 8.67539 110.281 9.12665C110.761 9.57791 111.031 10.1899 111.031 10.8281V61.3594H104.625V10.8281C104.625 10.1899 104.895 9.57791 105.376 9.12665C105.856 8.67539 106.508 8.42188 107.188 8.42188Z" fill="#C7C7C7"/>
<path d="M113.594 10.8281H114.875C115.555 10.8281 116.206 11.0816 116.687 11.5329C117.168 11.9842 117.438 12.5962 117.438 13.2344V61.3594H111.031V13.2344C111.031 12.5962 111.301 11.9842 111.782 11.5329C112.262 11.0816 112.914 10.8281 113.594 10.8281Z" fill="url(#paint2_linear_58_9759)"/>
<path d="M98.2188 48.125C100.342 48.125 102.062 46.509 102.062 44.5156C102.062 42.5222 100.342 40.9062 98.2188 40.9062C96.0959 40.9062 94.375 42.5222 94.375 44.5156C94.375 46.509 96.0959 48.125 98.2188 48.125Z" fill="#FFC727"/>
<path d="M100.781 52.9375H95.6562C95.3164 52.9375 94.9906 52.8107 94.7503 52.5851C94.51 52.3595 94.375 52.0535 94.375 51.7344C94.375 51.4153 94.51 51.1093 94.7503 50.8836C94.9906 50.658 95.3164 50.5312 95.6562 50.5312H100.781C101.121 50.5312 101.447 50.658 101.687 50.8836C101.928 51.1093 102.062 51.4153 102.062 51.7344C102.062 52.0535 101.928 52.3595 101.687 52.5851C101.447 52.8107 101.121 52.9375 100.781 52.9375ZM100.781 57.75H95.6562C95.3164 57.75 94.9906 57.6232 94.7503 57.3976C94.51 57.172 94.375 56.866 94.375 56.5469C94.375 56.2278 94.51 55.9218 94.7503 55.6961C94.9906 55.4705 95.3164 55.3438 95.6562 55.3438H100.781C101.121 55.3438 101.447 55.4705 101.687 55.6961C101.928 55.9218 102.062 56.2278 102.062 56.5469C102.062 56.866 101.928 57.172 101.687 57.3976C101.447 57.6232 101.121 57.75 100.781 57.75Z" fill="#455A64"/>
<path d="M104.625 45.7188H111.031V52.9375H104.625V45.7188Z" fill="#668594"/>
<path d="M136.656 30.0781C136.656 28.7492 135.509 27.6719 134.094 27.6719C132.679 27.6719 131.531 28.7492 131.531 30.0781V51.7344C131.531 53.0633 132.679 54.1406 134.094 54.1406C135.509 54.1406 136.656 53.0633 136.656 51.7344V30.0781Z" fill="#C7C7C7"/>
<path d="M122.562 56.5469C122.223 56.5469 121.897 56.4201 121.657 56.1945C121.416 55.9689 121.281 55.6628 121.281 55.3438V31.2812C121.281 30.9622 121.416 30.6561 121.657 30.4305C121.897 30.2049 122.223 30.0781 122.562 30.0781C122.902 30.0781 123.228 30.2049 123.468 30.4305C123.709 30.6561 123.844 30.9622 123.844 31.2812V55.3438C123.844 55.6628 123.709 55.9689 123.468 56.1945C123.228 56.4201 122.902 56.5469 122.562 56.5469Z" fill="#FFC727"/>
<path d="M15.1596 88V76.8H23.6076V78.16H16.7436V81.36H20.2316C21.565 81.36 22.5783 81.6373 23.2716 82.192C23.965 82.7467 24.3116 83.552 24.3116 84.608C24.3116 85.696 23.933 86.5333 23.1756 87.12C22.429 87.7067 21.357 88 19.9596 88H15.1596ZM16.7436 86.736H19.8956C20.8236 86.736 21.5223 86.56 21.9916 86.208C22.4716 85.856 22.7116 85.3333 22.7116 84.64C22.7116 83.296 21.773 82.624 19.8956 82.624H16.7436V86.736ZM27.6628 88V76.8H29.2468V85.44L35.8708 76.8H37.3428V88H35.7748V79.376L29.1348 88H27.6628ZM41.6346 88V76.8H50.0826V78.16H43.2186V81.36H46.7066C48.04 81.36 49.0533 81.6373 49.7466 82.192C50.44 82.7467 50.7866 83.552 50.7866 84.608C50.7866 85.696 50.408 86.5333 49.6506 87.12C48.904 87.7067 47.832 88 46.4346 88H41.6346ZM43.2186 86.736H46.3706C47.2986 86.736 47.9973 86.56 48.4666 86.208C48.9466 85.856 49.1866 85.3333 49.1866 84.64C49.1866 83.296 48.248 82.624 46.3706 82.624H43.2186V86.736ZM53.3285 88.128C53.1685 88.128 53.0085 88.1173 52.8485 88.096C52.6885 88.0747 52.5125 88.0427 52.3205 88L52.4325 86.576C52.6032 86.6187 52.7738 86.64 52.9445 86.64C53.4138 86.64 53.7872 86.4533 54.0645 86.08C54.3418 85.7067 54.5445 85.1413 54.6725 84.384C54.8112 83.6267 54.9018 82.672 54.9445 81.52L55.1205 76.8H63.0085V88H61.4405V77.776L61.8245 78.192H56.1445L56.4965 77.76L56.3685 81.472C56.3365 82.5813 56.2618 83.552 56.1445 84.384C56.0272 85.216 55.8512 85.9093 55.6165 86.464C55.3818 87.0187 55.0778 87.4347 54.7045 87.712C54.3418 87.9893 53.8832 88.128 53.3285 88.128ZM67.2971 88V76.8H68.8811V85.44L75.5051 76.8H76.9771V88H75.4091V79.376L68.7691 88H67.2971ZM86.309 88.128C85.4557 88.128 84.661 87.984 83.925 87.696C83.1997 87.408 82.5703 87.008 82.037 86.496C81.5037 85.9733 81.0877 85.3653 80.789 84.672C80.4903 83.9787 80.341 83.2213 80.341 82.4C80.341 81.5787 80.4903 80.8213 80.789 80.128C81.0877 79.4347 81.5037 78.832 82.037 78.32C82.5703 77.7973 83.1997 77.392 83.925 77.104C84.6503 76.816 85.445 76.672 86.309 76.672C87.1623 76.672 87.9463 76.816 88.661 77.104C89.3863 77.3813 90.0157 77.7813 90.549 78.304C91.093 78.816 91.509 79.4187 91.797 80.112C92.0957 80.8053 92.245 81.568 92.245 82.4C92.245 83.232 92.0957 83.9947 91.797 84.688C91.509 85.3813 91.093 85.9893 90.549 86.512C90.0157 87.024 89.3863 87.424 88.661 87.712C87.9463 87.9893 87.1623 88.128 86.309 88.128ZM86.309 86.704C86.9277 86.704 87.4983 86.5973 88.021 86.384C88.5543 86.1707 89.013 85.872 89.397 85.488C89.7917 85.0933 90.0957 84.6347 90.309 84.112C90.533 83.5893 90.645 83.0187 90.645 82.4C90.645 81.7813 90.533 81.2107 90.309 80.688C90.0957 80.1653 89.7917 79.712 89.397 79.328C89.013 78.9333 88.5543 78.6293 88.021 78.416C87.4983 78.2027 86.9277 78.096 86.309 78.096C85.6797 78.096 85.0983 78.2027 84.565 78.416C84.0423 78.6293 83.5837 78.9333 83.189 79.328C82.7943 79.712 82.485 80.1653 82.261 80.688C82.0477 81.2107 81.941 81.7813 81.941 82.4C81.941 83.0187 82.0477 83.5893 82.261 84.112C82.485 84.6347 82.7943 85.0933 83.189 85.488C83.5837 85.872 84.0423 86.1707 84.565 86.384C85.0983 86.5973 85.6797 86.704 86.309 86.704ZM97.7633 88V77.776L98.1633 78.192H93.9393V76.8H103.171V78.192H98.9473L99.3313 77.776V88H97.7633ZM107.372 81.632H113.132V82.992H107.372V81.632ZM107.516 86.608H114.044V88H105.916V76.8H113.82V78.192H107.516V86.608ZM124.893 88L120.829 82.48L122.125 81.68L126.717 88H124.893ZM117.357 88V76.8H118.925V88H117.357ZM118.445 83.072V81.664H122.077V83.072H118.445ZM122.269 82.576L120.797 82.352L124.813 76.8H126.525L122.269 82.576ZM129.156 88V76.8H130.74V85.44L137.364 76.8H138.836V88H137.268V79.376L130.628 88H129.156Z" fill="black"/>
<defs>
<linearGradient id="paint0_linear_58_9759" x1="98.2188" y1="61.3594" x2="98.2188" y2="22.8594" gradientUnits="userSpaceOnUse">
<stop stop-color="#54A5FF"/>
<stop offset="0.0001" stop-color="#FF7D34"/>
</linearGradient>
<linearGradient id="paint1_linear_58_9759" x1="134.094" y1="61.3594" x2="134.094" y2="19.25" gradientUnits="userSpaceOnUse">
<stop stop-color="#FE9661"/>
<stop offset="0.0001" stop-color="#C7C7C7"/>
</linearGradient>
<linearGradient id="paint2_linear_58_9759" x1="114.234" y1="-3.68804e-07" x2="114.234" y2="10.8281" gradientUnits="userSpaceOnUse">
<stop stop-color="#54A5FF"/>
<stop offset="0.0001" stop-color="white"/>
</linearGradient>
</defs>
</svg>
