<svg width="428" height="178" viewBox="0 0 428 178" fill="none" xmlns="http://www.w3.org/2000/svg">
<path d="M1.28235 1.9065H378.052C405.106 1.9065 427.038 23.8386 427.038 50.8931V210.296H1.28235V1.9065Z" fill="#455A64"/>
<path d="M1.28235 1.9065H378.052C405.106 1.9065 427.038 23.8386 427.038 50.8931V210.296H1.28235V1.9065Z" stroke="#364F7D" stroke-width="1.9236"/>
<path d="M147.222 128V116.1H152.373C153.438 116.1 154.356 116.276 155.127 116.627C155.897 116.967 156.492 117.46 156.912 118.106C157.331 118.752 157.541 119.523 157.541 120.418C157.541 121.302 157.331 122.067 156.912 122.713C156.492 123.359 155.897 123.858 155.127 124.209C154.356 124.549 153.438 124.719 152.373 124.719H148.752L149.976 123.478V128H147.222ZM149.976 123.784L148.752 122.475H152.22C153.07 122.475 153.704 122.294 154.124 121.931C154.543 121.568 154.753 121.064 154.753 120.418C154.753 119.761 154.543 119.251 154.124 118.888C153.704 118.525 153.07 118.344 152.22 118.344H148.752L149.976 117.035V123.784ZM161.89 120.894H167.619V123.036H161.89V120.894ZM162.094 125.79H168.571V128H159.357V116.1H168.35V118.31H162.094V125.79ZM170.796 128V116.1H179.194L179.177 118.344H172.887L173.516 117.715L173.533 128H170.796ZM180.873 128V116.1H183.61V123.852L189.288 116.1H191.872V128H189.152V120.265L183.474 128H180.873ZM200.462 128.204C199.544 128.204 198.688 128.057 197.895 127.762C197.113 127.456 196.433 127.025 195.855 126.47C195.277 125.915 194.824 125.263 194.495 124.515C194.178 123.767 194.019 122.945 194.019 122.05C194.019 121.155 194.178 120.333 194.495 119.585C194.824 118.837 195.277 118.185 195.855 117.63C196.444 117.075 197.13 116.65 197.912 116.355C198.694 116.049 199.55 115.896 200.479 115.896C201.51 115.896 202.44 116.077 203.267 116.44C204.106 116.791 204.808 117.313 205.375 118.004L203.607 119.636C203.199 119.171 202.746 118.826 202.247 118.599C201.748 118.361 201.204 118.242 200.615 118.242C200.06 118.242 199.55 118.333 199.085 118.514C198.62 118.695 198.218 118.956 197.878 119.296C197.538 119.636 197.272 120.038 197.079 120.503C196.898 120.968 196.807 121.483 196.807 122.05C196.807 122.617 196.898 123.132 197.079 123.597C197.272 124.062 197.538 124.464 197.878 124.804C198.218 125.144 198.62 125.405 199.085 125.586C199.55 125.767 200.06 125.858 200.615 125.858C201.204 125.858 201.748 125.745 202.247 125.518C202.746 125.28 203.199 124.923 203.607 124.447L205.375 126.079C204.808 126.77 204.106 127.297 203.267 127.66C202.44 128.023 201.505 128.204 200.462 128.204ZM209.621 128V117.715L210.25 118.344H205.83V116.1H216.149V118.344H211.729L212.341 117.715V128H209.621ZM217.878 128V116.1H223.029C224.094 116.1 225.012 116.276 225.783 116.627C226.554 116.967 227.149 117.46 227.568 118.106C227.987 118.752 228.197 119.523 228.197 120.418C228.197 121.302 227.987 122.067 227.568 122.713C227.149 123.359 226.554 123.858 225.783 124.209C225.012 124.549 224.094 124.719 223.029 124.719H219.408L220.632 123.478V128H217.878ZM220.632 123.784L219.408 122.475H222.876C223.726 122.475 224.361 122.294 224.78 121.931C225.199 121.568 225.409 121.064 225.409 120.418C225.409 119.761 225.199 119.251 224.78 118.888C224.361 118.525 223.726 118.344 222.876 118.344H219.408L220.632 117.035V123.784ZM228.073 128L233.377 116.1H236.097L241.418 128H238.528L234.176 117.494H235.264L230.895 128H228.073ZM230.725 125.45L231.456 123.359H237.576L238.324 125.45H230.725ZM242.996 128V116.1H245.733V125.756H251.037V116.1H253.774V128H242.996ZM252.941 130.516V127.354L253.536 128H251.037V125.756H255.474V130.516H252.941ZM257.29 128V116.1H260.027V123.852L265.705 116.1H268.289V128H265.569V120.265L259.891 128H257.29ZM278.035 128V124.243L278.715 124.838H275.451C274.42 124.838 273.53 124.668 272.782 124.328C272.034 123.988 271.462 123.495 271.065 122.849C270.668 122.203 270.47 121.432 270.47 120.537C270.47 119.608 270.68 118.814 271.099 118.157C271.53 117.488 272.13 116.978 272.901 116.627C273.672 116.276 274.578 116.1 275.621 116.1H280.755V128H278.035ZM270.504 128L273.462 123.733H276.25L273.411 128H270.504ZM278.035 123.359V117.63L278.715 118.344H275.689C274.907 118.344 274.306 118.525 273.887 118.888C273.479 119.251 273.275 119.789 273.275 120.503C273.275 121.194 273.473 121.727 273.87 122.101C274.267 122.475 274.85 122.662 275.621 122.662H278.715L278.035 123.359Z" fill="#FFCD3D"/>
<path d="M86.0104 62.194V48.194H91.8304C93.3104 48.194 94.4704 48.5006 95.3104 49.114C96.1637 49.714 96.5904 50.6006 96.5904 51.774C96.5904 52.934 96.1837 53.814 95.3704 54.414C94.5571 55.0006 93.4904 55.294 92.1704 55.294L92.5104 54.794C94.0704 54.794 95.2571 55.1006 96.0704 55.714C96.8837 56.3273 97.2904 57.2273 97.2904 58.414C97.2904 59.614 96.8637 60.5473 96.0104 61.214C95.1704 61.8673 93.9037 62.194 92.2104 62.194H86.0104ZM87.4704 61.014H92.2104C93.3971 61.014 94.2971 60.794 94.9104 60.354C95.5237 59.914 95.8304 59.234 95.8304 58.314C95.8304 57.4073 95.5237 56.7406 94.9104 56.314C94.2971 55.8873 93.3971 55.674 92.2104 55.674H87.4704V61.014ZM87.4704 54.534H91.7504C92.8304 54.534 93.6571 54.3206 94.2304 53.894C94.8171 53.454 95.1104 52.8073 95.1104 51.954C95.1104 51.1006 94.8171 50.4606 94.2304 50.034C93.6571 49.594 92.8304 49.374 91.7504 49.374H87.4704V54.534ZM110.891 62.194V51.694H112.311V62.194H110.891ZM105.071 55.394C106.391 55.4073 107.398 55.7006 108.091 56.274C108.784 56.8473 109.131 57.674 109.131 58.754C109.131 59.874 108.758 60.734 108.011 61.334C107.264 61.934 106.198 62.2273 104.811 62.214L100.651 62.194V51.694H102.071V55.354L105.071 55.394ZM104.711 61.134C105.698 61.1473 106.438 60.954 106.931 60.554C107.438 60.1406 107.691 59.5406 107.691 58.754C107.691 57.9673 107.444 57.394 106.951 57.034C106.458 56.6606 105.711 56.4673 104.711 56.454L102.071 56.414V61.094L104.711 61.134ZM121.588 62.194V51.694H123.008V56.334H129.628V51.694H131.048V62.194H129.628V57.554H123.008V62.194H121.588ZM139.404 62.294C138.391 62.294 137.478 62.0673 136.664 61.614C135.864 61.1473 135.231 60.514 134.764 59.714C134.298 58.9006 134.064 57.974 134.064 56.934C134.064 55.8806 134.298 54.954 134.764 54.154C135.231 53.354 135.864 52.7273 136.664 52.274C137.464 51.8206 138.378 51.594 139.404 51.594C140.444 51.594 141.364 51.8206 142.164 52.274C142.978 52.7273 143.611 53.354 144.064 54.154C144.531 54.954 144.764 55.8806 144.764 56.934C144.764 57.974 144.531 58.9006 144.064 59.714C143.611 60.514 142.978 61.1473 142.164 61.614C141.351 62.0673 140.431 62.294 139.404 62.294ZM139.404 61.034C140.164 61.034 140.838 60.8673 141.424 60.534C142.011 60.1873 142.471 59.7073 142.804 59.094C143.151 58.4673 143.324 57.7473 143.324 56.934C143.324 56.1073 143.151 55.3873 142.804 54.774C142.471 54.1606 142.011 53.6873 141.424 53.354C140.838 53.0073 140.171 52.834 139.424 52.834C138.678 52.834 138.011 53.0073 137.424 53.354C136.838 53.6873 136.371 54.1606 136.024 54.774C135.678 55.3873 135.504 56.1073 135.504 56.934C135.504 57.7473 135.678 58.4673 136.024 59.094C136.371 59.7073 136.838 60.1873 137.424 60.534C138.011 60.8673 138.671 61.034 139.404 61.034ZM147.799 62.194V51.694H152.439C153.626 51.694 154.559 51.9206 155.239 52.374C155.933 52.8273 156.279 53.494 156.279 54.374C156.279 55.2273 155.953 55.8873 155.299 56.354C154.646 56.8073 153.786 57.034 152.719 57.034L152.999 56.614C154.253 56.614 155.173 56.8473 155.759 57.314C156.346 57.7806 156.639 58.454 156.639 59.334C156.639 60.2406 156.306 60.9473 155.639 61.454C154.986 61.9473 153.966 62.194 152.579 62.194H147.799ZM149.179 61.074H152.519C153.413 61.074 154.086 60.934 154.539 60.654C155.006 60.3606 155.239 59.894 155.239 59.254C155.239 58.614 155.033 58.1473 154.619 57.854C154.206 57.5606 153.553 57.414 152.659 57.414H149.179V61.074ZM149.179 56.354H152.339C153.153 56.354 153.773 56.2006 154.199 55.894C154.639 55.5873 154.859 55.1406 154.859 54.554C154.859 53.9673 154.639 53.5273 154.199 53.234C153.773 52.9406 153.153 52.794 152.339 52.794H149.179V56.354ZM170.207 62.194V51.694H171.627V62.194H170.207ZM164.387 55.394C165.707 55.4073 166.714 55.7006 167.407 56.274C168.101 56.8473 168.447 57.674 168.447 58.754C168.447 59.874 168.074 60.734 167.327 61.334C166.581 61.934 165.514 62.2273 164.127 62.214L159.967 62.194V51.694H161.387V55.354L164.387 55.394ZM164.027 61.134C165.014 61.1473 165.754 60.954 166.247 60.554C166.754 60.1406 167.007 59.5406 167.007 58.754C167.007 57.9673 166.761 57.394 166.267 57.034C165.774 56.6606 165.027 56.4673 164.027 56.454L161.387 56.414V61.094L164.027 61.134ZM175.67 62.194V51.694H177.09V60.034L184.11 51.694H185.37V62.194H183.95V53.834L176.95 62.194H175.67ZM180.43 50.174C179.55 50.174 178.837 49.954 178.29 49.514C177.757 49.0606 177.477 48.414 177.45 47.574H178.47C178.484 48.1073 178.67 48.5273 179.03 48.834C179.39 49.1406 179.857 49.294 180.43 49.294C181.004 49.294 181.47 49.1406 181.83 48.834C182.204 48.5273 182.397 48.1073 182.41 47.574H183.43C183.417 48.414 183.137 49.0606 182.59 49.514C182.044 49.954 181.324 50.174 180.43 50.174ZM194.674 62.194V51.694H204.114V62.194H202.694V52.554L203.054 52.934H195.734L196.094 52.554V62.194H194.674ZM212.471 62.294C211.458 62.294 210.544 62.0673 209.731 61.614C208.931 61.1473 208.298 60.514 207.831 59.714C207.364 58.9006 207.131 57.974 207.131 56.934C207.131 55.8806 207.364 54.954 207.831 54.154C208.298 53.354 208.931 52.7273 209.731 52.274C210.531 51.8206 211.444 51.594 212.471 51.594C213.511 51.594 214.431 51.8206 215.231 52.274C216.044 52.7273 216.678 53.354 217.131 54.154C217.598 54.954 217.831 55.8806 217.831 56.934C217.831 57.974 217.598 58.9006 217.131 59.714C216.678 60.514 216.044 61.1473 215.231 61.614C214.418 62.0673 213.498 62.294 212.471 62.294ZM212.471 61.034C213.231 61.034 213.904 60.8673 214.491 60.534C215.078 60.1873 215.538 59.7073 215.871 59.094C216.218 58.4673 216.391 57.7473 216.391 56.934C216.391 56.1073 216.218 55.3873 215.871 54.774C215.538 54.1606 215.078 53.6873 214.491 53.354C213.904 53.0073 213.238 52.834 212.491 52.834C211.744 52.834 211.078 53.0073 210.491 53.354C209.904 53.6873 209.438 54.1606 209.091 54.774C208.744 55.3873 208.571 56.1073 208.571 56.934C208.571 57.7473 208.744 58.4673 209.091 59.094C209.438 59.7073 209.904 60.1873 210.491 60.534C211.078 60.8673 211.738 61.034 212.471 61.034ZM218.887 62.174L218.987 60.954C219.08 60.9673 219.167 60.9873 219.247 61.014C219.34 61.0273 219.42 61.034 219.487 61.034C219.914 61.034 220.254 60.874 220.507 60.554C220.774 60.234 220.974 59.8073 221.107 59.274C221.24 58.7406 221.334 58.1406 221.387 57.474C221.44 56.794 221.487 56.114 221.527 55.434L221.707 51.694H229.407V62.194H227.987V52.514L228.347 52.934H222.627L222.967 52.494L222.807 55.534C222.767 56.4406 222.694 57.3073 222.587 58.134C222.494 58.9606 222.34 59.6873 222.127 60.314C221.927 60.9406 221.647 61.434 221.287 61.794C220.927 62.1406 220.467 62.314 219.907 62.314C219.747 62.314 219.58 62.3006 219.407 62.274C219.247 62.2473 219.074 62.214 218.887 62.174ZM237.964 55.394C239.284 55.4073 240.284 55.7006 240.964 56.274C241.657 56.8473 242.004 57.674 242.004 58.754C242.004 59.874 241.63 60.734 240.884 61.334C240.15 61.934 239.084 62.2273 237.684 62.214L233.444 62.194V51.694H234.864V55.354L237.964 55.394ZM237.604 61.134C238.577 61.1473 239.31 60.954 239.804 60.554C240.31 60.1406 240.564 59.5406 240.564 58.754C240.564 57.9673 240.317 57.394 239.824 57.034C239.33 56.6606 238.59 56.4673 237.604 56.454L234.864 56.414V61.094L237.604 61.134ZM247.436 62.314C246.676 62.314 245.922 62.2073 245.176 61.994C244.429 61.7806 243.769 61.454 243.196 61.014L243.656 59.954C244.162 60.3273 244.749 60.614 245.416 60.814C246.082 61.0006 246.742 61.094 247.396 61.094C248.049 61.0806 248.616 60.9873 249.096 60.814C249.576 60.6406 249.949 60.4006 250.216 60.094C250.482 59.7873 250.616 59.4406 250.616 59.054C250.616 58.494 250.362 58.0606 249.856 57.754C249.349 57.434 248.656 57.274 247.776 57.274H245.976V56.234H247.676C248.196 56.234 248.656 56.1673 249.056 56.034C249.456 55.9006 249.762 55.7073 249.976 55.454C250.202 55.2006 250.316 54.9006 250.316 54.554C250.316 54.1806 250.182 53.8606 249.916 53.594C249.662 53.3273 249.309 53.1273 248.856 52.994C248.402 52.8606 247.889 52.794 247.316 52.794C246.796 52.8073 246.256 52.8873 245.696 53.034C245.136 53.1673 244.582 53.374 244.036 53.654L243.636 52.554C244.249 52.234 244.856 51.994 245.456 51.834C246.069 51.6606 246.682 51.574 247.296 51.574C248.136 51.5473 248.889 51.6473 249.556 51.874C250.236 52.1006 250.776 52.4273 251.176 52.854C251.576 53.2673 251.776 53.7673 251.776 54.354C251.776 54.874 251.616 55.3273 251.296 55.714C250.976 56.1006 250.549 56.4006 250.016 56.614C249.482 56.8273 248.876 56.934 248.196 56.934L248.256 56.554C249.456 56.554 250.389 56.7873 251.056 57.254C251.736 57.7206 252.076 58.354 252.076 59.154C252.076 59.7806 251.869 60.334 251.456 60.814C251.042 61.2806 250.482 61.6473 249.776 61.914C249.082 62.1806 248.302 62.314 247.436 62.314ZM259.619 62.294C258.606 62.294 257.693 62.0673 256.879 61.614C256.079 61.1473 255.446 60.514 254.979 59.714C254.513 58.9006 254.279 57.974 254.279 56.934C254.279 55.8806 254.513 54.954 254.979 54.154C255.446 53.354 256.079 52.7273 256.879 52.274C257.679 51.8206 258.593 51.594 259.619 51.594C260.659 51.594 261.579 51.8206 262.379 52.274C263.193 52.7273 263.826 53.354 264.279 54.154C264.746 54.954 264.979 55.8806 264.979 56.934C264.979 57.974 264.746 58.9006 264.279 59.714C263.826 60.514 263.193 61.1473 262.379 61.614C261.566 62.0673 260.646 62.294 259.619 62.294ZM259.619 61.034C260.379 61.034 261.053 60.8673 261.639 60.534C262.226 60.1873 262.686 59.7073 263.019 59.094C263.366 58.4673 263.539 57.7473 263.539 56.934C263.539 56.1073 263.366 55.3873 263.019 54.774C262.686 54.1606 262.226 53.6873 261.639 53.354C261.053 53.0073 260.386 52.834 259.639 52.834C258.893 52.834 258.226 53.0073 257.639 53.354C257.053 53.6873 256.586 54.1606 256.239 54.774C255.893 55.3873 255.719 56.1073 255.719 56.934C255.719 57.7473 255.893 58.4673 256.239 59.094C256.586 59.7073 257.053 60.1873 257.639 60.534C258.226 60.8673 258.886 61.034 259.619 61.034ZM268.014 62.194V51.694H272.654C273.841 51.694 274.774 51.9206 275.454 52.374C276.147 52.8273 276.494 53.494 276.494 54.374C276.494 55.2273 276.167 55.8873 275.514 56.354C274.861 56.8073 274.001 57.034 272.934 57.034L273.214 56.614C274.467 56.614 275.387 56.8473 275.974 57.314C276.561 57.7806 276.854 58.454 276.854 59.334C276.854 60.2406 276.521 60.9473 275.854 61.454C275.201 61.9473 274.181 62.194 272.794 62.194H268.014ZM269.394 61.074H272.734C273.627 61.074 274.301 60.934 274.754 60.654C275.221 60.3606 275.454 59.894 275.454 59.254C275.454 58.614 275.247 58.1473 274.834 57.854C274.421 57.5606 273.767 57.414 272.874 57.414H269.394V61.074ZM269.394 56.354H272.554C273.367 56.354 273.987 56.2006 274.414 55.894C274.854 55.5873 275.074 55.1406 275.074 54.554C275.074 53.9673 274.854 53.5273 274.414 53.234C273.987 52.9406 273.367 52.794 272.554 52.794H269.394V56.354ZM286.702 62.194V59.874L286.642 59.494V55.614C286.642 54.7206 286.389 54.034 285.882 53.554C285.389 53.074 284.649 52.834 283.662 52.834C282.982 52.834 282.335 52.9473 281.722 53.174C281.109 53.4006 280.589 53.7006 280.162 54.074L279.522 53.014C280.055 52.5606 280.695 52.214 281.442 51.974C282.189 51.7206 282.975 51.594 283.802 51.594C285.162 51.594 286.209 51.934 286.942 52.614C287.689 53.2806 288.062 54.3006 288.062 55.674V62.194H286.702ZM283.082 62.294C282.295 62.294 281.609 62.1673 281.022 61.914C280.449 61.6473 280.009 61.2873 279.702 60.834C279.395 60.3673 279.242 59.834 279.242 59.234C279.242 58.6873 279.369 58.194 279.622 57.754C279.889 57.3006 280.315 56.9406 280.902 56.674C281.502 56.394 282.302 56.254 283.302 56.254H286.922V57.314H283.342C282.329 57.314 281.622 57.494 281.222 57.854C280.835 58.214 280.642 58.6606 280.642 59.194C280.642 59.794 280.875 60.274 281.342 60.634C281.809 60.994 282.462 61.174 283.302 61.174C284.102 61.174 284.789 60.994 285.362 60.634C285.949 60.2606 286.375 59.7273 286.642 59.034L286.962 60.014C286.695 60.7073 286.229 61.2606 285.562 61.674C284.909 62.0873 284.082 62.294 283.082 62.294ZM293.842 62.194V52.554L294.202 52.934H289.862V51.694H299.242V52.934H294.902L295.262 52.554V62.194H293.842ZM305.307 62.294C304.214 62.294 303.254 62.0673 302.427 61.614C301.6 61.1473 300.954 60.514 300.487 59.714C300.02 58.9006 299.787 57.974 299.787 56.934C299.787 55.894 300.007 54.974 300.447 54.174C300.9 53.374 301.514 52.7473 302.287 52.294C303.074 51.8273 303.954 51.594 304.927 51.594C305.914 51.594 306.787 51.8206 307.547 52.274C308.32 52.714 308.927 53.3406 309.367 54.154C309.807 54.954 310.027 55.8806 310.027 56.934C310.027 57.0006 310.02 57.074 310.007 57.154C310.007 57.2206 310.007 57.294 310.007 57.374H300.867V56.314H309.247L308.687 56.734C308.687 55.974 308.52 55.3006 308.187 54.714C307.867 54.114 307.427 53.6473 306.867 53.314C306.307 52.9806 305.66 52.814 304.927 52.814C304.207 52.814 303.56 52.9806 302.987 53.314C302.414 53.6473 301.967 54.114 301.647 54.714C301.327 55.314 301.167 56.0006 301.167 56.774V56.994C301.167 57.794 301.34 58.5006 301.687 59.114C302.047 59.714 302.54 60.1873 303.167 60.534C303.807 60.8673 304.534 61.034 305.347 61.034C305.987 61.034 306.58 60.9206 307.127 60.694C307.687 60.4673 308.167 60.1206 308.567 59.654L309.367 60.574C308.9 61.134 308.314 61.5606 307.607 61.854C306.914 62.1473 306.147 62.294 305.307 62.294ZM311.036 62.174L311.136 60.954C311.229 60.9673 311.316 60.9873 311.396 61.014C311.489 61.0273 311.569 61.034 311.636 61.034C312.062 61.034 312.402 60.874 312.656 60.554C312.922 60.234 313.122 59.8073 313.256 59.274C313.389 58.7406 313.482 58.1406 313.536 57.474C313.589 56.794 313.636 56.114 313.676 55.434L313.856 51.694H321.556V62.194H320.136V52.514L320.496 52.934H314.776L315.116 52.494L314.956 55.534C314.916 56.4406 314.842 57.3073 314.736 58.134C314.642 58.9606 314.489 59.6873 314.276 60.314C314.076 60.9406 313.796 61.434 313.436 61.794C313.076 62.1406 312.616 62.314 312.056 62.314C311.896 62.314 311.729 62.3006 311.556 62.274C311.396 62.2473 311.222 62.214 311.036 62.174ZM330.112 55.394C331.432 55.4073 332.432 55.7006 333.112 56.274C333.806 56.8473 334.152 57.674 334.152 58.754C334.152 59.874 333.779 60.734 333.032 61.334C332.299 61.934 331.232 62.2273 329.832 62.214L325.592 62.194V51.694H327.012V55.354L330.112 55.394ZM329.752 61.134C330.726 61.1473 331.459 60.954 331.952 60.554C332.459 60.1406 332.712 59.5406 332.712 58.754C332.712 57.9673 332.466 57.394 331.972 57.034C331.479 56.6606 330.739 56.4673 329.752 56.454L327.012 56.414V61.094L329.752 61.134ZM338.702 57.994C338.702 57.434 338.789 56.954 338.962 56.554C339.149 56.154 339.375 55.8006 339.642 55.494C339.922 55.1873 340.215 54.9006 340.522 54.634C340.842 54.3673 341.142 54.1006 341.422 53.834C341.702 53.554 341.929 53.254 342.102 52.934C342.275 52.6006 342.362 52.214 342.362 51.774C342.362 51.054 342.082 50.4673 341.522 50.014C340.962 49.5606 340.169 49.334 339.142 49.334C338.289 49.334 337.549 49.474 336.922 49.754C336.295 50.0206 335.762 50.4206 335.322 50.954L334.262 50.154C334.795 49.4873 335.482 48.974 336.322 48.614C337.162 48.254 338.135 48.074 339.242 48.074C340.175 48.074 340.982 48.214 341.662 48.494C342.355 48.774 342.889 49.174 343.262 49.694C343.649 50.214 343.842 50.834 343.842 51.554C343.842 52.1273 343.749 52.6206 343.562 53.034C343.389 53.434 343.162 53.794 342.882 54.114C342.615 54.4206 342.322 54.714 342.002 54.994C341.695 55.2606 341.402 55.534 341.122 55.814C340.842 56.094 340.615 56.4073 340.442 56.754C340.269 57.1006 340.182 57.514 340.182 57.994H338.702ZM339.442 62.294C339.162 62.294 338.915 62.194 338.702 61.994C338.502 61.7806 338.402 61.534 338.402 61.254C338.402 60.9606 338.502 60.7206 338.702 60.534C338.915 60.334 339.162 60.234 339.442 60.234C339.749 60.234 340.002 60.334 340.202 60.534C340.402 60.7206 340.502 60.9606 340.502 61.254C340.502 61.534 340.402 61.7806 340.202 61.994C340.002 62.194 339.749 62.294 339.442 62.294ZM89.6304 86.314C88.5771 86.314 87.6037 86.1406 86.7104 85.794C85.8171 85.434 85.0437 84.934 84.3904 84.294C83.7371 83.654 83.2237 82.9006 82.8504 82.034C82.4904 81.1673 82.3104 80.2206 82.3104 79.194C82.3104 78.1673 82.4904 77.2206 82.8504 76.354C83.2237 75.4873 83.7371 74.734 84.3904 74.094C85.0571 73.454 85.8371 72.9606 86.7304 72.614C87.6237 72.254 88.5971 72.074 89.6504 72.074C90.6637 72.074 91.6171 72.2473 92.5104 72.594C93.4037 72.9273 94.1571 73.434 94.7704 74.114L93.8304 75.054C93.2571 74.4673 92.6237 74.0473 91.9304 73.794C91.2371 73.5273 90.4904 73.394 89.6904 73.394C88.8504 73.394 88.0704 73.5406 87.3504 73.834C86.6304 74.114 86.0037 74.5206 85.4704 75.054C84.9371 75.574 84.5171 76.1873 84.2104 76.894C83.9171 77.5873 83.7704 78.354 83.7704 79.194C83.7704 80.034 83.9171 80.8073 84.2104 81.514C84.5171 82.2073 84.9371 82.8206 85.4704 83.354C86.0037 83.874 86.6304 84.2806 87.3504 84.574C88.0704 84.854 88.8504 84.994 89.6904 84.994C90.4904 84.994 91.2371 84.8606 91.9304 84.594C92.6237 84.3273 93.2571 83.9006 93.8304 83.314L94.7704 84.254C94.1571 84.934 93.4037 85.4473 92.5104 85.794C91.6171 86.1406 90.6571 86.314 89.6304 86.314ZM105.187 86.194L100.867 80.994L102.047 80.294L106.867 86.194H105.187ZM97.4868 86.194V75.694H98.9068V86.194H97.4868ZM98.4668 81.514V80.294H101.847V81.514H98.4668ZM102.167 81.094L100.847 80.894L105.027 75.694H106.567L102.167 81.094ZM113.057 86.294C112.043 86.294 111.13 86.0673 110.317 85.614C109.517 85.1473 108.883 84.514 108.417 83.714C107.95 82.9006 107.717 81.974 107.717 80.934C107.717 79.8806 107.95 78.954 108.417 78.154C108.883 77.354 109.517 76.7273 110.317 76.274C111.117 75.8206 112.03 75.594 113.057 75.594C114.097 75.594 115.017 75.8206 115.817 76.274C116.63 76.7273 117.263 77.354 117.717 78.154C118.183 78.954 118.417 79.8806 118.417 80.934C118.417 81.974 118.183 82.9006 117.717 83.714C117.263 84.514 116.63 85.1473 115.817 85.614C115.003 86.0673 114.083 86.294 113.057 86.294ZM113.057 85.034C113.817 85.034 114.49 84.8673 115.077 84.534C115.663 84.1873 116.123 83.7073 116.457 83.094C116.803 82.4673 116.977 81.7473 116.977 80.934C116.977 80.1073 116.803 79.3873 116.457 78.774C116.123 78.1606 115.663 77.6873 115.077 77.354C114.49 77.0073 113.823 76.834 113.077 76.834C112.33 76.834 111.663 77.0073 111.077 77.354C110.49 77.6873 110.023 78.1606 109.677 78.774C109.33 79.3873 109.157 80.1073 109.157 80.934C109.157 81.7473 109.33 82.4673 109.677 83.094C110.023 83.7073 110.49 84.1873 111.077 84.534C111.663 84.8673 112.323 85.034 113.057 85.034ZM126.872 86.294C125.965 86.294 125.145 86.0873 124.412 85.674C123.678 85.2473 123.092 84.6406 122.652 83.854C122.225 83.054 122.012 82.0806 122.012 80.934C122.012 79.7873 122.225 78.8206 122.652 78.034C123.078 77.234 123.658 76.6273 124.392 76.214C125.125 75.8006 125.952 75.594 126.872 75.594C127.872 75.594 128.765 75.8206 129.552 76.274C130.352 76.714 130.978 77.3406 131.432 78.154C131.885 78.954 132.112 79.8806 132.112 80.934C132.112 82.0006 131.885 82.934 131.432 83.734C130.978 84.534 130.352 85.1606 129.552 85.614C128.765 86.0673 127.872 86.294 126.872 86.294ZM121.452 90.074V75.694H122.812V78.854L122.672 80.954L122.872 83.074V90.074H121.452ZM126.772 85.034C127.518 85.034 128.185 84.8673 128.772 84.534C129.358 84.1873 129.825 83.7073 130.172 83.094C130.518 82.4673 130.692 81.7473 130.692 80.934C130.692 80.1206 130.518 79.4073 130.172 78.794C129.825 78.1806 129.358 77.7006 128.772 77.354C128.185 77.0073 127.518 76.834 126.772 76.834C126.025 76.834 125.352 77.0073 124.752 77.354C124.165 77.7006 123.698 78.1806 123.352 78.794C123.018 79.4073 122.852 80.1206 122.852 80.934C122.852 81.7473 123.018 82.4673 123.352 83.094C123.698 83.7073 124.165 84.1873 124.752 84.534C125.352 84.8673 126.025 85.034 126.772 85.034ZM139.663 86.294C138.569 86.294 137.609 86.0673 136.783 85.614C135.956 85.1473 135.309 84.514 134.843 83.714C134.376 82.9006 134.143 81.974 134.143 80.934C134.143 79.894 134.363 78.974 134.803 78.174C135.256 77.374 135.869 76.7473 136.643 76.294C137.429 75.8273 138.309 75.594 139.283 75.594C140.269 75.594 141.143 75.8206 141.903 76.274C142.676 76.714 143.283 77.3406 143.723 78.154C144.163 78.954 144.383 79.8806 144.383 80.934C144.383 81.0006 144.376 81.074 144.363 81.154C144.363 81.2206 144.363 81.294 144.363 81.374H135.223V80.314H143.603L143.043 80.734C143.043 79.974 142.876 79.3006 142.543 78.714C142.223 78.114 141.783 77.6473 141.223 77.314C140.663 76.9806 140.016 76.814 139.283 76.814C138.563 76.814 137.916 76.9806 137.343 77.314C136.769 77.6473 136.323 78.114 136.003 78.714C135.683 79.314 135.523 80.0006 135.523 80.774V80.994C135.523 81.794 135.696 82.5006 136.043 83.114C136.403 83.714 136.896 84.1873 137.523 84.534C138.163 84.8673 138.889 85.034 139.703 85.034C140.343 85.034 140.936 84.9206 141.483 84.694C142.043 84.4673 142.523 84.1206 142.923 83.654L143.723 84.574C143.256 85.134 142.669 85.5606 141.963 85.854C141.269 86.1473 140.503 86.294 139.663 86.294ZM152.026 86.294C150.933 86.294 149.973 86.0673 149.146 85.614C148.319 85.1473 147.673 84.514 147.206 83.714C146.739 82.9006 146.506 81.974 146.506 80.934C146.506 79.894 146.726 78.974 147.166 78.174C147.619 77.374 148.233 76.7473 149.006 76.294C149.793 75.8273 150.673 75.594 151.646 75.594C152.633 75.594 153.506 75.8206 154.266 76.274C155.039 76.714 155.646 77.3406 156.086 78.154C156.526 78.954 156.746 79.8806 156.746 80.934C156.746 81.0006 156.739 81.074 156.726 81.154C156.726 81.2206 156.726 81.294 156.726 81.374H147.586V80.314H155.966L155.406 80.734C155.406 79.974 155.239 79.3006 154.906 78.714C154.586 78.114 154.146 77.6473 153.586 77.314C153.026 76.9806 152.379 76.814 151.646 76.814C150.926 76.814 150.279 76.9806 149.706 77.314C149.133 77.6473 148.686 78.114 148.366 78.714C148.046 79.314 147.886 80.0006 147.886 80.774V80.994C147.886 81.794 148.059 82.5006 148.406 83.114C148.766 83.714 149.259 84.1873 149.886 84.534C150.526 84.8673 151.253 85.034 152.066 85.034C152.706 85.034 153.299 84.9206 153.846 84.694C154.406 84.4673 154.886 84.1206 155.286 83.654L156.086 84.574C155.619 85.134 155.033 85.5606 154.326 85.854C153.633 86.1473 152.866 86.294 152.026 86.294ZM170.544 86.294C169.637 86.294 168.817 86.0873 168.084 85.674C167.35 85.2473 166.764 84.6406 166.324 83.854C165.897 83.054 165.684 82.0806 165.684 80.934C165.684 79.7873 165.897 78.8206 166.324 78.034C166.75 77.234 167.33 76.6273 168.064 76.214C168.797 75.8006 169.624 75.594 170.544 75.594C171.544 75.594 172.437 75.8206 173.224 76.274C174.024 76.714 174.65 77.3406 175.104 78.154C175.557 78.954 175.784 79.8806 175.784 80.934C175.784 82.0006 175.557 82.934 175.104 83.734C174.65 84.534 174.024 85.1606 173.224 85.614C172.437 86.0673 171.544 86.294 170.544 86.294ZM165.124 90.074V75.694H166.484V78.854L166.344 80.954L166.544 83.074V90.074H165.124ZM170.444 85.034C171.19 85.034 171.857 84.8673 172.444 84.534C173.03 84.1873 173.497 83.7073 173.844 83.094C174.19 82.4673 174.364 81.7473 174.364 80.934C174.364 80.1206 174.19 79.4073 173.844 78.794C173.497 78.1806 173.03 77.7006 172.444 77.354C171.857 77.0073 171.19 76.834 170.444 76.834C169.697 76.834 169.024 77.0073 168.424 77.354C167.837 77.7006 167.37 78.1806 167.024 78.794C166.69 79.4073 166.524 80.1206 166.524 80.934C166.524 81.7473 166.69 82.4673 167.024 83.094C167.37 83.7073 167.837 84.1873 168.424 84.534C169.024 84.8673 169.697 85.034 170.444 85.034ZM183.334 86.294C182.241 86.294 181.281 86.0673 180.454 85.614C179.628 85.1473 178.981 84.514 178.514 83.714C178.048 82.9006 177.814 81.974 177.814 80.934C177.814 79.894 178.034 78.974 178.474 78.174C178.928 77.374 179.541 76.7473 180.314 76.294C181.101 75.8273 181.981 75.594 182.954 75.594C183.941 75.594 184.814 75.8206 185.574 76.274C186.348 76.714 186.954 77.3406 187.394 78.154C187.834 78.954 188.054 79.8806 188.054 80.934C188.054 81.0006 188.048 81.074 188.034 81.154C188.034 81.2206 188.034 81.294 188.034 81.374H178.894V80.314H187.274L186.714 80.734C186.714 79.974 186.548 79.3006 186.214 78.714C185.894 78.114 185.454 77.6473 184.894 77.314C184.334 76.9806 183.688 76.814 182.954 76.814C182.234 76.814 181.588 76.9806 181.014 77.314C180.441 77.6473 179.994 78.114 179.674 78.714C179.354 79.314 179.194 80.0006 179.194 80.774V80.994C179.194 81.794 179.368 82.5006 179.714 83.114C180.074 83.714 180.568 84.1873 181.194 84.534C181.834 84.8673 182.561 85.034 183.374 85.034C184.014 85.034 184.608 84.9206 185.154 84.694C185.714 84.4673 186.194 84.1206 186.594 83.654L187.394 84.574C186.928 85.134 186.341 85.5606 185.634 85.854C184.941 86.1473 184.174 86.294 183.334 86.294ZM191.198 86.194V75.694H198.638V76.934H192.258L192.618 76.574V86.194H191.198ZM200.69 86.194V75.694H202.11V84.034L209.13 75.694H210.39V86.194H208.97V77.834L201.97 86.194H200.69ZM218.859 86.294C217.819 86.294 216.886 86.0673 216.059 85.614C215.246 85.1473 214.606 84.514 214.139 83.714C213.673 82.9006 213.439 81.974 213.439 80.934C213.439 79.8806 213.673 78.954 214.139 78.154C214.606 77.354 215.246 76.7273 216.059 76.274C216.886 75.8206 217.819 75.594 218.859 75.594C219.753 75.594 220.559 75.7673 221.279 76.114C221.999 76.4606 222.566 76.9806 222.979 77.674L221.919 78.394C221.559 77.8606 221.113 77.4673 220.579 77.214C220.046 76.9606 219.466 76.834 218.839 76.834C218.093 76.834 217.419 77.0073 216.819 77.354C216.219 77.6873 215.746 78.1606 215.399 78.774C215.053 79.3873 214.879 80.1073 214.879 80.934C214.879 81.7606 215.053 82.4806 215.399 83.094C215.746 83.7073 216.219 84.1873 216.819 84.534C217.419 84.8673 218.093 85.034 218.839 85.034C219.466 85.034 220.046 84.9073 220.579 84.654C221.113 84.4006 221.559 84.014 221.919 83.494L222.979 84.214C222.566 84.894 221.999 85.414 221.279 85.774C220.559 86.1206 219.753 86.294 218.859 86.294ZM227.534 86.194V76.554L227.894 76.934H223.554V75.694H232.934V76.934H228.594L228.954 76.554V86.194H227.534ZM240.407 86.294C239.5 86.294 238.68 86.0873 237.947 85.674C237.213 85.2473 236.627 84.6406 236.187 83.854C235.76 83.054 235.547 82.0806 235.547 80.934C235.547 79.7873 235.76 78.8206 236.187 78.034C236.613 77.234 237.193 76.6273 237.927 76.214C238.66 75.8006 239.487 75.594 240.407 75.594C241.407 75.594 242.3 75.8206 243.087 76.274C243.887 76.714 244.513 77.3406 244.967 78.154C245.42 78.954 245.647 79.8806 245.647 80.934C245.647 82.0006 245.42 82.934 244.967 83.734C244.513 84.534 243.887 85.1606 243.087 85.614C242.3 86.0673 241.407 86.294 240.407 86.294ZM234.987 90.074V75.694H236.347V78.854L236.207 80.954L236.407 83.074V90.074H234.987ZM240.307 85.034C241.053 85.034 241.72 84.8673 242.307 84.534C242.893 84.1873 243.36 83.7073 243.707 83.094C244.053 82.4673 244.227 81.7473 244.227 80.934C244.227 80.1206 244.053 79.4073 243.707 78.794C243.36 78.1806 242.893 77.7006 242.307 77.354C241.72 77.0073 241.053 76.834 240.307 76.834C239.56 76.834 238.887 77.0073 238.287 77.354C237.7 77.7006 237.233 78.1806 236.887 78.794C236.553 79.4073 236.387 80.1206 236.387 80.934C236.387 81.7473 236.553 82.4673 236.887 83.094C237.233 83.7073 237.7 84.1873 238.287 84.534C238.887 84.8673 239.56 85.034 240.307 85.034ZM248.698 86.194V75.694H250.118V84.034L257.138 75.694H258.398V86.194H256.978V77.834L249.978 86.194H248.698ZM267.887 86.294C266.981 86.294 266.161 86.0873 265.427 85.674C264.694 85.2473 264.107 84.6406 263.667 83.854C263.241 83.054 263.027 82.0806 263.027 80.934C263.027 79.7873 263.241 78.8206 263.667 78.034C264.094 77.234 264.674 76.6273 265.407 76.214C266.141 75.8006 266.967 75.594 267.887 75.594C268.887 75.594 269.781 75.8206 270.567 76.274C271.367 76.714 271.994 77.3406 272.447 78.154C272.901 78.954 273.127 79.8806 273.127 80.934C273.127 82.0006 272.901 82.934 272.447 83.734C271.994 84.534 271.367 85.1606 270.567 85.614C269.781 86.0673 268.887 86.294 267.887 86.294ZM262.467 90.074V75.694H263.827V78.854L263.687 80.954L263.887 83.074V90.074H262.467ZM267.787 85.034C268.534 85.034 269.201 84.8673 269.787 84.534C270.374 84.1873 270.841 83.7073 271.187 83.094C271.534 82.4673 271.707 81.7473 271.707 80.934C271.707 80.1206 271.534 79.4073 271.187 78.794C270.841 78.1806 270.374 77.7006 269.787 77.354C269.201 77.0073 268.534 76.834 267.787 76.834C267.041 76.834 266.367 77.0073 265.767 77.354C265.181 77.7006 264.714 78.1806 264.367 78.794C264.034 79.4073 263.867 80.1206 263.867 80.934C263.867 81.7473 264.034 82.4673 264.367 83.094C264.714 83.7073 265.181 84.1873 265.767 84.534C266.367 84.8673 267.041 85.034 267.787 85.034ZM276.065 90.174C275.572 90.174 275.099 90.094 274.645 89.934C274.205 89.774 273.825 89.534 273.505 89.214L274.165 88.154C274.432 88.4073 274.719 88.6006 275.025 88.734C275.345 88.8806 275.699 88.954 276.085 88.954C276.552 88.954 276.952 88.8206 277.285 88.554C277.632 88.3006 277.959 87.8473 278.265 87.194L278.945 85.654L279.105 85.434L283.425 75.694H284.825L279.565 87.454C279.272 88.134 278.945 88.674 278.585 89.074C278.239 89.474 277.859 89.754 277.445 89.914C277.032 90.0873 276.572 90.174 276.065 90.174ZM278.865 86.494L274.025 75.694H275.505L279.785 85.334L278.865 86.494ZM287.038 86.194V75.694H288.458V84.034L295.478 75.694H296.738V86.194H295.318V77.834L288.318 86.194H287.038ZM291.798 74.174C290.918 74.174 290.204 73.954 289.658 73.514C289.124 73.0606 288.844 72.414 288.818 71.574H289.838C289.851 72.1073 290.038 72.5273 290.398 72.834C290.758 73.1406 291.224 73.294 291.798 73.294C292.371 73.294 292.838 73.1406 293.198 72.834C293.571 72.5273 293.764 72.1073 293.778 71.574H294.798C294.784 72.414 294.504 73.0606 293.958 73.514C293.411 73.954 292.691 74.174 291.798 74.174ZM302.807 86.194V76.554L303.167 76.934H298.827V75.694H308.207V76.934H303.867L304.227 76.554V86.194H302.807ZM314.272 86.294C313.179 86.294 312.219 86.0673 311.392 85.614C310.565 85.1473 309.919 84.514 309.452 83.714C308.985 82.9006 308.752 81.974 308.752 80.934C308.752 79.894 308.972 78.974 309.412 78.174C309.865 77.374 310.479 76.7473 311.252 76.294C312.039 75.8273 312.919 75.594 313.892 75.594C314.879 75.594 315.752 75.8206 316.512 76.274C317.285 76.714 317.892 77.3406 318.332 78.154C318.772 78.954 318.992 79.8806 318.992 80.934C318.992 81.0006 318.985 81.074 318.972 81.154C318.972 81.2206 318.972 81.294 318.972 81.374H309.832V80.314H318.212L317.652 80.734C317.652 79.974 317.485 79.3006 317.152 78.714C316.832 78.114 316.392 77.6473 315.832 77.314C315.272 76.9806 314.625 76.814 313.892 76.814C313.172 76.814 312.525 76.9806 311.952 77.314C311.379 77.6473 310.932 78.114 310.612 78.714C310.292 79.314 310.132 80.0006 310.132 80.774V80.994C310.132 81.794 310.305 82.5006 310.652 83.114C311.012 83.714 311.505 84.1873 312.132 84.534C312.772 84.8673 313.499 85.034 314.312 85.034C314.952 85.034 315.545 84.9206 316.092 84.694C316.652 84.4673 317.132 84.1206 317.532 83.654L318.332 84.574C317.865 85.134 317.279 85.5606 316.572 85.854C315.879 86.1473 315.112 86.294 314.272 86.294ZM326.535 86.294C325.495 86.294 324.562 86.0673 323.735 85.614C322.922 85.1473 322.282 84.514 321.815 83.714C321.349 82.9006 321.115 81.974 321.115 80.934C321.115 79.8806 321.349 78.954 321.815 78.154C322.282 77.354 322.922 76.7273 323.735 76.274C324.562 75.8206 325.495 75.594 326.535 75.594C327.429 75.594 328.235 75.7673 328.955 76.114C329.675 76.4606 330.242 76.9806 330.655 77.674L329.595 78.394C329.235 77.8606 328.789 77.4673 328.255 77.214C327.722 76.9606 327.142 76.834 326.515 76.834C325.769 76.834 325.095 77.0073 324.495 77.354C323.895 77.6873 323.422 78.1606 323.075 78.774C322.729 79.3873 322.555 80.1073 322.555 80.934C322.555 81.7606 322.729 82.4806 323.075 83.094C323.422 83.7073 323.895 84.1873 324.495 84.534C325.095 84.8673 325.769 85.034 326.515 85.034C327.142 85.034 327.722 84.9073 328.255 84.654C328.789 84.4006 329.235 84.014 329.595 83.494L330.655 84.214C330.242 84.894 329.675 85.414 328.955 85.774C328.235 86.1206 327.429 86.294 326.535 86.294ZM337.925 79.394C339.245 79.4073 340.245 79.7006 340.925 80.274C341.618 80.8473 341.965 81.674 341.965 82.754C341.965 83.874 341.591 84.734 340.845 85.334C340.111 85.934 339.045 86.2273 337.645 86.214L333.405 86.194V75.694H334.825V79.354L337.925 79.394ZM337.565 85.134C338.538 85.1473 339.271 84.954 339.765 84.554C340.271 84.1406 340.525 83.5406 340.525 82.754C340.525 81.9673 340.278 81.394 339.785 81.034C339.291 80.6606 338.551 80.4673 337.565 80.454L334.825 80.414V85.094L337.565 85.134ZM344.694 81.994L344.414 72.194H346.094L345.794 81.994H344.694ZM345.254 86.294C344.961 86.294 344.708 86.194 344.494 85.994C344.294 85.7806 344.194 85.534 344.194 85.254C344.194 84.9606 344.294 84.7206 344.494 84.534C344.708 84.334 344.961 84.234 345.254 84.234C345.561 84.234 345.808 84.334 345.994 84.534C346.194 84.7206 346.294 84.9606 346.294 85.254C346.294 85.534 346.194 85.7806 345.994 85.994C345.808 86.194 345.561 86.294 345.254 86.294Z" fill="white"/>
</svg>
