<svg width="191" height="101" viewBox="0 0 191 101" fill="none" xmlns="http://www.w3.org/2000/svg">
<path d="M5 21C5 9.95431 13.9543 1 25 1H165C176.046 1 185 9.95431 185 21V81C185 92.0457 176.046 101 165 101H25C13.9543 101 5 92.0457 5 81V21Z" fill="#FFC727"/>
<path d="M1.64684 87L1 77.6374L188.411 42L191 79.4825L1.64684 87Z" fill="white" fill-opacity="0.27"/>
<path d="M0.617064 71L0 62.2087L186.291 7L188 31.3575L0.617064 71Z" fill="white" fill-opacity="0.27"/>
<path d="M27.48 84L23.416 78.48L24.712 77.68L29.304 84H27.48ZM19.944 84V72.8H21.512V84H19.944ZM21.032 79.072V77.664H24.664V79.072H21.032ZM24.856 78.576L23.384 78.352L27.4 72.8H29.112L24.856 78.576ZM36.7528 84.128C35.8994 84.128 35.1048 83.984 34.3688 83.696C33.6434 83.408 33.0141 83.008 32.4808 82.496C31.9474 81.9733 31.5314 81.3653 31.2328 80.672C30.9341 79.9787 30.7848 79.2213 30.7848 78.4C30.7848 77.5787 30.9341 76.8213 31.2328 76.128C31.5314 75.4347 31.9474 74.832 32.4808 74.32C33.0141 73.7973 33.6434 73.392 34.3688 73.104C35.0941 72.816 35.8888 72.672 36.7528 72.672C37.6061 72.672 38.3901 72.816 39.1048 73.104C39.8301 73.3813 40.4594 73.7813 40.9928 74.304C41.5368 74.816 41.9528 75.4187 42.2408 76.112C42.5394 76.8053 42.6888 77.568 42.6888 78.4C42.6888 79.232 42.5394 79.9947 42.2408 80.688C41.9528 81.3813 41.5368 81.9893 40.9928 82.512C40.4594 83.024 39.8301 83.424 39.1048 83.712C38.3901 83.9893 37.6061 84.128 36.7528 84.128ZM36.7528 82.704C37.3714 82.704 37.9421 82.5973 38.4648 82.384C38.9981 82.1707 39.4568 81.872 39.8408 81.488C40.2354 81.0933 40.5394 80.6347 40.7528 80.112C40.9768 79.5893 41.0888 79.0187 41.0888 78.4C41.0888 77.7813 40.9768 77.2107 40.7528 76.688C40.5394 76.1653 40.2354 75.712 39.8408 75.328C39.4568 74.9333 38.9981 74.6293 38.4648 74.416C37.9421 74.2027 37.3714 74.096 36.7528 74.096C36.1234 74.096 35.5421 74.2027 35.0088 74.416C34.4861 74.6293 34.0274 74.9333 33.6328 75.328C33.2381 75.712 32.9288 76.1653 32.7048 76.688C32.4914 77.2107 32.3848 77.7813 32.3848 78.4C32.3848 79.0187 32.4914 79.5893 32.7048 80.112C32.9288 80.6347 33.2381 81.0933 33.6328 81.488C34.0274 81.872 34.4861 82.1707 35.0088 82.384C35.5421 82.5973 36.1234 82.704 36.7528 82.704ZM54.1073 72.8H55.7073V84H54.1073V72.8ZM47.6753 84H46.0753V72.8H47.6753V84ZM54.2513 79.008H47.5153V77.616H54.2513V79.008ZM60.0003 84V72.8H61.5843V82.608H67.8243V72.8H69.4083V84H60.0003ZM69.6483 86.544V83.584L70.0323 84H67.8243V82.608H71.1363V86.544H69.6483ZM75.5219 77.632H81.2819V78.992H75.5219V77.632ZM75.6659 82.608H82.1939V84H74.0659V72.8H81.9699V74.192H75.6659V82.608ZM85.5065 84V72.8H89.8745C90.8558 72.8 91.6932 72.9547 92.3865 73.264C93.0798 73.5733 93.6132 74.0213 93.9865 74.608C94.3598 75.1947 94.5465 75.8933 94.5465 76.704C94.5465 77.5147 94.3598 78.2133 93.9865 78.8C93.6132 79.376 93.0798 79.824 92.3865 80.144C91.6932 80.4533 90.8558 80.608 89.8745 80.608H86.3865L87.1065 79.856V84H85.5065ZM87.1065 80.016L86.3865 79.216H89.8265C90.8505 79.216 91.6238 78.9973 92.1465 78.56C92.6798 78.1227 92.9465 77.504 92.9465 76.704C92.9465 75.904 92.6798 75.2853 92.1465 74.848C91.6238 74.4107 90.8505 74.192 89.8265 74.192H86.3865L87.1065 73.392V80.016ZM99.5008 84V73.776L99.9008 74.192H95.6768V72.8H104.909V74.192H100.685L101.069 73.776V84H99.5008ZM112.565 76.704C113.888 76.704 114.907 77.0027 115.621 77.6C116.336 78.1867 116.693 79.0667 116.693 80.24C116.693 81.4773 116.304 82.416 115.525 83.056C114.757 83.6853 113.675 84 112.277 84H107.653V72.8H109.237V76.704H112.565ZM112.213 82.736C113.141 82.736 113.851 82.528 114.341 82.112C114.843 81.696 115.093 81.0827 115.093 80.272C115.093 79.4827 114.848 78.9013 114.357 78.528C113.867 78.1547 113.152 77.968 112.213 77.968H109.237V82.736H112.213ZM118.469 84V72.8H120.053V84H118.469Z" fill="black"/>
<path d="M122.323 27.4196C124.634 21.923 129.12 17.576 134.848 15.2848C140.575 12.9936 147.101 12.9351 153.066 15.1213C159.03 17.3076 163.972 21.57 166.862 27.0199C169.752 32.4698 170.367 38.6865 168.577 44.3741C168.49 44.6342 168.514 44.9208 168.644 45.1727C168.775 45.4247 169.002 45.622 169.277 45.7225L171.403 46.502C173.803 39.9547 173.333 32.6596 170.097 26.2216C166.861 19.7836 161.123 14.7301 154.147 12.1727C147.17 9.61538 139.525 9.76372 132.895 12.5851C126.265 15.4065 121.192 20.6698 118.792 27.2171L120.923 27.9982C121.197 28.0976 121.496 28.0928 121.758 27.9848C122.02 27.8767 122.222 27.674 122.323 27.4196Z" fill="#455A64"/>
<path d="M106.19 55.0825L110.399 56.6253L116.191 40.8257L111.982 39.2829C111.424 39.0783 110.812 39.0901 110.282 39.3159C109.751 39.5416 109.346 39.9626 109.154 40.4864L104.81 52.3361C104.618 52.8599 104.656 53.4435 104.914 53.9586C105.173 54.4736 105.632 54.8779 106.19 55.0825Z" fill="#B38B1B"/>
<path d="M110.399 56.6253L110.037 57.6128C109.845 58.1366 109.883 58.7202 110.142 59.2352C110.401 59.7503 110.86 60.1545 111.418 60.3591L117.731 62.6733C118.289 62.8779 118.901 62.866 119.431 62.6403C119.962 62.4146 120.368 61.9935 120.56 61.4698L127.075 43.6952C127.267 43.1714 127.229 42.5878 126.97 42.0728C126.712 41.5577 126.253 41.1534 125.694 40.9489L119.381 38.6347C118.823 38.4301 118.211 38.442 117.681 38.6677C117.151 38.8934 116.745 39.3144 116.553 39.8382L110.399 56.6253Z" fill="#E0E0E0"/>
<path d="M116.553 39.8382L118.001 35.8883C118.097 35.6264 118.078 35.3346 117.948 35.0771C117.819 34.8196 117.589 34.6174 117.31 34.5151L115.206 33.7437C114.927 33.6414 114.621 33.6474 114.356 33.7602C114.091 33.8731 113.888 34.0836 113.792 34.3455L111.982 39.2829L116.191 40.8257L116.553 39.8382Z" fill="#C7C7C7"/>
<path d="M158.802 74.3674L163.011 75.9101C163.569 76.1147 164.18 76.1029 164.711 75.8772C165.241 75.6514 165.647 75.2304 165.839 74.7066L170.183 62.8569C170.375 62.3331 170.337 61.7495 170.078 61.2344C169.819 60.7194 169.36 60.3151 168.802 60.1105L164.593 58.5677L158.802 74.3674Z" fill="#B38B1B"/>
<path d="M164.955 57.5803C165.147 57.0566 165.11 56.4729 164.851 55.9579C164.592 55.4429 164.133 55.0386 163.575 54.834L157.261 52.5198C156.703 52.3152 156.092 52.3271 155.561 52.5528C155.031 52.7785 154.625 53.1996 154.433 53.7234L147.917 71.4979C147.725 72.0217 147.763 72.6053 148.022 73.1204C148.281 73.6354 148.74 74.0397 149.298 74.2443L155.611 76.5584C156.17 76.763 156.781 76.7512 157.311 76.5255C157.842 76.2997 158.248 75.8787 158.44 75.3549L164.955 57.5803Z" fill="#E0E0E0"/>
<path d="M166.403 53.6304L164.593 58.5678L168.802 60.1106L170.612 55.1732C170.708 54.9113 170.689 54.6195 170.56 54.362C170.43 54.1045 170.201 53.9023 169.922 53.8L167.817 53.0286C167.538 52.9263 167.232 52.9323 166.967 53.0451C166.702 53.158 166.499 53.3685 166.403 53.6304Z" fill="#C7C7C7"/>
<path d="M169.922 53.8001L167.817 53.0287L170.351 46.1163C172.655 39.8309 172.204 32.8276 169.097 26.6471C165.99 20.4666 160.482 15.6152 153.785 13.1602C147.087 10.7052 139.748 10.8476 133.383 13.5561C127.018 16.2646 122.148 21.3174 119.844 27.6029L117.31 34.5152L115.206 33.7438L117.74 26.8315C120.236 20.0222 125.512 14.5484 132.407 11.6141C139.303 8.67989 147.253 8.52562 154.509 11.1852C161.764 13.8449 167.731 19.1005 171.097 25.7961C174.463 32.4916 174.951 40.0785 172.455 46.8877L169.922 53.8001Z" fill="#E0E0E0"/>
</svg>



