<svg width="191" height="100" viewBox="0 0 191 100" fill="none" xmlns="http://www.w3.org/2000/svg">
<path d="M4 20C4 8.95431 12.9543 0 24 0H164C175.046 0 184 8.95431 184 20V80C184 91.0457 175.046 100 164 100H24C12.9543 100 4 91.0457 4 80V20Z" fill="#FFC727"/>
<path d="M189.353 88L190 78.6374L2.58893 43L0 80.4825L189.353 88Z" fill="white" fill-opacity="0.27"/>
<path d="M190.383 72L191 63.2087L4.70901 8L3 32.3575L190.383 72Z" fill="white" fill-opacity="0.27"/>
<path d="M26.6503 84L22.5863 78.48L23.8823 77.68L28.4743 84H26.6503ZM19.1143 84V72.8H20.6823V84H19.1143ZM20.2023 79.072V77.664H23.8343V79.072H20.2023ZM24.0263 78.576L22.5543 78.352L26.5703 72.8H28.2823L24.0263 78.576ZM30.9143 84V72.8H32.4983V81.44L39.1223 72.8H40.5943V84H39.0263V75.376L32.3863 84H30.9143ZM52.9182 72.8H54.5182V84H52.9182V72.8ZM46.4862 84H44.8862V72.8H46.4862V84ZM53.0622 79.008H46.3262V77.616H53.0622V79.008ZM63.8512 84.128C62.9979 84.128 62.2032 83.984 61.4672 83.696C60.7419 83.408 60.1125 83.008 59.5792 82.496C59.0459 81.9733 58.6299 81.3653 58.3312 80.672C58.0325 79.9787 57.8832 79.2213 57.8832 78.4C57.8832 77.5787 58.0325 76.8213 58.3312 76.128C58.6299 75.4347 59.0459 74.832 59.5792 74.32C60.1125 73.7973 60.7419 73.392 61.4672 73.104C62.1925 72.816 62.9872 72.672 63.8512 72.672C64.7045 72.672 65.4885 72.816 66.2032 73.104C66.9285 73.3813 67.5579 73.7813 68.0912 74.304C68.6352 74.816 69.0512 75.4187 69.3392 76.112C69.6379 76.8053 69.7872 77.568 69.7872 78.4C69.7872 79.232 69.6379 79.9947 69.3392 80.688C69.0512 81.3813 68.6352 81.9893 68.0912 82.512C67.5579 83.024 66.9285 83.424 66.2032 83.712C65.4885 83.9893 64.7045 84.128 63.8512 84.128ZM63.8512 82.704C64.4699 82.704 65.0405 82.5973 65.5632 82.384C66.0965 82.1707 66.5552 81.872 66.9392 81.488C67.3339 81.0933 67.6379 80.6347 67.8512 80.112C68.0752 79.5893 68.1872 79.0187 68.1872 78.4C68.1872 77.7813 68.0752 77.2107 67.8512 76.688C67.6379 76.1653 67.3339 75.712 66.9392 75.328C66.5552 74.9333 66.0965 74.6293 65.5632 74.416C65.0405 74.2027 64.4699 74.096 63.8512 74.096C63.2219 74.096 62.6405 74.2027 62.1072 74.416C61.5845 74.6293 61.1259 74.9333 60.7312 75.328C60.3365 75.712 60.0272 76.1653 59.8032 76.688C59.5899 77.2107 59.4832 77.7813 59.4832 78.4C59.4832 79.0187 59.5899 79.5893 59.8032 80.112C60.0272 80.6347 60.3365 81.0933 60.7312 81.488C61.1259 81.872 61.5845 82.1707 62.1072 82.384C62.6405 82.5973 63.2219 82.704 63.8512 82.704Z" fill="black"/>
<path d="M158.61 18.3835C158.61 16.3282 156.944 14.662 154.889 14.662C154.168 14.662 153.502 14.8759 152.932 15.2305C153.148 14.7585 153.276 14.2391 153.276 13.6859C153.276 11.6306 151.61 9.96444 149.555 9.96444C147.945 9.96444 146.587 10.9921 146.068 12.4234C145.458 11.986 144.715 11.7214 143.906 11.7214C143.167 11.7214 142.481 11.9434 141.902 12.3157C141.933 12.1211 141.962 11.9249 141.962 11.7214C141.962 9.66611 140.296 8 138.241 8C136.857 8 135.663 8.76471 135.022 9.88563C134.486 9.58731 133.879 9.40317 133.223 9.40317C131.168 9.40317 129.502 11.0693 129.502 13.1246C129.502 13.2629 129.527 13.3932 129.543 13.5274C129.042 13.2782 128.487 13.1246 127.89 13.1246C127.792 13.1246 127.7 13.1463 127.603 13.1535C127.787 12.7121 127.89 12.2288 127.89 11.7214C127.89 9.66611 126.224 8 124.169 8C122.113 8 120.447 9.66611 120.447 11.7214C120.447 11.7729 120.46 11.8203 120.463 11.871C120.146 11.7833 119.819 11.7214 119.475 11.7214C119.272 11.7214 119.076 11.7496 118.881 11.7817C118.881 11.7616 118.887 11.7423 118.887 11.7214C118.887 9.66611 117.221 8 115.166 8C113.111 8 111.445 9.66611 111.445 11.7214C109.389 11.7214 107.723 13.3875 107.723 15.4428C107.723 15.6503 107.751 15.8497 107.784 16.0475C105.991 16.3153 104.612 17.8463 104.612 19.7143C104.612 21.4833 105.849 22.9572 107.503 23.3352L105.657 25.7668L129.505 31.6239L149.559 27.7192L156.663 24.4247L156.301 21.8267C157.653 21.2702 158.61 19.9402 158.61 18.3835Z" fill="#FFC727" stroke="#B38B1B" stroke-width="0.804109" stroke-miterlimit="10"/>
<path d="M112.923 73.276C112.126 73.276 111.453 72.705 111.321 71.9186L103.022 22.0912C102.944 21.6192 103.075 21.1392 103.385 20.7741C103.695 20.409 104.146 20.2 104.625 20.2H158.752C159.231 20.2 159.682 20.409 159.992 20.7741C160.301 21.1392 160.433 21.6192 160.354 22.0912L152.057 71.9178C151.926 72.705 151.252 73.276 150.454 73.276H112.923Z" fill="#EFEFEF"/>
<path d="M117.545 72.8731H111.888L103.182 20.6021H111.327L117.545 72.8731Z" fill="#455A64"/>
<path d="M128.86 72.8731H123.202L119.472 20.6021H127.617L128.86 72.8731Z" fill="#455A64"/>
<path d="M140.175 72.8731H134.518L135.761 20.6021H143.906L140.175 72.8731Z" fill="#455A64"/>
<path d="M151.49 72.8731H145.832L152.05 20.6021H160.195L151.49 72.8731Z" fill="#455A64"/>
<path d="M129.462 73.7648C128.884 72.88 128.218 72.1612 127.429 71.5719C124.374 70.11 121.139 69.6393 117.746 70.1313C115.626 70.4387 113.515 71.1146 111.471 72.1417C109.835 73.275 108.933 74.712 108.532 76.7982L87.9628 79.7801C87.5482 79.8402 87.1619 79.5518 87.1018 79.1371L85.5692 68.5656C85.5091 68.151 85.7976 67.7647 86.2122 67.7046L149.22 58.5702C149.635 58.51 150.021 58.7985 150.081 59.2131L151.614 69.7847C151.674 70.1993 151.386 70.5856 150.971 70.6457L129.462 73.7648Z" fill="#263238"/>
<path d="M149.279 58.9727C149.471 58.9448 149.651 59.079 149.679 59.2715L151.211 69.8438C151.239 70.0362 151.105 70.216 150.913 70.2439L129.657 73.3254C129.087 72.4987 128.435 71.8148 127.673 71.2463L127.608 71.1981L127.536 71.1634C124.476 69.708 121.162 69.2249 117.688 69.7286C115.525 70.0422 113.372 70.7316 111.29 71.7783L111.238 71.8039L111.19 71.8371C109.198 73.2226 108.498 75.0249 108.191 76.4373L87.9053 79.3782C87.7129 79.4061 87.5331 79.2718 87.5052 79.0794L85.9725 68.5071C85.9446 68.3147 86.0789 68.1349 86.2713 68.107L149.279 58.9727ZM149.162 58.1675L86.1546 67.3019C85.5169 67.3943 85.0749 67.9861 85.1674 68.6238L86.7001 79.1961C86.7925 79.8338 87.3844 80.2758 88.022 80.1833L108.882 77.1593C109.176 75.3829 109.854 73.7581 111.655 72.5055C113.559 71.5488 115.641 70.8474 117.804 70.5339C120.863 70.0904 124.082 70.4211 127.186 71.8981C128.067 72.5562 128.728 73.3425 129.259 74.2051L151.03 71.0489C151.668 70.9565 152.11 70.3646 152.017 69.7269L150.485 59.1546C150.391 58.5171 149.799 58.0751 149.162 58.1675Z" fill="#263238"/>
<path d="M113.704 65.5095L89.7056 68.9885L92.0591 85.2226L116.057 81.7436L113.704 65.5095Z" fill="#455A64"/>
<path d="M145.883 60.8443L121.885 64.3234L124.238 80.5575L148.236 77.0784L145.883 60.8443Z" fill="#FF7D34"/>
<path d="M126.264 82.6437C125.62 82.737 124.952 82.3415 124.561 81.6361C121.235 75.6273 119.975 75.8099 119.562 75.8697C119.149 75.9296 117.89 76.1122 116.407 82.8182C116.232 83.6056 115.705 84.1745 115.061 84.2678L96.4886 86.9603C93.661 87.3702 90.945 84.8366 90.4341 81.3125L88.8672 70.5043C88.6179 68.7845 89.5205 67.2249 90.8796 67.0278L144.554 59.2465C145.913 59.0494 147.222 60.2885 147.471 62.0083L149.038 72.8165C149.549 76.3406 147.664 79.5412 144.837 79.9512L126.264 82.6437ZM125.633 64.5175C124.148 64.7327 123.115 66.1155 123.331 67.6002L124.714 77.146C124.93 78.6306 126.312 79.6633 127.797 79.448L144.509 77.0253C145.993 76.8101 147.026 75.4273 146.811 73.9426L145.427 64.3968C145.212 62.9121 143.829 61.8795 142.344 62.0948L125.633 64.5175ZM93.8069 69.1313C92.3222 69.3465 91.2896 70.7293 91.5048 72.214L92.8887 81.7598C93.1039 83.2445 94.4867 84.2771 95.9714 84.0619L112.683 81.6392C114.168 81.4239 115.2 80.0411 114.985 78.5564L113.601 69.0107C113.386 67.526 112.003 66.4934 110.518 66.7086L93.8069 69.1313Z" fill="#263238"/>
</svg>
