<svg width="191" height="102" viewBox="0 0 191 102" fill="none" xmlns="http://www.w3.org/2000/svg">
<path d="M6 21C6 9.95431 14.9543 1 26 1H166C177.046 1 186 9.95431 186 21V81C186 92.0457 177.046 101 166 101H26C14.9543 101 6 92.0457 6 81V21Z" fill="#FFC727"/>
<path d="M189.353 87L190 77.6374L2.58893 42L0 79.4825L189.353 87Z" fill="white" fill-opacity="0.27"/>
<path d="M190.383 71L191 62.2087L4.70901 7L3 31.3575L190.383 71Z" fill="white" fill-opacity="0.27"/>
<path d="M179.356 87.6965H82.6445V90.0841H179.356V87.6965Z" fill="#7A8490"/>
<path d="M110.109 19.5122H89.0908V22.406H110.109V19.5122Z" fill="#694A14"/>
<path d="M110.109 22.4075H90.2454V49.071H110.109V22.4075Z" fill="#FFA000"/>
<path d="M110.109 44.3729H89.0908V46.6502H110.109V44.3729Z" fill="#FFD661"/>
<path d="M104.613 31.6898V40.4757H95.7454V31.6898C95.7454 29.2412 97.7303 27.2562 100.179 27.2562C102.628 27.2562 104.613 29.2412 104.613 31.6898Z" fill="#694A14"/>
<path d="M105.036 40.8994H95.3215V31.6897C95.3215 29.0113 97.5003 26.8324 100.179 26.8324C102.858 26.8324 105.036 29.0113 105.036 31.6897V40.8994ZM96.169 40.0519H104.189V31.6897C104.189 29.4786 102.39 27.6799 100.179 27.6799C97.9676 27.6799 96.169 29.4786 96.169 31.6897V40.0519Z" fill="#C7C7C7"/>
<path d="M104.612 31.2656H95.7449V32.1134H104.612V31.2656Z" fill="#C7C7C7"/>
<path opacity="0.1" d="M110.11 22.406H106.469V49.0733H110.11V22.406Z" fill="black"/>
<path d="M110.11 51.9672H90.249V87.6966H110.11V51.9672Z" fill="#FFA000"/>
<path d="M110.109 56.3932H89.0908V58.6704H110.109V56.3932Z" fill="#FFD661"/>
<path opacity="0.1" d="M110.11 51.9672H106.469V87.6966H110.11V51.9672Z" fill="black"/>
<path d="M104.613 67.9546V79.0991H95.7454V67.9546C95.7454 65.506 97.7303 63.521 100.179 63.521C102.628 63.521 104.613 65.506 104.613 67.9546Z" fill="#694A14"/>
<path d="M105.036 79.5227H95.3215V67.9545C95.3215 65.2761 97.5003 63.0972 100.179 63.0972C102.858 63.0972 105.036 65.2761 105.036 67.9545V79.5227ZM96.169 78.6753H104.189V67.9545C104.189 65.7434 102.39 63.9446 100.179 63.9446C97.9676 63.9446 96.169 65.7434 96.169 67.9545V78.6753Z" fill="#C7C7C7"/>
<path d="M104.612 67.5309H95.7449V68.3786H104.612V67.5309Z" fill="#C7C7C7"/>
<path d="M172.909 19.5122H151.891V22.406H172.909V19.5122Z" fill="#694A14"/>
<path d="M171.752 22.4059H151.891V49.0732H171.752V22.4059Z" fill="#FFA000"/>
<path d="M172.909 44.3729H151.891V46.6502H172.909V44.3729Z" fill="#FFD661"/>
<path d="M157.387 31.6897V40.4756H166.254V31.6897C166.254 29.2411 164.269 27.2561 161.821 27.2561C159.372 27.2561 157.387 29.2411 157.387 31.6897Z" fill="#694A14"/>
<path d="M156.963 31.6897C156.963 29.0113 159.142 26.8324 161.821 26.8324C164.499 26.8324 166.678 29.0113 166.678 31.6897V40.8994H156.963V31.6897ZM165.831 31.6897C165.831 29.4786 164.032 27.6799 161.821 27.6799C159.609 27.6799 157.811 29.4786 157.811 31.6897V40.0519H165.831V31.6897Z" fill="#C7C7C7"/>
<path d="M166.254 31.2656H157.387V32.1134H166.254V31.2656Z" fill="#C7C7C7"/>
<path d="M171.752 51.967H151.891V87.6965H171.752V51.967Z" fill="#FFA000"/>
<path d="M172.909 56.3932H151.891V58.6704H172.909V56.3932Z" fill="#FFD661"/>
<path opacity="0.1" d="M155.531 51.967H151.891V87.6965H155.531V51.967Z" fill="black"/>
<path opacity="0.1" d="M155.53 22.4059H151.89V49.0732H155.53V22.4059Z" fill="black"/>
<path d="M157.387 67.9546V79.0991H166.254V67.9546C166.254 65.506 164.269 63.521 161.821 63.521C159.372 63.521 157.387 65.506 157.387 67.9546Z" fill="#694A14"/>
<path d="M156.963 67.9545C156.963 65.2761 159.142 63.0972 161.821 63.0972C164.499 63.0972 166.678 65.2761 166.678 67.9545V79.5227H156.963V67.9545ZM165.831 67.9545C165.831 65.7434 164.032 63.9446 161.821 63.9446C159.609 63.9446 157.811 65.7434 157.811 67.9545V78.6753H165.831V67.9545Z" fill="#C7C7C7"/>
<path d="M166.254 67.5309H157.387V68.3786H166.254V67.5309Z" fill="#C7C7C7"/>
<path d="M151.885 14.7349H110.109V49.0733H151.885V14.7349Z" fill="#FFA000"/>
<path opacity="0.08" d="M151.884 14.7333H110.111V16.8269H151.884V14.7333Z" fill="black"/>
<path d="M153.559 11.9152H108.435V14.7334H153.559V11.9152Z" fill="#694A14"/>
<path d="M150.438 53.5236H111.557V87.6966H150.438V53.5236Z" fill="#694A14"/>
<path d="M138.012 69.0267H124.54V87.6973H138.012V69.0267Z" fill="#C7C7C7"/>
<path d="M131.004 87.6965V70.2477H125.756V87.6965H131.004Z" fill="#694A14"/>
<path d="M131.003 82.8882H130.157C129.706 82.8882 129.34 82.5216 129.34 82.0711V78.5535C129.34 78.1029 129.706 77.7363 130.157 77.7363H131.003V78.1384H130.157C129.928 78.1384 129.742 78.3245 129.742 78.5535V82.0711C129.742 82.2999 129.928 82.4861 130.157 82.4861H131.003V82.8882Z" fill="#C7C7C7"/>
<path d="M136.797 87.6958V70.2469H131.549V87.6958H136.797Z" fill="#694A14"/>
<path d="M131.549 82.8882H132.395C132.846 82.8882 133.212 82.5216 133.212 82.0711V78.5535C133.212 78.1029 132.846 77.7363 132.395 77.7363H131.549V78.1384H132.395C132.624 78.1384 132.81 78.3245 132.81 78.5535V82.0711C132.81 82.2999 132.624 82.4861 132.395 82.4861H131.549V82.8882Z" fill="#C7C7C7"/>
<path d="M145.462 56.4015V59.5426C145.462 60.0511 145.874 60.4633 146.382 60.4633H151.9C152.409 60.4633 152.821 60.0511 152.821 59.5426V56.4015H145.462Z" fill="#FFA000"/>
<path d="M151.885 60.4634H146.397V82.6525H151.885V60.4634Z" fill="#FFD661"/>
<path d="M152.681 59.2483C153.787 59.2483 154.684 58.3519 154.684 57.2461C154.684 56.1403 153.787 55.2439 152.681 55.2439C151.576 55.2439 150.679 56.1403 150.679 57.2461C150.679 58.3519 151.576 59.2483 152.681 59.2483Z" fill="#FFD661"/>
<path d="M145.602 59.2483C146.708 59.2483 147.604 58.3519 147.604 57.2461C147.604 56.1403 146.708 55.2439 145.602 55.2439C144.496 55.2439 143.6 56.1403 143.6 57.2461C143.6 58.3519 144.496 59.2483 145.602 59.2483Z" fill="#FFD661"/>
<path d="M152.681 55.2432H145.602V57.5589H152.681V55.2432Z" fill="#FFD661"/>
<path d="M151.9 82.6527H146.382C145.874 82.6527 145.462 83.0649 145.462 83.5734V85.2008H152.821V83.5734C152.821 83.0649 152.409 82.6527 151.9 82.6527Z" fill="#FFA000"/>
<path d="M153.425 85.2009H144.858V87.6965H153.425V85.2009Z" fill="#FFD661"/>
<path d="M116.532 56.4014V59.5425C116.532 60.051 116.12 60.4632 115.612 60.4632H110.094C109.585 60.4632 109.173 60.051 109.173 59.5425V56.4014H116.532Z" fill="#FFA000"/>
<path d="M115.596 60.4633H110.109V82.6524H115.596V60.4633Z" fill="#FFD661"/>
<path d="M109.313 59.2483C110.419 59.2483 111.315 58.3519 111.315 57.2461C111.315 56.1403 110.419 55.2439 109.313 55.2439C108.207 55.2439 107.311 56.1403 107.311 57.2461C107.311 58.3519 108.207 59.2483 109.313 59.2483Z" fill="#FFD661"/>
<path d="M116.393 59.2483C117.499 59.2483 118.395 58.3519 118.395 57.2461C118.395 56.1403 117.499 55.2439 116.393 55.2439C115.287 55.2439 114.391 56.1403 114.391 57.2461C114.391 58.3519 115.287 59.2483 116.393 59.2483Z" fill="#FFD661"/>
<path d="M109.313 57.5596H116.393V55.2438H109.313V57.5596Z" fill="#FFD661"/>
<path d="M110.094 82.6527H115.612C116.12 82.6527 116.532 83.0649 116.532 83.5734V85.2008H109.173V83.5734C109.173 83.0649 109.585 82.6527 110.094 82.6527Z" fill="#FFA000"/>
<path d="M108.57 87.6973H117.137V85.2017H108.57V87.6973Z" fill="#FFD661"/>
<path d="M154.684 53.0619H107.869V55.2432H154.684V53.0619Z" fill="#FFA000"/>
<path d="M106.469 51.4284V53.0619H156.083V51.4284L131.276 34.9331L106.469 51.4284Z" fill="#FFD661"/>
<path d="M110.661 51.0529L131.276 37.3456L151.891 51.0529H110.661Z" fill="#FFA000"/>
<path d="M179.356 87.6965H82.6445V90.0841H179.356V87.6965Z" fill="#7A8490"/>
<path d="M20.9174 84V72.8H22.2294L27.2534 81.264H26.5494L31.5094 72.8H32.8214L32.8374 84H31.3014L31.2854 75.216H31.6534L27.2374 82.64H26.5014L22.0534 75.216H22.4534V84H20.9174ZM37.0917 82.592C37.6464 82.7947 38.1584 82.848 38.6277 82.752C39.097 82.6453 39.5184 82.288 39.8917 81.68L40.4357 80.816L40.5957 80.64L44.7077 72.8H46.2917L41.3157 82.016C40.9424 82.72 40.505 83.2533 40.0037 83.616C39.513 83.968 38.9797 84.16 38.4037 84.192C37.8384 84.2347 37.2624 84.128 36.6757 83.872L37.0917 82.592ZM40.5477 82.064L35.6357 72.8H37.3477L41.4277 80.784L40.5477 82.064ZM47.6604 82.784L48.2204 81.6C48.7111 81.984 49.2498 82.272 49.8364 82.464C50.4338 82.656 51.0258 82.7573 51.6124 82.768C52.1991 82.768 52.7378 82.688 53.2284 82.528C53.7298 82.368 54.1298 82.128 54.4284 81.808C54.7271 81.488 54.8764 81.0933 54.8764 80.624C54.8764 80.048 54.6418 79.6107 54.1724 79.312C53.7138 79.0133 53.0738 78.864 52.2524 78.864H49.7564V77.568H52.1404C52.8551 77.568 53.4098 77.424 53.8044 77.136C54.2098 76.8373 54.4124 76.4267 54.4124 75.904C54.4124 75.5093 54.2898 75.1787 54.0444 74.912C53.8098 74.6347 53.4844 74.4267 53.0684 74.288C52.6631 74.1493 52.1991 74.08 51.6764 74.08C51.1644 74.0693 50.6364 74.1387 50.0924 74.288C49.5484 74.4267 49.0258 74.6507 48.5244 74.96L48.0124 73.648C48.6951 73.264 49.4044 72.9973 50.1404 72.848C50.8871 72.688 51.6071 72.64 52.3004 72.704C52.9938 72.7573 53.6178 72.9173 54.1724 73.184C54.7378 73.44 55.1858 73.7813 55.5164 74.208C55.8578 74.624 56.0284 75.1253 56.0284 75.712C56.0284 76.2453 55.8898 76.72 55.6124 77.136C55.3351 77.5413 54.9511 77.856 54.4604 78.08C53.9698 78.2933 53.3991 78.4 52.7484 78.4L52.8124 77.968C53.5591 77.968 54.2044 78.0907 54.7484 78.336C55.3031 78.5707 55.7298 78.9067 56.0284 79.344C56.3378 79.7813 56.4924 80.288 56.4924 80.864C56.4924 81.408 56.3538 81.8933 56.0764 82.32C55.7991 82.736 55.4204 83.088 54.9404 83.376C54.4711 83.6533 53.9324 83.856 53.3244 83.984C52.7271 84.112 52.0978 84.1547 51.4364 84.112C50.7751 84.0693 50.1191 83.9413 49.4684 83.728C48.8284 83.5147 48.2258 83.2 47.6604 82.784ZM61.4141 77.632H67.1741V78.992H61.4141V77.632ZM61.5581 82.608H68.0861V84H59.9581V72.8H67.8621V74.192H61.5581V82.608ZM71.3987 84V72.8H72.9827V81.44L79.6067 72.8H81.0787V84H79.5107V75.376L72.8707 84H71.3987Z" fill="black"/>
</svg>
