<svg width="428" height="441" viewBox="0 0 428 441" fill="none" xmlns="http://www.w3.org/2000/svg">
<path d="M355.64 114.369L320.627 79.356L73.3591 326.624L108.372 361.637L355.64 114.369Z" fill="#EBEBEB"/>
<path d="M108.369 79.3597L73.3562 114.373L320.625 361.641L355.638 326.628L108.369 79.3597Z" fill="#EBEBEB"/>
<path d="M120.168 188.539L111.462 179.833L49.9776 241.317L58.6839 250.023L120.168 188.539Z" fill="#EBEBEB"/>
<path d="M58.6802 179.835L49.9739 188.542L111.458 250.026L120.165 241.32L58.6802 179.835Z" fill="#EBEBEB"/>
<path d="M379.025 188.537L370.319 179.831L308.834 241.315L317.541 250.021L379.025 188.537Z" fill="#EBEBEB"/>
<path d="M317.535 179.836L308.829 188.542L370.313 250.026L379.02 241.32L317.535 179.836Z" fill="#EBEBEB"/>
<path d="M308.405 387.634C306.336 382.558 303.939 376.928 305.713 371.444C307.349 366.384 310.652 361.19 316.111 359.778C317.668 359.378 318.722 359.382 318.672 361.227C318.594 364.039 316.582 366.923 315.306 369.319C313.648 372.428 312.205 375.566 311.156 378.936C310.424 381.28 309.934 383.698 309.259 386.063C309.18 386.36 309.092 386.657 308.996 386.953C308.965 387.063 308.932 387.178 308.894 387.291C308.908 387.34 308.926 387.392 308.944 387.439C308.975 387.54 308.959 387.629 308.91 387.692C308.891 387.719 308.867 387.745 308.837 387.764C308.698 387.851 308.485 387.833 308.405 387.634Z" fill="#455A64"/>
<path d="M308.837 387.764C307.256 383.215 305.261 378.41 307.003 373.667C307.81 371.475 309.114 369.418 310.566 367.597C311.225 366.763 313.186 364.265 314.434 364.544C316.692 365.05 311.222 373.168 310.783 374.176C309.14 377.958 308.843 382.034 309.259 386.064C309.18 386.361 309.092 386.658 308.996 386.954C308.596 384.115 308.59 381.218 309.125 378.398C309.864 374.487 312.038 371.663 313.759 368.184C314.134 367.431 315.455 365.091 314.033 364.912C313.095 364.795 311.166 367.219 310.754 367.741C309.382 369.471 308.152 371.423 307.361 373.489C305.534 378.249 307.427 383.068 308.91 387.693C308.892 387.72 308.868 387.745 308.837 387.764Z" fill="white"/>
<path d="M306.308 391.623C306.093 391.65 305.882 391.685 305.666 391.717C305.659 391.72 305.654 391.717 305.645 391.716C305.586 391.725 305.537 391.702 305.506 391.663C305.43 391.579 305.43 391.43 305.51 391.355C305.537 391.325 305.581 391.309 305.634 391.306C305.662 391.305 305.69 391.303 305.724 391.303C305.789 391.3 305.854 391.297 305.919 391.294C305.922 391.29 305.924 391.284 305.93 391.278C305.947 391.267 305.966 391.252 305.983 391.242C309.051 389.082 312.46 387.429 315.515 385.22C318.428 383.112 321.198 380.803 324.274 378.926C326.212 377.742 336.173 372.439 336.562 377.543C336.732 379.805 334.281 382.298 332.791 383.725C330.794 385.639 328.412 387.109 325.876 388.194C319.601 390.879 312.918 390.669 306.308 391.623Z" fill="#455A64"/>
<path d="M319.919 388.31C322.332 387.489 324.676 386.43 326.768 384.957C327.497 384.454 330.988 382.034 330.412 380.761C330.046 379.936 328.327 380.404 327.751 380.534C325.307 381.095 323.2 382.727 321.095 384.015C316.804 386.647 312.314 388.882 307.7 390.855C307.39 390.924 307.07 390.986 306.763 391.063C306.501 391.113 306.246 391.18 305.986 391.239C305.896 391.263 305.81 391.276 305.719 391.301C305.652 391.317 305.586 391.332 305.511 391.35C305.43 391.425 305.432 391.579 305.507 391.659C305.707 391.613 305.91 391.574 306.11 391.529C305.953 391.595 305.802 391.65 305.645 391.717C305.653 391.715 305.656 391.723 305.664 391.719C305.843 391.69 306.014 391.664 306.185 391.636C306.227 391.629 306.262 391.626 306.306 391.619C306.569 391.523 306.829 391.418 307.081 391.317C311.389 390.408 315.75 389.721 319.919 388.31ZM308.749 390.634C311.453 389.498 314.096 388.221 316.68 386.829C318.767 385.712 320.791 384.498 322.79 383.24C323.922 382.527 325.05 381.805 326.289 381.288C327.231 380.897 330.821 379.734 329.298 382.364C328.186 384.264 324.914 385.826 323.02 386.702C320.918 387.681 318.707 388.384 316.458 388.965C313.912 389.618 311.323 390.106 308.749 390.634Z" fill="white"/>
<path d="M293.208 399.569L293.207 399.566C293.157 399.485 293.119 399.397 293.114 399.385C291.627 394.595 288.888 388.49 290.564 383.437C291.804 379.704 295.303 375.199 299.492 374.699C304.217 374.145 301.156 381.924 300.468 383.937C298.711 389.067 293.636 399.52 293.483 399.574C293.459 399.603 293.444 399.636 293.42 399.665C293.415 399.67 293.411 399.676 293.409 399.68C293.349 399.751 293.27 399.666 293.208 399.569Z" fill="#455A64"/>
<path d="M293.405 399.682C293.472 399.349 293.54 399.017 293.616 398.682C294.427 394.874 295.403 391.097 296.566 387.387C296.855 386.448 299.625 379.426 297.65 379.246C296.454 379.142 295.021 381.648 294.525 382.464C293.641 383.928 293.001 385.538 292.645 387.206C291.841 391.056 292.814 395.014 293.173 398.907C293.203 399.086 293.217 399.272 293.23 399.457C293.218 399.497 293.21 399.527 293.206 399.564L293.209 399.572C293.272 399.667 293.347 399.747 293.405 399.682ZM292.671 389.393C292.793 387.657 293.229 385.932 293.925 384.329C294.384 383.264 296.178 379.45 297.607 379.767C298.365 379.933 298.158 380.379 298.066 381.263C298.024 381.668 297.948 382.075 297.857 382.47C297.628 383.449 297.288 384.398 296.976 385.345C296.413 387.016 295.896 388.69 295.415 390.386C294.621 393.156 293.947 395.954 293.362 398.774C293.195 395.633 292.445 392.525 292.671 389.393Z" fill="white"/>
<path d="M306.049 404.607C300.228 405.383 294.259 404.318 289.014 401.709C288.978 401.689 288.949 401.666 288.931 401.64C288.865 401.56 288.875 401.449 288.932 401.366C288.986 401.285 289.092 401.234 289.212 401.291C289.318 401.343 289.43 401.39 289.54 401.441C296.219 399.875 302.891 398.403 309.545 396.709C311.112 396.309 321.164 393.964 320.681 397.494C320.382 399.672 316.488 401.24 314.773 402.046C312.021 403.342 309.059 404.204 306.049 404.607Z" fill="#455A64"/>
<path d="M313.994 399.756C314.469 399.401 314.917 398.92 314.324 398.459C313.185 397.575 308.497 398.778 307.175 399.046C301.727 400.148 296.32 400.747 290.816 401.355C290.355 401.406 289.887 401.461 289.418 401.515C289.255 401.465 289.092 401.417 288.93 401.367C288.871 401.453 288.866 401.563 288.93 401.639C288.976 401.64 289.026 401.631 289.072 401.632C289.286 401.698 289.511 401.77 289.731 401.825C289.739 401.822 289.739 401.822 289.739 401.822C293.233 402.839 296.934 403.264 300.52 403.151C302.826 403.074 305.106 402.754 307.347 402.204C309.407 401.701 312.276 401.065 313.994 399.756ZM290.076 401.68C289.967 401.657 289.864 401.622 289.757 401.598C289.952 401.59 290.14 401.584 290.333 401.568C294.613 401.346 298.907 400.92 303.127 400.141C305.27 399.744 307.382 399.214 309.535 398.894C310.445 398.759 313.013 398.288 313.661 398.847C314.301 399.381 313.362 399.734 312.846 400.005C312.473 400.195 311.763 400.456 311.4 400.598C304.456 403.272 297.127 403.518 290.076 401.68Z" fill="white"/>
<path d="M275.511 407.547L275.166 406.606C275.99 406.286 276.812 405.966 277.625 405.641C280.924 404.304 284.216 402.943 287.484 401.519C289.348 400.708 291.188 399.88 292.989 398.993C293.05 398.961 293.111 398.93 293.174 398.907C293.317 398.827 293.463 398.756 293.616 398.682C293.77 398.608 293.929 398.522 294.087 398.436C298.11 396.382 301.897 393.981 305.182 390.703C306.262 389.628 307.29 388.51 308.299 387.362C308.395 387.254 308.489 387.139 308.585 387.031C308.61 387.004 308.637 386.976 308.66 386.94C308.764 386.83 308.857 386.715 308.959 386.596C309.034 386.505 309.104 386.424 309.179 386.334C312.208 382.753 314.955 378.923 317.773 375.212C318.578 374.148 319.389 373.082 320.207 372.03C320.254 371.959 320.302 371.896 320.354 371.841C320.405 371.759 320.468 371.682 320.53 371.604C324.122 366.922 327.773 362.272 331.236 357.509C331.36 357.328 331.614 357.551 331.488 357.725C329.205 360.923 326.996 364.176 324.766 367.418C324.472 367.851 324.169 368.28 323.875 368.713C323.285 369.571 322.7 370.42 322.108 371.27C320.922 372.971 319.731 374.657 318.507 376.326C315.082 381.02 311.666 385.864 307.674 390.124C307.374 390.443 307.072 390.752 306.762 391.066C306.571 391.262 306.381 391.458 306.185 391.639C305.969 391.863 305.741 392.082 305.515 392.301C301.488 396.148 296.825 398.7 291.86 400.901C291.518 401.053 291.168 401.209 290.815 401.357C290.659 401.423 290.497 401.501 290.333 401.57C290.245 401.602 290.161 401.643 290.075 401.683C289.964 401.724 289.855 401.773 289.738 401.825C289.738 401.825 289.738 401.825 289.73 401.828C289.651 401.857 289.565 401.897 289.478 401.929C289.181 402.056 288.881 402.175 288.576 402.305C285.284 403.666 281.976 404.979 278.669 406.273C277.619 406.684 276.565 407.115 275.511 407.547Z" fill="#455A64"/>
<path d="M325.737 357.274C328.255 353.43 334.188 347.509 339.294 349.941C341.349 350.918 342.278 352.985 341.665 355.175C340.95 357.712 338.539 359.617 336.509 361.098C331.089 365.059 325.338 368.476 320.198 372.825C320.177 372.876 319.759 373.194 319.648 373.294C319.541 373.384 319.416 373.206 319.52 373.117C319.686 372.973 319.855 372.833 320.021 372.689C321.493 367.498 322.749 361.833 325.737 357.274Z" fill="#455A64"/>
<path d="M320.198 372.865C320.221 372.83 320.255 372.799 320.278 372.764C321.399 371.331 322.601 369.994 323.876 368.712C326.529 366.056 329.463 363.696 332.438 361.374C333.586 360.483 339.27 356.299 335.901 354.956C334.482 354.392 332.641 355.22 331.39 355.852C329.37 356.855 327.626 358.318 326.151 360.016C323.223 363.406 321.605 367.6 320.355 371.84C320.291 372.035 320.235 372.228 320.179 372.42C320.135 372.473 320.098 372.521 320.054 372.574C320.029 372.602 319.997 372.641 319.974 372.676C319.956 372.7 319.946 372.723 319.947 372.749C319.936 372.843 320.022 372.929 320.107 372.916C320.143 372.913 320.175 372.902 320.198 372.865ZM320.531 371.604C321.666 368.139 323.016 364.667 325.144 361.689C326.251 360.143 327.573 358.717 329.095 357.562C329.768 357.053 330.493 356.588 331.244 356.195C331.796 355.901 332.393 355.629 332.992 355.436C334.314 354.996 335.941 355.016 336.36 355.739C336.886 356.631 336.445 357.155 335.576 358.188C335.288 358.538 334.965 358.865 334.636 359.176C333.81 359.958 332.909 360.659 332.013 361.35C330.527 362.501 329.052 363.657 327.615 364.872C326.639 365.69 325.684 366.539 324.768 367.418C323.179 368.933 321.684 370.531 320.317 372.253C320.382 372.038 320.457 371.821 320.531 371.604Z" fill="white"/>
<path d="M100.637 375.179C103.498 377.501 106.197 380.012 108.863 382.55C110.377 383.987 111.873 385.444 113.395 386.882C115.067 388.465 116.661 390.251 118.916 390.94C118.921 390.937 118.923 390.931 118.926 390.932C118.956 390.924 119.204 391.074 119.206 391.079C119.216 391.094 119.223 391.108 119.225 391.12C119.292 391.291 119.137 391.538 118.904 391.477C118.852 391.462 118.804 391.444 118.754 391.431C118.735 391.432 118.714 391.435 118.694 391.436C118.05 391.487 117.073 391.168 116.669 391.1C114.834 390.794 113.014 390.357 111.224 389.839C107.559 388.78 104.011 387.309 100.72 385.371C97.777 383.638 95.0525 381.531 92.6693 379.087C90.7624 377.127 87.8959 374.242 87.2212 371.487C86.6161 368.993 89.9016 369.286 91.4389 369.636C94.9246 370.442 97.9304 372.982 100.637 375.179Z" fill="#455A64"/>
<path d="M92.3244 373.843C91.618 374.974 94.7561 378.077 96.0818 379.466C98.1659 381.66 100.534 383.56 103.084 385.184C107.673 388.112 112.781 390.051 118.059 391.286C118.268 391.337 118.484 391.391 118.697 391.434C118.716 391.436 118.739 391.431 118.759 391.433C118.804 391.441 118.851 391.46 118.904 391.473C119.134 391.538 119.299 391.29 119.227 391.115C118.8 390.948 118.39 390.772 117.981 390.577C117.608 390.404 117.247 390.229 116.895 390.038C112.992 388.03 109.53 385.125 106.142 382.357C102.162 379.11 93.2673 372.35 92.3244 373.843ZM117.491 390.702C118.031 390.96 118.578 391.191 119.127 391.404C118.694 391.294 118.262 391.184 117.835 391.067C113.217 389.834 108.716 388.173 104.582 385.75C102.262 384.4 100.07 382.81 98.0795 380.995C97.0087 380.016 96.0006 378.985 95.0639 377.889C94.6732 377.424 92.1322 374.695 92.7205 374.091C93.1341 373.668 95.9583 375.273 96.02 375.302C96.5854 375.615 97.1402 375.961 97.6896 376.315C98.8186 377.041 99.907 377.831 100.98 378.631C103.301 380.382 105.529 382.265 107.793 384.091C110.808 386.526 113.969 389.032 117.491 390.702Z" fill="white"/>
<path d="M120.325 362.726C123.077 367.333 123.993 372.765 124.395 378.037C124.607 380.862 124.688 383.695 124.836 386.52C124.957 388.887 124.931 391.642 125.573 394.07C125.597 394.176 125.627 394.287 125.661 394.395C125.862 395.086 126.123 395.748 126.459 396.364C126.483 396.415 126.482 396.461 126.461 396.5C126.51 396.56 126.556 396.614 126.597 396.68C126.628 396.723 126.579 396.785 126.53 396.749C126.469 396.704 126.405 396.646 126.344 396.601C126.339 396.595 126.335 396.594 126.33 396.588C126.265 396.596 126.204 396.574 126.168 396.503C126.152 396.482 126.138 396.454 126.125 396.426C126.065 396.378 126.002 396.329 125.944 396.277C121.579 392.727 118.865 386.429 116.971 381.353C115.083 376.302 114.013 370.811 115.048 365.447C115.311 364.099 115.702 360.91 117.276 360.357C118.712 359.85 119.744 361.748 120.325 362.726Z" fill="#455A64"/>
<path d="M118.341 365.945C116.737 366.316 117.358 370.739 117.472 371.822C117.811 375.109 118.663 378.314 119.56 381.479C121.049 386.676 122.882 391.627 125.865 396.085L125.872 396.089C125.893 396.153 125.918 396.208 125.938 396.271C126.002 396.33 126.062 396.379 126.122 396.426C126.134 396.455 126.147 396.482 126.164 396.503C126.199 396.575 126.265 396.597 126.332 396.588C126.306 396.501 126.275 396.422 126.256 396.34C126.034 395.7 125.84 395.049 125.659 394.394C125.627 394.285 125.596 394.175 125.571 394.07C124.347 389.539 123.889 384.806 123.254 380.133C122.808 376.889 122.221 373.629 121.178 370.523C120.914 369.727 119.687 365.635 118.341 365.945ZM119.941 368.208C122.473 373.195 122.789 379.292 123.499 384.742C123.969 388.431 124.556 392.123 125.718 395.632C123.182 391.534 121.508 386.872 120.169 382.3C119.394 379.662 118.667 376.995 118.196 374.287C117.934 372.832 117.718 371.334 117.677 369.846C117.656 369.173 117.66 367.853 117.848 367.169C118.303 365.541 119.504 367.353 119.941 368.208Z" fill="white"/>
<path d="M135.689 403.047C135.736 403.13 135.728 403.242 135.676 403.332C135.714 403.331 135.747 403.326 135.782 403.324C135.838 403.32 135.871 403.359 135.875 403.399C135.886 403.443 135.866 403.489 135.811 403.501C129.51 404.899 122.457 405.632 116.09 404.311C113.405 403.753 110.794 402.817 108.424 401.426C106.805 400.474 103.546 398.554 103.236 396.467C102.619 392.267 114.077 395.952 115.802 396.513C118.948 397.532 121.998 398.817 125.121 399.898C128.541 401.079 132.039 402.009 135.533 402.941C135.608 402.959 135.66 402.997 135.689 403.047Z" fill="#455A64"/>
<path d="M135.687 403.045C135.34 403.039 134.998 403.026 134.653 403C128.993 402.748 123.71 401.599 118.27 399.632C115.648 398.684 112.968 397.621 110.21 397.129C109.522 397.01 106.985 396.376 107.483 397.95C107.745 398.765 111.986 400.873 113.133 401.329C115.757 402.369 118.537 402.985 121.322 403.353C125.964 403.97 130.786 404.01 135.464 403.447C135.602 403.434 135.741 403.42 135.873 403.402C135.87 403.36 135.835 403.318 135.781 403.325C135.751 403.325 135.716 403.333 135.678 403.33C135.726 403.239 135.736 403.126 135.687 403.045ZM123.702 403.296C120.924 403.063 118.135 402.622 115.457 401.81C114.397 401.487 113.346 401.102 112.325 400.654C111.527 400.296 110.726 399.925 109.996 399.46C108.198 398.316 107.819 397.879 107.944 397.536C108.025 397.326 108.381 397.188 109.794 397.33C110.69 397.42 111.616 397.668 112.473 397.933C113.714 398.318 114.941 398.743 116.165 399.188C118.611 400.066 121.053 400.981 123.555 401.673C127.126 402.674 130.864 403.247 134.586 403.269C130.968 403.561 127.35 403.613 123.702 403.296Z" fill="white"/>
<path d="M133.89 384.811C135.576 386.375 136.689 388.491 137.549 390.598C139.271 394.84 140.065 399.386 141.484 403.73C141.696 404.379 141.921 405.024 142.167 405.665C142.196 405.734 142.673 406.431 142.621 406.393C142.609 406.385 142.387 406.185 142.015 405.839L142.013 405.835C140.179 404.133 134.708 398.895 132.511 395.253C131.161 393.013 129.861 390.579 129.096 388.066C128.739 386.863 128.049 384.129 129.205 383.117C130.45 382.027 133.012 383.993 133.89 384.811Z" fill="#455A64"/>
<path d="M131.35 386.042C129.689 386.857 133.678 394.128 134.183 395.084C136.054 398.627 138.371 401.908 141.089 404.848C141.389 405.186 141.698 405.509 142.014 405.837C142.39 406.182 142.602 406.385 142.617 406.394C142.63 406.372 142.199 405.733 142.164 405.661C142.121 405.553 142.082 405.439 142.038 405.332C141.842 404.798 141.656 404.261 141.485 403.733C140.184 400.848 138.931 397.932 137.567 395.066C136.584 393 135.505 390.994 134.2 389.106C133.906 388.682 132.075 385.684 131.35 386.042ZM132.84 387.505C136.993 392.734 138.782 399.23 141.676 405.145C141.724 405.244 141.769 405.333 141.816 405.433C141.707 405.304 141.585 405.178 141.475 405.049C139.286 402.56 137.322 399.9 135.64 397.046C134.617 395.316 133.702 393.512 132.894 391.664C132.471 390.69 131.924 389.626 131.637 388.595C131.506 388.132 131.197 386.848 131.5 386.667C131.926 386.402 132.563 387.162 132.84 387.505Z" fill="white"/>
<path d="M98.1986 343.907C104.821 353.548 102.565 366.586 108.519 376.568C108.531 376.588 108.541 376.603 108.552 376.618C108.732 376.923 108.922 377.223 109.12 377.522C109.215 377.668 109.104 377.829 108.979 377.851C108.922 377.861 108.863 377.84 108.818 377.773C108.769 377.705 108.722 377.63 108.679 377.557C103.649 373.436 99.4211 367.674 96.2309 362.048C93.4596 357.152 91.4849 351.586 91.9726 345.892C92.0899 344.488 92.2337 341.694 93.8812 341.067C95.625 340.4 97.3845 342.718 98.1986 343.907Z" fill="#455A64"/>
<path d="M96.364 347.715C95.6743 347.985 95.6514 349.031 95.6046 349.603C95.4767 351.026 95.5667 352.484 95.7801 353.89C96.2053 356.799 97.2257 359.59 98.4843 362.239C100.609 366.692 103.188 371.187 106.4 375.038C107.126 375.912 107.881 376.754 108.683 377.556C108.78 377.657 108.882 377.75 108.979 377.852C109.104 377.829 109.214 377.668 109.125 377.522C108.923 377.235 108.752 376.949 108.566 376.652C108.55 376.632 108.536 376.604 108.517 376.571C107.2 374.656 106.032 372.664 105.096 370.507C103.653 367.192 102.773 363.647 101.771 360.187C101.381 358.823 98.7278 346.769 96.364 347.715ZM98.0707 349.663C99.4581 352.202 100.036 355.157 100.833 357.919C101.644 360.709 102.419 363.507 103.268 366.282C103.941 368.474 104.792 370.639 105.835 372.703C106.694 374.421 107.705 376.074 108.859 377.607C107.567 376.229 106.381 374.746 105.275 373.214C105.258 373.194 105.248 373.177 105.242 373.154C103.279 370.415 101.576 367.467 99.9926 364.535C99.9732 364.503 99.9502 364.459 99.9308 364.426C98.5346 361.82 97.2901 359.1 96.5528 356.226C96.1559 354.666 95.8851 353.064 95.8507 351.451C95.8225 349.621 95.9865 348.141 96.6066 348.077C97.0308 348.042 97.6694 348.912 98.0707 349.663Z" fill="white"/>
<path d="M100.22 364.397C102.041 367.187 103.931 369.95 105.836 372.703C106.727 374.002 107.623 375.292 108.516 376.571C108.535 376.603 108.549 376.632 108.565 376.652C108.887 377.114 109.213 377.587 109.535 378.049C112.453 382.256 115.358 386.695 118.933 390.382C120.802 392.311 122.936 394.025 125.174 395.604C125.407 395.76 125.637 395.923 125.865 396.086L125.872 396.09C126.002 396.172 126.127 396.26 126.257 396.341C126.325 396.393 126.396 396.438 126.468 396.483C128.418 397.801 130.438 399.024 132.406 400.203C135.152 401.85 137.99 403.303 140.839 404.722C140.918 404.771 141.002 404.813 141.09 404.849C141.217 404.918 141.349 404.98 141.476 405.05C141.544 405.083 141.607 405.111 141.677 405.145C141.797 405.21 141.921 405.268 142.04 405.332C142.958 405.785 143.872 406.247 144.789 406.719L144.271 407.548C141.322 406.465 138.418 405.072 135.637 403.544C135.575 403.515 135.524 403.484 135.466 403.448C135.194 403.308 134.919 403.155 134.654 403.001C134.316 402.82 133.991 402.637 133.662 402.441C132.866 401.984 132.082 401.524 131.31 401.06C126.823 398.367 122.231 395.427 118.493 391.729C118.389 391.624 118.291 391.523 118.187 391.418C118.141 391.379 118.1 391.333 118.058 391.287C117.981 391.218 117.908 391.143 117.835 391.067L117.492 390.703C117.288 390.485 117.088 390.26 116.895 390.04C116.837 389.974 116.778 389.907 116.72 389.841C113.635 386.33 111.08 382.23 108.536 378.367C108.07 377.656 107.611 376.948 107.156 376.233C106.904 375.835 106.652 375.437 106.399 375.039C106.025 374.435 105.65 373.819 105.276 373.215C105.259 373.195 105.248 373.178 105.243 373.155C103.478 370.289 101.774 367.392 99.9933 364.536C99.9139 364.405 100.134 364.263 100.22 364.397Z" fill="#455A64"/>
<path d="M295.739 407.158H201.203C200.424 404.115 199.669 401.119 198.915 398.173C198.052 394.782 197.202 391.476 196.387 388.253C196.207 387.534 196.016 386.815 195.836 386.109C195.213 383.641 194.602 381.233 194.003 378.896C193.643 377.471 193.284 376.07 192.937 374.68C192.566 373.266 192.218 371.877 191.87 370.523C191.774 370.163 191.691 369.804 191.595 369.456C191.499 369.061 191.404 368.678 191.308 368.294C191.188 367.815 191.069 367.36 190.949 366.892V366.88C190.817 366.389 190.697 365.91 190.577 365.43C190.338 364.52 190.11 363.621 189.895 362.746C189.56 361.452 189.236 360.182 188.925 358.948C188.793 358.409 188.649 357.87 188.517 357.343C188.29 356.48 188.073 355.642 187.87 354.815C187.726 354.264 187.594 353.725 187.462 353.198C186.899 351.03 186.384 348.992 185.905 347.088C185.773 346.585 185.653 346.094 185.521 345.614C185.317 344.788 185.113 343.997 184.922 343.23C184.79 342.751 184.671 342.284 184.562 341.829C184.143 340.2 183.76 338.713 183.436 337.408C183.34 337.061 183.256 336.725 183.172 336.402C182.956 335.539 182.753 334.773 182.585 334.09C182.513 333.814 182.453 333.551 182.381 333.311C182.31 333.036 182.25 332.784 182.19 332.556C182.153 332.389 182.106 332.221 182.07 332.077C182.01 331.837 181.95 331.622 181.902 331.431C181.878 331.323 181.855 331.227 181.831 331.143C181.687 330.58 181.615 330.293 181.615 330.293H273.635C273.635 330.293 276.667 340.739 281.519 357.584C282.501 361.01 283.568 364.712 284.705 368.641C287.928 379.867 291.69 392.973 295.739 407.158Z" fill="#37474F"/>
<path d="M216.682 407.158H214.322C210.824 392.673 207.409 378.165 204.151 363.634C203.36 360.099 202.582 356.565 201.803 353.019C201.731 352.684 201.659 352.36 201.588 352.025C201.551 351.845 201.815 351.773 201.863 351.952C201.899 352.06 201.923 352.168 201.959 352.276C203.025 356.074 204.092 359.883 205.134 363.694C209.123 378.142 212.944 392.638 216.682 407.158Z" fill="#263238"/>
<path d="M270.653 330.293L266.592 350.623L263.261 367.3L257.594 395.717L257.007 398.629L256.037 403.48L255.306 407.158H201.191C200.425 404.103 199.658 401.108 198.915 398.173C198.052 394.783 197.202 391.476 196.387 388.254C196.207 387.535 196.016 386.816 195.836 386.109C195.213 383.642 194.602 381.234 194.003 378.897C193.643 377.472 193.284 376.071 192.937 374.681C192.566 373.267 192.218 371.878 191.87 370.524C191.774 370.164 191.691 369.805 191.595 369.457C191.499 369.062 191.404 368.678 191.308 368.295C191.188 367.816 191.069 367.361 190.949 366.893V366.881C190.817 366.39 190.697 365.911 190.577 365.431C190.338 364.521 190.11 363.622 189.895 362.747C189.56 361.453 189.236 360.183 188.925 358.949C188.781 358.398 188.649 357.871 188.517 357.344C188.29 356.481 188.073 355.643 187.87 354.816C187.726 354.265 187.594 353.726 187.462 353.199C186.899 351.031 186.384 348.993 185.905 347.089C185.773 346.586 185.653 346.095 185.521 345.615C185.317 344.789 185.113 343.997 184.922 343.231C184.79 342.752 184.671 342.285 184.562 341.83C184.143 340.2 183.76 338.714 183.436 337.409C183.34 337.061 183.256 336.726 183.172 336.403C182.956 335.54 182.753 334.774 182.585 334.091C182.513 333.815 182.453 333.552 182.381 333.312C182.31 333.037 182.25 332.785 182.19 332.557C182.153 332.389 182.106 332.222 182.07 332.078C182.01 331.838 181.95 331.623 181.902 331.432C181.878 331.324 181.855 331.228 181.831 331.144C181.687 330.58 181.615 330.294 181.615 330.294H270.653V330.293Z" fill="#263238"/>
<path d="M270.316 330.257C270.316 330.257 270.316 330.269 270.316 330.293C270.28 330.796 269.932 336.284 269.046 344.657C268.794 347.101 268.494 349.784 268.147 352.66C267.608 357.2 266.937 362.208 266.11 367.503C264.697 376.739 262.851 386.815 260.456 396.663C259.605 400.209 258.671 403.719 257.677 407.158L137.11 407.2C137.11 407.2 135.459 400.658 135.728 397.196C136.807 383.316 144.931 330.292 144.931 330.292L252.681 330.256H270.316V330.257Z" fill="#37474F"/>
<path d="M243.442 342.366C243.46 346.618 243.424 350.861 243.299 355.094C243.165 359.694 242.907 364.284 242.461 368.875C242.452 369.044 242.435 369.213 242.417 369.383C242.007 373.688 241.517 377.984 240.928 382.271C240.385 386.264 240.028 390.57 238.397 394.304C237.782 395.722 236.882 397.085 235.75 398.155C234.689 399.145 233.451 399.911 232.016 400.25C231.793 400.313 231.552 400.357 231.321 400.393C231.258 400.402 231.187 400.393 231.116 400.41C231.205 400.464 231.268 400.535 231.259 400.66C231.259 402.086 231.339 403.53 231.232 404.947C231.224 405.01 231.224 405.073 231.215 405.126C231.161 405.821 231.081 406.517 230.983 407.203H229.085C229.254 406.382 229.415 405.563 229.584 404.743C229.896 403.352 230.306 401.98 230.582 400.571C230.591 400.508 230.636 400.473 230.671 400.437C228.086 400.561 225.431 399.269 224.415 396.8C223.666 395.009 223.915 393.101 224.121 391.23C224.415 388.787 224.692 386.345 224.976 383.894C225.521 379.411 226.26 374.963 226.902 370.489C227 369.811 227.098 369.125 227.187 368.456C228.47 359.356 229.388 353.134 231.082 344.114C231.135 343.74 231.207 343.365 231.277 342.991C231.322 342.733 231.732 342.796 231.714 343.035C231.679 343.633 231.634 344.247 231.58 344.845C231.357 348.295 228.148 381.774 227.248 388.387C226.83 391.462 225.11 396.997 229.539 397.791C230.635 397.996 231.634 397.782 232.507 397.318C234.424 396.284 235.778 394.003 236.411 392.015C237.542 388.476 237.846 384.608 238.371 380.944C238.951 376.897 239.45 372.851 239.869 368.795V368.786C240.412 363.724 242.231 348.454 242.552 345.879C242.695 344.694 242.846 343.499 242.997 342.304C243.041 342.054 243.433 342.107 243.442 342.366Z" fill="#263238"/>
<path d="M162.661 372.943C167.608 372.924 181.472 372.346 189.783 366.36C195.072 362.55 198.928 346.799 199.953 342.323C200.003 342.102 200.343 342.177 200.349 342.384C200.508 347.401 199.753 352.512 198.355 357.349C197.161 361.479 195.553 366.089 192.043 368.984C188.351 372.029 183.339 373.099 178.614 373.654C173.28 374.281 167.96 374.131 162.648 373.444C162.32 373.401 162.314 372.944 162.661 372.943Z" fill="#263238"/>
<path d="M282.308 371.696C279.646 371.677 272.186 371.099 267.715 365.113C264.868 361.303 262.793 345.552 262.242 341.076C262.214 340.855 262.032 340.93 262.028 341.137C261.943 346.154 262.349 351.265 263.102 356.102C263.744 360.232 264.61 364.842 266.497 367.737C268.484 370.782 271.182 371.852 273.724 372.407C276.595 373.034 279.457 372.884 282.315 372.197C282.492 372.154 282.494 371.697 282.308 371.696Z" fill="#263238"/>
<path d="M156.719 340.692C156.456 347.34 149.78 385.962 149.112 399.113C148.993 401.464 150.808 407.158 150.808 407.158H148.58C148.58 407.158 146.825 401.565 146.978 399.265C147.858 386.03 155.629 347.317 156.144 340.68C156.18 340.308 156.731 340.332 156.719 340.692Z" fill="#263238"/>
<path d="M253.093 187.64C297.424 222.202 322.755 252.204 323.451 266.976C325.01 300.078 316.659 309.109 311.548 307.919C277.759 300.043 252.524 238.381 235.965 201.715C219.526 165.316 240.397 177.742 253.093 187.64Z" fill="#AD6359"/>
<path d="M316.032 236.899L265.746 268.719C265.746 268.719 240.987 223.766 231.673 196.489C222.357 169.212 233.573 169.275 259.555 189.246C285.538 209.216 316.032 236.899 316.032 236.899Z" fill="#FFC727"/>
<path d="M252.462 214.387C251.366 215.528 250.358 216.749 249.699 218.327C251.277 217.676 252.506 216.66 253.647 215.563C254.735 214.422 255.751 213.201 256.411 211.624C254.833 212.283 253.603 213.291 252.462 214.387ZM304.588 229.299C303.447 228.203 302.226 227.186 300.64 226.527C301.299 228.113 302.306 229.334 303.412 230.475C304.553 231.572 305.774 232.579 307.352 233.239C306.691 231.661 305.684 230.44 304.588 229.299ZM251.053 183.065C250.153 182.896 249.244 182.833 248.335 182.816C246.757 182.851 245.171 183.003 243.594 183.654C245.171 184.304 246.758 184.456 248.335 184.491C249.663 184.465 250.982 184.349 252.31 183.93C251.883 183.626 251.464 183.341 251.053 183.065ZM274.933 230.288C273.355 230.324 271.768 230.475 270.191 231.126C271.769 231.777 273.356 231.929 274.933 231.964C276.519 231.929 278.097 231.777 279.684 231.126C278.097 230.475 276.519 230.324 274.933 230.288ZM275.753 202.158C275.833 203.317 276.047 204.466 276.519 205.625C276.84 204.85 277.036 204.092 277.162 203.317V203.308C276.689 202.933 276.225 202.541 275.753 202.158Z" fill="white"/>
<path d="M304.766 229.616C285.552 244.557 266.644 254.698 262.887 257.206C262.71 257.324 262.539 257.025 262.725 256.915C266.539 254.647 287.066 239.9 304.587 229.296C304.789 229.173 304.951 229.473 304.766 229.616Z" fill="#263238"/>
<path opacity="0.1" d="M298.008 248.301L265.744 268.719C265.744 268.719 240.986 223.763 231.672 196.492C229.706 190.733 228.656 186.19 228.471 182.795L298.008 248.301Z" fill="black"/>
<path d="M283.746 351.849L131.566 354.214C131.566 354.214 174.258 205.219 206.548 178.258C214.095 171.957 236.811 170.888 243.446 181.005C260.125 206.435 283.836 351.722 283.746 351.849Z" fill="#FFC727"/>
<path d="M267.632 338.782C266.536 339.915 265.52 341.144 264.869 342.722C266.447 342.063 267.676 341.055 268.809 339.959C269.905 338.818 270.921 337.588 271.581 336.01C270.004 336.67 268.774 337.686 267.632 338.782ZM216.149 302.978C215.053 304.11 214.037 305.34 213.386 306.918C214.964 306.267 216.193 305.251 217.326 304.154C218.422 303.013 219.438 301.783 220.098 300.206C218.52 300.864 217.29 301.88 216.149 302.978ZM185.905 347.09C184.809 348.231 183.793 349.452 183.142 351.039C184.72 350.379 185.941 349.363 187.082 348.267C188.178 347.125 189.194 345.905 189.845 344.327C188.267 344.986 187.047 345.994 185.905 347.09ZM151.776 290.953C151.527 291.666 151.277 292.38 151.036 293.083C151.625 292.335 152.142 291.523 152.534 290.587C152.276 290.695 152.017 290.819 151.776 290.953ZM255.119 212.283C254.129 212.88 253.273 213.612 252.462 214.387C251.366 215.528 250.358 216.749 249.699 218.327C251.277 217.676 252.506 216.66 253.647 215.564C254.289 214.895 254.904 214.191 255.43 213.406C255.332 213.032 255.225 212.657 255.119 212.283ZM253.647 252.26C252.506 251.164 251.277 250.156 249.699 249.497C250.358 251.075 251.366 252.304 252.462 253.445C253.602 254.533 254.833 255.549 256.411 256.209C255.751 254.631 254.735 253.4 253.647 252.26ZM275.405 304.296C274.969 304.02 274.505 303.771 273.997 303.565C274.46 304.661 275.084 305.597 275.806 306.435C275.673 305.731 275.539 305.019 275.405 304.296ZM222.085 197.131C220.944 196.025 219.723 195.018 218.136 194.358C218.796 195.945 219.812 197.166 220.908 198.307C222.049 199.404 223.27 200.411 224.848 201.07C224.189 199.493 223.181 198.271 222.085 197.131ZM156.483 322.846C155.341 321.749 154.121 320.733 152.543 320.082C153.194 321.66 154.21 322.89 155.306 324.022C156.447 325.118 157.677 326.135 159.255 326.794C158.595 325.216 157.579 323.986 156.483 322.846ZM194.454 250.441C193.312 249.336 192.083 248.329 190.505 247.669C191.165 249.256 192.172 250.477 193.268 251.618C194.418 252.714 195.639 253.721 197.217 254.381C196.557 252.803 195.55 251.583 194.454 250.441ZM249.057 316.401C247.48 316.436 245.893 316.579 244.316 317.23C245.894 317.881 247.48 318.033 249.057 318.068C250.644 318.041 252.222 317.89 253.808 317.23C252.221 316.579 250.643 316.427 249.057 316.401ZM220.873 275.123C219.286 275.158 217.709 275.31 216.132 275.952C217.709 276.603 219.286 276.755 220.873 276.79C222.451 276.764 224.037 276.612 225.615 275.952C224.037 275.301 222.45 275.15 220.873 275.123ZM244.77 183.252C244.378 183.359 243.986 183.493 243.593 183.654C244.146 183.877 244.69 184.046 245.243 184.17C245.091 183.849 244.931 183.546 244.77 183.252ZM163.239 259.462C163.025 260.014 162.811 260.567 162.606 261.12H162.651C164.238 261.084 165.816 260.933 167.402 260.282C166.011 259.711 164.629 259.524 163.239 259.462ZM185.584 315.563C184.006 315.598 182.42 315.75 180.843 316.401C182.421 317.052 184.007 317.203 185.584 317.23C187.171 317.203 188.749 317.052 190.326 316.401C188.749 315.741 187.171 315.599 185.584 315.563ZM198.687 221.045C197.101 221.08 195.523 221.232 193.946 221.883C195.524 222.534 197.101 222.686 198.687 222.721C200.265 222.686 201.852 222.534 203.429 221.883C201.852 221.232 200.265 221.08 198.687 221.045ZM152.534 347.749C151.874 349.336 151.731 350.913 151.696 352.49C151.705 352.963 151.731 353.435 151.768 353.899L153.292 353.873C153.337 353.418 153.354 352.954 153.363 352.491C153.336 350.913 153.184 349.336 152.534 347.749ZM221.497 329.878C220.846 331.456 220.694 333.042 220.659 334.619C220.694 336.206 220.846 337.784 221.497 339.37C222.148 337.783 222.299 336.206 222.326 334.619C222.299 333.042 222.148 331.456 221.497 329.878ZM184.756 280.551C184.096 282.129 183.945 283.716 183.918 285.293C183.953 286.879 184.105 288.457 184.756 290.044C185.398 288.457 185.549 286.879 185.585 285.293C185.558 283.716 185.406 282.129 184.756 280.551ZM252.525 282.637C251.874 284.224 251.723 285.802 251.696 287.388C251.722 288.966 251.874 290.543 252.525 292.13C253.176 290.543 253.327 288.965 253.362 287.388C253.326 285.801 253.184 284.224 252.525 282.637ZM224.866 228.506C224.215 230.093 224.063 231.671 224.037 233.256C224.072 234.834 224.224 236.421 224.866 237.998C225.517 236.42 225.668 234.833 225.704 233.256C225.677 231.67 225.526 230.092 224.866 228.506Z" fill="white"/>
<path d="M204.37 187.428C208.972 194.982 215.303 201.464 222.495 205.527C226.132 207.581 230.055 209.119 234.039 209.116C236.07 209.115 238.298 208.768 239.947 207.458C241.551 206.183 242.686 204.223 243.475 202.188C244.364 199.898 244.869 197.372 245.084 194.838C245.325 191.998 245.402 189.084 245.269 186.205C245.264 186.095 245.413 186.112 245.418 186.221C245.544 188.953 245.87 191.681 245.808 194.408C245.754 196.827 245.517 199.235 244.891 201.511C244.289 203.701 243.32 205.786 241.95 207.431C240.452 209.226 238.504 210.107 236.328 210.428C232.158 211.042 227.837 209.828 223.904 207.83C220.103 205.9 216.444 203.187 213.276 200.04C209.687 196.474 206.574 192.213 204.157 187.55C204.07 187.384 204.279 187.28 204.37 187.428Z" fill="#263238"/>
<path d="M236.255 203.171C227.992 205.98 212.242 194.451 205.508 184.53C205.05 183.848 205.426 176.176 205.441 166.833C205.429 161.163 205.28 154.85 204.729 149.099L241.637 154.406C241.637 154.406 239.246 166.801 240.269 176.822C240.363 177.659 240.521 178.43 240.743 179.158C240.766 179.265 240.81 179.394 240.833 179.543C241.994 183.957 244.239 200.451 236.255 203.171Z" fill="#AD6359"/>
<path d="M241.643 154.408C241.643 154.408 241.168 156.942 240.497 162.929C233.762 177.182 217.262 185.164 205.366 181.507C205.342 175.382 205.442 157.399 204.732 149.102L241.643 154.408Z" fill="#263238"/>
<path d="M200.508 96.5367C200.508 96.5367 192.167 98.8661 189.482 109.653C186.763 120.579 193.738 130.948 193.738 130.948L200.508 96.5367Z" fill="#263238"/>
<path d="M252.076 109.414C255.326 122.447 246.63 159.161 237.075 166.953C223.224 178.248 201.505 178.271 192.15 161.84C183.082 145.913 195.263 98.2672 205.846 91.2852C221.433 81.002 247.274 90.1616 252.076 109.414Z" fill="#AD6359"/>
<path d="M226.003 123.094C224.872 123.293 223.796 123.288 222.658 123.369C221.373 123.461 220.36 123.666 219.194 122.999C218.569 122.642 218.303 121.616 218.593 120.976C219.269 119.485 220.813 118.981 222.356 118.808C224.029 118.619 225.366 118.902 226.78 119.811C228.149 120.693 227.493 122.831 226.003 123.094Z" fill="#263238"/>
<path d="M198.379 118.829C199.412 119.331 200.447 119.622 201.519 120.012C202.73 120.453 203.648 120.928 204.952 120.607C205.653 120.435 206.189 119.523 206.086 118.828C205.846 117.208 204.498 116.3 203.063 115.71C201.506 115.069 200.142 114.974 198.533 115.46C196.975 115.932 197.017 118.167 198.379 118.829Z" fill="#263238"/>
<path d="M213.077 149.959C210.177 148.086 206.051 147.687 203.427 147.496C203.15 147.396 203.002 146.781 203.008 146.501L203.012 146.483C203.031 146.393 204.214 141.269 204.214 141.269C203.456 141.477 199.623 142.36 199.874 141.384C201.987 133.313 204.335 124.338 208.143 116.752C208.256 116.495 208.655 116.639 208.578 116.904C206.855 124.741 203.764 132.222 201.909 140.068C203.117 139.864 205.104 139.439 206.088 139.655C206.342 139.786 204.533 145.109 204.455 145.974C204.455 145.974 209.762 145.469 213.332 148.885C214.258 149.772 214.46 150.852 213.077 149.959Z" fill="#263238"/>
<path d="M216.512 154.758C215.806 155.213 215.056 155.885 214.15 155.778C213.28 155.676 212.357 155.085 211.635 154.62C211.565 154.574 211.468 154.64 211.503 154.724C211.947 155.797 213.169 156.662 214.348 156.695C215.5 156.728 216.247 155.88 216.725 154.917C216.791 154.783 216.615 154.692 216.512 154.758Z" fill="#263238"/>
<path d="M202.552 128.393C202.551 128.298 202.342 128.47 202.326 128.569C201.935 130.989 201.079 133.696 198.747 134.072C198.675 134.083 198.658 134.205 198.741 134.21C201.47 134.352 202.57 130.748 202.552 128.393Z" fill="#263238"/>
<path d="M202.116 131.015C201.895 131.598 201.521 132.168 200.953 132.622C200.385 133.075 199.562 133.214 198.849 133.085C198.113 132.952 197.434 132.356 197.158 131.707C196.882 131.059 196.79 130.405 196.825 129.779C196.843 129.382 196.909 128.995 196.985 128.611C197.162 127.799 197.472 127.031 197.985 126.394C197.825 126.978 197.738 127.566 197.713 128.146C197.683 128.698 197.694 129.225 197.744 129.748C197.858 130.834 198.278 131.808 199.104 131.926C199.959 132.124 200.736 131.56 201.285 130.604C201.829 129.671 202.228 128.582 202.608 127.463C202.712 128.644 202.578 129.856 202.116 131.015Z" fill="#263238"/>
<path d="M218.464 130.38C218.505 130.294 218.622 130.538 218.595 130.635C217.931 132.995 217.568 135.81 219.524 137.133C219.585 137.173 219.549 137.291 219.471 137.26C216.936 136.241 217.456 132.509 218.464 130.38Z" fill="#263238"/>
<path d="M217.755 132.942C217.71 133.563 217.81 134.239 218.134 134.89C218.457 135.54 219.146 136.012 219.847 136.195C220.572 136.384 221.438 136.13 221.962 135.658C222.486 135.186 222.845 134.631 223.076 134.049C223.226 133.68 223.33 133.303 223.422 132.921C223.605 132.11 223.645 131.283 223.449 130.49C223.347 131.087 223.179 131.658 222.957 132.193C222.753 132.708 222.52 133.18 222.254 133.634C221.693 134.57 220.902 135.277 220.104 135.036C219.245 134.855 218.778 134.017 218.682 132.918C218.581 131.842 218.679 130.687 218.805 129.513C218.212 130.541 217.824 131.696 217.755 132.942Z" fill="#263238"/>
<path d="M246.953 142.372C241.096 141.348 242.646 127.804 242.646 127.804C242.646 127.804 227.308 129.17 230.734 109.594C230.734 109.594 212.55 112.04 203.034 104.305C194.899 97.693 192.979 81.3848 201.364 73.5024C206.091 69.058 217.482 66.3167 230.379 84.4851C230.379 84.4851 253.493 74.2591 256.469 100.369C256.469 100.369 266.811 103.654 266.135 114.184C265.066 130.803 252.015 143.259 246.953 142.372Z" fill="#263238"/>
<path d="M231 108.221C231.106 108.044 231.37 108.163 231.293 108.36C229.483 112.946 227.577 117.943 230.613 122.49C233.565 126.907 238.7 129.045 243.841 127.461C244.139 127.37 244.308 127.826 244.009 127.916C239.138 129.386 233.836 127.809 230.57 123.843C226.661 119.096 228.115 113.068 231 108.221Z" fill="#263238"/>
<path d="M247.084 139.274C255.912 136.653 263.321 131.001 265.779 121.717C266.947 117.299 267.042 112.501 264.904 108.408C262.95 104.668 259.335 102.752 256.264 100.107C256.178 100.033 256.268 99.89 256.373 99.9385C276.693 109.378 266.908 137.17 247.331 140.348C246.712 140.447 246.479 139.453 247.084 139.274Z" fill="#263238"/>
<path d="M198.641 73.1646C209.954 62.2022 225.965 74.0704 230.81 85.5752C230.828 85.6166 230.761 85.6537 230.74 85.6122C226.05 76.7649 214.67 66.7956 204.113 71.0919C191.362 76.2807 192.16 97.7697 204.898 102.234C205.281 102.368 205.075 103.027 204.679 102.921C192.77 99.7057 190.231 81.3134 198.641 73.1646Z" fill="#263238"/>
<path d="M242.176 140.747C242.176 140.747 252.39 130.251 257.284 134.082C262.177 137.911 253.149 154.068 246.457 155.388C239.763 156.709 238.42 150.536 238.42 150.536L242.176 140.747Z" fill="#AD6359"/>
<path d="M254.581 138.648C254.684 138.656 254.68 138.801 254.587 138.822C249.87 139.893 246.872 143.617 244.547 147.604C246.129 146.182 248.068 145.577 250.006 147.5C250.107 147.601 249.968 147.764 249.847 147.717C248.097 147.034 246.739 147.134 245.277 148.387C244.244 149.273 243.438 150.476 242.624 151.562C242.353 151.924 241.674 151.595 241.898 151.165C241.914 151.133 241.933 151.101 241.951 151.068C242.759 145.408 248.431 138.228 254.581 138.648Z" fill="#263238"/>
<path d="M182.357 190.563C138.654 225.915 113.482 255.801 108.966 269.885C98.3353 303.038 114.277 308.761 117.439 307.881C150.865 298.582 183.837 241.286 199.734 204.329C215.518 167.64 194.874 180.438 182.357 190.563Z" fill="#AD6359"/>
<path d="M120.516 238.96L171.366 269.872C171.366 269.872 195.109 226.466 203.933 199.025C212.756 171.585 201.543 171.85 175.924 192.285C150.305 212.719 120.516 238.96 120.516 238.96Z" fill="#FFC727"/>
<path d="M133.023 241.136C131.962 242.233 130.973 243.418 130.322 244.924L130.438 244.996C131.935 244.345 133.103 243.365 134.199 242.313C135.296 241.171 136.303 239.942 136.963 238.364C135.385 239.024 134.163 240.04 133.023 241.136ZM182.278 195.027C181.182 196.168 180.166 197.398 179.515 198.976C181.093 198.316 182.313 197.309 183.455 196.212C184.551 195.071 185.567 193.842 186.218 192.264C184.64 192.923 183.419 193.931 182.278 195.027ZM162.651 259.444C161.073 259.479 159.486 259.631 157.909 260.282C159.487 260.933 161.073 261.084 162.651 261.12C164.238 261.084 165.815 260.933 167.401 260.282C165.815 259.631 164.238 259.48 162.651 259.444ZM193.946 221.883C194.258 222.007 194.57 222.124 194.882 222.213C194.997 221.963 195.105 221.714 195.212 221.464C194.793 221.571 194.365 221.714 193.946 221.883ZM163.782 220.314C163.132 221.901 162.98 223.479 162.945 225.064C162.98 226.642 163.132 228.229 163.782 229.806C164.433 228.228 164.585 226.641 164.62 225.064C164.585 223.479 164.433 221.901 163.782 220.314Z" fill="white"/>
<path d="M131.65 231.477C151.129 246.07 170.217 255.87 174.017 258.311C174.197 258.426 174.362 258.124 174.175 258.017C170.322 255.818 149.533 241.441 131.824 231.154C131.619 231.034 131.462 231.336 131.65 231.477Z" fill="#263238"/>
<path d="M168.101 267.751C168.438 267.792 170.709 268.98 171.178 269.237C176.451 259.499 175.478 261.74 180.841 252.052C183.47 247.304 186.106 242.56 188.725 237.808C191.449 232.866 193.912 227.708 196.903 222.922C196.991 222.781 197.184 222.892 197.126 223.042C195.332 227.749 192.961 232.285 190.708 236.805C191.198 236.109 191.664 235.395 192.195 234.725C193.383 233.223 194.548 231.722 195.614 230.131C195.778 229.887 196.185 230.102 196.019 230.348C195.002 231.867 194.099 233.433 193.2 235.025C192.3 236.619 191.313 238.135 190.306 239.662C189.334 241.134 188.266 242.53 187.192 243.928C187.061 244.098 186.932 244.273 186.802 244.445C185.361 247.271 183.956 250.119 182.45 252.915C177.176 262.708 171.809 270.369 171.636 270.318C170.952 270.118 168.225 268.238 167.952 268.026C167.813 267.916 167.96 267.733 168.101 267.751Z" fill="#263238"/>
<path d="M117.439 307.88C132.171 310.07 165.606 301.752 213.676 267.463C220.328 262.718 202.477 208.475 195.113 213.177C185.838 219.099 134.129 250.858 131.821 253.007C112.358 271.127 107.446 306.394 117.439 307.88Z" fill="#AD6359"/>
<path d="M137.702 248.652C134.495 250.649 131.68 253.128 129.113 255.805C127.846 257.16 126.61 258.546 125.476 260.011C124.309 261.487 123.325 263.069 122.402 264.679C120.546 267.895 118.917 271.237 117.457 274.667C116.001 278.096 114.708 281.621 113.788 285.291C115.226 281.856 116.846 278.537 118.5 275.24C120.171 271.952 121.894 268.695 123.751 265.538C124.695 263.97 125.646 262.409 126.739 260.979C127.855 259.532 128.982 258.093 130.168 256.7C132.533 253.907 134.992 251.18 137.702 248.652Z" fill="#263238"/>
<path d="M225.518 259.715C216.937 268.976 202.917 274.488 202.917 274.488L184.253 222.811C184.253 222.811 206.132 203.989 212.206 197.068C213.97 195.058 223.639 184.909 232.389 174.467C242.32 162.614 254.249 151.452 256.1 151.207C259.662 150.736 262.224 156.149 257.425 165.704C252.638 175.263 240.051 192.274 239.564 193.493C239.503 193.646 239.425 194.094 239.326 194.785C239.326 194.785 239.326 194.785 239.332 194.8C239.418 195.376 249.042 207.119 247.285 213.754C245.494 220.518 231.449 253.312 225.518 259.715Z" fill="#AD6359"/>
<path d="M223.898 207.196C223.898 207.196 230.338 181.973 234.447 178.435C238.557 174.896 259.981 149.896 263.534 149.352C267.087 148.808 269.654 154.3 264.86 163.855C260.067 173.411 247.483 190.417 246.993 191.644C246.503 192.871 244.529 215.706 243.711 217.757C242.893 219.808 223.898 207.196 223.898 207.196Z" fill="#AD6359"/>
<path d="M225.509 192.479C226.808 189.937 228.211 187.454 229.603 184.961C230.318 183.725 231.049 182.498 231.803 181.282C232.182 180.673 232.562 180.067 232.969 179.467C233.163 179.165 233.388 178.868 233.602 178.568C233.844 178.259 234.122 177.95 234.348 177.718C238.203 173.55 242.104 169.371 246.013 165.228C249.957 161.098 253.849 156.971 257.926 152.922C258.993 151.928 260.141 151.002 261.443 150.279C262.094 149.921 262.787 149.612 263.539 149.439C264.281 149.272 265.125 149.221 265.889 149.57C266.652 149.91 267.178 150.617 267.422 151.327C267.682 152.045 267.759 152.787 267.767 153.513C267.786 154.97 267.483 156.384 267.112 157.758C267.323 156.351 267.482 154.925 267.364 153.532C267.303 152.839 267.168 152.15 266.891 151.547C266.623 150.94 266.166 150.454 265.599 150.256C264.441 149.838 263.059 150.411 261.926 151.107C260.764 151.828 259.717 152.757 258.747 153.754C254.928 157.931 251.024 162.129 247.115 166.267C243.169 170.39 239.26 174.523 235.165 178.531C234.185 179.419 233.421 180.655 232.597 181.798C231.789 182.964 231.014 184.158 230.227 185.344L225.509 192.479Z" fill="#263238"/>
<path d="M226.713 212.359C226.713 212.359 233.882 184.74 237.991 181.202C242.101 177.664 263.525 152.664 267.078 152.119C270.631 151.574 273.198 157.067 268.404 166.622C263.611 176.178 251.027 193.184 250.538 194.41C250.048 195.637 245.846 217.487 245.028 219.538C244.209 221.588 226.713 212.359 226.713 212.359Z" fill="#AD6359"/>
<path d="M226.54 197.711C228.273 194.669 230.121 191.697 231.973 188.724C232.924 187.254 233.886 185.79 234.881 184.342C235.38 183.618 235.889 182.899 236.421 182.189C236.941 181.488 237.586 180.755 238.178 180.159C242.98 175.085 247.811 170.02 252.676 164.993L260.02 157.493L261.879 155.637C262.49 155.028 263.144 154.374 263.869 153.811C264.592 153.248 265.374 152.739 266.246 152.366C267.114 152.012 268.111 151.727 269.182 151.981C269.709 152.108 270.213 152.41 270.571 152.814C270.942 153.216 271.145 153.695 271.298 154.157C271.58 155.094 271.608 156.026 271.563 156.929C271.451 158.736 271.059 160.472 270.563 162.164C269.562 165.565 267.899 168.727 265.829 171.544C267.616 168.544 269.117 165.356 269.856 161.976C270.259 160.295 270.584 158.585 270.616 156.898C270.629 156.06 270.557 155.219 270.303 154.489C270.054 153.751 269.572 153.22 268.918 153.102C268.261 152.963 267.475 153.176 266.756 153.511C266.035 153.864 265.336 154.311 264.694 154.841C263.437 155.891 262.262 157.255 261.041 158.488L253.765 166.044C248.889 171.062 244.026 176.084 239.039 181.008C238.376 181.632 237.842 182.191 237.287 182.871C236.741 183.538 236.21 184.225 235.687 184.921C234.641 186.314 233.623 187.731 232.614 189.156L226.54 197.711Z" fill="#263238"/>
<path d="M225.905 211.938C225.905 211.938 237.748 189.407 241.573 186.113C245.398 182.819 258.957 164.836 262.265 164.329C265.572 163.822 267.963 168.936 263.5 177.83C259.038 186.725 253.708 197.266 253.253 198.409C252.797 199.551 245.791 217.628 245.029 219.538C244.266 221.446 225.905 211.938 225.905 211.938Z" fill="#AD6359"/>
<path d="M227.2 204.958C229.543 201.11 231.95 197.303 234.341 193.486C235.534 191.576 236.746 189.678 237.976 187.789L238.905 186.374C239.208 185.899 239.589 185.411 239.947 184.986C240.676 184.109 241.432 183.269 242.194 182.433C245.256 179.11 248.386 175.858 251.63 172.719C253.252 171.148 254.886 169.589 256.561 168.066C257.398 167.304 258.243 166.55 259.113 165.814C260.002 165.08 260.832 164.354 261.932 163.705C262.508 163.403 263.293 163.143 264.1 163.393C264.903 163.631 265.427 164.252 265.747 164.816C266.393 165.985 266.571 167.196 266.655 168.382C266.771 170.745 266.385 173.147 265.372 175.3C263.459 179.409 261.462 183.43 259.474 187.477C257.487 191.494 255.457 195.596 253.439 199.518C252.522 201.547 251.659 203.639 250.783 205.709C249.879 207.773 248.984 209.841 248.013 211.88C249.293 207.545 250.707 203.29 252.26 199.026L258.213 186.863C260.163 182.813 262.138 178.752 263.992 174.684C264.897 172.756 265.276 170.588 265.186 168.464C265.129 167.418 264.943 166.341 264.493 165.53C264.014 164.69 263.451 164.512 262.602 164.952C261.752 165.44 260.855 166.178 260.008 166.875C259.151 167.587 258.31 168.326 257.475 169.074C255.804 170.569 254.164 172.106 252.538 173.657C249.304 176.777 246.05 179.888 242.943 183.131C242.167 183.94 241.396 184.757 240.665 185.593C239.921 186.405 239.344 187.332 238.687 188.263L234.868 193.832L227.2 204.958Z" fill="#263238"/>
<path d="M187.48 217.964C190.362 216.183 193.281 214.553 195.555 212.052L196.961 210.594L199.785 207.689C210.271 196.878 223.479 183.852 233.714 172.905C227.408 181.719 219.931 189.62 212.381 197.362C208.569 201.2 204.705 204.986 200.743 208.669C198.74 210.511 196.827 212.346 194.678 214.118C192.419 215.691 189.988 216.883 187.48 217.964Z" fill="#263238"/>
<path d="M205.366 273.424C213.088 269.814 220.504 264.874 225.727 258.081C230.716 251.105 234.189 243.073 237.88 235.343L245.028 219.536C243.306 225.07 241.337 230.525 239.142 235.891C235.764 243.92 232.286 252.039 227.046 259.098C221.524 265.964 213.62 270.722 205.366 273.424Z" fill="#263238"/>
<path d="M313.006 307.885C298.274 310.075 264.839 301.758 216.769 267.468C210.117 262.723 227.969 208.48 235.333 213.182C244.608 219.105 296.317 250.864 298.624 253.012C318.087 271.131 322.999 306.399 313.006 307.885Z" fill="#AD6359"/>
<path d="M292.743 248.656C295.951 250.653 298.765 253.132 301.333 255.809C302.599 257.165 303.835 258.55 304.969 260.015C306.136 261.491 307.121 263.073 308.043 264.684C309.9 267.899 311.529 271.241 312.989 274.671C314.445 278.1 315.738 281.625 316.658 285.295C315.22 281.861 313.6 278.542 311.945 275.244C310.275 271.957 308.551 268.699 306.695 265.542C305.751 263.975 304.799 262.413 303.706 260.983C302.591 259.536 301.463 258.097 300.276 256.704C297.913 253.912 295.454 251.186 292.743 248.656Z" fill="#263238"/>
<path d="M204.928 259.72C213.508 268.981 227.529 274.493 227.529 274.493L246.193 222.816C246.193 222.816 224.314 203.994 218.24 197.073C216.476 195.063 206.806 184.914 198.057 174.472C188.126 162.619 176.197 151.457 174.345 151.212C170.784 150.741 168.222 156.155 173.02 165.709C177.808 175.268 190.395 192.28 190.882 193.498C190.943 193.651 191.02 194.099 191.12 194.791C191.12 194.791 191.12 194.791 191.114 194.806C191.028 195.382 181.404 207.124 183.161 213.759C184.951 220.522 198.995 253.317 204.928 259.72Z" fill="#AD6359"/>
<path d="M206.548 207.2C206.548 207.2 200.108 181.978 195.998 178.439C191.889 174.901 170.464 149.901 166.912 149.356C163.359 148.812 160.792 154.304 165.585 163.86C170.379 173.415 182.962 190.421 183.453 191.648C183.942 192.875 185.916 215.71 186.735 217.761C187.552 219.812 206.548 207.2 206.548 207.2Z" fill="#AD6359"/>
<path d="M204.937 192.484C203.637 189.942 202.235 187.459 200.842 184.966C200.128 183.729 199.397 182.503 198.643 181.286C198.263 180.678 197.883 180.071 197.477 179.471C197.283 179.17 197.058 178.872 196.843 178.572C196.602 178.264 196.324 177.954 196.096 177.722C192.242 173.555 188.341 169.376 184.432 165.232C180.488 161.103 176.595 156.976 172.519 152.927C171.451 151.933 170.304 151.006 169.002 150.283C168.351 149.925 167.658 149.616 166.906 149.443C166.164 149.276 165.32 149.226 164.556 149.574C163.793 149.914 163.266 150.622 163.023 151.332C162.763 152.05 162.685 152.792 162.677 153.517C162.659 154.975 162.961 156.388 163.333 157.763C163.122 156.357 162.963 154.93 163.08 153.537C163.142 152.844 163.277 152.156 163.554 151.552C163.821 150.946 164.279 150.46 164.845 150.261C166.004 149.842 167.385 150.415 168.519 151.111C169.68 151.833 170.728 152.762 171.698 153.758C175.517 157.935 179.42 162.134 183.33 166.271C187.275 170.395 191.184 174.528 195.28 178.535C196.259 179.423 197.023 180.659 197.848 181.802C198.656 182.968 199.431 184.163 200.218 185.348L204.937 192.484Z" fill="#263238"/>
<path d="M203.733 212.364C203.733 212.364 196.564 184.745 192.454 181.206C188.345 177.668 166.921 152.668 163.368 152.123C159.815 151.578 157.248 157.071 162.041 166.627C166.836 176.182 179.418 193.188 179.909 194.415C180.398 195.642 184.6 217.492 185.419 219.542C186.236 221.593 203.733 212.364 203.733 212.364Z" fill="#AD6359"/>
<path d="M203.905 197.716C202.171 194.674 200.324 191.703 198.472 188.729C197.521 187.259 196.558 185.796 195.563 184.347C195.065 183.624 194.556 182.905 194.023 182.195C193.504 181.494 192.858 180.761 192.267 180.164C187.465 175.09 182.633 170.025 177.77 164.998L170.426 157.499L168.566 155.642C167.956 155.034 167.302 154.379 166.577 153.816C165.854 153.253 165.072 152.745 164.2 152.371C163.332 152.017 162.335 151.732 161.263 151.986C160.737 152.113 160.232 152.415 159.874 152.82C159.504 153.221 159.301 153.7 159.147 154.162C158.865 155.1 158.838 156.031 158.883 156.934C158.995 158.741 159.386 160.477 159.883 162.169C160.882 165.57 162.547 168.732 164.617 171.549C162.83 168.549 161.329 165.361 160.59 161.981C160.186 160.3 159.862 158.591 159.829 156.903C159.817 156.065 159.889 155.224 160.142 154.495C160.392 153.756 160.874 153.225 161.528 153.107C162.185 152.968 162.971 153.181 163.69 153.516C164.41 153.869 165.11 154.316 165.752 154.847C167.009 155.896 168.184 157.261 169.405 158.494L176.682 166.05C181.557 171.067 186.421 176.089 191.407 181.013C192.071 181.637 192.604 182.196 193.16 182.876C193.705 183.543 194.237 184.23 194.76 184.926C195.804 186.319 196.824 187.736 197.833 189.162L203.905 197.716Z" fill="#263238"/>
<path d="M204.54 211.942C204.54 211.942 192.698 189.411 188.872 186.117C185.047 182.824 171.488 164.84 168.18 164.333C164.873 163.826 162.482 168.94 166.945 177.834C171.408 186.729 176.736 197.271 177.192 198.413C177.648 199.555 184.654 217.633 185.416 219.542C186.18 221.451 204.54 211.942 204.54 211.942Z" fill="#AD6359"/>
<path d="M203.246 204.963C200.902 201.115 198.496 197.308 196.105 193.491C194.912 191.58 193.7 189.682 192.469 187.794L191.541 186.378C191.238 185.904 190.857 185.416 190.499 184.991C189.77 184.113 189.014 183.273 188.252 182.437C185.189 179.114 182.06 175.863 178.815 172.723C177.194 171.152 175.56 169.594 173.886 168.07C173.049 167.308 172.204 166.554 171.333 165.819C170.445 165.085 169.614 164.358 168.514 163.71C167.938 163.407 167.153 163.147 166.346 163.398C165.544 163.636 165.02 164.256 164.7 164.82C164.054 165.99 163.876 167.201 163.791 168.386C163.676 170.749 164.062 173.152 165.075 175.305C166.988 179.414 168.984 183.435 170.972 187.481C172.96 191.499 174.989 195.6 177.008 199.523C177.924 201.551 178.788 203.643 179.664 205.713C180.568 207.777 181.463 209.845 182.433 211.885C181.153 207.55 179.74 203.295 178.186 199.03L172.234 186.868C170.284 182.817 168.309 178.757 166.454 174.688C165.549 172.76 165.17 170.592 165.26 168.468C165.316 167.422 165.503 166.345 165.953 165.535C166.432 164.694 166.995 164.517 167.844 164.956C168.693 165.445 169.59 166.182 170.438 166.88C171.294 167.591 172.136 168.331 172.971 169.079C174.642 170.574 176.281 172.111 177.908 173.661C181.142 176.781 184.396 179.893 187.503 183.135C188.278 183.945 189.05 184.761 189.781 185.598C190.525 186.409 191.101 187.336 191.759 188.267L195.578 193.836L203.246 204.963Z" fill="#263238"/>
<path d="M174.202 192.291C181.34 207.301 187.625 223.692 194.459 238.809C197.075 244.51 199.56 250.38 202.959 255.633C206.546 260.772 211.156 265.127 216.363 268.638C219.831 271 223.571 272.996 227.53 274.493C217.372 271.566 207.954 265.201 201.659 256.559C198.045 251.226 195.52 245.332 192.861 239.522C185.946 224.047 180.248 208.107 174.202 192.291Z" fill="#263238"/>
<path d="M200.508 177.31C204.372 181.077 208.157 184.917 211.862 188.826C217.499 194.589 222.644 200.792 228.625 206.193C234.586 211.597 241.033 216.455 247.726 220.929C238.038 216.101 229.133 209.641 221.62 201.812C214.298 193.871 207.23 185.762 200.508 177.31Z" fill="#263238"/>
<path d="M51.1096 407.548C155.788 407.008 273.214 407.003 377.892 407.548C273.213 408.091 155.787 408.087 51.1096 407.548Z" fill="#263238"/>
</svg>
