<svg width="435" height="500" viewBox="0 0 435 500" fill="none" xmlns="http://www.w3.org/2000/svg">
<path d="M422.709 180.214H337.109C337.109 180.214 345.596 157.032 358.658 157.032C371.72 157.032 375.812 173.033 375.812 173.033C375.812 173.033 384.625 164.339 391.864 164.339C399.103 164.339 405.398 175.827 405.398 175.827C405.398 175.827 415.627 169.65 422.709 180.214Z" fill="#EBEBEB"/>
<path d="M357.11 89.422H317.107C317.107 89.422 326.046 76.471 333.088 76.471C340.13 76.471 342.211 85.105 342.211 85.105C342.211 85.105 347.181 81.076 351.786 81.795C356.391 82.515 357.11 89.422 357.11 89.422Z" fill="#EBEBEB"/>
<path d="M91.21 148.464H13.291C13.291 148.464 23.961 124.642 35.376 123.153C46.791 121.664 52.25 140.854 52.25 140.854C52.25 140.854 59.612 134.071 65.402 134.071C71.192 134.071 75.659 143.004 75.659 143.004C75.659 143.004 87.24 136.883 91.21 148.464Z" fill="#EBEBEB"/>
<path d="M147.929 59.466H95.293C95.293 59.466 104.335 42.206 114.143 41.955C123.952 41.704 129.108 55.017 129.108 55.017C129.108 55.017 144.366 42.772 147.929 59.466Z" fill="#EBEBEB"/>
<path d="M121.611 178.664H86.084C86.084 178.664 92.187 167.014 98.807 166.845C105.428 166.675 108.908 175.662 108.908 175.662C108.908 175.662 119.206 167.397 121.611 178.664Z" fill="#EBEBEB"/>
<path d="M218 471.624C325.55 471.624 412.736 463.327 412.736 453.093C412.736 442.859 325.55 434.562 218 434.562C110.45 434.562 23.264 442.859 23.264 453.093C23.264 463.327 110.45 471.624 218 471.624Z" fill="#EBEBEB"/>
<path d="M333.851 214.125H297.457V404.902H333.851V214.125Z" fill="#DBDBDB"/>
<path d="M310.181 220.322H303.106V227.606H310.181V220.322Z" fill="#EBEBEB"/>
<path d="M319.231 220.322H312.156V227.606H319.231V220.322Z" fill="#EBEBEB"/>
<path d="M310.181 232.69H303.106V239.975H310.181V232.69Z" fill="#EBEBEB"/>
<path d="M319.231 232.69H312.156V239.975H319.231V232.69Z" fill="#EBEBEB"/>
<path d="M310.181 245.057H303.106V252.342H310.181V245.057Z" fill="#EBEBEB"/>
<path d="M319.231 245.057H312.156V252.342H319.231V245.057Z" fill="#EBEBEB"/>
<path d="M310.181 257.424H303.106V264.709H310.181V257.424Z" fill="#EBEBEB"/>
<path d="M319.231 257.424H312.156V264.709H319.231V257.424Z" fill="#EBEBEB"/>
<path d="M310.181 269.792H303.106V277.077H310.181V269.792Z" fill="#EBEBEB"/>
<path d="M319.231 269.792H312.156V277.077H319.231V269.792Z" fill="#EBEBEB"/>
<path d="M310.181 282.159H303.106V289.444H310.181V282.159Z" fill="#EBEBEB"/>
<path d="M319.231 282.159H312.156V289.444H319.231V282.159Z" fill="#EBEBEB"/>
<path d="M310.181 294.527H303.106V301.811H310.181V294.527Z" fill="#EBEBEB"/>
<path d="M319.231 294.527H312.156V301.811H319.231V294.527Z" fill="#EBEBEB"/>
<path d="M310.181 306.894H303.106V314.178H310.181V306.894Z" fill="#EBEBEB"/>
<path d="M319.231 306.894H312.156V314.178H319.231V306.894Z" fill="#EBEBEB"/>
<path d="M310.181 319.261H303.106V326.546H310.181V319.261Z" fill="#EBEBEB"/>
<path d="M319.231 319.261H312.156V326.546H319.231V319.261Z" fill="#EBEBEB"/>
<path d="M310.181 331.629H303.106V338.914H310.181V331.629Z" fill="#EBEBEB"/>
<path d="M319.231 331.629H312.156V338.914H319.231V331.629Z" fill="#EBEBEB"/>
<path d="M310.181 343.996H303.106V351.281H310.181V343.996Z" fill="#EBEBEB"/>
<path d="M319.231 343.996H312.156V351.281H319.231V343.996Z" fill="#EBEBEB"/>
<path d="M310.181 356.364H303.106V363.649H310.181V356.364Z" fill="#EBEBEB"/>
<path d="M319.231 356.364H312.156V363.649H319.231V356.364Z" fill="#EBEBEB"/>
<path d="M310.181 368.731H303.106V376.016H310.181V368.731Z" fill="#EBEBEB"/>
<path d="M319.231 368.731H312.156V376.016H319.231V368.731Z" fill="#EBEBEB"/>
<path d="M310.181 381.098H303.106V388.383H310.181V381.098Z" fill="#EBEBEB"/>
<path d="M321.127 388.383H328.202V381.098H321.127V388.383Z" fill="#EBEBEB"/>
<path d="M321.127 376.016H328.202V368.73H321.127V376.016Z" fill="#EBEBEB"/>
<path d="M321.127 363.648H328.202V356.363H321.127V363.648Z" fill="#EBEBEB"/>
<path d="M321.127 351.281H328.202V343.996H321.127V351.281Z" fill="#EBEBEB"/>
<path d="M321.127 338.913H328.202V331.628H321.127V338.913Z" fill="#EBEBEB"/>
<path d="M321.127 326.546H328.202V319.261H321.127V326.546Z" fill="#EBEBEB"/>
<path d="M321.127 314.178H328.202V306.894H321.127V314.178Z" fill="#EBEBEB"/>
<path d="M321.127 301.811H328.202V294.527H321.127V301.811Z" fill="#EBEBEB"/>
<path d="M321.127 289.444H328.202V282.159H321.127V289.444Z" fill="#EBEBEB"/>
<path d="M321.127 277.076H328.202V269.791H321.127V277.076Z" fill="#EBEBEB"/>
<path d="M321.127 264.709H328.202V257.424H321.127V264.709Z" fill="#EBEBEB"/>
<path d="M321.127 252.341H328.202V245.057H321.127V252.341Z" fill="#EBEBEB"/>
<path d="M321.127 239.974H328.202V232.689H321.127V239.974Z" fill="#EBEBEB"/>
<path d="M321.127 227.607H328.202V220.323H321.127V227.607Z" fill="#EBEBEB"/>
<path d="M319.231 381.098H312.156V388.383H319.231V381.098Z" fill="#EBEBEB"/>
<path d="M362.545 214.125H333.851V404.902H362.545V214.125Z" fill="#A6A6A6"/>
<path d="M353.746 388.383H359.588V381.098H353.746V388.383Z" fill="#C7C7C7"/>
<path d="M346.272 388.383H352.114V381.098H346.272V388.383Z" fill="#C7C7C7"/>
<path d="M353.746 376.016H359.588V368.73H353.746V376.016Z" fill="#C7C7C7"/>
<path d="M346.272 376.016H352.114V368.73H346.272V376.016Z" fill="#C7C7C7"/>
<path d="M353.746 363.648H359.588V356.363H353.746V363.648Z" fill="#C7C7C7"/>
<path d="M346.272 363.648H352.114V356.363H346.272V363.648Z" fill="#C7C7C7"/>
<path d="M353.746 351.281H359.588V343.996H353.746V351.281Z" fill="#C7C7C7"/>
<path d="M346.272 351.281H352.114V343.996H346.272V351.281Z" fill="#C7C7C7"/>
<path d="M353.746 338.913H359.588V331.628H353.746V338.913Z" fill="#C7C7C7"/>
<path d="M346.272 338.913H352.114V331.628H346.272V338.913Z" fill="#C7C7C7"/>
<path d="M353.746 326.546H359.588V319.261H353.746V326.546Z" fill="#C7C7C7"/>
<path d="M346.272 326.546H352.114V319.261H346.272V326.546Z" fill="#C7C7C7"/>
<path d="M353.746 314.178H359.588V306.894H353.746V314.178Z" fill="#C7C7C7"/>
<path d="M346.272 314.178H352.114V306.894H346.272V314.178Z" fill="#C7C7C7"/>
<path d="M353.746 301.811H359.588V294.527H353.746V301.811Z" fill="#C7C7C7"/>
<path d="M346.272 301.811H352.114V294.527H346.272V301.811Z" fill="#C7C7C7"/>
<path d="M353.746 289.444H359.588V282.159H353.746V289.444Z" fill="#C7C7C7"/>
<path d="M346.272 289.444H352.114V282.159H346.272V289.444Z" fill="#C7C7C7"/>
<path d="M353.746 277.076H359.588V269.791H353.746V277.076Z" fill="#C7C7C7"/>
<path d="M346.272 277.076H352.114V269.791H346.272V277.076Z" fill="#C7C7C7"/>
<path d="M353.746 264.709H359.588V257.424H353.746V264.709Z" fill="#C7C7C7"/>
<path d="M346.272 264.709H352.114V257.424H346.272V264.709Z" fill="#C7C7C7"/>
<path d="M353.746 252.341H359.588V245.057H353.746V252.341Z" fill="#C7C7C7"/>
<path d="M346.272 252.341H352.114V245.057H346.272V252.341Z" fill="#C7C7C7"/>
<path d="M353.746 239.974H359.588V232.689H353.746V239.974Z" fill="#C7C7C7"/>
<path d="M346.272 239.974H352.114V232.689H346.272V239.974Z" fill="#C7C7C7"/>
<path d="M353.746 227.607H359.588V220.323H353.746V227.607Z" fill="#C7C7C7"/>
<path d="M344.705 220.322H338.863V227.606H344.705V220.322Z" fill="#C7C7C7"/>
<path d="M344.705 232.69H338.863V239.975H344.705V232.69Z" fill="#C7C7C7"/>
<path d="M344.705 245.057H338.863V252.342H344.705V245.057Z" fill="#C7C7C7"/>
<path d="M344.705 257.424H338.863V264.709H344.705V257.424Z" fill="#C7C7C7"/>
<path d="M344.705 269.792H338.863V277.077H344.705V269.792Z" fill="#C7C7C7"/>
<path d="M344.705 282.159H338.863V289.444H344.705V282.159Z" fill="#C7C7C7"/>
<path d="M344.705 294.527H338.863V301.811H344.705V294.527Z" fill="#C7C7C7"/>
<path d="M344.705 306.894H338.863V314.178H344.705V306.894Z" fill="#C7C7C7"/>
<path d="M344.705 319.261H338.863V326.546H344.705V319.261Z" fill="#C7C7C7"/>
<path d="M344.705 331.629H338.863V338.914H344.705V331.629Z" fill="#C7C7C7"/>
<path d="M344.705 343.996H338.863V351.281H344.705V343.996Z" fill="#C7C7C7"/>
<path d="M344.705 356.364H338.863V363.649H344.705V356.364Z" fill="#C7C7C7"/>
<path d="M344.705 368.731H338.863V376.016H344.705V368.731Z" fill="#C7C7C7"/>
<path d="M344.705 381.098H338.863V388.383H344.705V381.098Z" fill="#C7C7C7"/>
<path d="M346.272 227.607H352.114V220.323H346.272V227.607Z" fill="#C7C7C7"/>
<path d="M109.819 203.838H66.765V404.902H109.819V203.838Z" fill="#EBEBEB"/>
<path d="M109.82 199.437H65.73V203.839H109.82V199.437Z" fill="#C7C7C7"/>
<path d="M75.02 210.327H70.658V404.903H75.02V210.327Z" fill="white"/>
<path d="M82.747 210.327H78.385V404.903H82.747V210.327Z" fill="white"/>
<path d="M90.4739 210.327H86.1119V404.903H90.4739V210.327Z" fill="white"/>
<path d="M98.2 210.327H93.838V404.903H98.2V210.327Z" fill="white"/>
<path d="M105.927 210.327H101.565V404.903H105.927V210.327Z" fill="white"/>
<path d="M75.02 215.889H70.658V224.579H75.02V215.889Z" fill="#EBEBEB"/>
<path d="M82.747 215.889H78.385V224.579H82.747V215.889Z" fill="#EBEBEB"/>
<path d="M90.4739 215.889H86.1119V224.579H90.4739V215.889Z" fill="#EBEBEB"/>
<path d="M98.2 215.889H93.838V224.579H98.2V215.889Z" fill="#EBEBEB"/>
<path d="M105.927 215.889H101.565V224.579H105.927V215.889Z" fill="#EBEBEB"/>
<path d="M75.02 230.012H70.658V238.702H75.02V230.012Z" fill="#EBEBEB"/>
<path d="M82.747 230.012H78.385V238.702H82.747V230.012Z" fill="#EBEBEB"/>
<path d="M90.4739 230.012H86.1119V238.702H90.4739V230.012Z" fill="#EBEBEB"/>
<path d="M98.2 230.012H93.838V238.702H98.2V230.012Z" fill="#EBEBEB"/>
<path d="M105.927 230.012H101.565V238.702H105.927V230.012Z" fill="#EBEBEB"/>
<path d="M75.02 244.135H70.658V252.825H75.02V244.135Z" fill="#EBEBEB"/>
<path d="M82.747 244.135H78.385V252.825H82.747V244.135Z" fill="#EBEBEB"/>
<path d="M90.4739 244.135H86.1119V252.825H90.4739V244.135Z" fill="#EBEBEB"/>
<path d="M98.2 244.135H93.838V252.825H98.2V244.135Z" fill="#EBEBEB"/>
<path d="M105.927 244.135H101.565V252.825H105.927V244.135Z" fill="#EBEBEB"/>
<path d="M75.02 258.257H70.658V266.947H75.02V258.257Z" fill="#EBEBEB"/>
<path d="M82.747 258.257H78.385V266.947H82.747V258.257Z" fill="#EBEBEB"/>
<path d="M90.4739 258.257H86.1119V266.947H90.4739V258.257Z" fill="#EBEBEB"/>
<path d="M98.2 258.257H93.838V266.947H98.2V258.257Z" fill="#EBEBEB"/>
<path d="M105.927 258.257H101.565V266.947H105.927V258.257Z" fill="#EBEBEB"/>
<path d="M75.02 272.38H70.658V281.07H75.02V272.38Z" fill="#EBEBEB"/>
<path d="M82.747 272.38H78.385V281.07H82.747V272.38Z" fill="#EBEBEB"/>
<path d="M90.4739 272.38H86.1119V281.07H90.4739V272.38Z" fill="#EBEBEB"/>
<path d="M98.2 272.38H93.838V281.07H98.2V272.38Z" fill="#EBEBEB"/>
<path d="M105.927 272.38H101.565V281.07H105.927V272.38Z" fill="#EBEBEB"/>
<path d="M75.02 286.503H70.658V295.193H75.02V286.503Z" fill="#EBEBEB"/>
<path d="M82.747 286.503H78.385V295.193H82.747V286.503Z" fill="#EBEBEB"/>
<path d="M90.4739 286.503H86.1119V295.193H90.4739V286.503Z" fill="#EBEBEB"/>
<path d="M98.2 286.503H93.838V295.193H98.2V286.503Z" fill="#EBEBEB"/>
<path d="M105.927 286.503H101.565V295.193H105.927V286.503Z" fill="#EBEBEB"/>
<path d="M75.02 300.626H70.658V309.316H75.02V300.626Z" fill="#EBEBEB"/>
<path d="M82.747 300.626H78.385V309.316H82.747V300.626Z" fill="#EBEBEB"/>
<path d="M90.4739 300.626H86.1119V309.316H90.4739V300.626Z" fill="#EBEBEB"/>
<path d="M98.2 300.626H93.838V309.316H98.2V300.626Z" fill="#EBEBEB"/>
<path d="M105.927 300.626H101.565V309.316H105.927V300.626Z" fill="#EBEBEB"/>
<path d="M75.02 314.749H70.658V323.439H75.02V314.749Z" fill="#EBEBEB"/>
<path d="M82.747 314.749H78.385V323.439H82.747V314.749Z" fill="#EBEBEB"/>
<path d="M90.4739 314.749H86.1119V323.439H90.4739V314.749Z" fill="#EBEBEB"/>
<path d="M98.2 314.749H93.838V323.439H98.2V314.749Z" fill="#EBEBEB"/>
<path d="M105.927 314.749H101.565V323.439H105.927V314.749Z" fill="#EBEBEB"/>
<path d="M75.02 328.872H70.658V337.562H75.02V328.872Z" fill="#EBEBEB"/>
<path d="M82.747 328.872H78.385V337.562H82.747V328.872Z" fill="#EBEBEB"/>
<path d="M90.4739 328.872H86.1119V337.562H90.4739V328.872Z" fill="#EBEBEB"/>
<path d="M98.2 328.872H93.838V337.562H98.2V328.872Z" fill="#EBEBEB"/>
<path d="M105.927 328.872H101.565V337.562H105.927V328.872Z" fill="#EBEBEB"/>
<path d="M75.02 342.995H70.658V351.685H75.02V342.995Z" fill="#EBEBEB"/>
<path d="M82.747 342.995H78.385V351.685H82.747V342.995Z" fill="#EBEBEB"/>
<path d="M90.4739 342.995H86.1119V351.685H90.4739V342.995Z" fill="#EBEBEB"/>
<path d="M98.2 342.995H93.838V351.685H98.2V342.995Z" fill="#EBEBEB"/>
<path d="M105.927 342.995H101.565V351.685H105.927V342.995Z" fill="#EBEBEB"/>
<path d="M75.02 357.117H70.658V365.807H75.02V357.117Z" fill="#EBEBEB"/>
<path d="M82.747 357.117H78.385V365.807H82.747V357.117Z" fill="#EBEBEB"/>
<path d="M90.4739 357.117H86.1119V365.807H90.4739V357.117Z" fill="#EBEBEB"/>
<path d="M98.2 357.117H93.838V365.807H98.2V357.117Z" fill="#EBEBEB"/>
<path d="M105.927 357.117H101.565V365.807H105.927V357.117Z" fill="#EBEBEB"/>
<path d="M75.02 371.24H70.658V379.93H75.02V371.24Z" fill="#EBEBEB"/>
<path d="M82.747 371.24H78.385V379.93H82.747V371.24Z" fill="#EBEBEB"/>
<path d="M90.4739 371.24H86.1119V379.93H90.4739V371.24Z" fill="#EBEBEB"/>
<path d="M98.2 371.24H93.838V379.93H98.2V371.24Z" fill="#EBEBEB"/>
<path d="M105.927 371.24H101.565V379.93H105.927V371.24Z" fill="#EBEBEB"/>
<path d="M75.02 385.363H70.658V394.053H75.02V385.363Z" fill="#EBEBEB"/>
<path d="M82.747 385.363H78.385V394.053H82.747V385.363Z" fill="#EBEBEB"/>
<path d="M90.4739 385.363H86.1119V394.053H90.4739V385.363Z" fill="#EBEBEB"/>
<path d="M98.2 385.363H93.838V394.053H98.2V385.363Z" fill="#EBEBEB"/>
<path d="M105.927 385.363H101.565V394.053H105.927V385.363Z" fill="#EBEBEB"/>
<path d="M75.02 399.486H70.658V404.903H75.02V399.486Z" fill="#EBEBEB"/>
<path d="M82.747 399.486H78.385V404.903H82.747V399.486Z" fill="#EBEBEB"/>
<path d="M90.4739 399.486H86.1119V404.903H90.4739V399.486Z" fill="#EBEBEB"/>
<path d="M98.2 399.486H93.838V404.903H98.2V399.486Z" fill="#EBEBEB"/>
<path d="M105.927 399.486H101.565V404.903H105.927V399.486Z" fill="#EBEBEB"/>
<path d="M137.461 203.838H109.82V404.902H137.461V203.838Z" fill="#DBDBDB"/>
<path d="M138.657 199.437H109.82V203.839H138.657V199.437Z" fill="#C7C7C7"/>
<path d="M118.074 210.327H113.712V404.903H118.074V210.327Z" fill="#C7C7C7"/>
<path d="M125.801 210.327H121.439V404.903H125.801V210.327Z" fill="#C7C7C7"/>
<path d="M133.528 210.327H129.166V404.903H133.528V210.327Z" fill="#C7C7C7"/>
<path d="M118.074 215.889H113.712V224.579H118.074V215.889Z" fill="#DBDBDB"/>
<path d="M125.801 215.889H121.439V224.579H125.801V215.889Z" fill="#DBDBDB"/>
<path d="M133.528 215.889H129.166V224.579H133.528V215.889Z" fill="#DBDBDB"/>
<path d="M118.074 230.012H113.712V238.702H118.074V230.012Z" fill="#DBDBDB"/>
<path d="M125.801 230.012H121.439V238.702H125.801V230.012Z" fill="#DBDBDB"/>
<path d="M133.528 230.012H129.166V238.702H133.528V230.012Z" fill="#DBDBDB"/>
<path d="M118.074 244.135H113.712V252.825H118.074V244.135Z" fill="#DBDBDB"/>
<path d="M125.801 244.135H121.439V252.825H125.801V244.135Z" fill="#DBDBDB"/>
<path d="M133.528 244.135H129.166V252.825H133.528V244.135Z" fill="#DBDBDB"/>
<path d="M118.074 258.257H113.712V266.947H118.074V258.257Z" fill="#DBDBDB"/>
<path d="M125.801 258.257H121.439V266.947H125.801V258.257Z" fill="#DBDBDB"/>
<path d="M133.528 258.257H129.166V266.947H133.528V258.257Z" fill="#DBDBDB"/>
<path d="M118.074 272.38H113.712V281.07H118.074V272.38Z" fill="#DBDBDB"/>
<path d="M125.801 272.38H121.439V281.07H125.801V272.38Z" fill="#DBDBDB"/>
<path d="M133.528 272.38H129.166V281.07H133.528V272.38Z" fill="#DBDBDB"/>
<path d="M118.074 286.503H113.712V295.193H118.074V286.503Z" fill="#DBDBDB"/>
<path d="M125.801 286.503H121.439V295.193H125.801V286.503Z" fill="#DBDBDB"/>
<path d="M133.528 286.503H129.166V295.193H133.528V286.503Z" fill="#DBDBDB"/>
<path d="M118.074 300.626H113.712V309.316H118.074V300.626Z" fill="#DBDBDB"/>
<path d="M125.801 300.626H121.439V309.316H125.801V300.626Z" fill="#DBDBDB"/>
<path d="M133.528 300.626H129.166V309.316H133.528V300.626Z" fill="#DBDBDB"/>
<path d="M118.074 314.749H113.712V323.439H118.074V314.749Z" fill="#DBDBDB"/>
<path d="M125.801 314.749H121.439V323.439H125.801V314.749Z" fill="#DBDBDB"/>
<path d="M133.528 314.749H129.166V323.439H133.528V314.749Z" fill="#DBDBDB"/>
<path d="M118.074 328.872H113.712V337.562H118.074V328.872Z" fill="#DBDBDB"/>
<path d="M125.801 328.872H121.439V337.562H125.801V328.872Z" fill="#DBDBDB"/>
<path d="M133.528 328.872H129.166V337.562H133.528V328.872Z" fill="#DBDBDB"/>
<path d="M118.074 342.995H113.712V351.685H118.074V342.995Z" fill="#DBDBDB"/>
<path d="M125.801 342.995H121.439V351.685H125.801V342.995Z" fill="#DBDBDB"/>
<path d="M133.528 342.995H129.166V351.685H133.528V342.995Z" fill="#DBDBDB"/>
<path d="M118.074 357.117H113.712V365.807H118.074V357.117Z" fill="#DBDBDB"/>
<path d="M125.801 357.117H121.439V365.807H125.801V357.117Z" fill="#DBDBDB"/>
<path d="M133.528 357.117H129.166V365.807H133.528V357.117Z" fill="#DBDBDB"/>
<path d="M118.074 371.24H113.712V379.93H118.074V371.24Z" fill="#DBDBDB"/>
<path d="M125.801 371.24H121.439V379.93H125.801V371.24Z" fill="#DBDBDB"/>
<path d="M133.528 371.24H129.166V379.93H133.528V371.24Z" fill="#DBDBDB"/>
<path d="M118.074 385.363H113.712V394.053H118.074V385.363Z" fill="#DBDBDB"/>
<path d="M125.801 385.363H121.439V394.053H125.801V385.363Z" fill="#DBDBDB"/>
<path d="M133.528 385.363H129.166V394.053H133.528V385.363Z" fill="#DBDBDB"/>
<path d="M118.074 399.486H113.712V404.903H118.074V399.486Z" fill="#DBDBDB"/>
<path d="M125.801 399.486H121.439V404.903H125.801V399.486Z" fill="#DBDBDB"/>
<path d="M133.528 399.486H129.166V404.903H133.528V399.486Z" fill="#DBDBDB"/>
<path d="M55.5859 277.73H12.7159V404.902H55.5859V277.73Z" fill="#EBEBEB"/>
<path d="M55.586 266.947H18.813V277.73H55.586V266.947Z" fill="#C7C7C7"/>
<path d="M50.8859 283.359H17.4159V404.903H50.8859V283.359Z" fill="#DBDBDB"/>
<path d="M50.8859 294.958H17.4159V297.83H50.8859V294.958Z" fill="white"/>
<path d="M50.8859 306.855H17.4159V309.727H50.8859V306.855Z" fill="white"/>
<path d="M50.8859 318.751H17.4159V321.623H50.8859V318.751Z" fill="white"/>
<path d="M50.8859 330.648H17.4159V333.52H50.8859V330.648Z" fill="white"/>
<path d="M50.8859 342.545H17.4159V345.417H50.8859V342.545Z" fill="white"/>
<path d="M50.8859 354.442H17.4159V357.314H50.8859V354.442Z" fill="white"/>
<path d="M50.8859 366.339H17.4159V369.211H50.8859V366.339Z" fill="white"/>
<path d="M50.8859 378.236H17.4159V381.108H50.8859V378.236Z" fill="white"/>
<path d="M50.8859 390.133H17.4159V393.005H50.8859V390.133Z" fill="white"/>
<path d="M50.8859 402.03H17.4159V404.902H50.8859V402.03Z" fill="white"/>
<path d="M82.4379 277.73H55.5859V404.902H82.4379V277.73Z" fill="#DBDBDB"/>
<path d="M78.4089 266.947H55.5859V277.73H78.4089V266.947Z" fill="#A6A6A6"/>
<path d="M79.934 283.359H59.288V404.903H79.934V283.359Z" fill="#C7C7C7"/>
<path d="M79.934 294.958H59.288V297.83H79.934V294.958Z" fill="white"/>
<path d="M79.934 306.855H59.288V309.727H79.934V306.855Z" fill="white"/>
<path d="M79.934 318.751H59.288V321.623H79.934V318.751Z" fill="white"/>
<path d="M79.934 330.648H59.288V333.52H79.934V330.648Z" fill="white"/>
<path d="M79.934 342.545H59.288V345.417H79.934V342.545Z" fill="white"/>
<path d="M79.934 354.442H59.288V357.314H79.934V354.442Z" fill="white"/>
<path d="M79.934 366.339H59.288V369.211H79.934V366.339Z" fill="white"/>
<path d="M79.934 378.236H59.288V381.108H79.934V378.236Z" fill="white"/>
<path d="M79.934 390.133H59.288V393.005H79.934V390.133Z" fill="white"/>
<path d="M79.934 402.03H59.288V404.902H79.934V402.03Z" fill="white"/>
<path d="M164.283 330.453H131.142V404.903H164.283V330.453Z" fill="#DBDBDB"/>
<path d="M142.219 336.897H136.354V341.458H142.219V336.897Z" fill="#C7C7C7"/>
<path d="M142.219 346.64H136.354V351.201H142.219V346.64Z" fill="#C7C7C7"/>
<path d="M142.219 356.382H136.354V360.943H142.219V356.382Z" fill="#C7C7C7"/>
<path d="M142.219 366.125H136.354V370.686H142.219V366.125Z" fill="#C7C7C7"/>
<path d="M142.219 375.867H136.354V380.428H142.219V375.867Z" fill="#C7C7C7"/>
<path d="M142.219 385.609H136.354V390.17H142.219V385.609Z" fill="#C7C7C7"/>
<path d="M142.219 395.352H136.354V399.913H142.219V395.352Z" fill="#C7C7C7"/>
<path d="M150.655 336.897H144.79V341.458H150.655V336.897Z" fill="#C7C7C7"/>
<path d="M150.655 346.64H144.79V351.201H150.655V346.64Z" fill="#C7C7C7"/>
<path d="M150.655 356.382H144.79V360.943H150.655V356.382Z" fill="#C7C7C7"/>
<path d="M150.655 366.125H144.79V370.686H150.655V366.125Z" fill="#C7C7C7"/>
<path d="M150.655 375.867H144.79V380.428H150.655V375.867Z" fill="#C7C7C7"/>
<path d="M150.655 385.609H144.79V390.17H150.655V385.609Z" fill="#C7C7C7"/>
<path d="M150.655 395.352H144.79V399.913H150.655V395.352Z" fill="#C7C7C7"/>
<path d="M159.071 336.897H153.206V341.458H159.071V336.897Z" fill="#C7C7C7"/>
<path d="M159.071 346.64H153.206V351.201H159.071V346.64Z" fill="#C7C7C7"/>
<path d="M159.071 356.382H153.206V360.943H159.071V356.382Z" fill="#C7C7C7"/>
<path d="M159.071 366.125H153.206V370.686H159.071V366.125Z" fill="#C7C7C7"/>
<path d="M159.071 375.867H153.206V380.428H159.071V375.867Z" fill="#C7C7C7"/>
<path d="M159.071 385.609H153.206V390.17H159.071V385.609Z" fill="#C7C7C7"/>
<path d="M159.071 395.352H153.206V399.913H159.071V395.352Z" fill="#C7C7C7"/>
<path d="M187.535 330.453H164.283V404.903H187.535V330.453Z" fill="#A6A6A6"/>
<path d="M180.381 399.186H185.155V394.625H180.381V399.186Z" fill="#C7C7C7"/>
<path d="M180.381 389.443H185.155V384.882H180.381V389.443Z" fill="#C7C7C7"/>
<path d="M180.381 379.701H185.155V375.14H180.381V379.701Z" fill="#C7C7C7"/>
<path d="M180.381 369.958H185.155V365.397H180.381V369.958Z" fill="#C7C7C7"/>
<path d="M180.381 360.215H185.155V355.654H180.381V360.215Z" fill="#C7C7C7"/>
<path d="M180.381 350.474H185.155V345.913H180.381V350.474Z" fill="#C7C7C7"/>
<path d="M180.381 340.731H185.155V336.17H180.381V340.731Z" fill="#C7C7C7"/>
<path d="M173.514 399.186H178.288V394.625H173.514V399.186Z" fill="#C7C7C7"/>
<path d="M173.514 389.443H178.288V384.882H173.514V389.443Z" fill="#C7C7C7"/>
<path d="M173.514 379.701H178.288V375.14H173.514V379.701Z" fill="#C7C7C7"/>
<path d="M173.514 369.958H178.288V365.397H173.514V369.958Z" fill="#C7C7C7"/>
<path d="M173.514 360.215H178.288V355.654H173.514V360.215Z" fill="#C7C7C7"/>
<path d="M173.514 350.474H178.288V345.913H173.514V350.474Z" fill="#C7C7C7"/>
<path d="M173.514 340.731H178.288V336.17H173.514V340.731Z" fill="#C7C7C7"/>
<path d="M166.663 399.186H171.437V394.625H166.663V399.186Z" fill="#C7C7C7"/>
<path d="M166.663 389.443H171.437V384.882H166.663V389.443Z" fill="#C7C7C7"/>
<path d="M166.663 379.701H171.437V375.14H166.663V379.701Z" fill="#C7C7C7"/>
<path d="M166.663 369.958H171.437V365.397H166.663V369.958Z" fill="#C7C7C7"/>
<path d="M166.663 360.215H171.437V355.654H166.663V360.215Z" fill="#C7C7C7"/>
<path d="M166.663 350.474H171.437V345.913H166.663V350.474Z" fill="#C7C7C7"/>
<path d="M166.663 340.731H171.437V336.17H166.663V340.731Z" fill="#C7C7C7"/>
<path d="M387.937 245.057H365.041V272.104H387.937V245.057Z" fill="#DBDBDB"/>
<path d="M402.455 245.057H387.938V273.096H402.455V245.057Z" fill="#C7C7C7"/>
<path d="M403.422 257H389.014V273.096H403.422V257Z" fill="#DBDBDB"/>
<path d="M412.408 257H403.422V273.096H412.408V257Z" fill="#C7C7C7"/>
<path d="M393.283 270.346H356.259V404.902H393.283V270.346Z" fill="#EBEBEB"/>
<path d="M372.134 276.13H360.492V280.887H372.134V276.13Z" fill="white"/>
<path d="M387.027 276.13H375.385V280.887H387.027V276.13Z" fill="white"/>
<path d="M372.134 284.207H360.492V288.964H372.134V284.207Z" fill="white"/>
<path d="M387.027 284.207H375.385V288.964H387.027V284.207Z" fill="white"/>
<path d="M372.134 292.283H360.492V297.04H372.134V292.283Z" fill="white"/>
<path d="M387.027 292.283H375.385V297.04H387.027V292.283Z" fill="white"/>
<path d="M372.134 300.36H360.492V305.117H372.134V300.36Z" fill="white"/>
<path d="M387.027 300.36H375.385V305.117H387.027V300.36Z" fill="white"/>
<path d="M372.134 308.436H360.492V313.193H372.134V308.436Z" fill="white"/>
<path d="M387.027 308.436H375.385V313.193H387.027V308.436Z" fill="white"/>
<path d="M372.134 316.513H360.492V321.27H372.134V316.513Z" fill="white"/>
<path d="M387.027 316.513H375.385V321.27H387.027V316.513Z" fill="white"/>
<path d="M372.134 324.589H360.492V329.346H372.134V324.589Z" fill="white"/>
<path d="M387.027 324.589H375.385V329.346H387.027V324.589Z" fill="white"/>
<path d="M372.134 332.666H360.492V337.423H372.134V332.666Z" fill="white"/>
<path d="M387.027 332.666H375.385V337.423H387.027V332.666Z" fill="white"/>
<path d="M372.134 340.742H360.492V345.499H372.134V340.742Z" fill="white"/>
<path d="M387.027 340.742H375.385V345.499H387.027V340.742Z" fill="white"/>
<path d="M372.134 348.819H360.492V353.576H372.134V348.819Z" fill="white"/>
<path d="M387.027 348.819H375.385V353.576H387.027V348.819Z" fill="white"/>
<path d="M372.134 356.895H360.492V361.652H372.134V356.895Z" fill="white"/>
<path d="M387.027 356.895H375.385V361.652H387.027V356.895Z" fill="white"/>
<path d="M372.134 364.972H360.492V369.729H372.134V364.972Z" fill="white"/>
<path d="M387.027 364.972H375.385V369.729H387.027V364.972Z" fill="white"/>
<path d="M372.134 373.048H360.492V377.805H372.134V373.048Z" fill="white"/>
<path d="M387.027 373.048H375.385V377.805H387.027V373.048Z" fill="white"/>
<path d="M372.134 381.125H360.492V385.882H372.134V381.125Z" fill="white"/>
<path d="M387.027 381.125H375.385V385.882H387.027V381.125Z" fill="white"/>
<path d="M423.284 270.346H393.283V404.902H423.284V270.346Z" fill="#C7C7C7"/>
<path d="M410.717 385.881H420.276V381.124H410.717V385.881Z" fill="#EBEBEB"/>
<path d="M398.489 385.881H408.048V381.124H398.489V385.881Z" fill="#EBEBEB"/>
<path d="M410.717 377.805H420.276V373.048H410.717V377.805Z" fill="#EBEBEB"/>
<path d="M398.489 377.805H408.048V373.048H398.489V377.805Z" fill="#EBEBEB"/>
<path d="M410.717 369.728H420.276V364.971H410.717V369.728Z" fill="#EBEBEB"/>
<path d="M398.489 369.728H408.048V364.971H398.489V369.728Z" fill="#EBEBEB"/>
<path d="M410.717 361.652H420.276V356.895H410.717V361.652Z" fill="#EBEBEB"/>
<path d="M398.489 361.652H408.048V356.895H398.489V361.652Z" fill="#EBEBEB"/>
<path d="M410.717 353.575H420.276V348.818H410.717V353.575Z" fill="#EBEBEB"/>
<path d="M398.489 353.575H408.048V348.818H398.489V353.575Z" fill="#EBEBEB"/>
<path d="M410.717 345.499H420.276V340.742H410.717V345.499Z" fill="#EBEBEB"/>
<path d="M398.489 345.499H408.048V340.742H398.489V345.499Z" fill="#EBEBEB"/>
<path d="M410.717 337.422H420.276V332.665H410.717V337.422Z" fill="#EBEBEB"/>
<path d="M398.489 337.422H408.048V332.665H398.489V337.422Z" fill="#EBEBEB"/>
<path d="M410.717 329.346H420.276V324.589H410.717V329.346Z" fill="#EBEBEB"/>
<path d="M398.489 329.346H408.048V324.589H398.489V329.346Z" fill="#EBEBEB"/>
<path d="M410.717 321.27H420.276V316.513H410.717V321.27Z" fill="#EBEBEB"/>
<path d="M398.489 321.27H408.048V316.513H398.489V321.27Z" fill="#EBEBEB"/>
<path d="M410.717 313.193H420.276V308.436H410.717V313.193Z" fill="#EBEBEB"/>
<path d="M398.489 313.193H408.048V308.436H398.489V313.193Z" fill="#EBEBEB"/>
<path d="M410.717 305.117H420.276V300.359H410.717V305.117Z" fill="#EBEBEB"/>
<path d="M398.489 305.117H408.048V300.359H398.489V305.117Z" fill="#EBEBEB"/>
<path d="M410.717 297.04H420.276V292.283H410.717V297.04Z" fill="#EBEBEB"/>
<path d="M398.489 297.04H408.048V292.283H398.489V297.04Z" fill="#EBEBEB"/>
<path d="M410.717 288.964H420.276V284.207H410.717V288.964Z" fill="#EBEBEB"/>
<path d="M398.489 288.964H408.048V284.207H398.489V288.964Z" fill="#EBEBEB"/>
<path d="M410.717 280.888H420.276V276.131H410.717V280.888Z" fill="#EBEBEB"/>
<path d="M398.489 280.888H408.048V276.131H398.489V280.888Z" fill="#EBEBEB"/>
<path d="M259.551 317.224H215.882V404.903H259.551V317.224Z" fill="#C7C7C7"/>
<path d="M230.477 324.813H222.749V330.185H230.477V324.813Z" fill="#DBDBDB"/>
<path d="M230.477 336.287H222.749V341.659H230.477V336.287Z" fill="#DBDBDB"/>
<path d="M230.477 347.76H222.749V353.132H230.477V347.76Z" fill="#DBDBDB"/>
<path d="M230.477 359.234H222.749V364.606H230.477V359.234Z" fill="#DBDBDB"/>
<path d="M230.477 370.707H222.749V376.079H230.477V370.707Z" fill="#DBDBDB"/>
<path d="M230.477 382.181H222.749V387.553H230.477V382.181Z" fill="#DBDBDB"/>
<path d="M230.477 393.655H222.749V399.027H230.477V393.655Z" fill="#DBDBDB"/>
<path d="M241.594 324.813H233.866V330.185H241.594V324.813Z" fill="#DBDBDB"/>
<path d="M241.594 336.287H233.866V341.659H241.594V336.287Z" fill="#DBDBDB"/>
<path d="M241.594 347.76H233.866V353.132H241.594V347.76Z" fill="#DBDBDB"/>
<path d="M241.594 359.234H233.866V364.606H241.594V359.234Z" fill="#DBDBDB"/>
<path d="M241.594 370.707H233.866V376.079H241.594V370.707Z" fill="#DBDBDB"/>
<path d="M241.594 382.181H233.866V387.553H241.594V382.181Z" fill="#DBDBDB"/>
<path d="M241.594 393.655H233.866V399.027H241.594V393.655Z" fill="#DBDBDB"/>
<path d="M252.684 324.813H244.956V330.185H252.684V324.813Z" fill="#DBDBDB"/>
<path d="M252.684 336.287H244.956V341.659H252.684V336.287Z" fill="#DBDBDB"/>
<path d="M252.684 347.76H244.956V353.132H252.684V347.76Z" fill="#DBDBDB"/>
<path d="M252.684 359.234H244.956V364.606H252.684V359.234Z" fill="#DBDBDB"/>
<path d="M252.684 370.707H244.956V376.079H252.684V370.707Z" fill="#DBDBDB"/>
<path d="M252.684 382.181H244.956V387.553H252.684V382.181Z" fill="#DBDBDB"/>
<path d="M252.684 393.655H244.956V399.027H252.684V393.655Z" fill="#DBDBDB"/>
<path d="M259.552 308.089H230.478V317.224H259.552V308.089Z" fill="#DBDBDB"/>
<path d="M259.551 302.433H241.119V308.089H259.551V302.433Z" fill="#EBEBEB"/>
<path d="M290.19 317.224H259.551V404.903H290.19V317.224Z" fill="#A6A6A6"/>
<path d="M280.763 398.17H287.054V392.798H280.763V398.17Z" fill="#C7C7C7"/>
<path d="M280.763 386.697H287.054V381.325H280.763V386.697Z" fill="#C7C7C7"/>
<path d="M280.763 375.222H287.054V369.85H280.763V375.222Z" fill="#C7C7C7"/>
<path d="M280.763 363.749H287.054V358.377H280.763V363.749Z" fill="#C7C7C7"/>
<path d="M280.763 352.275H287.054V346.903H280.763V352.275Z" fill="#C7C7C7"/>
<path d="M280.763 340.802H287.054V335.43H280.763V340.802Z" fill="#C7C7C7"/>
<path d="M280.763 329.328H287.054V323.956H280.763V329.328Z" fill="#C7C7C7"/>
<path d="M271.714 398.17H278.005V392.798H271.714V398.17Z" fill="#C7C7C7"/>
<path d="M271.714 386.697H278.005V381.325H271.714V386.697Z" fill="#C7C7C7"/>
<path d="M271.714 375.222H278.005V369.85H271.714V375.222Z" fill="#C7C7C7"/>
<path d="M271.714 363.749H278.005V358.377H271.714V363.749Z" fill="#C7C7C7"/>
<path d="M271.714 352.275H278.005V346.903H271.714V352.275Z" fill="#C7C7C7"/>
<path d="M271.714 340.802H278.005V335.43H271.714V340.802Z" fill="#C7C7C7"/>
<path d="M271.714 329.328H278.005V323.956H271.714V329.328Z" fill="#C7C7C7"/>
<path d="M262.687 398.17H268.978V392.798H262.687V398.17Z" fill="#C7C7C7"/>
<path d="M262.687 386.697H268.978V381.325H262.687V386.697Z" fill="#C7C7C7"/>
<path d="M262.687 375.222H268.978V369.85H262.687V375.222Z" fill="#C7C7C7"/>
<path d="M262.687 363.749H268.978V358.377H262.687V363.749Z" fill="#C7C7C7"/>
<path d="M262.687 352.275H268.978V346.903H262.687V352.275Z" fill="#C7C7C7"/>
<path d="M262.687 340.802H268.978V335.43H262.687V340.802Z" fill="#C7C7C7"/>
<path d="M262.687 329.328H268.978V323.956H262.687V329.328Z" fill="#C7C7C7"/>
<path d="M285.548 308.089H259.551V317.224H285.548V308.089Z" fill="#C7C7C7"/>
<path d="M273.639 302.433H259.551V308.089H273.639V302.433Z" fill="#DBDBDB"/>
<path d="M56.42 397.633C56.42 397.633 55.578 393.706 53.897 393.101C52.216 392.496 51.193 394.258 51.193 394.258C51.193 394.258 50.797 390.506 48.414 389.383C46.031 388.26 44.242 390.56 44.242 390.56C44.242 390.56 42.413 385.798 39.146 385.798C35.879 385.798 34.23 392.765 34.23 392.765C34.23 392.765 32.302 390.689 30.325 391.861C28.348 393.034 28.348 397.633 28.348 397.633H56.42Z" fill="#37474F"/>
<path d="M335.264 397.633C335.264 397.633 334.422 393.706 332.741 393.101C331.06 392.496 330.037 394.258 330.037 394.258C330.037 394.258 329.641 390.506 327.257 389.383C324.874 388.26 323.085 390.56 323.085 390.56C323.085 390.56 321.256 385.798 317.988 385.798C314.721 385.798 313.072 392.765 313.072 392.765C313.072 392.765 311.144 390.689 309.167 391.861C307.19 393.034 307.19 397.633 307.19 397.633H335.264Z" fill="#455A64"/>
<path d="M130.699 397.633H101.152C101.152 397.633 102.125 393.467 104.085 393.173C106.044 392.878 106.956 394.81 106.956 394.81C106.956 394.81 106.867 389 110.527 388.01C114.186 387.02 117.255 392.153 117.255 392.153C117.255 392.153 119.55 389.226 122.676 389.413C125.802 389.601 126.597 394.436 126.597 394.436C126.597 394.436 129.442 392.759 130.699 397.633Z" fill="#37474F"/>
<path d="M30.1621 397.633H14.6071C14.6071 397.633 14.6431 395.318 16.1721 394.704C17.7011 394.09 18.6101 395.288 18.6101 395.288C18.6101 395.288 19.2341 391.031 22.0831 391.031C24.9331 391.031 26.2961 394.703 26.2961 394.703C26.2961 394.703 26.9341 393.593 28.5161 393.799C30.0991 394.007 30.1621 397.633 30.1621 397.633Z" fill="#455A64"/>
<path d="M142.904 397.633H127.349C127.349 397.633 127.385 395.318 128.914 394.704C130.443 394.09 131.352 395.288 131.352 395.288C131.352 395.288 131.976 391.031 134.825 391.031C137.675 391.031 139.039 394.703 139.039 394.703C139.039 394.703 139.677 393.593 141.259 393.799C142.841 394.005 142.904 397.633 142.904 397.633Z" fill="#455A64"/>
<path d="M398.701 397.633H383.146C383.146 397.633 383.182 395.318 384.711 394.704C386.24 394.09 387.149 395.288 387.149 395.288C387.149 395.288 387.773 391.031 390.622 391.031C393.472 391.031 394.836 394.703 394.836 394.703C394.836 394.703 395.474 393.593 397.056 393.799C398.638 394.007 398.701 397.633 398.701 397.633Z" fill="#455A64"/>
<path d="M421.393 397.633H395.752C395.752 397.633 395.811 393.817 398.332 392.804C400.852 391.792 402.351 393.767 402.351 393.767C402.351 393.767 403.379 386.75 408.076 386.75C412.773 386.75 415.021 392.804 415.021 392.804C415.021 392.804 416.073 390.974 418.681 391.315C421.289 391.656 421.393 397.633 421.393 397.633Z" fill="#37474F"/>
<path d="M426.637 397.633H9.36304V404.902H426.637V397.633Z" fill="#C7C7C7"/>
<path d="M38.6171 397.633C39.0081 398.845 39.0961 400.056 39.1131 401.268C39.0981 402.479 39.0111 403.691 38.6171 404.902C38.2241 403.69 38.1361 402.479 38.1211 401.268C38.1381 400.056 38.2261 398.845 38.6171 397.633Z" fill="#263238"/>
<path d="M71.2321 397.633C71.6231 398.845 71.7111 400.056 71.7281 401.268C71.7131 402.479 71.6261 403.691 71.2321 404.902C70.8381 403.69 70.7511 402.479 70.7361 401.268C70.7531 400.056 70.8411 398.845 71.2321 397.633Z" fill="#263238"/>
<path d="M103.847 397.633C104.238 398.845 104.326 400.056 104.343 401.268C104.328 402.479 104.24 403.691 103.847 404.902C103.453 403.69 103.365 402.479 103.351 401.268C103.368 400.056 103.456 398.845 103.847 397.633Z" fill="#263238"/>
<path d="M136.462 397.633C136.853 398.845 136.941 400.056 136.958 401.268C136.943 402.479 136.856 403.691 136.462 404.902C136.069 403.69 135.981 402.479 135.966 401.268C135.983 400.056 136.071 398.845 136.462 397.633Z" fill="#263238"/>
<path d="M169.077 397.633C169.468 398.845 169.556 400.056 169.573 401.268C169.559 402.479 169.471 403.691 169.077 404.902C168.684 403.69 168.596 402.479 168.581 401.268C168.598 400.056 168.686 398.845 169.077 397.633Z" fill="#263238"/>
<path d="M201.692 397.633C202.083 398.845 202.171 400.056 202.188 401.268C202.174 402.479 202.086 403.691 201.692 404.902C201.299 403.69 201.211 402.479 201.196 401.268C201.213 400.056 201.301 398.845 201.692 397.633Z" fill="#263238"/>
<path d="M234.307 397.633C234.698 398.845 234.786 400.056 234.803 401.268C234.789 402.479 234.7 403.691 234.307 404.902C233.914 403.69 233.826 402.479 233.811 401.268C233.828 400.056 233.916 398.845 234.307 397.633Z" fill="#263238"/>
<path d="M266.922 397.633C267.313 398.845 267.401 400.056 267.418 401.268C267.404 402.479 267.315 403.691 266.922 404.902C266.529 403.69 266.441 402.479 266.426 401.268C266.443 400.056 266.531 398.845 266.922 397.633Z" fill="#263238"/>
<path d="M299.538 397.633C299.929 398.845 300.017 400.056 300.034 401.268C300.02 402.479 299.932 403.691 299.538 404.902C299.144 403.69 299.056 402.479 299.042 401.268C299.058 400.056 299.146 398.845 299.538 397.633Z" fill="#263238"/>
<path d="M332.153 397.633C332.545 398.845 332.632 400.056 332.649 401.268C332.635 402.479 332.546 403.691 332.153 404.902C331.76 403.69 331.672 402.479 331.657 401.268C331.673 400.056 331.761 398.845 332.153 397.633Z" fill="#263238"/>
<path d="M364.768 397.633C365.16 398.845 365.247 400.056 365.264 401.268C365.25 402.479 365.162 403.691 364.768 404.902C364.375 403.69 364.287 402.479 364.272 401.268C364.289 400.056 364.376 398.845 364.768 397.633Z" fill="#263238"/>
<path d="M397.383 397.633C397.774 398.845 397.862 400.056 397.879 401.268C397.864 402.479 397.777 403.691 397.383 404.902C396.989 403.69 396.901 402.479 396.887 401.268C396.904 400.056 396.991 398.845 397.383 397.633Z" fill="#263238"/>
<path d="M12.454 404.902L63.84 404.659L115.227 404.571L218 404.404L320.773 404.57L372.159 404.658L423.546 404.902L372.159 405.147L320.773 405.235L218 405.401L115.227 405.234L63.84 405.146L12.454 404.902Z" fill="#263238"/>
<path d="M303.756 55.764H132.223C122.644 55.764 114.872 63.668 114.872 73.44V426.561C114.872 436.312 122.645 444.237 132.223 444.237H303.756C313.345 444.237 321.127 436.312 321.127 426.561V73.439C321.128 63.668 313.345 55.764 303.756 55.764ZM310.281 415.643C310.281 424.937 303.32 432.456 294.736 432.456H141.274C132.669 432.456 125.709 424.937 125.709 415.643V86.823C125.709 67.889 132.67 66.966 141.274 66.966H172.009C173.795 66.966 175.256 68.996 175.256 71.512V72.598C175.256 78.493 178.483 78.514 182.45 78.514H253.539C257.537 78.514 260.733 78.494 260.733 72.598V71.512C260.733 68.996 262.174 66.966 263.99 66.966H294.735C303.319 66.966 310.28 69.483 310.28 86.823V415.643H310.281Z" fill="#263238"/>
<path d="M227.691 71.149H208.3C207.638 71.149 207.102 70.613 207.102 69.951C207.102 69.289 207.638 68.753 208.3 68.753H227.691C228.353 68.753 228.889 69.289 228.889 69.951C228.889 70.613 228.353 71.149 227.691 71.149Z" fill="white"/>
<path d="M310.283 86.823V415.643C310.283 424.937 303.322 432.456 294.738 432.456H141.277C132.672 432.456 125.712 424.937 125.712 415.643V86.823C125.712 67.889 132.673 66.966 141.277 66.966H172.012C173.798 66.966 175.259 68.996 175.259 71.512V72.598C175.259 78.493 178.486 78.514 182.453 78.514H253.542C257.54 78.514 260.736 78.494 260.736 72.598V71.512C260.736 68.996 262.177 66.966 263.993 66.966H294.738C303.322 66.966 310.283 69.482 310.283 86.823Z" fill="#EBEBEB"/>
<path d="M310.278 86.823V114.476H125.707V86.823C125.707 67.889 132.668 66.966 141.272 66.966H172.017C173.803 66.966 175.264 68.996 175.264 71.512V72.598C175.264 78.493 178.491 78.514 182.448 78.514H253.537C257.535 78.514 260.741 78.494 260.741 72.598V71.512C260.741 68.996 262.182 66.966 263.998 66.966H294.733C303.317 66.966 310.278 69.482 310.278 86.823Z" fill="#FFC727"/>
<path d="M166.708 74.351C166.609 74.449 166.51 74.547 166.411 74.646C166.355 74.702 166.299 74.759 166.243 74.815C165.445 74.041 164.495 73.628 163.383 73.627C162.271 73.627 161.321 74.039 160.517 74.818C160.464 74.763 160.411 74.706 160.357 74.651C160.26 74.552 160.162 74.454 160.064 74.356C160.062 74.354 160.058 74.353 160.055 74.351C160.055 74.349 160.055 74.346 160.055 74.344C160.063 74.338 160.07 74.332 160.077 74.326C160.202 74.215 160.324 74.1 160.453 73.994C160.719 73.774 161.012 73.593 161.321 73.44C161.687 73.26 162.071 73.127 162.472 73.053C162.662 73.018 162.855 73 163.047 72.977C163.112 72.969 163.537 72.968 163.55 72.968C163.681 72.978 163.812 72.984 163.942 72.998C164.304 73.037 164.656 73.125 164.998 73.25C165.246 73.341 165.484 73.453 165.712 73.584C165.954 73.723 166.182 73.881 166.394 74.062C166.501 74.153 166.603 74.25 166.708 74.344C166.708 74.346 166.708 74.349 166.708 74.351Z" fill="white"/>
<path d="M161.459 75.748C161.302 75.592 161.148 75.44 160.989 75.282C161.524 74.757 162.156 74.424 162.899 74.323C164.01 74.173 164.963 74.51 165.771 75.275C165.612 75.434 165.457 75.588 165.3 75.744C164.769 75.228 164.129 74.95 163.38 74.95C162.632 74.952 161.994 75.23 161.459 75.748Z" fill="white"/>
<path d="M164.831 76.217C164.676 76.372 164.521 76.527 164.364 76.684C164.094 76.421 163.765 76.276 163.38 76.276C162.996 76.276 162.669 76.421 162.396 76.686C162.24 76.53 162.085 76.375 161.93 76.22C162.673 75.442 164.009 75.379 164.831 76.217Z" fill="white"/>
<path d="M163.802 77.107C163.802 77.34 163.613 77.529 163.38 77.529C163.147 77.529 162.958 77.34 162.958 77.107C162.958 76.874 163.147 76.685 163.38 76.685C163.613 76.686 163.802 76.875 163.802 77.107Z" fill="white"/>
<path d="M137.746 75.249C137.746 74.574 138.294 74.026 138.969 74.026C139.644 74.026 140.192 74.574 140.192 75.249C140.192 75.924 139.644 76.472 138.969 76.472C138.293 76.472 137.746 75.924 137.746 75.249Z" fill="white"/>
<path d="M141.598 75.249C141.598 74.574 142.146 74.026 142.821 74.026C143.497 74.026 144.044 74.574 144.044 75.249C144.044 75.924 143.496 76.472 142.821 76.472C142.146 76.472 141.598 75.924 141.598 75.249Z" fill="white"/>
<path d="M145.451 75.249C145.451 74.574 145.999 74.026 146.674 74.026C147.35 74.026 147.897 74.574 147.897 75.249C147.897 75.924 147.349 76.472 146.674 76.472C145.999 76.472 145.451 75.924 145.451 75.249Z" fill="white"/>
<path d="M149.304 75.249C149.304 74.574 149.852 74.026 150.527 74.026C151.203 74.026 151.75 74.574 151.75 75.249C151.75 75.924 151.202 76.472 150.527 76.472C149.852 76.472 149.304 75.924 149.304 75.249Z" fill="white"/>
<path d="M153.157 75.249C153.157 74.574 153.705 74.026 154.38 74.026C155.055 74.026 155.603 74.574 155.603 75.249C155.603 75.924 155.055 76.472 154.38 76.472C153.704 76.472 153.157 75.924 153.157 75.249Z" fill="white"/>
<path d="M296.432 77.915H286.482V73.31H296.432V77.915ZM286.981 77.415H295.931V73.81H286.981V77.415Z" fill="white"/>
<path d="M293.723 74.089H287.304V77.135H293.723V74.089Z" fill="white"/>
<path d="M297.328 74.379H296.442V76.846H297.328V74.379Z" fill="white"/>
<path d="M144.119 105.394L138.648 100.268L144.119 95.142L144.968 96.047L140.462 100.268L144.968 104.49L144.119 105.394Z" fill="white"/>
<path d="M297.352 96.44C297.352 97.034 296.87 97.516 296.276 97.516C295.681 97.516 295.2 97.034 295.2 96.44C295.2 95.846 295.682 95.364 296.276 95.364C296.87 95.364 297.352 95.846 297.352 96.44Z" fill="white"/>
<path d="M297.352 100.268C297.352 100.863 296.87 101.344 296.276 101.344C295.681 101.344 295.2 100.862 295.2 100.268C295.2 99.674 295.682 99.192 296.276 99.192C296.87 99.192 297.352 99.674 297.352 100.268Z" fill="white"/>
<path d="M297.352 104.096C297.352 104.69 296.87 105.172 296.276 105.172C295.681 105.172 295.2 104.69 295.2 104.096C295.2 103.502 295.682 103.02 296.276 103.02C296.87 103.02 297.352 103.502 297.352 104.096Z" fill="white"/>
<path d="M287.304 408.366H205.182V414.366H287.304V408.366Z" fill="white"/>
<path d="M310.28 125.25V119.25H257.95V114.48H251.95V128.75L201.38 151.92L196.56 159.78L165.75 128.97V114.48H162.75V128.71H125.71V134.71H130.96V252.08H162.17L153.14 272.73V317.37H125.8V320.37H153.14V332.18H202.18V375.38H125.71V381.38H202.18V432.46H208.18V332.18H225.11V364.89H234.31V361.89H228.11V332.18H243.72L284.3 375.2V432.46H290.3V372.82L271.1 352.46L310.28 313.28V304.8L266.98 348.1L246.31 326.18H185.13L222.96 285.05H310.18V282.05H225.72L260.87 243.84H310.28V237.84H289.73V125.25H310.28ZM136.96 246.08V183.17H162V180.17H136.96V134.71H163.01L193.34 165.04L178.66 189.02H178.65C167.66 189.9 159 199.11 159 210.32C159 219.08 164.3 226.63 171.86 229.93L164.79 246.08H136.96ZM180.38 194.94C188.86 194.94 195.76 201.84 195.76 210.32C195.76 218.8 188.86 225.7 180.38 225.7C171.9 225.7 165 218.8 165 210.32C165 201.84 171.9 194.94 180.38 194.94ZM176.97 326.18H159.14V273.99L177.71 231.53C178.58 231.64 179.48 231.7 180.38 231.7C187.35 231.7 193.55 228.35 197.46 223.17L240.92 243.84H252.71L176.97 326.18ZM283.73 237.84H242.27L200.37 217.91C201.27 215.55 201.76 212.99 201.76 210.32C201.76 200.25 194.76 191.79 185.38 189.53L205.54 156.61L238.22 141.64L283.73 187.16V237.84ZM283.73 182.92L241.13 140.31L257.95 132.6V125.25H283.73V182.92Z" fill="white"/>
<path d="M173.008 312.904H164.283V321.629H173.008V312.904Z" fill="#DBDBDB"/>
<path d="M254.95 288.17V305.02H248.82V312.059H238.03V288.17H254.95Z" fill="#DBDBDB"/>
<path d="M210.946 405.614V395.804H215.882V385.484H225.023V405.614H210.946Z" fill="#DBDBDB"/>
<path d="M280.763 390.913H270.027V405.613H280.763V390.913Z" fill="#DBDBDB"/>
<path d="M230.478 334.727V347.253H253.954L241.274 334.572L230.478 334.727Z" fill="#DBDBDB"/>
<path d="M222.74 334.572H210.946V346.366H222.74V334.572Z" fill="#DBDBDB"/>
<path d="M137.46 323.521H128.032V343.132H137.46V323.521Z" fill="#DBDBDB"/>
<path d="M150.656 323.521H140.004V332.546H150.656V323.521Z" fill="#DBDBDB"/>
<path d="M199.362 359.958H185.155V373.024H199.362V359.958Z" fill="#DBDBDB"/>
<path d="M199.362 357.395V334.572H181.987L170.908 345.651V357.395H199.362Z" fill="#DBDBDB"/>
<path d="M167.771 343.132L176.498 334.404H153.206V343.132H167.771Z" fill="#DBDBDB"/>
<path d="M162.284 243.369H140.004V232.859H166.524L162.284 243.369Z" fill="#DBDBDB"/>
<path d="M149.565 213.239H140.004V227.705H149.565V213.239Z" fill="#DBDBDB"/>
<path d="M162.45 187.3V192.351C158.225 197.123 155.386 203.116 154.536 209.75H140V187.3H162.45Z" fill="#DBDBDB"/>
<path d="M214.62 235.96L205.49 255.68H194.37L175.38 246.87L180.34 236.03H180.38C187.4 236.03 193.78 233.22 198.42 228.66L214.62 235.96Z" fill="#DBDBDB"/>
<path d="M251.326 260.524L263.376 247.424H287.054V260.524H251.326Z" fill="#DBDBDB"/>
<path d="M305.166 247.424H290.19V260.523H305.166V247.424Z" fill="#DBDBDB"/>
<path d="M230.824 133.595L247.686 125.87V114.48H230.824V133.595Z" fill="#DBDBDB"/>
<path d="M173.936 131.753L189.286 147.102V120.876H173.936V131.753Z" fill="#DBDBDB"/>
<path d="M194.707 147.102H200.194L222.391 137.087V120.876H194.707V147.102Z" fill="#DBDBDB"/>
<path opacity="0.3" d="M161.323 137.909L174.083 150.67H147.877V137.909H161.323Z" fill="#FFC727"/>
<path d="M175.502 186.469L187.954 166.129L176.084 153.59H159.919V167.099H168.804V180.85L175.502 186.469Z" fill="#DBDBDB"/>
<path d="M159.919 116.192H145.657V125.947H159.919V116.192Z" fill="#DBDBDB"/>
<path d="M142.331 125.947H128.808V116.192H132.688L136.747 120.252H142.331V125.947Z" fill="#DBDBDB"/>
<path d="M230.246 189.249L212.23 208.03L205.32 202.63C203.27 195.96 198.61 190.43 192.54 187.24L207.61 162.62L230.246 189.249Z" fill="#DBDBDB"/>
<path d="M210.623 216.32L242.27 231.965H258.056V204.445L233.447 192.292L210.623 216.32Z" fill="#DBDBDB"/>
<path d="M280.38 174.331V160.734H266.785L280.38 174.331Z" fill="#DBDBDB"/>
<path d="M280.38 146.481H272.355V157.538H280.38V146.481Z" fill="#DBDBDB"/>
<path d="M280.38 129.11V142.91H269.45V150.55H261.71V129.11H280.38Z" fill="#DBDBDB"/>
<path d="M258.056 148.367V135.671L246.084 141.124L253.325 148.367H258.056Z" fill="#DBDBDB"/>
<path opacity="0.3" d="M164.283 309.261V274.675L173.936 251.067L191.547 259.792H232.616L186.559 309.261H164.283Z" fill="#FFC727"/>
<path opacity="0.3" d="M310.283 129.11H294.136V150.55H310.283V129.11Z" fill="#FFC727"/>
<path opacity="0.3" d="M264.457 358.731H230.478V350.216H256.425L264.457 358.731Z" fill="#FFC727"/>
<path d="M150.655 288.963H128.032V313.887H150.655V288.963Z" fill="#DBDBDB"/>
<path d="M150.656 274.306H140.004V284.958H150.656V274.306Z" fill="#DBDBDB"/>
<path d="M150.655 271.07H134.059V254.917H157.628L150.655 271.07Z" fill="#DBDBDB"/>
<path d="M137.46 281.74H128.032V284.957H137.46V281.74Z" fill="#DBDBDB"/>
<path d="M137.46 274.306H128.032V279.632H137.46V274.306Z" fill="#DBDBDB"/>
<path d="M279.782 213.964H262.43V231.965H279.782V213.964Z" fill="#DBDBDB"/>
<path d="M279.782 204.842H262.43V211.16H279.782V204.842Z" fill="#DBDBDB"/>
<path d="M210.47 158.075L237.595 145.65L258.64 166.699L233.722 186.469L210.47 158.075Z" fill="#DBDBDB"/>
<path opacity="0.3" d="M260.827 169.676L271.106 179.541L258.64 190.395V200.159L236.662 188.963L260.827 169.676Z" fill="#FFC727"/>
<path d="M279.782 188.742L273.582 182.92L262.43 192.292V202.056H279.782V188.742Z" fill="#DBDBDB"/>
<path d="M155.467 153.732H140.004V176.739H155.467V153.732Z" fill="#DBDBDB"/>
<path d="M165.214 170.03H159.919V175.325H165.214V170.03Z" fill="#DBDBDB"/>
<path d="M310.259 209.671H294.215V231.886H310.259V209.671Z" fill="#DBDBDB"/>
<path d="M294.215 204.763H310.26V179.573L294.215 189.358V204.763Z" fill="#DBDBDB"/>
<path d="M294.136 184.141V168.623H310.278V175.052L294.136 184.141Z" fill="#DBDBDB"/>
<path d="M300.066 153.16H294.136V166.129H300.066V153.16Z" fill="#DBDBDB"/>
<path d="M310.284 153.16H303.06V166.129H310.284V153.16Z" fill="#DBDBDB"/>
<path opacity="0.3" d="M310.283 386.905H294.801V415.643H310.283V386.905Z" fill="#FFC727"/>
<path opacity="0.3" d="M198.45 421.409H182.768L164.852 404.949V384.985H198.45V421.409Z" fill="#FFC727"/>
<path d="M162.005 384.985H142.219V395.699H162.005V384.985Z" fill="#DBDBDB"/>
<path d="M162.005 398.464H142.219V404.45H162.005V398.464Z" fill="#DBDBDB"/>
<path d="M135.597 404.12H139.699V384.985H130.554V398.794L135.597 404.12Z" fill="#DBDBDB"/>
<path d="M198.449 423.488H182.768V432.46H198.449V423.488Z" fill="#DBDBDB"/>
<path d="M179.38 421.41V432.46H141.28C137.12 432.46 133.33 430.7 130.55 427.83V406.86H163.85L179.38 421.41Z" fill="#DBDBDB"/>
<path d="M234.555 278.417L248.82 263.434H262.43V278.417H234.555Z" fill="#DBDBDB"/>
<path d="M281.445 263.434H265.261V270.325H281.445V263.434Z" fill="#DBDBDB"/>
<path d="M272.55 272.159H265.261V278.417H272.55V272.159Z" fill="#DBDBDB"/>
<path d="M281.444 272.159H274.36V278.417H281.444V272.159Z" fill="#DBDBDB"/>
<path d="M293.638 263.434H283.412V278.417H293.638V263.434Z" fill="#DBDBDB"/>
<path d="M305.027 263.434H296.173V273.678L300.413 278.417H305.027V263.434Z" fill="#DBDBDB"/>
<path d="M209.754 255.68H232.616V244.747L218 238.114L209.754 255.68Z" fill="#DBDBDB"/>
<path d="M190.5 211.969C191.455 206.383 187.7 201.08 182.113 200.125C176.527 199.17 171.224 202.925 170.269 208.511C169.314 214.098 173.069 219.401 178.655 220.356C184.242 221.311 189.545 217.556 190.5 211.969Z" fill="#DBDBDB"/>
<path opacity="0.3" d="M144.79 373.025H128.032V345.036H137.461L144.79 354.606V373.025Z" fill="#FFC727"/>
<path d="M150.655 351.285H144.79L140.004 345.036V335.171H150.655V351.285Z" fill="#DBDBDB"/>
<path d="M157.046 365.139H147.723V373.024H157.046V365.139Z" fill="#DBDBDB"/>
<path d="M167.52 345.98V373.02H159.14V351.28H153.21V345.98H167.52Z" fill="#DBDBDB"/>
<path d="M182.768 360.686H170.908V373.025H182.768V360.686Z" fill="#DBDBDB"/>
<path d="M157.046 353.659H147.712V363.63H157.046V353.659Z" fill="#DBDBDB"/>
<path d="M278.005 330.802V288.169H306.643V302.656L278.005 330.802Z" fill="#DBDBDB"/>
<path d="M275.126 288.169H257.501V305.02H275.126V288.169Z" fill="#DBDBDB"/>
<path d="M193.155 323.17L211.539 303.165H234.614V323.17H193.155Z" fill="#DBDBDB"/>
<path d="M214.16 300.853L225.826 288.169H234.555V300.853H214.16Z" fill="#DBDBDB"/>
<path d="M248.82 314.813H238.03V323.17H248.82V314.813Z" fill="#DBDBDB"/>
<path d="M275.13 315.163V333.95L266.6 343.13L251.74 327.19V308.96H269.36V315.163H275.13Z" fill="#DBDBDB"/>
<path d="M290.326 368.536L275.22 352.049L292.363 335.303L301.83 345.516L290.326 368.536Z" fill="#DBDBDB"/>
<path d="M294.303 333.167L303.44 343.023H310.283V317.287L294.303 333.167Z" fill="#DBDBDB"/>
<path d="M294.801 373.731L292.557 371.324L300.033 355.317H310.28V384.373H294.801V373.731Z" fill="#DBDBDB"/>
<path d="M310.283 345.299H303.614V353.363H310.283V345.299Z" fill="#DBDBDB"/>
<path d="M226.613 416.805H210.943V428.136H226.613V416.805Z" fill="#DBDBDB"/>
<path d="M234.803 416.805H228.958V432.456H234.803V416.805Z" fill="#DBDBDB"/>
<path d="M245.419 416.805H237.216V422.629H245.419V416.805Z" fill="#DBDBDB"/>
<path d="M248.819 424.347H237.216V432.456H248.819V424.347Z" fill="#DBDBDB"/>
<path d="M262.687 416.8V432.456H251.317V422.63H248.157V416.8H262.687Z" fill="#DBDBDB"/>
<path d="M272.022 432.46L264.575 425.013V416.805H282.167V432.46H272.022Z" fill="#DBDBDB"/>
<path d="M309.97 418.97C308.55 426.65 302.3 432.43 294.8 432.46V418.97H309.97Z" fill="#DBDBDB"/>
<path d="M280.763 388.17H253.954V361.441H267.418L280.763 376.101V388.17Z" fill="#DBDBDB"/>
<path d="M250.823 361.441H237.717V378.383H250.823V361.441Z" fill="#DBDBDB"/>
<path d="M267.42 390.91V405.614H237.72V380.51H250.82V390.91H267.42Z" fill="#DBDBDB"/>
<path d="M236.025 391.268H226.614V405.614H236.025V391.268Z" fill="#DBDBDB"/>
<path d="M236.025 371.324H210.946V383.654H236.025V371.324Z" fill="#DBDBDB"/>
<path opacity="0.3" d="M236.025 385.484H226.614V389.486H236.025V385.484Z" fill="#FFC727"/>
<path d="M222.739 348.72H215.882L210.946 353.406V367.039H222.739V348.72Z" fill="#DBDBDB"/>
<path d="M279.052 366.764L244.523 329.973H155.139V273.26L165.296 250.153H133.06V216.32H135.06V248.153H168.361L157.139 273.68V327.973H245.389L245.685 328.288L280.511 365.395L279.052 366.764Z" fill="#FFC727"/>
<path d="M136.078 214.579C136.078 215.694 135.174 216.597 134.06 216.597C132.945 216.597 132.042 215.693 132.042 214.579C132.042 213.464 132.946 212.561 134.06 212.561C135.174 212.56 136.078 213.464 136.078 214.579Z" fill="#FFC727"/>
<path d="M281.911 366.242C281.911 367.357 281.007 368.26 279.893 368.26C278.778 368.26 277.875 367.356 277.875 366.242C277.875 365.127 278.779 364.224 279.893 364.224C281.007 364.224 281.911 365.128 281.911 366.242Z" fill="#FFC727"/>
<path d="M246.915 304.558H214.146V319.268H246.915V304.558Z" fill="white"/>
<path d="M227.499 319.268H233.563L230.531 324.873L227.499 319.268Z" fill="white"/>
<path d="M218.046 316.167C217.702 316.114 217.669 315.778 217.854 315.479C218.092 315.094 218.732 314.141 218.79 314.039C218.996 313.673 219.098 313.245 219.176 312.848C219.36 311.916 219.521 310.978 219.698 310.043C219.706 310 219.71 309.957 219.721 309.874C219.429 310.03 219.163 310.165 218.905 310.315C218.859 310.342 218.835 310.426 218.822 310.489C218.755 310.822 218.696 311.157 218.634 311.491C218.624 311.543 218.614 311.595 218.598 311.645C218.54 311.823 218.415 311.902 218.233 311.866C218.059 311.831 217.966 311.706 217.994 311.536C218.072 311.059 218.157 310.583 218.262 310.112C218.283 310.019 218.389 309.922 218.48 309.872C219.08 309.54 219.683 309.213 220.292 308.899C220.673 308.702 221.11 308.866 221.3 309.258C221.525 309.719 221.742 310.185 221.973 310.642C222.016 310.727 222.102 310.808 222.188 310.85C222.478 310.993 222.779 311.115 223.073 311.249C223.284 311.345 223.356 311.5 223.282 311.681C223.208 311.861 223.039 311.92 222.828 311.829C222.475 311.677 222.123 311.524 221.777 311.357C221.691 311.315 221.613 311.228 221.564 311.142C221.449 310.941 221.354 310.729 221.23 310.481C221.114 311 221.004 311.469 220.911 311.941C220.897 312.011 221.732 313.041 222.082 313.486C222.19 313.622 222.275 313.794 222.316 313.963C222.443 314.484 222.545 315.01 222.653 315.535C222.725 315.882 222.67 316.084 222.349 316.131C222.079 316.17 221.921 315.897 221.878 315.652C221.791 315.162 221.682 314.676 221.571 314.191C221.545 314.079 220.364 312.649 220.188 312.518C220.143 312.791 219.74 313.968 219.613 314.229C219.404 314.655 218.424 316.225 218.046 316.167Z" fill="#A6A6A6"/>
<path d="M221.807 307.962C221.809 308.392 221.48 308.727 221.055 308.731C220.623 308.735 220.272 308.387 220.277 307.959C220.282 307.541 220.631 307.194 221.046 307.195C221.465 307.196 221.806 307.539 221.807 307.962Z" fill="#A6A6A6"/>
<path d="M227.061 308.514C227.307 308.754 227.427 309.075 227.427 309.39C227.427 309.705 227.307 310.026 227.061 310.271C226.821 310.511 226.5 310.636 226.18 310.636C225.866 310.636 225.545 310.511 225.305 310.271C225.195 310.161 225.195 309.98 225.305 309.871C225.414 309.761 225.595 309.761 225.705 309.871C225.835 310.001 226.005 310.066 226.18 310.066C226.356 310.066 226.526 310.001 226.66 309.871C226.796 309.735 226.861 309.565 226.861 309.391C226.861 309.215 226.796 309.045 226.66 308.915C226.53 308.779 226.36 308.72 226.185 308.715C226.105 308.72 226.03 308.685 225.98 308.625C225.974 308.625 225.974 308.625 225.974 308.619C225.859 308.51 225.859 308.334 225.964 308.219L226.475 307.699H225.665C225.51 307.699 225.385 307.573 225.385 307.413C225.385 307.258 225.51 307.133 225.665 307.133H227.141C227.301 307.133 227.427 307.258 227.427 307.413C227.427 307.464 227.411 307.509 227.392 307.549C227.376 307.573 227.362 307.599 227.342 307.619L226.711 308.269C226.841 308.329 226.961 308.409 227.061 308.514Z" fill="#A6A6A6"/>
<path d="M228.214 308.889C228.219 308.429 228.334 308.013 228.555 307.693C228.765 307.373 229.09 307.138 229.486 307.138C229.872 307.138 230.202 307.372 230.412 307.693C230.627 308.013 230.747 308.429 230.747 308.889C230.747 309.345 230.627 309.765 230.412 310.085C230.202 310.401 229.872 310.641 229.486 310.641C229.09 310.641 228.765 310.401 228.555 310.085C228.334 309.765 228.219 309.345 228.214 308.889ZM230.192 308.889C230.192 308.529 230.091 308.213 229.952 307.998C229.806 307.788 229.641 307.687 229.486 307.692C229.331 307.687 229.161 307.788 229.01 307.998C228.869 308.213 228.77 308.528 228.77 308.889C228.77 309.244 228.87 309.565 229.01 309.775C229.16 309.991 229.33 310.085 229.486 310.085C229.641 310.085 229.806 309.99 229.952 309.775C230.091 309.565 230.192 309.245 230.192 308.889Z" fill="#A6A6A6"/>
<path d="M235.496 309.174C235.496 309.179 235.496 309.185 235.496 309.19V310.376C235.496 310.522 235.376 310.642 235.23 310.642C235.09 310.642 234.96 310.522 234.96 310.376V309.19C234.96 309.185 234.96 309.179 234.96 309.174C234.954 308.9 234.725 308.674 234.444 308.674C234.169 308.674 233.938 308.904 233.938 309.19V310.376C233.938 310.387 233.933 310.401 233.933 310.411C233.933 310.416 233.933 310.427 233.933 310.427C233.928 310.437 233.928 310.447 233.918 310.456C233.918 310.461 233.918 310.472 233.918 310.481C233.872 310.571 233.772 310.641 233.667 310.641C233.647 310.641 233.632 310.636 233.617 310.636C233.497 310.606 233.402 310.506 233.402 310.375V309.189C233.402 309.184 233.402 309.184 233.402 309.184V308.408C233.402 308.253 233.522 308.138 233.667 308.138C233.772 308.138 233.867 308.194 233.907 308.288C234.067 308.193 234.253 308.138 234.443 308.138C234.757 308.138 235.039 308.269 235.228 308.484C235.414 308.269 235.699 308.138 236.014 308.138C236.589 308.138 237.055 308.609 237.055 309.19V310.376C237.055 310.522 236.935 310.642 236.789 310.642C236.644 310.642 236.518 310.522 236.518 310.376V309.19C236.518 308.905 236.289 308.674 236.013 308.674C235.732 308.674 235.506 308.9 235.496 309.174Z" fill="#A6A6A6"/>
<path d="M238.704 307.513C238.704 307.663 238.589 307.788 238.433 307.788C238.284 307.788 238.163 307.663 238.163 307.513V307.408C238.163 307.258 238.283 307.138 238.433 307.138C238.588 307.138 238.704 307.257 238.704 307.408V307.513ZM238.704 308.419V310.37C238.704 310.52 238.589 310.641 238.433 310.641C238.284 310.641 238.163 310.521 238.163 310.37V308.419C238.163 308.259 238.283 308.144 238.433 308.144C238.589 308.144 238.704 308.259 238.704 308.419Z" fill="#A6A6A6"/>
<path d="M241.651 309.179V310.375C241.651 310.521 241.536 310.641 241.39 310.641C241.25 310.641 241.125 310.521 241.125 310.375V309.179C241.125 308.9 240.89 308.674 240.604 308.674C240.324 308.674 240.103 308.9 240.103 309.179V310.375C240.103 310.391 240.103 310.405 240.093 310.426C240.068 310.546 239.957 310.641 239.827 310.641C239.677 310.641 239.562 310.521 239.562 310.375V309.179V308.404C239.562 308.259 239.677 308.138 239.827 308.138C239.932 308.138 240.027 308.198 240.072 308.293C240.222 308.198 240.408 308.138 240.603 308.138C241.186 308.138 241.651 308.614 241.651 309.179Z" fill="#A6A6A6"/>
<path d="M242.943 309.93C243.149 309.93 243.319 310.101 243.319 310.306C243.319 310.511 243.149 310.676 242.943 310.676C242.738 310.676 242.573 310.511 242.573 310.306C242.573 310.101 242.738 309.93 242.943 309.93Z" fill="#A6A6A6"/>
<path d="M225.685 312.494L225.19 312.785C225.174 312.795 225.15 312.805 225.13 312.805C225.085 312.805 225.045 312.781 225.026 312.745C224.991 312.68 225.01 312.609 225.071 312.579L225.747 312.169C225.802 312.14 225.882 312.159 225.912 312.214C225.927 312.244 225.932 312.275 225.927 312.305V315.523C225.927 315.588 225.877 315.643 225.807 315.643C225.743 315.643 225.687 315.588 225.687 315.523V312.494H225.685Z" fill="#A6A6A6"/>
<path d="M226.824 316.028C227.004 315.927 227.074 315.817 227.059 315.642C226.984 315.621 226.923 315.567 226.923 315.467V315.362C226.923 315.267 226.993 315.197 227.088 315.197C227.184 315.197 227.253 315.267 227.253 315.362V315.487C227.253 315.767 227.208 315.918 227.118 316.008C227.028 316.098 226.903 316.168 226.858 316.168C226.823 316.168 226.783 316.144 226.783 316.093C226.784 316.069 226.799 316.043 226.824 316.028Z" fill="#A6A6A6"/>
<path d="M227.935 315.428L229.572 313.951C229.766 313.77 229.872 313.53 229.872 313.28C229.872 313.065 229.792 312.849 229.637 312.679C229.462 312.484 229.217 312.384 228.972 312.384C228.751 312.384 228.536 312.459 228.361 312.614L228.191 312.769C228.141 312.819 228.061 312.814 228.021 312.764C227.971 312.714 227.976 312.634 228.026 312.594L228.196 312.434C228.417 312.239 228.697 312.139 228.972 312.139C229.277 312.139 229.587 312.258 229.813 312.514C230.018 312.734 230.113 313.009 230.113 313.28C230.113 313.591 229.988 313.901 229.738 314.131L228.337 315.398H229.993C230.058 315.398 230.113 315.453 230.113 315.523C230.113 315.588 230.058 315.643 229.993 315.643H228.041H228.021C227.986 315.643 227.951 315.633 227.931 315.608C227.885 315.553 227.885 315.478 227.935 315.428Z" fill="#A6A6A6"/>
<path d="M232.579 312.259C232.579 312.195 232.634 312.14 232.699 312.14C232.768 312.14 232.824 312.195 232.824 312.259V314.616L234.275 313.17C234.325 313.12 234.395 313.12 234.445 313.17C234.496 313.215 234.496 313.29 234.445 313.341L233.5 314.286L234.45 315.442C234.496 315.497 234.49 315.567 234.44 315.617C234.416 315.637 234.385 315.642 234.36 315.642C234.325 315.642 234.285 315.632 234.265 315.597L233.324 314.461L232.824 314.961V315.522C232.824 315.587 232.768 315.642 232.699 315.642C232.633 315.642 232.579 315.587 232.579 315.522V312.259Z" fill="#A6A6A6"/>
<path d="M238.888 314.191C238.878 313.775 238.548 313.43 238.127 313.43C237.712 313.43 237.371 313.775 237.371 314.191V315.527V315.542C237.371 315.548 237.366 315.553 237.366 315.553V315.563C237.356 315.593 237.331 315.613 237.306 315.628C237.285 315.638 237.266 315.643 237.245 315.643H237.23H237.22C237.215 315.643 237.209 315.638 237.209 315.638C237.199 315.638 237.189 315.628 237.18 315.622C237.174 315.622 237.169 315.617 237.164 315.612L237.149 315.597C237.144 315.592 237.144 315.587 237.139 315.587C237.139 315.582 237.139 315.582 237.134 315.576C237.134 315.576 237.134 315.571 237.128 315.566C237.128 315.561 237.128 315.556 237.123 315.551V315.535V315.525V314.189C237.123 313.773 236.788 313.428 236.367 313.428C235.947 313.428 235.612 313.773 235.612 314.189V315.525C235.612 315.565 235.591 315.6 235.556 315.62C235.551 315.626 235.536 315.636 235.526 315.636C235.521 315.641 235.516 315.641 235.506 315.641H235.49H235.475C235.43 315.636 235.39 315.596 235.375 315.551V315.526V314.19V314.15V313.309C235.375 313.244 235.43 313.194 235.489 313.194C235.559 313.194 235.61 313.244 235.61 313.309V313.544C235.79 313.328 236.06 313.193 236.365 313.193C236.746 313.193 237.071 313.403 237.241 313.714C237.417 313.403 237.747 313.193 238.122 313.193C238.673 313.193 239.118 313.638 239.118 314.189V315.525C239.118 315.586 239.068 315.64 238.998 315.64C238.933 315.64 238.883 315.585 238.883 315.525V314.191H238.888Z" fill="#A6A6A6"/>
<path d="M291.851 341.67C291.25 335.633 287.09 329.624 279.777 329.624C272.474 329.624 268.314 335.633 267.713 341.67C266.789 350.989 273.075 359.429 279.777 367.13C286.488 359.429 292.775 350.989 291.851 341.67ZM279.777 348.372C276.125 348.372 273.167 345.414 273.167 341.762C273.167 338.11 276.125 335.152 279.777 335.152C283.438 335.152 286.396 338.11 286.396 341.762C286.396 345.414 283.438 348.372 279.777 348.372Z" fill="#FFC727"/>
<path d="M143.486 448.852C141.319 449.552 79.535 448.765 77.203 447.239C76.307 446.675 75.897 437.665 75.714 426.765C75.713 426.651 75.712 426.537 75.712 426.423C75.669 424.177 75.64 421.864 75.636 419.519C75.635 419.196 75.634 418.873 75.624 418.552L78.615 386.499L119.945 386.904L115.873 418.656L115.826 419.913L115.578 426.485L115.554 427.161C115.554 427.161 139.068 438.04 141.457 439.988C143.826 441.929 145.654 448.161 143.486 448.852Z" fill="#AD6359"/>
<path d="M143.486 448.852C141.319 449.552 79.535 448.765 77.203 447.239C76.307 446.675 75.897 437.665 75.714 426.765C75.713 426.651 75.712 426.537 75.712 426.423C75.669 424.177 75.64 421.864 75.636 419.519C75.635 419.196 75.634 418.873 75.624 418.552L115.873 418.656L115.826 419.913L115.578 426.485L115.554 427.161C115.554 427.161 139.068 438.04 141.457 439.988C143.826 441.929 145.654 448.161 143.486 448.852Z" fill="#EBEBEB"/>
<path d="M143.492 448.847C142.377 449.206 125.591 449.172 109.183 448.845C105.884 448.78 102.605 448.705 99.4771 448.62C87.7761 448.301 78.1071 447.821 77.2091 447.236C76.3211 446.678 75.9121 437.917 75.7301 427.218C75.7301 427.067 75.7201 426.916 75.7201 426.764C75.7201 426.651 75.7201 426.528 75.7111 426.414H75.7581L115.577 426.481L115.558 427.162C115.558 427.162 139.076 438.035 141.458 439.982C143.83 441.929 145.656 448.157 143.492 448.847Z" fill="#FFC727"/>
<path d="M142.817 446.447C132.405 446.059 90.375 445.475 80.053 445.882C79.969 445.885 79.968 445.942 80.052 445.948C90.363 446.558 132.397 446.802 142.814 446.619C143.035 446.614 143.037 446.455 142.817 446.447Z" fill="#263238"/>
<path d="M120.013 426.657C115.925 425.84 110.904 426.405 107.735 429.285C107.612 429.397 107.773 429.569 107.906 429.529C111.965 428.306 115.752 427.536 119.99 427.174C120.289 427.149 120.306 426.715 120.013 426.657Z" fill="#263238"/>
<path d="M122.948 428.477C118.859 427.66 113.839 428.225 110.67 431.105C110.547 431.217 110.708 431.39 110.841 431.349C114.901 430.126 118.687 429.356 122.925 428.994C123.224 428.969 123.241 428.535 122.948 428.477Z" fill="#263238"/>
<path d="M125.884 430.298C121.795 429.481 116.775 430.046 113.606 432.926C113.483 433.038 113.644 433.21 113.777 433.17C117.837 431.947 121.623 431.177 125.861 430.815C126.16 430.79 126.177 430.356 125.884 430.298Z" fill="#263238"/>
<path d="M109.183 448.845C105.884 448.78 102.605 448.705 99.4771 448.62C87.7761 448.301 78.1071 447.821 77.2091 447.236C76.3211 446.678 75.9121 437.917 75.7301 427.218C75.7301 427.067 75.7201 426.916 75.7201 426.764C75.7201 426.651 75.7201 426.528 75.7111 426.414H75.7581C81.2121 430.242 100.439 443.035 109.183 448.845Z" fill="#263238"/>
<path d="M117.957 426.623L73.46 426.633C73.46 426.633 82.397 322.704 82.046 320.889C81.601 318.564 78.971 308.045 75.471 294.304C74.374 290.004 73.191 285.392 71.961 280.61C68.641 267.681 64.98 253.552 61.792 241.257C57.005 222.837 53.269 208.529 53.269 208.529L90.98 208.52C90.98 208.52 95.3781 222.45 100.921 240.577C109.954 270.035 122.023 310.578 123.216 320.436C125.148 336.352 117.957 426.623 117.957 426.623Z" fill="#455A64"/>
<path d="M115.984 419.032C109.189 418.892 111.141 418.837 104.344 418.772C101.018 418.741 79.1611 418.555 76.0541 419.07C75.9851 419.081 75.9851 419.197 76.0541 419.209C79.1621 419.723 101.018 419.528 104.344 419.495C111.141 419.428 109.188 419.373 115.984 419.23C116.112 419.227 116.112 419.034 115.984 419.032Z" fill="#263238"/>
<path d="M90.4181 314.536C88.9571 308.104 86.7761 301.801 84.8771 295.488C81.0171 282.66 77.1261 269.842 73.2291 257.025C71.2801 250.617 69.3271 244.21 67.3551 237.809C66.3591 234.577 65.3651 231.343 64.3521 228.117C63.3611 224.959 62.2331 221.828 61.3391 218.642C60.9751 217.346 60.7771 218.058 61.2421 219.704C62.1811 223.022 63.1091 226.345 64.0771 229.655C65.9951 236.211 67.9281 242.763 69.8681 249.312C73.7281 262.347 77.6411 275.368 81.5501 288.389C83.5101 294.917 85.4831 301.442 87.4451 307.97C88.3821 311.089 89.3011 314.227 89.8521 317.441C90.4281 320.794 90.4591 324.186 90.2471 327.575C89.8221 334.383 89.0351 341.181 88.4081 347.973C87.7801 354.78 87.1511 361.586 86.5231 368.392C85.2721 381.938 84.0211 395.483 82.8051 409.031C82.6511 410.748 82.5011 412.465 82.3691 414.184C82.3251 414.759 83.1941 414.715 83.2551 414.162C84.7181 400.768 85.8381 387.33 87.0931 373.916C88.3421 360.567 89.5901 347.219 90.8351 333.87C91.1471 330.519 91.5031 327.161 91.5051 323.792C91.5051 320.664 91.1091 317.581 90.4181 314.536Z" fill="#263238"/>
<path d="M86.7 208.521C84.087 228.776 79.105 266.753 75.472 294.304C66.958 260.924 53.27 208.528 53.27 208.528L86.7 208.521Z" fill="#263238"/>
<path d="M95.543 449.457C93.378 450.165 31.592 449.603 29.255 448.086C28.357 447.525 27.914 438.517 27.691 427.618C27.69 427.504 27.688 427.39 27.687 427.277C27.636 425.031 27.598 422.718 27.586 420.374C27.584 420.051 27.582 419.728 27.571 419.407C27.423 403.677 28.555 387.354 28.555 387.354L68.941 387.608L67.821 419.364L67.778 420.622L67.554 427.195L67.533 427.871C67.533 427.871 91.087 438.664 93.483 440.603C95.858 442.534 97.709 448.759 95.543 449.457Z" fill="#AD6359"/>
<path d="M95.5429 449.457C93.3779 450.165 31.5919 449.603 29.2549 448.086C28.3569 447.525 27.9139 438.517 27.6909 427.618C27.6899 427.504 27.6879 427.39 27.6869 427.277C27.6359 425.031 27.5979 422.718 27.5859 420.374C27.5839 420.051 27.5819 419.728 27.5709 419.407L67.8199 419.364L67.7769 420.622L67.5529 427.195L67.5319 427.871C67.5319 427.871 91.0859 438.664 93.4819 440.603C95.8579 442.534 97.7089 448.759 95.5429 449.457Z" fill="#EBEBEB"/>
<path d="M95.543 449.457C93.378 450.165 31.592 449.603 29.255 448.086C28.357 447.525 27.914 438.517 27.691 427.618C27.69 427.504 27.688 427.39 27.687 427.277L67.553 427.194L67.532 427.87C67.532 427.87 91.086 438.663 93.482 440.602C95.858 442.534 97.709 448.759 95.543 449.457Z" fill="#FFC727"/>
<path d="M94.866 447.055C84.453 446.705 42.421 446.274 32.101 446.719C32.017 446.723 32.016 446.78 32.101 446.784C42.414 447.357 84.449 447.447 94.865 447.226C95.084 447.221 95.086 447.063 94.866 447.055Z" fill="#263238"/>
<path d="M71.9899 427.348C67.8989 426.546 62.8799 427.129 59.7219 430.021C59.5989 430.133 59.7609 430.305 59.8939 430.265C63.9489 429.027 67.7329 428.243 71.9689 427.866C72.2669 427.839 72.2829 427.406 71.9899 427.348Z" fill="#263238"/>
<path d="M74.932 429.158C70.84 428.356 65.822 428.939 62.664 431.831C62.542 431.943 62.703 432.115 62.836 432.075C66.891 430.837 70.675 430.053 74.912 429.676C75.209 429.649 75.225 429.216 74.932 429.158Z" fill="#263238"/>
<path d="M77.874 430.968C73.782 430.166 68.764 430.749 65.605 433.641C65.482 433.753 65.644 433.925 65.777 433.885C69.832 432.647 73.616 431.863 77.852 431.486C78.152 431.459 78.167 431.025 77.874 430.968Z" fill="#263238"/>
<path d="M89.762 208.52C89.762 208.52 88.896 226.563 84.769 240.854C84.438 242.036 84.08 243.198 83.692 244.313C83.692 244.313 79.392 245.874 72.824 249.901C72.824 249.901 72.392 264.418 71.961 280.609C71.483 298.709 70.987 318.897 71.092 323.178C71.473 339.198 69.112 427.285 69.112 427.285L24.624 427.475C24.624 427.475 32.645 329.103 32.587 323.234C32.5 313.802 34.731 272.111 36.453 241.706C37.507 222.973 38.374 208.531 38.374 208.531L89.762 208.52Z" fill="#455A64"/>
<path d="M67.586 419.373C60.79 419.262 62.742 419.198 55.945 419.163C52.619 419.146 30.761 419.053 27.656 419.582C27.587 419.594 27.588 419.709 27.656 419.72C30.766 420.221 52.621 419.932 55.947 419.885C62.744 419.789 60.791 419.743 67.586 419.571C67.715 419.568 67.714 419.375 67.586 419.373Z" fill="#263238"/>
<path d="M42.115 214.978C41.302 239.798 40.44 264.621 39.335 289.431C38.227 314.326 36.732 339.211 34.654 364.045C33.493 377.92 32.401 397.436 30.907 411.278C30.897 411.371 31.039 411.404 31.051 411.31C34.285 386.688 36.084 356.244 37.671 331.467C39.258 306.694 40.332 281.878 41.171 257.069C41.646 243.035 42.008 228.997 42.424 214.962C42.43 214.762 42.121 214.78 42.115 214.978Z" fill="#263238"/>
<path d="M83.2159 243.693C79.0009 245.543 74.9889 248.008 71.1689 250.56C71.0189 250.66 71.1429 250.895 71.3069 250.808C75.3779 248.648 79.5379 246.559 83.4849 244.178C83.7949 243.99 83.5389 243.551 83.2159 243.693Z" fill="#263238"/>
<path d="M82.105 214.682C82.082 214.537 81.823 214.526 81.837 214.683C82.284 219.69 82.328 224.125 82.291 228.842C82.274 231.032 81.515 243.19 77.674 242.624C77.031 242.529 76.657 241.935 76.48 240.992C76.267 239.858 76.582 238.419 76.677 237.266C76.888 234.717 77.016 232.166 77.023 229.608C77.035 224.833 76.665 220.089 75.699 215.409C75.667 215.255 75.444 215.285 75.457 215.443C76.003 222.007 76.371 228.573 75.926 235.156C75.712 238.319 74.526 243.154 77.833 243.365C81.203 243.581 82.706 235.523 82.935 233.334C83.571 227.226 83.081 220.729 82.105 214.682Z" fill="#263238"/>
<path d="M77.7999 242.939C77.5259 243.774 77.3209 244.636 77.1569 245.499C77.0299 246.169 76.8419 246.898 76.9729 247.575C76.9979 247.706 77.1749 247.705 77.2389 247.609C77.6349 247.012 77.7579 246.23 77.9509 245.545C78.1739 244.751 78.4149 243.961 78.6149 243.162C78.7479 242.631 77.9689 242.424 77.7999 242.939Z" fill="#263238"/>
<path d="M72.427 210.051C71.985 210.688 31.816 214.972 29.863 214.539C29.788 214.526 29.698 214.49 29.59 214.442C27.151 213.478 15.549 204.068 14.672 203.272C12.51 201.31 20.022 186.122 22.551 183.531C24.234 181.808 27.5 180.973 27.5 180.973C27.5 180.973 35.176 153.478 40.58 147.488C41.936 145.985 66.881 143.896 71.47 145.657C73.434 146.411 78.375 150.874 78.554 151.717C78.554 151.717 78.554 151.717 78.552 151.727C78.75 152.961 72.87 209.404 72.427 210.051Z" fill="#455A64"/>
<path d="M72.427 210.051C71.985 210.688 31.816 214.972 29.863 214.539C29.788 214.526 29.698 214.49 29.59 214.442C32.806 203.77 47.941 153.685 48.437 153.338C48.922 152.998 72.812 151.666 78.553 151.727C78.75 152.961 72.87 209.404 72.427 210.051Z" fill="#37474F"/>
<path d="M53.803 148.669C53.376 148.315 52.773 142.857 53.446 141.724C54.202 140.45 63.818 140.465 64.447 141.472C65.076 142.479 65.682 147.931 65.406 148.146C65.13 148.361 63.543 148.649 63.307 148.311C63.071 147.973 62.805 143.45 62.621 143.223C62.437 142.996 55.703 142.97 55.493 143.329C55.284 143.688 56.127 148.227 55.87 148.444C55.614 148.659 54.219 149.013 53.803 148.669Z" fill="#FFC727"/>
<path d="M147.849 153.59C147.836 145.93 146.657 143.965 150.079 137.494C152.325 133.248 150.578 129.991 146.456 132.814C139.714 137.431 137.655 147.318 137.928 150.951L147.849 153.59Z" fill="#AD6359"/>
<path d="M76.615 164.199C85.34 181.03 96.333 199.211 106.232 201.845C115.648 204.35 138.207 180.973 142.053 173.194C143.379 170.512 123.842 158.743 121.318 160.709C116.56 164.415 107.962 176.078 106.486 175.774C104.951 175.451 93.721 164.841 82.417 155.359C75.566 149.612 70.572 152.541 76.615 164.199Z" fill="#AD6359"/>
<path d="M120.765 130.213L111.948 156.801C111.6 157.574 111.952 158.25 112.733 158.307L126.712 159.335C127.492 159.392 128.409 158.81 128.757 158.037L137.574 131.449C137.922 130.674 137.57 130 136.79 129.943L122.812 128.915C122.03 128.857 121.113 129.438 120.765 130.213Z" fill="#A6A6A6"/>
<path d="M122.425 130.32L113.608 156.908C113.26 157.681 113.612 158.357 114.393 158.414L128.372 159.442C129.152 159.5 130.069 158.917 130.417 158.144L139.234 131.556C139.583 130.781 139.23 130.107 138.45 130.05L124.471 129.023C123.69 128.965 122.774 129.545 122.425 130.32Z" fill="#DBDBDB"/>
<path d="M126.167 131.84C126.104 132.495 125.523 132.975 124.868 132.912C124.213 132.849 123.733 132.268 123.796 131.613C123.859 130.958 124.44 130.478 125.095 130.541C125.75 130.603 126.23 131.185 126.167 131.84Z" fill="#455A64"/>
<path d="M141.185 174.689C141.185 174.689 146.927 165.464 147.721 157.299C148.27 151.653 148.095 139.236 134.413 129.26C131.168 126.894 124.866 125.824 128.763 131.614C131.531 135.727 134.529 137.498 135.703 140.183C135.703 140.183 127.525 139.774 125.282 143.117C124.279 144.611 121.639 148.754 120.042 152.272C120.042 152.272 120.715 152.826 121.667 153.406C121.667 153.406 119.665 156.603 121.002 162.188L141.185 174.689Z" fill="#AD6359"/>
<path d="M147.385 151.826C145.656 149.407 141.905 144.342 137.395 141.267C132.386 137.85 121.816 132.619 119.332 136.342C117.511 139.072 121.37 141.424 121.37 141.424C121.37 141.424 116.546 140.183 115.44 143.009C114.432 145.584 117.527 147.225 117.527 147.225C117.527 147.225 114.471 146.975 113.978 149.643C113.385 152.852 119.887 152.849 122.095 156.618C122.592 157.464 147.385 151.826 147.385 151.826Z" fill="#AD6359"/>
<path d="M134.668 147.161C132.669 145.153 126.958 141.757 121.484 141.367C121.36 141.358 121.287 141.447 121.398 141.479C127.334 143.189 132.509 145.918 134.636 147.208C134.664 147.226 134.69 147.184 134.668 147.161Z" fill="#263238"/>
<path d="M131.072 152.117C129.169 150.562 123.126 147.325 117.565 147.12C117.441 147.115 117.373 147.21 117.486 147.237C123.762 148.768 128.842 151.005 131.042 152.166C131.072 152.182 131.097 152.137 131.072 152.117Z" fill="#263238"/>
<path d="M84.1839 181.677L105.952 173.03C105.952 173.03 86.4189 156.237 79.2809 152.919C71.2469 149.185 71.0949 154.11 73.9179 162.043C76.7409 169.976 84.1839 181.677 84.1839 181.677Z" fill="#FFC727"/>
<path opacity="0.1" d="M84.1839 181.677L105.952 173.03C105.952 173.03 86.4189 156.237 79.2809 152.919C71.2469 149.185 71.0949 154.11 73.9179 162.043C76.7409 169.976 84.1839 181.677 84.1839 181.677Z" fill="black"/>
<path d="M101.355 170.381C100.556 170.563 93.7299 173.152 92.2579 173.746C90.7859 174.341 84.7479 176.713 83.2799 177.455C83.2149 177.488 83.2459 177.585 83.3179 177.564C84.8909 177.115 90.9879 174.739 92.4999 174.164C94.0109 173.589 100.708 170.878 101.404 170.479C101.462 170.445 101.409 170.368 101.355 170.381Z" fill="#263238"/>
<path d="M92.579 178.336L84.188 181.672C84.188 181.672 76.745 169.973 73.92 162.047C71.857 156.249 71.383 152.048 74.413 151.677L92.579 178.336Z" fill="#263238"/>
<path d="M36.0639 223.423C36.2059 223.584 95.6729 220.431 95.6729 220.431C96.4589 219.544 82.7759 160.477 76.4879 152.217C75.1419 150.451 66.6569 148.046 61.7279 152.059C51.2669 160.577 42.1839 189.828 40.0799 198.656C36.5959 213.198 35.5589 222.843 36.0639 223.423Z" fill="#FFC727"/>
<path opacity="0.1" d="M75.3999 151.39L61.6499 152.13C61.6799 152.1 61.6999 152.08 61.7299 152.06C62.2599 151.63 62.8299 151.28 63.4199 150.99L73.0899 150.48H73.1099C74.0099 150.74 74.7999 151.05 75.3999 151.39Z" fill="black"/>
<path opacity="0.1" d="M77.7099 154.26L58.5599 155.29C58.8799 154.91 59.1899 154.54 59.5199 154.19L77.1599 153.24C77.3399 153.55 77.5199 153.89 77.7099 154.26Z" fill="black"/>
<path opacity="0.1" d="M79.0299 157.19L56.2699 158.41C56.5099 158.04 56.7599 157.67 57.0199 157.32L78.5999 156.17C78.7399 156.5 78.8899 156.84 79.0299 157.19Z" fill="black"/>
<path opacity="0.1" d="M80.16 160.12L54.35 161.49C54.56 161.12 54.77 160.76 54.99 160.41L79.78 159.08C79.9 159.42 80.03 159.76 80.16 160.12Z" fill="black"/>
<path opacity="0.1" d="M81.1999 163.05L52.6399 164.59L53.2099 163.51L80.8399 162.03C80.9599 162.36 81.0799 162.7 81.1999 163.05Z" fill="black"/>
<path opacity="0.1" d="M82.17 166L51.1 167.66C51.28 167.29 51.45 166.94 51.63 166.58L81.84 164.97C81.95 165.31 82.06 165.65 82.17 166Z" fill="black"/>
<path opacity="0.1" d="M83.0999 168.94L49.6799 170.72C49.8499 170.36 50.0099 170 50.1699 169.65L82.7799 167.91C82.8899 168.25 82.9899 168.59 83.0999 168.94Z" fill="black"/>
<path opacity="0.1" d="M83.99 171.89L48.36 173.79C48.51 173.43 48.66 173.08 48.82 172.72L83.68 170.86C83.79 171.2 83.89 171.55 83.99 171.89Z" fill="black"/>
<path opacity="0.1" d="M84.8499 174.84L47.1299 176.85C47.2699 176.49 47.4099 176.14 47.5499 175.78L84.5499 173.8C84.6499 174.15 84.7599 174.49 84.8499 174.84Z" fill="black"/>
<path opacity="0.1" d="M85.69 177.78L45.96 179.91C46.09 179.55 46.23 179.19 46.36 178.83L85.4 176.74C85.5 177.08 85.59 177.43 85.69 177.78Z" fill="black"/>
<path opacity="0.1" d="M86.51 180.73L44.85 182.96C44.98 182.61 45.11 182.25 45.24 181.89L86.23 179.7C86.32 180.04 86.42 180.39 86.51 180.73Z" fill="black"/>
<path opacity="0.1" d="M89.0299 183.59L87.3099 183.68L43.8099 186C43.9299 185.65 44.0399 185.3 44.1699 184.94L87.0299 182.65L88.6999 182.56C88.8099 182.9 88.9199 183.25 89.0299 183.59Z" fill="black"/>
<path opacity="0.1" d="M88.0999 186.63L42.8199 189.05C42.9299 188.7 43.04 188.35 43.16 187.99L87.8199 185.6C87.9099 185.94 87.9999 186.29 88.0999 186.63Z" fill="black"/>
<path opacity="0.1" d="M88.86 189.59L41.87 192.1C41.98 191.75 42.09 191.4 42.2 191.03L88.59 188.56C88.68 188.9 88.77 189.25 88.86 189.59Z" fill="black"/>
<path opacity="0.1" d="M89.61 192.54L40.99 195.14C41.09 194.8 41.19 194.44 41.3 194.08V194.07L89.35 191.5C89.44 191.85 89.53 192.19 89.61 192.54Z" fill="black"/>
<path opacity="0.1" d="M90.3499 195.5L40.1899 198.17C40.2799 197.84 40.3699 197.49 40.4599 197.11L90.0899 194.45C90.1799 194.8 90.2699 195.15 90.3499 195.5Z" fill="black"/>
<path opacity="0.1" d="M91.08 198.45L39.48 201.21C39.56 200.86 39.64 200.5 39.73 200.14L90.82 197.41C90.91 197.76 90.99 198.11 91.08 198.45Z" fill="black"/>
<path opacity="0.1" d="M91.7899 201.4L38.8099 204.23C38.8799 203.88 38.9599 203.53 39.0399 203.18L91.5399 200.37C91.6199 200.72 91.7099 201.06 91.7899 201.4Z" fill="black"/>
<path opacity="0.1" d="M92.4899 204.36L38.1699 207.26C38.2499 206.91 38.3199 206.56 38.3899 206.2L92.2399 203.32C92.3199 203.67 92.3999 204.02 92.4899 204.36Z" fill="black"/>
<path opacity="0.1" d="M93.16 207.32L37.59 210.29C37.65 209.95 37.72 209.59 37.79 209.23L92.93 206.28C93.01 206.63 93.09 206.98 93.16 207.32Z" fill="black"/>
<path opacity="0.1" d="M93.8199 210.27L37.0499 213.3C37.1099 212.95 37.1699 212.6 37.2299 212.24L93.5999 209.24C93.6699 209.59 93.7499 209.93 93.8199 210.27Z" fill="black"/>
<path opacity="0.1" d="M94.4599 213.23L36.5699 216.32C36.6199 215.98 36.6699 215.63 36.7299 215.27L94.2499 212.19C94.3199 212.55 94.3899 212.9 94.4599 213.23Z" fill="black"/>
<path opacity="0.1" d="M95.0699 216.2L36.1699 219.34C36.2099 219.01 36.2499 218.66 36.2999 218.29L94.8599 215.15C94.9299 215.52 94.9999 215.87 95.0699 216.2Z" fill="black"/>
<path opacity="0.1" d="M95.5899 219.15L35.9399 222.34C35.9499 222.05 35.9599 221.7 35.9899 221.29L95.4199 218.12C95.4899 218.51 95.5499 218.85 95.5899 219.15Z" fill="black"/>
<path d="M53.138 157.446C33.7 170.38 13.443 197.31 15.764 205.032C18.35 213.634 40.301 198.383 40.492 197.033C40.637 196.012 51.774 179.113 60.026 163.163C67.65 148.429 57.945 154.247 53.138 157.446Z" fill="#AD6359"/>
<path d="M53.553 181.909L31.568 173.829C31.568 173.829 50.659 156.535 57.709 153.034C65.643 149.093 65.923 154.012 63.307 162.016C60.691 170.019 53.553 181.909 53.553 181.909Z" fill="#FFC727"/>
<path opacity="0.1" d="M53.553 181.909L31.568 173.829C31.568 173.829 50.659 156.535 57.709 153.034C65.643 149.093 65.923 154.012 63.307 162.016C60.691 170.019 53.553 181.909 53.553 181.909Z" fill="black"/>
<path d="M54.377 177.977C53.657 177.585 46.826 175.011 45.329 174.483C43.831 173.955 37.734 171.741 36.143 171.325C36.072 171.306 36.031 171.4 36.099 171.432C37.576 172.136 43.72 174.387 45.234 174.956C46.747 175.525 53.563 177.922 54.349 178.082C54.415 178.096 54.426 178.004 54.377 177.977Z" fill="#263238"/>
<path d="M74.1469 160.618C72.0589 161.095 65.5619 157.706 62.8949 153.713C62.7139 153.438 62.8939 141.826 62.6909 139.521C62.6469 139.048 77.4559 141.759 77.4559 141.759C77.4559 141.759 76.4609 146.716 76.8399 150.732C76.8749 151.067 76.9359 151.377 77.0229 151.669C77.0319 151.712 77.0489 151.763 77.0579 151.824C77.5089 153.594 77.2089 159.919 74.1469 160.618Z" fill="#AD6359"/>
<path d="M63.6279 139.512C64.4789 142.96 67.5699 152.556 75.5829 152.036C76.1199 151.995 76.6089 151.93 77.0579 151.821C77.0449 151.766 77.0309 151.711 77.0179 151.666C76.9399 151.374 76.8789 151.061 76.8439 150.729C76.4619 146.714 77.4529 141.754 77.4529 141.754C77.4529 141.754 66.8859 139.822 63.6279 139.512Z" fill="#263238"/>
<path d="M60.8789 120.766C59.0739 125.834 61.1039 140.808 64.6069 144.287C69.6859 149.331 78.3419 150.189 82.7129 144.006C86.9499 138.013 83.9599 118.545 80.0139 115.348C74.2039 110.64 63.5459 113.28 60.8789 120.766Z" fill="#AD6359"/>
<path d="M74.9909 130.635C74.9779 130.598 74.918 130.693 74.925 130.734C75.089 131.739 75.107 132.918 74.238 133.372C74.211 133.386 74.221 133.436 74.254 133.427C75.348 133.126 75.3069 131.561 74.9909 130.635Z" fill="#263238"/>
<path d="M73.952 129.699C72.313 129.788 72.611 133.06 74.129 132.978C75.625 132.897 75.326 129.625 73.952 129.699Z" fill="#263238"/>
<path d="M80.57 130.054C80.574 130.015 80.654 130.095 80.656 130.136C80.716 131.152 80.956 132.306 81.904 132.56C81.933 132.568 81.935 132.619 81.901 132.617C80.768 132.562 80.464 131.027 80.57 130.054Z" fill="#263238"/>
<path d="M81.379 128.913C82.998 128.641 83.423 131.899 81.923 132.151C80.447 132.399 80.022 129.141 81.379 128.913Z" fill="#263238"/>
<path d="M72.403 128.848C72.839 128.695 73.215 128.482 73.63 128.286C74.098 128.065 74.494 127.938 74.772 127.475C74.921 127.226 74.812 126.815 74.584 126.648C74.054 126.258 73.413 126.386 72.838 126.629C72.215 126.892 71.802 127.255 71.485 127.852C71.179 128.429 71.829 129.05 72.403 128.848Z" fill="#263238"/>
<path d="M82.3809 126.438C81.9209 126.405 81.5019 126.299 81.0499 126.219C80.5399 126.129 80.1249 126.111 79.7349 125.737C79.5259 125.537 79.5219 125.111 79.6979 124.889C80.1069 124.373 80.7589 124.328 81.3769 124.411C82.0479 124.501 82.5419 124.741 83.0049 125.234C83.4519 125.711 82.9879 126.481 82.3809 126.438Z" fill="#263238"/>
<path d="M74.607 139.916C74.872 140.131 75.143 140.436 75.514 140.433C75.869 140.43 76.269 140.234 76.58 140.079C76.611 140.064 76.646 140.095 76.629 140.127C76.401 140.54 75.87 140.834 75.393 140.794C74.927 140.756 74.664 140.38 74.514 139.97C74.493 139.913 74.569 139.885 74.607 139.916Z" fill="#263238"/>
<path d="M75.396 136.784C76.043 137.612 76.921 138.017 77.839 138.11C78.249 138.154 78.674 138.13 79.086 138.054C79.167 138.045 79.248 138.028 79.321 138.005C79.394 137.989 79.46 137.975 79.54 137.95C79.657 137.922 79.713 137.818 79.723 137.705L79.722 137.698C79.718 137.661 79.715 137.631 79.703 137.595C79.703 137.595 79.703 137.595 79.702 137.587L79.692 137.498C79.642 136.716 79.458 135.536 79.458 135.536C79.756 135.653 81.27 136.174 81.209 135.769C80.7 132.412 80.134 128.679 78.918 125.446C78.884 125.337 78.716 125.378 78.735 125.489C79.097 128.735 80.026 131.895 80.441 135.149C79.961 135.015 79.174 134.758 78.767 134.803C78.659 134.845 79.163 137.077 79.157 137.43C79.157 137.43 79.159 137.445 79.154 137.468C77.858 137.755 76.834 137.449 75.48 136.684C75.402 136.633 75.328 136.709 75.396 136.784Z" fill="#263238"/>
<path d="M78.5899 137.7C78.5899 137.7 77.9829 138.697 77.0659 139.12C76.7279 139.277 76.3569 139.361 75.9529 139.292C75.1239 139.153 75.0359 138.412 75.1269 137.763C75.1999 137.229 75.4009 136.757 75.4009 136.757C75.4009 136.757 76.6839 137.755 78.5899 137.7Z" fill="#263238"/>
<path d="M77.0659 139.12C76.7279 139.277 76.3569 139.361 75.9529 139.292C75.1239 139.153 75.0359 138.412 75.1269 137.763C76.0029 137.772 76.9159 138.283 77.0659 139.12Z" fill="#A34162"/>
<path d="M61.352 134.65C64.032 133.846 65.272 124.803 65.272 124.803C65.272 124.803 65.302 128.63 66.018 128.528C66.734 128.426 69.601 123.187 69.88 119.454C69.88 119.454 73.32 121.713 76.742 122.683C80.164 123.652 83.932 123.372 83.924 122.793C83.902 121.068 82.266 116.584 79.9 115.021C77.177 113.222 73.298 111.497 67.761 113.706C62.224 115.915 60.816 119.513 60.031 122.298C59.246 125.082 60.367 134.945 61.352 134.65Z" fill="#263238"/>
<path d="M73.129 136.416C71.122 136.419 69.286 135.066 68.766 133.035C68.151 130.632 69.604 128.178 72.006 127.563C74.409 126.947 76.863 128.401 77.478 130.803C78.093 133.205 76.64 135.659 74.238 136.275C73.867 136.37 73.495 136.416 73.129 136.416ZM73.116 128.023C72.799 128.023 72.476 128.063 72.155 128.145C70.074 128.678 68.815 130.805 69.347 132.886C69.881 134.966 72.008 136.228 74.088 135.693C76.169 135.16 77.428 133.033 76.895 130.952C76.444 129.192 74.854 128.02 73.116 128.023Z" fill="#FFC727"/>
<path d="M83.3701 135.143C81.6491 135.146 80.0861 133.386 79.8081 131.056C79.6681 129.88 79.8711 128.731 80.3801 127.822C80.9051 126.881 81.6951 126.303 82.6011 126.195C83.5111 126.085 84.4101 126.464 85.1421 127.255C85.8501 128.02 86.3171 129.089 86.4561 130.264C86.7481 132.726 85.4961 134.907 83.6641 135.125C83.5651 135.137 83.4681 135.143 83.3701 135.143ZM82.9001 126.778C82.8241 126.778 82.7481 126.783 82.6721 126.792C81.9621 126.876 81.3341 127.346 80.9041 128.115C80.4571 128.915 80.2801 129.934 80.4041 130.985C80.6591 133.118 82.0831 134.71 83.5921 134.529C85.0961 134.35 86.1121 132.469 85.8591 130.337C85.7341 129.286 85.3221 128.338 84.7001 127.664C84.1671 127.086 83.5351 126.777 82.9001 126.778Z" fill="#FFC727"/>
<path d="M77.3891 131.337L76.951 130.925C77.56 130.276 79.0361 129.325 80.2651 130.362L79.8771 130.821C78.7781 129.891 77.4461 131.278 77.3891 131.337Z" fill="#FFC727"/>
<path d="M58.531 134.912L57.968 134.701C58.067 134.438 58.968 132.125 60.275 131.75C61.498 131.403 68.688 131.142 69.031 131.134L69.045 131.735C66.725 131.79 61.384 132.057 60.44 132.328C59.578 132.576 58.77 134.277 58.531 134.912Z" fill="#FFC727"/>
<path d="M63.495 133.013C63.495 133.013 60.26 128.12 58.048 129.262C55.836 130.404 58.182 137.435 60.717 138.454C63.252 139.473 64.242 137.145 64.242 137.145L63.495 133.013Z" fill="#AD6359"/>
<path d="M58.771 131.261C58.73 131.256 58.72 131.314 58.756 131.329C60.532 132.103 61.434 133.792 62.051 135.534C61.534 134.856 60.817 134.473 59.911 135.085C59.864 135.117 59.907 135.192 59.957 135.182C60.696 135.044 61.224 135.185 61.705 135.787C62.046 136.213 62.272 136.747 62.512 137.235C62.592 137.398 62.884 137.319 62.827 137.133C62.823 137.119 62.818 137.105 62.813 137.091C62.917 134.804 61.222 131.555 58.771 131.261Z" fill="#263238"/>
<path d="M74.8709 112.673C73.1959 111.973 71.1999 111.25 68.8899 110.999C66.5799 110.748 59.3209 111.433 57.6029 112.919C55.8839 114.405 55.5409 121.261 55.5099 122.265C55.4799 123.269 56.0309 129.316 58.2489 130.74C60.4659 132.164 60.5019 121.873 63.9079 118.403C67.3119 114.932 74.8709 112.673 74.8709 112.673Z" fill="#FFC727"/>
<path opacity="0.1" d="M74.8719 112.675C74.8719 112.675 67.3109 114.933 63.9079 118.404C60.4999 121.87 60.4659 132.164 58.2449 130.742C57.2679 130.114 56.7829 129.165 56.3579 127.563C56.7669 124.549 57.9039 119.864 60.3549 116.591C62.6509 113.525 66.6639 111.927 70.9769 111.365C72.4259 111.703 73.7219 112.194 74.8719 112.675Z" fill="black"/>
<path d="M58.9499 136.837C59.0999 134.092 61.7629 126.706 64.6159 122.45C67.4689 118.194 76.0249 115.591 77.2279 115.64C80.1489 115.759 81.1529 116.626 81.6109 116.357C82.0689 116.088 79.0269 113.945 78.1969 113.468C77.3669 112.99 75.1389 111.868 73.8709 111.919C72.6029 111.971 64.7949 112.881 62.0079 116.264C59.2209 119.648 55.3569 129.063 56.1349 131.444C56.3219 132.015 57.0919 132.372 57.3489 133.182C57.6869 134.246 57.9319 135.478 58.2669 136.22C58.5389 136.819 58.9369 137.077 58.9499 136.837Z" fill="#FFC727"/>
<path d="M65.2579 120.55C64.5779 120.146 63.9429 119.704 63.3389 119.191C62.7429 118.685 62.1469 118.121 61.6869 117.486C61.6529 117.44 61.5779 117.48 61.6079 117.531C62.0289 118.246 62.4919 118.898 63.1169 119.451C63.7169 119.982 64.4429 120.418 65.1979 120.69C65.2809 120.722 65.3319 120.594 65.2579 120.55Z" fill="#263238"/>
<path d="M58.8768 134.1C58.7978 133.903 58.6638 133.73 58.5668 133.542C58.4558 133.327 58.3629 133.102 58.2999 132.869C58.1779 132.421 58.1839 131.963 57.9659 131.543C57.7929 131.21 57.5488 130.926 57.3078 130.642C57.0328 130.318 56.7608 129.979 56.7488 129.537C56.7468 129.479 56.6568 129.478 56.6578 129.536C56.6688 130.369 57.2378 130.951 57.6128 131.641C57.8538 132.083 57.8508 132.59 58.0128 133.059C58.1498 133.456 58.3808 133.965 58.7558 134.192C58.8118 134.225 58.9048 134.169 58.8768 134.1Z" fill="#263238"/>
<path d="M59.7729 131.121C59.5079 130.813 59.2239 130.539 58.9869 130.203C58.7609 129.881 58.5609 129.537 58.3799 129.188C58.2009 128.843 58.0509 128.485 57.8789 128.137C57.6759 127.725 57.4219 127.334 57.2389 126.913C57.2159 126.859 57.1369 126.905 57.1599 126.959C57.3499 127.395 57.4639 127.865 57.6389 128.308C57.7899 128.69 57.9799 129.06 58.1799 129.418C58.3719 129.763 58.5899 130.09 58.8449 130.393C59.0869 130.68 59.3989 130.996 59.7419 131.161C59.7679 131.172 59.7919 131.143 59.7729 131.121Z" fill="#263238"/>
<path d="M60.7248 128.424C60.1508 127.951 59.6168 127.384 59.2038 126.765C58.7958 126.154 58.4218 125.516 58.0558 124.879C58.0308 124.836 57.9538 124.864 57.9728 124.914C58.2458 125.631 58.5108 126.344 58.9528 126.979C59.1618 127.28 59.3918 127.589 59.6668 127.833C59.9658 128.099 60.3138 128.312 60.6668 128.499C60.7108 128.523 60.7678 128.46 60.7248 128.424Z" fill="#263238"/>
<path d="M61.7668 125.839C61.4538 125.66 61.2478 125.393 61.0278 125.117C60.7858 124.814 60.5498 124.504 60.3238 124.188C60.1078 123.884 59.8828 123.587 59.6668 123.283C59.4498 122.977 59.2318 122.658 59.1578 122.285C59.1478 122.235 59.0648 122.245 59.0678 122.297C59.0918 122.679 59.2318 123.024 59.4008 123.363C59.5858 123.734 59.7928 124.091 60.0388 124.425C60.2808 124.753 60.5388 125.07 60.8208 125.364C61.0668 125.621 61.3568 125.885 61.7158 125.954C61.7848 125.969 61.8328 125.877 61.7668 125.839Z" fill="#263238"/>
<path d="M62.4939 122.572C62.2349 122.327 61.9799 122.081 61.7409 121.817C61.5039 121.554 61.2789 121.278 61.0589 121C60.8289 120.709 60.5889 120.42 60.3779 120.115C60.3439 120.067 60.2739 120.107 60.2989 120.161C60.4559 120.502 60.6129 120.834 60.8209 121.149C61.0249 121.457 61.2529 121.745 61.4979 122.021C61.7389 122.292 61.9919 122.559 62.2659 122.798C62.5299 123.028 62.8299 123.295 63.1679 123.406C63.2179 123.423 63.2719 123.359 63.2399 123.313C63.0419 123.03 62.7439 122.808 62.4939 122.572Z" fill="#263238"/>
<path d="M67.3328 118.957C67.0568 118.625 66.7878 118.3 66.4808 117.995C66.1698 117.685 65.8348 117.396 65.4918 117.123C64.8188 116.588 64.1148 116.102 63.3398 115.726C63.2968 115.705 63.2418 115.762 63.2838 115.797C64.5998 116.885 65.9618 117.92 67.2668 119.021C67.3128 119.059 67.3698 119.002 67.3328 118.957Z" fill="#263238"/>
<path d="M68.9509 116.583C68.6679 116.259 68.3539 115.968 68.0059 115.716C67.2759 115.188 66.4589 114.804 65.6349 114.449C65.5819 114.426 65.5379 114.495 65.5889 114.527C66.3079 114.987 67.0349 115.436 67.7259 115.937C68.0669 116.184 68.4079 116.44 68.7189 116.723C69.0329 117.008 69.2759 117.352 69.5749 117.648C69.5979 117.671 69.6429 117.648 69.6319 117.615C69.5079 117.231 69.2129 116.883 68.9509 116.583Z" fill="#263238"/>
<path d="M71.2148 115.469C70.9548 115.148 70.6598 114.863 70.3408 114.602C69.7348 114.107 69.0528 113.73 68.3188 113.461C68.2698 113.443 68.2388 113.519 68.2828 113.544C68.9558 113.933 69.5988 114.383 70.1958 114.882C70.4958 115.132 70.7818 115.398 71.0708 115.66C71.3588 115.92 71.6048 116.252 71.9168 116.481C71.9418 116.5 71.9698 116.465 71.9578 116.441C71.7738 116.09 71.4638 115.775 71.2148 115.469Z" fill="#263238"/>
<path d="M72.8419 114.075C72.5499 113.845 72.2469 113.632 71.9419 113.421C71.6409 113.212 71.3339 113.008 70.9799 112.901C70.9269 112.885 70.9059 112.954 70.9449 112.984C71.5139 113.42 72.0739 113.871 72.6339 114.319C73.1609 114.742 73.5179 115.292 73.9429 115.808C73.9619 115.831 74.0009 115.807 73.9929 115.78C73.7699 115.105 73.4029 114.516 72.8419 114.075Z" fill="#263238"/>
<path d="M74.8919 113.598C74.3599 113.087 73.7189 112.764 73.0429 112.489C72.9959 112.47 72.9609 112.55 73.0079 112.572C73.6349 112.867 74.1869 113.328 74.6929 113.795C75.2099 114.272 75.6338 114.825 76.0338 115.4C76.0528 115.427 76.1049 115.412 76.0919 115.376C75.8509 114.696 75.4089 114.094 74.8919 113.598Z" fill="#263238"/>
<path d="M77.6079 114.78C77.5389 114.637 77.4529 114.5 77.3659 114.367C77.1889 114.099 76.9699 113.857 76.7419 113.632C76.2729 113.17 75.7159 112.818 75.1669 112.461C75.1179 112.429 75.0709 112.508 75.1209 112.539C75.6629 112.876 76.1509 113.29 76.5979 113.746C76.8179 113.97 77.0139 114.212 77.1979 114.465C77.2879 114.589 77.3689 114.718 77.4479 114.849C77.5219 114.973 77.5849 115.127 77.6809 115.233C77.7069 115.261 77.7609 115.241 77.7589 115.201C77.7499 115.06 77.6679 114.906 77.6079 114.78Z" fill="#263238"/>
<path d="M79.2589 114.899C79.0979 114.686 78.9309 114.485 78.7459 114.292C78.5619 114.1 78.3729 113.922 78.1659 113.754C77.9559 113.583 77.7379 113.42 77.5359 113.24C77.4879 113.196 77.4279 113.271 77.4809 113.311C77.6959 113.477 77.8869 113.676 78.0709 113.876C78.2449 114.065 78.4209 114.252 78.5949 114.441C78.7689 114.63 78.9429 114.818 79.1159 115.008C79.2899 115.199 79.4459 115.423 79.6399 115.594C79.6719 115.622 79.7139 115.588 79.6979 115.55C79.5949 115.315 79.4129 115.103 79.2589 114.899Z" fill="#263238"/>
<path d="M53.685 153.487C52.814 152.734 57.932 151.835 59.352 152.596C60.771 153.357 67.701 165.059 67.957 181.36C68.213 197.661 35.837 215.636 34.22 213.432C33.541 212.506 33.553 210.057 34.258 209.037C35.253 207.598 58.799 193.929 59.795 183.65C60.681 174.51 57.416 156.711 53.685 153.487Z" fill="#263238"/>
<path d="M16.3 206.226C19.323 209.388 27.59 212.072 52.818 208.125C56.309 207.579 57.164 181.388 53.407 181.78C48.674 182.273 33.108 185.448 31.822 185.901C22.244 189.273 13.281 203.068 16.3 206.226Z" fill="#AD6359"/>
<path d="M84.623 178.846C85.939 181.356 83.869 183.435 83.869 183.435C83.869 183.435 85.854 184.521 86.492 186.598C87.224 188.977 83.814 191.167 83.814 191.167C83.814 191.167 85.595 192.682 86.049 194.944C86.52 197.292 83.395 199.992 83.395 199.992C83.395 199.992 84.279 202.315 83.269 204.551C81.541 208.375 75.191 209.234 71.159 209.82C67.127 210.407 55.142 208.295 52.818 208.124L50.343 182.165C50.343 182.165 66.16 174.506 70.998 174.489C75.073 174.477 83.146 176.029 84.623 178.846Z" fill="#AD6359"/>
<path d="M83.627 183.047C79.29 182.022 74.886 182.336 70.473 182.399C70.375 182.4 70.378 182.554 70.477 182.552C74.866 182.438 79.22 183.197 83.604 183.258C83.725 183.26 83.744 183.075 83.627 183.047Z" fill="#263238"/>
<path d="M83.6801 190.842C82.6921 190.64 81.6401 190.764 80.6421 190.828C79.5681 190.897 78.4951 190.985 77.4231 191.09C75.2771 191.299 73.1371 191.557 71.0051 191.878C70.9111 191.892 70.9091 192.04 71.0091 192.031C73.1481 191.826 75.2891 191.654 77.4341 191.539C78.5081 191.482 79.5821 191.434 80.6561 191.393C81.6551 191.355 82.7131 191.398 83.6861 191.138C83.8291 191.098 83.8291 190.873 83.6801 190.842Z" fill="#263238"/>
<path d="M83.304 199.999C82.452 199.789 81.428 200.031 80.568 200.132C79.592 200.248 78.616 200.358 77.64 200.463C75.687 200.673 73.734 200.881 71.774 201.022C71.676 201.029 71.679 201.181 71.778 201.175C73.769 201.042 75.762 200.935 77.753 200.784C78.73 200.71 79.707 200.63 80.683 200.545C81.513 200.473 82.559 200.477 83.318 200.096C83.361 200.076 83.347 200.01 83.304 199.999Z" fill="#263238"/>
<path d="M50.342 182.167C48.065 182.667 45.782 183.113 43.503 183.572C41.225 184.035 38.94 184.455 36.681 184.977C34.398 185.45 32.183 185.983 30.084 186.965C27.97 187.894 25.92 188.99 23.907 190.162C25.749 188.73 27.744 187.497 29.84 186.443C31.918 185.334 34.267 184.767 36.521 184.245C38.809 183.78 41.1 183.348 43.404 183.006C45.708 182.664 48.018 182.361 50.342 182.167Z" fill="#263238"/>
</svg>
