<svg width="435" height="460" viewBox="0 0 435 460" fill="none" xmlns="http://www.w3.org/2000/svg">
<path d="M357.905 356.559H390.25V346.264H357.905V356.559Z" fill="#EBEBEB"/>
<path d="M279.169 255.01H311.515V244.715H279.169V255.01Z" fill="#EBEBEB"/>
<path d="M375.948 369.54L392.232 369.27L400.28 369.16L408.294 369.12L407.874 369.54L407.834 359.245L408.293 359.704L392.12 359.642L384.034 359.564L375.948 359.463L376.167 359.245L375.948 369.54ZM375.948 369.54L375.73 359.245L375.726 359.03L375.949 359.027L384.035 358.927L392.121 358.849L408.294 358.786L408.756 358.784L408.754 359.245L408.713 369.54L408.712 369.961L408.294 369.96L400.135 369.92L392.01 369.81L375.948 369.54Z" fill="#EBEBEB"/>
<path d="M170.614 118.56L186.898 118.291L194.946 118.18L202.96 118.141L202.54 118.56L202.5 108.266L202.959 108.725L186.786 108.662L178.7 108.584L170.614 108.484L170.833 108.266L170.614 118.56ZM170.614 118.56L170.396 108.266L170.392 108.049L170.614 108.047L178.7 107.946L186.786 107.868L202.959 107.806L203.42 107.804L203.418 108.266L203.378 118.56L203.376 118.982L202.958 118.98L194.799 118.94L186.674 118.83L170.614 118.56Z" fill="#EBEBEB"/>
<path d="M188.657 131.541L204.941 131.271L212.989 131.161L221.002 131.121L220.582 131.541L220.542 121.246L221.001 121.705L204.828 121.642L196.742 121.564L188.657 121.464L188.875 121.246L188.657 131.541ZM188.657 131.541L188.439 121.246L188.435 121.031L188.657 121.028L196.743 120.928L204.829 120.849L221.002 120.787L221.464 120.785L221.462 121.247L221.421 131.542L221.42 131.963L221.002 131.961L212.843 131.922L204.718 131.811L188.657 131.541Z" fill="#EBEBEB"/>
<path d="M206.629 118.56H238.975V108.265H206.629V118.56Z" fill="#EBEBEB"/>
<path d="M27.7076 369.54H60.052V359.245H27.7076V369.54Z" fill="#EBEBEB"/>
<path d="M45.7496 51.6335L78.095 51.6335V41.3387H45.7496V51.6335Z" fill="#EBEBEB"/>
<path d="M27.7063 64.6143L43.9903 64.3448L52.0375 64.2344L60.0516 64.1948L59.6321 64.6143L59.5916 54.3195L60.0507 54.7786L43.878 54.716L35.7922 54.6378L27.7063 54.5376L27.9243 54.3195L27.7063 64.6143ZM27.7063 64.6143L27.4882 54.3195L27.4836 54.1033L27.7063 54.1006L35.7922 54.0003L43.878 53.9221L60.0507 53.8595L60.5126 53.8577L60.5107 54.3195L60.4702 64.6143L60.4684 65.0357L60.0507 65.0338L51.8922 64.9943L43.7667 64.8839L27.7063 64.6143Z" fill="#EBEBEB"/>
<path d="M357.905 51.6331L374.189 51.3636L382.236 51.2532L390.251 51.2136L389.831 51.6331L389.791 41.3383L390.25 41.7974L374.077 41.7349L365.991 41.6567L357.905 41.5564L358.123 41.3383L357.905 51.6331ZM357.905 51.6331L357.687 41.3383L357.683 41.1221L357.906 41.1194L365.992 41.0191L374.078 40.9409L390.251 40.8783L390.712 40.8765L390.71 41.3374L390.669 51.6322L390.667 52.0536L390.25 52.0517L382.091 52.0122L373.966 51.9018L357.905 51.6331Z" fill="#EBEBEB"/>
<path d="M276.665 39.7018V219.083H393.258V39.7018H276.665ZM388.954 214.781H280.967V44.0046H388.954V214.781Z" fill="#EBEBEB"/>
<path d="M388.955 44.0046H280.967V214.781H388.955V44.0046Z" fill="white"/>
<path d="M280.963 131.541H388.952V127.24L280.963 127.24V131.541Z" fill="#EBEBEB"/>
<path d="M268.739 231.428L401.175 231.428V219.082L268.739 219.082V231.428Z" fill="#DBDBDB"/>
<path d="M280.963 44H388.952V154.49H280.963V44ZM384.968 47.9836H284.947V150.507H384.968V47.9836Z" fill="#DBDBDB"/>
<path d="M354.485 44H352.335V150.507H354.485V44Z" fill="#DBDBDB"/>
<path d="M317.578 44H315.428V150.507H317.578V44Z" fill="#DBDBDB"/>
<path d="M42.7493 39.7018V219.083H159.343V39.7018H42.7493ZM155.04 214.781H47.0521V44.0046H155.04V214.781Z" fill="#EBEBEB"/>
<path d="M155.04 44.0046H47.052V214.781H155.04V44.0046Z" fill="white"/>
<path d="M47.0484 131.541H155.037V127.24L47.0484 127.24V131.541Z" fill="#EBEBEB"/>
<path d="M34.8251 231.428L167.261 231.428V219.082L34.8251 219.082V231.428Z" fill="#DBDBDB"/>
<path d="M47.0483 44H155.037V154.49H47.0483V44ZM151.053 47.9836H51.0319V150.507H151.053V47.9836Z" fill="#DBDBDB"/>
<path d="M120.571 43.9999H118.421V150.506H120.571V43.9999Z" fill="#DBDBDB"/>
<path d="M83.6635 43.9999H81.5134V150.506H83.6635V43.9999Z" fill="#DBDBDB"/>
<path d="M26.1357 409.363L74.1018 409.139L122.068 409.058L218 408.904L313.932 409.057L361.898 409.138L409.864 409.363L361.898 409.588L313.932 409.669L218 409.821L122.068 409.668L74.1018 409.587L26.1357 409.363Z" fill="#263238"/>
<path d="M409.298 274.24H292.559V290.809H409.298V274.24Z" fill="#455A64"/>
<path d="M406.514 290.808H295.343V296.189H406.514V290.808Z" fill="#455A64"/>
<path d="M406.514 290.808H295.343V292.589H406.514V290.808Z" fill="#263238"/>
<path d="M296.437 409.821H291.992L304.93 296.189H316.276L296.437 409.821Z" fill="#455A64"/>
<path d="M316.274 296.191L314.945 303.794H304.069L304.931 296.191H316.274Z" fill="#263238"/>
<path d="M405.419 409.821H409.864L396.926 296.189H385.58L405.419 409.821Z" fill="#455A64"/>
<path d="M385.583 296.191L386.911 303.794H397.787L396.925 296.191H385.583Z" fill="#263238"/>
<path d="M379.544 341.384C378.76 344.715 377.933 347.992 377.772 351.409C377.862 351.576 377.844 352.196 377.744 352.028C377.724 352.578 376.886 352.478 376.886 351.935C376.894 351.581 376.903 351.227 376.92 350.882C374.961 348.451 372.117 346.91 369.818 344.797C367.96 343.086 366.63 341.048 365.927 338.602C364.02 332.031 365.807 325.067 363.514 318.512C361.537 312.861 357.991 307.947 354.99 302.827C351.823 297.412 349.485 291.722 349.252 285.379C349.065 280.523 349.645 274.05 353.343 270.413C357.263 266.552 362.123 269.445 365.128 272.888C373.832 282.878 377.86 295.502 379.488 308.411C380.386 315.555 381.318 322.742 381.103 329.954C380.98 333.83 380.423 337.62 379.544 341.384Z" fill="#FFC727"/>
<path d="M377.809 354.031C378.259 347.28 378.231 340.517 377.569 333.791C377.58 333.767 377.603 333.751 377.603 333.718C377.712 328.247 378.147 322.797 377.932 317.321C377.699 311.37 376.827 305.538 375.522 299.732C375.508 299.665 375.404 299.681 375.417 299.75C376.489 305.412 377.113 311.191 377.32 316.95C377.431 320.04 377.409 323.134 377.246 326.223C377.193 327.227 377.1 328.24 377.033 329.253C377.033 329.25 377.032 329.247 377.032 329.244C374.826 313.848 369.143 299.241 360.755 286.17C360.64 285.992 360.326 286.182 360.437 286.365C366.478 296.228 370.932 307.062 373.686 318.302C369.5 310.548 363.178 304.17 358.488 296.718C358.462 296.678 358.395 296.719 358.416 296.762C362.63 305.058 369.591 311.6 374.028 319.773C374.798 323.105 375.429 326.467 375.898 329.85C376.542 334.495 376.844 339.169 376.907 343.849C374.358 339.083 371.711 334.525 369.625 329.484C369.57 329.35 369.377 329.442 369.422 329.575C371.197 334.811 373.581 340.451 376.921 344.916C376.939 348.229 376.841 351.545 376.646 354.855C376.125 363.691 374.616 372.409 373.918 381.217C373.897 381.482 374.27 381.513 374.322 381.26C376.158 372.372 377.205 363.084 377.809 354.031Z" fill="#263238"/>
<path d="M368.426 285.887C368.399 285.823 368.304 285.867 368.327 285.931C369.941 290.394 370.852 294.916 372.019 299.491C372.072 299.7 372.374 299.656 372.352 299.437C371.878 294.796 370.221 290.165 368.426 285.887Z" fill="#263238"/>
<path d="M409.41 304.593C408.363 307.214 407.064 309.752 405.697 312.218C402.791 317.496 399.76 322.332 399.211 328.478C398.966 331.221 398.879 333.978 398.043 336.622C397.321 338.911 396.147 341.023 394.797 342.998C391.647 347.587 387.71 351.54 384.791 356.302C381.754 361.251 379.514 366.694 378.143 372.333C378.071 372.641 377.584 372.558 377.657 372.25C377.668 372.225 377.67 372.206 377.675 372.179C377.664 372.164 377.647 372.148 377.647 372.114C377.184 358.938 378.235 345.657 382.255 333.033C384.013 327.514 386.18 322.024 388.641 316.778C390.793 312.201 393.477 307.8 397.257 304.381C399.709 302.172 405.029 297.985 408.52 300.2C410.194 301.266 410.069 302.948 409.41 304.593Z" fill="#FFC727"/>
<path d="M396.166 334.464C393.907 338.327 391.227 341.923 388.509 345.472C387.233 347.137 385.94 348.789 384.666 350.457C384.065 351.246 383.39 352.03 382.837 352.876C383.186 351.49 383.525 350.103 383.879 348.719C385.579 342.061 387.213 335.344 389.746 328.943C392.22 322.686 395.513 316.81 398.895 311.008C398.984 310.855 398.738 310.745 398.647 310.892C395.863 315.471 393.037 320.044 390.697 324.871C389.389 327.569 388.289 330.342 387.322 333.166C388.461 327.113 389.825 321.302 391.815 315.443C391.832 315.391 391.758 315.353 391.736 315.406C389.308 321.153 387.56 327.614 387.073 333.841C387.072 333.853 387.078 333.861 387.082 333.871C386.511 335.582 385.986 337.31 385.496 339.05C383.421 346.422 381.598 353.871 379.908 361.346C379.937 356.411 380.247 351.563 381.179 346.694C381.201 346.582 381.033 346.556 381.007 346.664C379.782 351.68 379.228 356.958 379.734 362.111C379.096 364.954 378.474 367.799 377.867 370.646C376.571 376.72 374.98 382.902 374.223 389.07C374.204 389.23 374.426 389.263 374.467 389.111C375.371 385.786 375.916 382.34 376.656 378.975C377.397 375.598 378.161 372.227 378.947 368.861C380.091 363.958 381.29 359.069 382.511 354.185C383.327 352.394 384.905 350.804 386.087 349.303C387.384 347.655 388.681 346.006 389.943 344.331C392.294 341.211 394.45 337.971 396.284 334.519C396.323 334.445 396.208 334.394 396.166 334.464Z" fill="#263238"/>
<path d="M396.728 328.829C393.871 332.497 391.276 336.557 389.235 340.737C389.208 340.79 389.292 340.847 389.325 340.795C391.848 336.842 394.327 332.86 396.844 328.904C396.887 328.837 396.776 328.768 396.728 328.829Z" fill="#263238"/>
<path d="M340.635 317.085C342.343 320.027 344.292 323.558 343.559 327.089C343.094 329.325 341.458 331.139 341.163 333.419C340.502 338.452 345.518 341.778 349.147 344.156C358.195 350.093 370.604 355.386 372.249 367.509C372.312 367.938 373.054 367.831 373 367.41C373 367.384 372.991 367.357 372.982 367.33C373 367.304 373.027 367.294 373.027 367.258C374.199 361.117 374.172 354.858 372.857 348.743C371.508 342.493 368.781 336.878 365.562 331.389C360.117 322.1 354.35 312.587 346.116 305.471C343.836 303.504 339.169 299.964 337.353 304.408C335.593 308.726 338.543 313.5 340.635 317.085Z" fill="#FFC727"/>
<path d="M348.917 336.781C354.915 343.275 364.453 346.915 369.617 354.19C366.557 343.04 361.493 333.015 353.707 324.306C353.508 324.083 353.82 323.765 354.038 323.975C359.737 329.453 363.958 335.857 367.038 342.804C365.654 337.843 363.716 333.151 361.44 328.487C361.354 328.311 361.604 328.159 361.705 328.331C364.605 333.275 366.532 338.827 367.739 344.425C374.543 360.896 375.174 380.215 373.748 397.576C373.728 397.823 373.349 397.831 373.357 397.576C373.748 383.894 373.526 369.973 370.247 356.611C370.179 356.332 370.103 356.057 370.032 355.779C364.414 347.948 354.918 344.319 348.812 336.884C348.754 336.813 348.852 336.711 348.917 336.781Z" fill="#263238"/>
<path d="M347.526 331.204C350.675 334.093 353.775 337.048 356.929 339.935C356.961 339.964 356.919 340.02 356.882 339.995C353.449 337.672 349.962 334.602 347.337 331.391C347.232 331.261 347.398 331.086 347.526 331.204Z" fill="#263238"/>
<path d="M347.029 318.686C349.889 323.27 352.889 327.57 356.451 331.646C356.498 331.7 356.424 331.776 356.372 331.725C352.547 328.042 349.151 323.587 346.86 318.785C346.807 318.672 346.961 318.578 347.029 318.686Z" fill="#263238"/>
<path d="M361.207 409.822H388.791L385.074 372.71H365.455L361.207 409.822Z" fill="#455A64"/>
<path d="M364.763 378.742H385.681L385.076 372.71H365.453L364.763 378.742Z" fill="#263238"/>
<path d="M362.07 374.524H387.927V368.598H362.07V374.524Z" fill="#455A64"/>
<path d="M61.9708 156.776H57.001V404.852H61.9708V156.776Z" fill="#263238"/>
<path d="M144.2 69.0465L26.1348 187.112L29.6489 190.626L147.715 72.5606L144.2 69.0465Z" fill="#263238"/>
<path d="M32.5515 404.852V409.822H86.4203V404.852H32.5515Z" fill="#263238"/>
<path d="M148.219 87.3624L164.869 71.7224L149.19 58.9868L136.722 70.7131L148.219 87.3624Z" fill="#FFC727"/>
<path opacity="0.1" d="M164.869 71.7196L148.219 87.3596L143.647 80.7392L157.919 66.079L164.869 71.7196Z" fill="black"/>
<path d="M146.496 113.484L191.433 71.2578L169.971 59.6998L136.294 91.3432L146.496 113.484Z" fill="#FFC727"/>
<path opacity="0.6" d="M321.786 247.079C321.786 247.079 305.821 239.723 305.821 229.865C305.821 220.005 326.526 213.659 326.526 205.953C326.526 198.247 317.496 193.714 317.496 193.714C317.496 193.714 331.759 198.588 331.759 208.333C331.759 218.08 318.11 224.683 316.804 230.885C314.991 239.497 321.786 247.079 321.786 247.079Z" fill="#DBDBDB"/>
<path opacity="0.6" d="M320.998 247.079C320.998 247.079 336.963 241.296 336.963 233.544C336.963 225.792 316.258 220.802 316.258 214.744C316.258 208.686 325.288 205.121 325.288 205.121C325.288 205.121 311.025 208.951 311.025 216.615C311.025 224.278 326.699 229.546 327.819 235.771C328.919 241.877 320.998 247.079 320.998 247.079Z" fill="#DBDBDB"/>
<path d="M329.211 271.869H314.024V274.239H329.211V271.869Z" fill="#FFC727"/>
<path opacity="0.1" d="M329.211 271.869H314.024V273.432H329.211V271.869Z" fill="black"/>
<path d="M347.238 265.497C345.442 268.021 342.263 269.829 338.687 269.154C338.179 269.059 337.668 268.916 337.146 268.712C336.438 268.439 335.724 268.071 334.998 267.583L336.928 264.723C337.32 264.995 337.7 265.207 338.067 265.369C341.684 267.009 343.973 264.158 344.424 263.506C346.506 260.581 347.251 253.899 345.141 251.328C345.001 251.139 344.392 250.837 341.947 251.358C341.495 251.46 340.984 251.573 340.404 251.733C339.762 251.915 339.38 252.019 339.016 252.032L338.954 250.315L338.787 248.601C338.944 248.572 339.191 248.501 339.512 248.41C340.435 248.164 341.678 247.825 342.965 247.694C344.764 247.508 346.651 247.723 347.808 249.144C351.234 253.341 349.844 261.83 347.238 265.497Z" fill="#FFC727"/>
<path opacity="0.1" d="M336.928 264.723C337.32 264.995 337.7 265.208 338.067 265.369L337.146 268.712C336.438 268.439 335.724 268.071 334.998 267.583L336.928 264.723Z" fill="black"/>
<path opacity="0.1" d="M342.965 247.694L341.947 251.358C341.495 251.46 340.984 251.573 340.404 251.733C339.762 251.915 339.38 252.019 339.016 252.032L338.954 250.314L338.787 248.6C338.944 248.572 339.191 248.501 339.512 248.41C340.435 248.163 341.677 247.826 342.965 247.694Z" fill="black"/>
<path d="M301.412 243.222C301.412 243.222 301.543 244.351 301.804 246.134C301.852 246.407 301.887 246.705 301.934 247.002C302.113 248.226 302.35 249.676 302.623 251.233C302.635 251.316 302.659 251.411 302.671 251.506C303.075 253.741 303.563 256.177 304.133 258.471C304.157 258.578 304.193 258.674 304.216 258.768C304.371 259.387 304.537 259.993 304.704 260.575C304.87 261.158 305.049 261.728 305.227 262.275C305.596 263.368 305.976 264.367 306.38 265.21C309.53 271.724 313.928 272.449 316.649 272.449C319.382 272.449 319.133 272.449 321.617 272.449C324.101 272.449 323.84 272.449 326.585 272.449C329.306 272.449 333.705 271.724 336.843 265.21C336.938 265.008 337.033 264.794 337.128 264.568C337.2 264.414 337.271 264.247 337.33 264.081C337.401 263.914 337.473 263.747 337.533 263.569C337.581 263.45 337.628 263.32 337.675 263.201C338.282 261.537 338.828 259.575 339.304 257.555C339.328 257.472 339.352 257.4 339.364 257.318C339.376 257.282 339.376 257.258 339.388 257.223C339.578 256.415 339.757 255.594 339.922 254.787C340.207 253.455 340.457 252.148 340.671 250.9C340.766 250.329 340.861 249.771 340.956 249.235C340.98 249.081 341.004 248.938 341.028 248.796C341.088 248.439 341.147 248.083 341.195 247.75C341.242 247.417 341.29 247.096 341.337 246.787C341.385 246.478 341.42 246.181 341.468 245.908C341.706 244.255 341.825 243.221 341.825 243.221H301.412V243.222Z" fill="#FFC727"/>
<path opacity="0.1" d="M302.672 251.507C303.076 253.741 303.564 256.178 304.134 258.472C304.384 258.508 304.634 258.556 304.883 258.615C306.084 258.9 307.26 259.387 308.294 260.088C309.341 260.766 310.268 261.622 311.147 262.466C312.039 263.309 312.918 264.166 313.917 264.819C314.915 265.473 316.056 265.865 317.244 265.901C318.397 265.961 319.443 265.283 320.275 264.463C321.13 263.619 321.843 262.632 322.544 261.634C323.245 260.636 323.947 259.614 324.779 258.662C325.195 258.199 325.659 257.747 326.181 257.378C326.454 257.2 326.763 257.057 327.061 256.926C327.394 256.867 327.715 256.712 328.047 256.76C328.724 256.7 329.366 256.962 329.949 257.236C330.507 257.557 331.018 257.925 331.47 258.364C332.398 259.208 333.181 260.171 334.002 261.075C334.822 261.942 335.689 262.894 336.819 263.167C337.104 263.239 337.389 263.251 337.675 263.203C338.281 261.538 338.827 259.577 339.303 257.557C338.982 257.474 338.649 257.39 338.329 257.283C337.152 256.891 336.035 256.285 335.072 255.488C334.098 254.704 333.265 253.777 332.457 252.85C331.65 251.923 330.865 250.984 329.937 250.235C329.01 249.486 327.905 248.987 326.729 248.832C325.588 248.666 324.482 249.236 323.566 249.973C322.639 250.722 321.843 251.637 321.047 252.564C320.238 253.491 319.442 254.442 318.527 255.309C318.075 255.737 317.564 256.13 317.005 256.45C316.72 256.604 316.399 256.711 316.09 256.819C315.757 256.843 315.413 256.961 315.079 256.89C314.401 256.878 313.796 256.545 313.249 256.224C312.725 255.856 312.239 255.428 311.834 254.952C310.99 254.025 310.312 252.991 309.575 252.016C308.85 251.066 308.077 250.043 306.984 249.651C305.868 249.259 304.679 249.877 303.752 250.614C303.385 250.9 303.028 251.198 302.672 251.507Z" fill="black"/>
<path d="M302.625 251.233C302.636 251.316 302.66 251.411 302.672 251.506C303.029 251.197 303.385 250.9 303.754 250.614C304.682 249.878 305.87 249.259 306.987 249.651C308.081 250.043 308.853 251.066 309.578 252.016C310.315 252.991 310.992 254.025 311.836 254.952C312.24 255.428 312.728 255.856 313.251 256.225C313.798 256.546 314.404 256.879 315.082 256.89C315.415 256.961 315.759 256.842 316.092 256.819C316.402 256.712 316.723 256.605 317.008 256.45C317.566 256.129 318.078 255.737 318.529 255.309C319.445 254.442 320.241 253.49 321.049 252.564C321.846 251.637 322.642 250.721 323.569 249.973C324.485 249.236 325.59 248.666 326.731 248.832C327.908 248.987 329.013 249.486 329.94 250.235C330.868 250.984 331.652 251.924 332.46 252.85C333.268 253.777 334.1 254.704 335.075 255.489C336.037 256.285 337.155 256.891 338.332 257.284C338.653 257.39 338.986 257.474 339.306 257.557C339.33 257.474 339.354 257.402 339.366 257.319C339.057 257.225 338.735 257.129 338.426 257.01C336.097 256.226 334.326 254.455 332.816 252.553C332.031 251.614 331.248 250.639 330.26 249.831C329.286 249.035 328.074 248.475 326.813 248.297C325.458 248.095 324.187 248.761 323.223 249.533C322.225 250.318 321.404 251.257 320.597 252.184C319.789 253.111 319.016 254.062 318.149 254.894C317.281 255.691 316.259 256.475 315.129 256.344C313.988 256.285 313.001 255.501 312.217 254.609C311.409 253.718 310.708 252.707 309.948 251.733C309.175 250.794 308.367 249.725 307.095 249.296C306.465 249.071 305.776 249.177 305.181 249.403C304.587 249.628 304.063 249.997 303.577 250.389C303.243 250.662 302.934 250.936 302.625 251.233Z" fill="white"/>
<path d="M304.134 258.471C304.158 258.578 304.194 258.674 304.217 258.768C304.419 258.804 304.621 258.851 304.811 258.899C307.201 259.457 309.138 261.039 310.837 262.786C311.705 263.653 312.573 264.545 313.631 265.246C314.689 265.947 315.936 266.387 317.22 266.435C318.576 266.518 319.788 265.734 320.668 264.866C321.583 263.987 322.308 262.976 323.033 261.978C323.734 260.968 324.412 259.946 325.208 259.042C325.981 258.163 326.931 257.283 328.061 257.295C329.202 257.248 330.26 257.938 331.127 258.745C332.019 259.554 332.815 260.492 333.671 261.384C334.526 262.239 335.43 263.227 336.737 263.535C336.999 263.595 337.272 263.606 337.534 263.571C337.582 263.452 337.629 263.321 337.677 263.203C337.391 263.251 337.106 263.239 336.821 263.167C335.691 262.894 334.824 261.942 334.004 261.075C333.183 260.171 332.399 259.209 331.472 258.364C331.02 257.925 330.509 257.556 329.95 257.236C329.368 256.962 328.726 256.701 328.049 256.76C327.716 256.712 327.395 256.867 327.063 256.926C326.765 257.057 326.456 257.2 326.183 257.378C325.66 257.747 325.197 258.199 324.781 258.662C323.949 259.614 323.247 260.636 322.546 261.634C321.845 262.632 321.132 263.619 320.277 264.463C319.445 265.283 318.399 265.961 317.246 265.901C316.057 265.865 314.917 265.473 313.918 264.819C312.92 264.166 312.041 263.309 311.149 262.466C310.27 261.622 309.342 260.767 308.296 260.088C307.262 259.387 306.086 258.9 304.885 258.615C304.634 258.555 304.384 258.507 304.134 258.471Z" fill="white"/>
<path d="M143.377 352.721L73.1311 409.363H77.088L158.217 352.721H143.377Z" fill="#C7C7C7"/>
<path d="M149.976 352.721L115.265 409.363H119.223L161.767 352.721H149.976Z" fill="#C7C7C7"/>
<path d="M166.995 352.721L201.706 409.363H197.748L155.204 352.721H166.995Z" fill="#C7C7C7"/>
<path d="M173.059 352.721L243.304 409.363H239.347L158.217 352.721H173.059Z" fill="#C7C7C7"/>
<path d="M290.3 331.943V315.372L193.835 311.414L142.883 175.374H26.1357L67.4419 331.943L166.133 359.647H172.316L290.3 331.943Z" fill="#455A64"/>
<path d="M26.1357 175.374H39.4923L82.5299 318.093L169.843 342.827L290.3 315.372V331.943L172.316 359.647H166.133L67.4419 331.943L26.1357 175.374Z" fill="#37474F"/>
<path d="M361.241 408.795C358.129 408.866 277.402 383.912 274.93 381.02C274.662 380.7 275.922 368.746 278.007 359.256C278.104 358.803 249.34 321.114 249.34 321.114L301.347 300.884L326.226 352.435L332.699 365.839C332.699 365.839 359.629 392.912 362.013 396.379C364.37 399.851 364.355 408.724 361.241 408.795Z" fill="#EBEBEB"/>
<path d="M363.515 409.249C360.27 409.336 275.994 383.61 273.4 380.598C272.41 379.461 273.917 374.247 278.007 359.257L333.259 365.91C333.259 365.91 361.776 392.688 364.266 396.297C366.738 399.899 366.759 409.162 363.515 409.249Z" fill="#FFC727"/>
<path d="M363.335 405.509C349.314 400.85 292.321 383.381 278.107 379.841C277.992 379.811 277.968 379.889 278.08 379.929C291.877 384.851 349.01 401.857 363.265 405.741C363.565 405.822 363.631 405.607 363.335 405.509Z" fill="#263238"/>
<path d="M359.77 391.61C356.462 390.451 352.702 391.043 350.266 392.481C347.925 393.862 345.6 396.1 344.806 399.06C344.783 399.144 344.938 399.194 344.977 399.111C347.472 393.829 353.982 390.508 359.717 391.788C359.833 391.813 359.884 391.65 359.77 391.61Z" fill="#263238"/>
<path d="M338.965 371.484C333.335 369.679 326.17 369.674 321.244 373.226C321.054 373.364 321.251 373.633 321.446 373.598C327.362 372.523 332.819 372.043 338.849 372.209C339.275 372.221 339.368 371.613 338.965 371.484Z" fill="#263238"/>
<path d="M342.811 374.518C337.18 372.714 330.015 372.708 325.09 376.26C324.899 376.397 325.098 376.667 325.292 376.632C331.208 375.557 336.666 375.077 342.696 375.244C343.121 375.255 343.214 374.647 342.811 374.518Z" fill="#263238"/>
<path d="M346.656 377.552C341.026 375.747 333.861 375.742 328.935 379.294C328.744 379.431 328.943 379.701 329.138 379.666C335.053 378.591 340.512 378.111 346.541 378.278C346.966 378.29 347.059 377.681 346.656 377.552Z" fill="#263238"/>
<path d="M350.502 380.586C344.872 378.781 337.707 378.776 332.782 382.328C332.59 382.466 332.789 382.734 332.983 382.699C338.899 381.625 344.357 381.144 350.387 381.311C350.812 381.324 350.905 380.716 350.502 380.586Z" fill="#263238"/>
<path d="M349.681 358.26C347.544 355.014 343.23 356.232 340.713 358.158C336.637 361.277 332.965 366.272 331.162 371.049C331.118 371.167 331.194 371.243 331.29 371.265C331.287 371.706 331.661 372.193 332.167 372.031C337.043 370.475 342.448 369.416 346.701 366.411C349.184 364.656 351.704 361.331 349.681 358.26ZM339.076 368.161C336.696 368.984 334.291 369.686 331.943 370.597C333.813 368.088 335.565 365.51 337.686 363.191C338.699 362.084 339.76 360.966 340.916 360.008C342.714 358.514 349.707 355.483 348.392 361.807C347.667 365.293 341.911 367.179 339.076 368.161Z" fill="#263238"/>
<path d="M316.473 368.857C321.165 371.117 326.671 371.265 331.738 371.991C332.263 372.066 332.552 371.525 332.475 371.089C332.566 371.052 332.628 370.964 332.566 370.855C329.995 366.442 325.546 362.125 321.009 359.725C318.208 358.244 313.752 357.756 312.182 361.313C310.697 364.677 313.733 367.538 316.473 368.857ZM314.041 364.596C311.696 358.578 319.095 360.41 321.116 361.583C322.415 362.338 323.647 363.264 324.828 364.188C327.305 366.124 329.461 368.375 331.72 370.54C329.253 370.03 326.765 369.737 324.281 369.319C321.322 368.82 315.334 367.915 314.041 364.596Z" fill="#263238"/>
<path d="M328.858 354.84L271.527 363.308C271.527 363.308 240.242 306.498 227.606 292.369L227.574 292.344C226.746 291.412 225.971 290.659 225.263 290.087L225.239 290.079C224.439 289.62 223.042 289.278 221.102 289.045L221.078 289.037C204.127 286.977 147.072 292.521 107.646 289.977L126.058 265.364L134.217 254.447C178.634 249.381 233.14 231.222 257.736 243.559C284.451 256.961 328.858 354.84 328.858 354.84Z" fill="#263238"/>
<path d="M321.673 345.103C311.928 346.358 314.709 345.868 304.977 347.226C300.215 347.89 276.271 351.174 271.931 352.533C271.836 352.563 271.86 352.72 271.96 352.721C276.507 352.757 300.373 348.956 305.123 348.205C314.828 346.67 312.026 347.01 321.713 345.372C321.895 345.341 321.856 345.079 321.673 345.103Z" fill="#37474F"/>
<path d="M271.821 351.732C265.333 340.884 235.793 287.341 229.913 285.232C224.562 283.313 117.484 285.54 115.899 285.551C115.786 285.551 115.777 285.726 115.891 285.725C128.566 285.563 226.44 285.215 229.232 286.319C235.035 288.614 270.361 350.727 271.228 352.022C271.459 352.369 272.044 352.104 271.821 351.732Z" fill="#37474F"/>
<path d="M77.699 267.582C77.699 267.582 74.3134 299.87 90.6967 315.931C110.304 335.151 239.694 330.296 259.747 323.814C279.799 317.333 280.426 284.976 258.506 277.478C237.658 270.347 145.2 266.247 143.011 265.374C140.821 264.5 134.412 254.269 134.412 254.269L77.699 267.582Z" fill="#263238"/>
<path d="M105.081 266.672C105.055 266.518 104.816 266.567 104.816 266.714C104.833 270.792 103.323 275.082 100.646 278.174C97.5747 281.72 93.0473 283.705 88.9441 285.78C88.5495 285.979 88.8485 286.597 89.2569 286.474C91.7575 285.724 94.2222 284.633 96.5019 283.353C98.5784 282.187 100.497 280.724 101.951 278.823C104.634 275.316 105.807 271.042 105.081 266.672Z" fill="#37474F"/>
<path d="M142.128 263.361C141.213 262.192 140.215 261.079 139.26 259.942C137.001 257.254 134.732 254.555 132.364 251.961C132.139 251.716 131.7 252.063 131.906 252.332C133.501 254.417 135.189 256.435 136.849 258.468C137.7 259.51 138.553 260.549 139.413 261.583C140.218 262.549 141.212 263.507 141.807 264.62C142.426 265.775 141.612 266.763 140.414 266.891C139.343 267.005 138.353 266.46 137.53 265.829C135.661 264.398 134.192 262.348 132.637 260.598C131.685 259.528 130.735 258.459 129.769 257.401C128.742 256.277 127.648 255.212 126.624 254.089C126.557 254.017 126.43 254.118 126.489 254.198C127.384 255.424 128.211 256.709 129.108 257.938C130.004 259.167 130.913 260.384 131.838 261.591C132.714 262.734 133.62 263.852 134.553 264.949C135.345 265.881 136.246 266.789 137.308 267.414C139.023 268.423 142.001 268.64 142.914 266.425C143.366 265.332 142.802 264.222 142.128 263.361Z" fill="#37474F"/>
<path d="M257.004 323.936C250.101 324.064 243.201 324.466 236.296 324.614C229.448 324.76 222.596 324.799 215.747 324.734C201.99 324.604 188.237 324.079 174.51 323.131C160.64 322.172 145.681 320.79 131.904 318.882C125.311 317.969 118.628 317.209 112.114 315.807C106.235 314.543 100.904 312.101 96.5039 307.833C87.5808 299.178 84.1115 286.454 82.6864 274.297C82.495 272.666 82.3386 271.032 82.2061 269.394C82.1969 269.283 82.0295 269.286 82.0369 269.399C82.8428 281.865 84.7803 294.861 92.6215 304.882C96.0135 309.218 100.33 312.771 105.393 314.799C111.563 317.271 118.412 317.851 124.926 318.735C138.759 320.612 153.778 322.06 167.691 323.14C181.691 324.225 195.726 324.903 209.765 325.11C223.802 325.317 237.855 325.119 251.88 324.43C253.593 324.345 255.3 324.245 257.009 324.096C257.105 324.084 257.103 323.934 257.004 323.936Z" fill="#37474F"/>
<path d="M275.436 293.762C274.119 288.289 270.824 283.701 266.19 280.537C261.222 277.144 255.276 275.599 249.393 274.743C242.736 273.775 235.994 273.282 229.3 272.631C215.565 271.297 201.819 270.065 188.065 268.934C174.32 267.803 144.714 265.504 143.048 265.439C142.904 265.434 142.874 265.68 143.02 265.696C156.289 267.171 168.361 268.437 181.656 269.645C195.016 270.858 208.373 272.131 221.723 273.45C228.375 274.108 235.026 274.773 241.674 275.46C247.836 276.097 254.173 276.724 259.954 279.104C264.912 281.146 269.369 284.429 271.898 289.253C274.341 293.913 274.856 299.481 273.879 304.605C272.972 309.362 270.733 313.997 267.465 317.584C264.244 321.118 260.157 323.825 255.446 324.84C254.23 325.102 252.763 325.29 251.644 325.514C251.56 325.53 251.472 325.711 251.559 325.712C261.497 325.964 270.689 318.707 274.278 309.629C276.256 304.626 276.697 298.998 275.436 293.762Z" fill="#37474F"/>
<path d="M116.333 188.125C122.908 213.903 135.978 244.679 141.358 249.596C148.163 255.814 189.791 263.977 191.99 264.191C195.6 264.543 203.043 227.438 199.669 227.513C190.763 227.713 163.328 224.924 161.359 222.997C159.317 220.982 145.383 204.251 131.011 185.313C121.094 172.225 112.254 172.129 116.333 188.125Z" fill="#D3766A"/>
<path d="M188.612 262.646C189.216 262.934 197.779 266.987 203.048 268.378C206.978 269.416 218.373 272.099 219.946 267.886C221.022 265.013 214.507 262.646 209.937 260.869C207.529 259.933 204.533 257.508 205.198 255.959C206.362 253.25 212.563 255.794 216.654 258.042C224.566 262.389 235.155 270.3 239.827 266.227C241.591 264.687 239.434 262.013 236.309 259.414C241.35 262.409 246.709 264.836 248.735 263.204C249.899 262.274 249.925 261.035 249.23 259.637C250.776 260.099 252.128 259.968 253.049 258.947C254.624 257.219 253.777 254.745 251.949 252.23C252.514 252.157 253.016 251.858 253.391 251.232C256.685 245.938 239.216 231.384 233.265 230.125C215.757 226.405 197.431 227.616 197.431 227.616C190.726 233.244 188.599 262.635 188.612 262.646Z" fill="#D3766A"/>
<path d="M213.828 246.006C217.943 246.55 222.016 247.986 225.548 250.198C230.031 253.005 233.04 256.344 236.826 259.688C236.925 259.777 236.792 259.934 236.691 259.846C234.888 258.256 227.429 252.295 225.507 250.946C221.983 248.474 218.074 246.772 213.815 246.077C213.768 246.07 213.782 246.001 213.828 246.006Z" fill="#263238"/>
<path d="M216.895 238.541C221.5 239.682 226.219 240.835 230.517 242.898C235.221 245.154 238.951 248.928 242.616 252.558C244.817 254.738 246.973 256.964 249.072 259.242C249.16 259.338 249.033 259.495 248.938 259.4C245.218 255.648 241.385 252.005 237.442 248.487C233.733 245.178 229.624 242.676 224.934 241.017C222.292 240.082 219.583 239.351 216.878 238.623C216.829 238.609 216.842 238.528 216.895 238.541Z" fill="#263238"/>
<path d="M221.627 231.963C226.095 232.769 229.992 233.457 233.986 235.745C239.273 238.774 244.431 243.968 246.241 245.808C248.241 247.843 250.17 249.941 252.068 252.07C252.146 252.156 251.997 252.294 251.917 252.207C247.584 247.557 242.931 243.153 238.034 239.103C235.693 237.167 233.16 235.492 230.332 234.353C227.537 233.228 224.558 232.625 221.622 231.994C221.603 231.99 221.608 231.961 221.627 231.963Z" fill="#263238"/>
<path d="M196.754 225.026L184.244 268.238C184.244 268.238 147.34 258.655 140.469 251.591C133.597 244.527 120.341 207.525 116.27 189.533C112.199 171.542 121.352 171.77 130.027 182.966C138.702 194.163 160.281 221.287 161.465 221.859C162.649 222.431 196.754 225.026 196.754 225.026Z" fill="#FFC727"/>
<path d="M180.271 249.27C181.789 244.174 183.348 239.088 184.678 233.935C185.433 231.008 186.205 228.083 186.932 225.148C186.96 225.038 186.774 224.975 186.737 225.085C185.011 230.139 183.29 235.212 181.795 240.345C180.308 245.452 178.778 250.546 177.356 255.673C176.548 258.588 175.831 261.517 175.2 264.478C175.187 264.537 175.281 264.569 175.303 264.511C177.201 259.511 178.742 254.4 180.271 249.27Z" fill="#263238"/>
<path opacity="0.1" d="M178.923 266.792C168.448 263.84 145.708 256.979 140.466 251.594C133.596 244.526 120.338 207.526 116.27 189.538C114.321 180.898 115.409 176.451 118.039 175.419C118.313 175.543 118.598 175.704 118.881 175.874C132.423 194.495 160.537 238.943 178.923 266.792Z" fill="black"/>
<path d="M73.972 273.175C74.179 273.385 152.188 256.298 152.91 255.389C153.919 254.11 139.978 195.452 125.269 177.946C121.591 173.568 109.881 173.871 104.64 178.289C78.6686 200.184 73.2332 272.418 73.972 273.175Z" fill="#FFC727"/>
<path d="M98.5764 182.486C83.0201 194.452 42.0194 242.832 50.5901 254.311C59.2216 265.872 117.9 261.967 135.04 257.028C140.137 255.559 127.055 223.123 121.614 221.516C117.085 220.178 91.6525 227.081 91.1943 225.607C90.6764 223.943 96.3086 213.218 105.395 193.619C115.872 171.02 105.447 177.2 98.5764 182.486Z" fill="#D3766A"/>
<path d="M145.522 217.736C156.857 218.025 159.722 219.841 169.419 215.005C175.782 211.832 180.538 214.533 176.215 220.532C169.144 230.344 154.441 233.042 149.075 232.509L145.522 217.736Z" fill="#D3766A"/>
<path d="M114.328 223.532C114.328 223.532 127.921 218.679 140.031 217.793C148.405 217.181 166.772 217.879 181.049 238.478C184.434 243.364 185.795 252.727 177.366 246.756C171.38 242.514 168.863 238.016 164.932 236.182C164.932 236.182 165.249 248.298 160.222 251.499C157.975 252.929 151.752 256.69 146.489 258.928C146.489 258.928 145.693 257.913 144.869 256.482C144.869 256.482 139.891 259.029 131.672 256.852L114.328 223.532Z" fill="#D3766A"/>
<path d="M148.116 218.484C151.634 221.129 158.995 226.859 163.387 233.641C168.265 241.174 175.632 256.998 170.034 260.542C165.929 263.14 162.586 257.346 162.586 257.346C162.586 257.346 164.252 264.53 160.031 266.065C156.185 267.465 153.866 262.827 153.866 262.827C153.866 262.827 154.128 267.358 150.163 267.992C145.394 268.756 145.629 259.135 140.13 255.734C138.895 254.971 148.116 218.484 148.116 218.484Z" fill="#D3766A"/>
<path d="M154.568 237.467C157.469 240.496 162.291 249.066 162.675 257.181C162.683 257.365 162.548 257.47 162.505 257.304C160.186 248.46 156.33 240.705 154.498 237.513C154.473 237.47 154.536 237.434 154.568 237.467Z" fill="#263238"/>
<path d="M147.108 242.612C149.342 245.484 153.918 254.539 154.024 262.775C154.026 262.959 153.884 263.056 153.848 262.887C151.805 253.547 148.674 245.95 147.034 242.654C147.012 242.61 147.079 242.576 147.108 242.612Z" fill="#263238"/>
<path d="M164.947 236.11C168.381 237.77 170.437 239.931 173.134 242.551C174.468 243.847 175.827 245.125 177.298 246.266C178.637 247.304 180.607 248.866 182.38 247.879C183.366 247.33 183.562 246.067 183.534 245.04C183.501 243.887 182.738 241.641 182.229 240.603C182.203 240.551 182.294 240.504 182.321 240.556C182.796 241.483 183.69 243.549 183.886 244.574C184.063 245.502 184.145 246.561 183.746 247.446C182.886 249.35 180.495 249.223 178.924 248.4C177.983 247.908 177.129 247.223 176.309 246.555C175.517 245.908 174.756 245.222 174.013 244.52C172.488 243.076 171.048 241.546 169.54 240.085C167.884 238.48 166.697 237.632 164.873 236.222C164.811 236.173 164.879 236.077 164.947 236.11Z" fill="#263238"/>
<path d="M170.405 250.065C169.812 247.851 166.171 238.439 164.859 236.184C164.825 236.126 164.905 236.071 164.945 236.126C167.318 239.259 170.668 247.093 171.346 249.537C172.017 251.953 172.742 255.02 172.329 257.52C171.705 261.293 169.085 261.594 168.129 261.625C166.988 261.663 165.912 261.246 165.006 260.568C163.997 259.814 163.125 258.451 162.548 257.352C162.518 257.294 162.598 257.235 162.635 257.293C163.696 258.995 165.625 260.821 167.72 260.891C168.629 260.921 169.596 260.666 170.261 260.018C171.043 259.257 171.282 258.126 171.367 257.079C171.556 254.711 171.015 252.338 170.405 250.065Z" fill="#263238"/>
<path d="M114.328 221.9L126.129 262.978C126.129 262.978 52.687 267.164 48.616 253.828C44.545 240.492 80.0294 196.799 94.7457 184.801C111.801 170.896 112.719 176.737 107.166 190.644C101.352 205.205 91.3408 225.997 91.3408 225.997L114.328 221.9Z" fill="#FFC727"/>
<path d="M68.1419 232.575C71.7906 230.823 75.6104 229.423 79.4717 228.218C83.2961 227.025 87.2309 226.247 91.1833 225.629C93.4419 225.276 95.7087 225.033 97.9793 224.775C98.0483 224.766 98.0575 224.872 97.9894 224.882C94.0113 225.441 90.0645 226.351 86.1812 227.364C82.3126 228.374 78.4689 229.451 74.6398 230.601C72.4741 231.251 70.3397 232.005 68.197 232.728C68.0968 232.761 68.0489 232.619 68.1419 232.575Z" fill="#263238"/>
<path d="M114.157 221.757C113.785 221.791 93.3627 224.981 92.6783 225.171C92.8071 224.892 97.9848 215.17 98.7549 213.748C98.8312 213.607 98.9011 213.462 98.9766 213.32C99.4403 212.707 99.9085 212.096 100.348 211.463C100.912 210.653 101.471 209.837 102.029 209.023C102.047 208.998 102.011 208.969 101.992 208.994C101.398 209.779 100.802 210.565 100.211 211.354C99.938 211.72 99.6776 212.093 99.4182 212.468C99.9352 211.459 100.439 210.446 100.944 209.427C101.748 207.803 102.498 206.159 103.245 204.508C103.269 204.454 103.19 204.422 103.163 204.472C101.638 207.306 100.025 210.089 98.4927 212.917C96.9627 215.74 91.1474 226.138 91.1796 226.134C91.2099 226.168 113.754 222.137 114.192 222.033C114.364 221.993 114.34 221.74 114.157 221.757Z" fill="#263238"/>
<path d="M111.352 246.816C110.063 242.235 108.809 237.644 107.35 233.111C106.521 230.536 105.705 227.954 104.851 225.386C104.819 225.29 104.649 225.331 104.672 225.431C105.785 230.079 106.911 234.739 108.236 239.336C109.553 243.91 110.833 248.495 112.211 253.053C112.995 255.644 113.852 258.202 114.792 260.744C114.811 260.794 114.897 260.773 114.886 260.72C113.929 256.03 112.651 251.428 111.352 246.816Z" fill="#263238"/>
<path d="M126.944 263.726C126.429 262.436 125.813 260.598 125.244 259.331C125.095 258.996 124.851 259.021 124.959 259.364C125.323 260.517 125.572 261.788 125.924 262.969C124.898 263.002 123.87 263.013 122.843 263.058C121.656 263.108 120.468 263.164 119.28 263.211C116.954 263.303 114.627 263.37 112.299 263.414C107.586 263.502 102.87 263.49 98.1569 263.379C88.7094 263.155 79.2463 262.586 69.8706 261.384C67.2477 261.048 64.6294 260.661 62.0276 260.194C59.3844 259.719 56.5315 259.189 54.3861 258.55C54.318 258.529 54.284 258.645 54.3521 258.672C56.5472 259.515 58.6135 260.153 60.908 260.65C63.2494 261.157 65.6064 261.599 67.9745 261.964C72.6904 262.689 77.444 263.162 82.2014 263.507C91.636 264.192 101.104 264.466 110.562 264.364C113.213 264.335 115.862 264.276 118.511 264.185C119.847 264.139 121.185 264.093 122.52 264.021C123.857 263.949 127.031 263.944 126.944 263.726Z" fill="#263238"/>
<path d="M226.006 269.131H132.036V272.921H226.006V269.131Z" fill="#263238"/>
<path d="M184.033 269.131H132.036V272.921H184.033V269.131Z" fill="#A6A6A6"/>
<path d="M182.455 272.917H264.813L276.449 216.982H194.091L182.455 272.917Z" fill="#A6A6A6"/>
<path d="M186.189 272.917H268.548L280.184 216.982H197.825L186.189 272.917Z" fill="#C7C7C7"/>
<path d="M227.698 246.2C227.379 249.231 229.578 251.688 232.61 251.688C235.641 251.688 238.357 249.231 238.676 246.2C238.994 243.168 236.796 240.71 233.764 240.71C230.732 240.71 228.016 243.168 227.698 246.2Z" fill="#EBEBEB"/>
<path d="M119.365 196.708C119.365 196.708 105.629 183.049 96.6547 183.283L88.9856 189.98C88.9856 189.98 86.4786 190.78 85.7187 189.189C83.8391 185.256 83.5355 175.777 91.7355 169.693C99.2445 164.123 111.462 164.641 121.635 167.412C131.405 170.072 139.847 176.64 136.791 183.002C133.734 189.363 119.365 196.708 119.365 196.708Z" fill="#FFC727"/>
<path opacity="0.1" d="M120.371 193.714C120.371 193.714 131.668 185.79 132.867 181.039C134.066 176.287 124.584 171.671 118.451 169.841C108.959 167.009 102.474 167.566 97.101 172.6C91.7282 177.635 120.371 193.714 120.371 193.714Z" fill="black"/>
<path d="M120.371 193.714C120.371 193.714 109.423 174.831 95.5747 172.859L96.6548 183.284C96.6548 183.284 104.926 183.373 119.365 196.709L120.371 193.714Z" fill="#FFC727"/>
<path d="M92.9158 183.444C95.4568 183.149 97.973 183.732 100.348 184.502C102.739 185.284 104.991 186.434 107.137 187.737C109.304 189.011 111.324 190.523 113.307 192.075L116.185 194.53L118.953 197.119L119.263 197.41L119.613 197.234C122.229 195.922 124.722 194.438 127.123 192.791C128.318 191.963 129.502 191.115 130.593 190.148C131.686 189.191 132.748 188.185 133.633 187.036C131.564 189.066 129.146 190.637 126.706 192.143C125.48 192.89 124.221 193.583 122.95 194.251C121.681 194.917 120.403 195.587 119.114 196.183L119.774 196.297L117.003 193.624C116.045 192.77 115.064 191.938 114.081 191.11C113.051 190.338 112.036 189.546 110.978 188.813C109.893 188.116 108.834 187.382 107.686 186.784C105.453 185.496 103.04 184.502 100.55 183.823C99.9317 183.641 99.2914 183.527 98.6621 183.396C98.0218 183.31 97.3842 183.208 96.7402 183.173C95.4614 183.076 94.1513 183.107 92.9158 183.444Z" fill="#263238"/>
<path d="M88.9856 189.98C90.4236 189.047 91.7392 187.974 93.0253 186.867C94.2958 185.743 95.5378 184.583 96.6547 183.283C95.2158 184.215 93.9002 185.289 92.615 186.397C91.3445 187.523 90.1043 188.681 88.9856 189.98Z" fill="#263238"/>
<path d="M114.76 190.317C114.76 190.317 113.605 195.68 113.438 203.441C113.372 206.513 114.551 217.53 117.966 217.133C121.38 216.736 115.821 209.624 114.847 203.812C113.858 197.913 115.427 193.747 115.635 190.267L114.76 190.317Z" fill="#FFC727"/>
<g opacity="0.1">
<path d="M114.76 190.317C114.76 190.317 113.605 195.68 113.438 203.441C113.372 206.513 114.551 217.53 117.966 217.133C121.38 216.736 115.821 209.624 114.847 203.812C113.858 197.913 115.427 193.747 115.635 190.267L114.76 190.317Z" fill="black"/>
</g>
<path d="M126.872 190.927C126.872 190.927 128.464 196.731 129.41 203.706C129.785 206.467 129.855 216.515 126.737 216.507C123.62 216.5 127.898 209.521 128.179 204.185C128.465 198.768 126.624 194.084 126.079 190.971L126.872 190.927Z" fill="#FFC727"/>
<g opacity="0.1">
<path d="M126.872 190.927C126.872 190.927 128.464 196.731 129.41 203.706C129.785 206.467 129.855 216.515 126.737 216.507C123.62 216.5 127.898 209.521 128.179 204.185C128.465 198.768 126.624 194.084 126.079 190.971L126.872 190.927Z" fill="black"/>
</g>
<path d="M121.522 191.595C117.958 191.363 111.318 183.922 109.057 178.018C108.905 177.613 110.022 173.721 111.157 168.927C111.834 166.015 112.519 162.757 112.93 159.739L131.233 166.912C131.233 166.912 128.512 172.986 127.828 178.252C127.776 178.693 127.764 179.108 127.789 179.508C127.788 179.566 127.795 179.637 127.788 179.717C127.853 182.122 127.103 191.958 121.522 191.595Z" fill="#D3766A"/>
<path d="M127.787 179.511C127.786 179.569 127.799 179.633 127.791 179.719C127.181 179.721 126.54 179.671 125.827 179.557C115.099 177.846 114.25 164.375 114.254 160.258L131.241 166.91C131.241 166.91 128.518 172.984 127.822 178.256C127.781 178.691 127.761 179.102 127.787 179.511Z" fill="#263238"/>
<path d="M116.654 136.128C112.818 142.082 110.926 161.884 114.372 167.395C119.368 175.384 130.205 179.084 137.665 172.471C144.895 166.06 146.905 140.21 142.807 134.928C136.773 127.149 122.319 127.334 116.654 136.128Z" fill="#D3766A"/>
<path d="M129.011 150.572C129.614 150.499 130.158 150.332 130.747 150.198C131.411 150.048 131.957 149.996 132.445 149.48C132.707 149.203 132.684 148.643 132.439 148.363C131.868 147.712 131.008 147.693 130.2 147.842C129.324 148.004 128.69 148.352 128.114 149.029C127.555 149.685 128.216 150.668 129.011 150.572Z" fill="#263238"/>
<path d="M142.431 152.404C141.849 152.231 141.34 151.974 140.782 151.744C140.152 151.484 139.624 151.342 139.228 150.75C139.016 150.433 139.133 149.886 139.422 149.65C140.093 149.104 140.944 149.231 141.715 149.512C142.552 149.818 143.118 150.268 143.574 151.033C144.014 151.774 143.199 152.632 142.431 152.404Z" fill="#263238"/>
<path d="M127.986 166.141C128.265 166.492 128.528 166.962 129.004 167.064C129.462 167.161 130.031 167.022 130.476 166.912C130.52 166.901 130.557 166.951 130.524 166.987C130.114 167.454 129.348 167.681 128.745 167.494C128.157 167.313 127.925 166.755 127.849 166.185C127.84 166.105 127.946 166.09 127.986 166.141Z" fill="#263238"/>
<path d="M129.891 162.34C130.488 163.588 131.501 164.358 132.655 164.738C133.169 164.911 133.723 165 134.273 165.02C134.381 165.031 134.49 165.033 134.589 165.023C134.687 165.024 134.777 165.024 134.886 165.016C135.043 165.013 135.146 164.895 135.191 164.752L135.192 164.743C135.197 164.694 135.201 164.654 135.196 164.605C135.196 164.605 135.196 164.605 135.197 164.595L135.209 164.478C135.367 163.457 135.467 161.889 135.467 161.889C135.817 162.123 137.614 163.225 137.652 162.686C137.952 158.226 138.285 153.267 137.641 148.765C137.627 148.616 137.4 148.621 137.394 148.768C136.937 153.042 137.234 157.369 136.843 161.67C136.264 161.362 135.326 160.807 134.79 160.749C134.639 160.772 134.652 163.785 134.545 164.237C134.545 164.237 134.543 164.257 134.53 164.285C132.783 164.285 131.553 163.601 130.03 162.234C129.94 162.147 129.823 162.224 129.891 162.34Z" fill="#263238"/>
<path d="M133.735 164.424C133.735 164.424 132.672 165.533 131.373 165.816C130.895 165.922 130.394 165.924 129.894 165.721C128.868 165.307 128.966 164.33 129.267 163.521C129.511 162.856 129.905 162.306 129.905 162.306C129.905 162.306 131.27 163.953 133.735 164.424Z" fill="#263238"/>
<path d="M131.372 165.816C130.894 165.922 130.393 165.924 129.893 165.721C128.867 165.307 128.965 164.33 129.266 163.521C130.39 163.782 131.418 164.699 131.372 165.816Z" fill="#FF9ABB"/>
<path d="M131.62 154.195C131.618 154.143 131.508 154.241 131.501 154.295C131.333 155.615 130.919 157.101 129.662 157.348C129.623 157.355 129.616 157.422 129.661 157.423C131.144 157.45 131.674 155.473 131.62 154.195Z" fill="#263238"/>
<path d="M130.664 152.636C128.576 152.139 127.736 156.352 129.672 156.812C131.575 157.266 132.415 153.052 130.664 152.636Z" fill="#263238"/>
<path d="M139.316 155.204C139.336 155.157 139.405 155.287 139.392 155.34C139.08 156.635 138.941 158.17 140.031 158.847C140.065 158.869 140.047 158.933 140.005 158.918C138.608 158.417 138.813 156.381 139.316 155.204Z" fill="#263238"/>
<path d="M140.761 154.085C142.89 154.36 142.183 158.598 140.211 158.342C138.27 158.091 138.977 153.854 140.761 154.085Z" fill="#263238"/>
<path d="M118.542 148.881C121.263 145.482 121.394 138.187 123.961 137.149C129.518 134.903 135.475 145.235 141.351 147.407C147.045 149.512 150.285 146.534 150.934 141.529C151.582 136.525 148.777 131.985 142.719 128.706C136.452 125.313 129.444 125.794 125.397 126.707C125.397 126.707 127.677 124.918 127.398 124.003C127.12 123.09 123.518 124.299 122.32 124.936C121.104 125.584 119.926 127.18 119.926 127.18C119.926 127.18 118.997 126.493 117.418 125.966C115.954 125.476 113.712 125.95 113.485 126.254C113.258 126.557 115.24 127.576 116.668 128.177C116.668 128.177 112.646 130.799 111.585 133.905C110.525 137.012 110.01 153.411 111.107 153.988C112.515 154.728 117.437 150.262 118.542 148.881Z" fill="#263238"/>
<path d="M117.368 128.007C117.43 127.995 117.474 128.091 117.409 128.116C115.585 128.811 113.954 129.8 112.739 131.361C111.327 133.176 110.662 135.445 110.37 137.696C109.803 142.077 110.45 146.471 110.815 150.836C110.825 150.964 110.61 150.986 110.591 150.858C109.907 146.259 109.309 141.317 110.099 136.698C110.772 132.762 113.17 128.823 117.368 128.007Z" fill="#263238"/>
<path d="M124.279 135.57C126.038 135.943 127.845 136.778 129.333 137.786C130.799 138.778 131.814 140.284 132.974 141.593C135.577 144.53 138.638 147.185 142.469 148.314C142.518 148.329 142.495 148.401 142.446 148.39C138.864 147.577 135.885 145.344 133.394 142.726C132.137 141.406 131.086 139.787 129.677 138.628C128.076 137.308 126.089 136.618 124.183 135.883C123.984 135.806 124.073 135.525 124.279 135.57Z" fill="#263238"/>
<path d="M129.502 126.36C132.223 126.02 135.001 126.157 137.702 126.597C140.295 127.019 142.874 127.73 145.178 129.018C149.156 131.241 152.068 135.344 151.484 140.046C151.188 142.429 150.081 144.761 148.232 146.326C148.106 146.432 147.945 146.256 148.06 146.139C151.177 142.968 152.168 138.111 149.958 134.139C147.585 129.873 142.798 127.875 138.221 126.996C135.34 126.443 132.432 126.336 129.507 126.394C129.488 126.393 129.484 126.362 129.502 126.36Z" fill="#263238"/>
<path d="M126.919 160.744C124.267 160.007 122.34 157.54 122.404 154.664C122.479 151.262 125.307 148.556 128.707 148.631C132.11 148.705 134.815 151.533 134.741 154.935C134.665 158.335 131.838 161.042 128.437 160.967C127.912 160.956 127.404 160.879 126.919 160.744ZM130.005 149.649C129.586 149.532 129.144 149.466 128.69 149.456C125.743 149.391 123.294 151.736 123.228 154.683C123.164 157.628 125.509 160.082 128.454 160.144C131.401 160.208 133.85 157.864 133.916 154.917C133.971 152.425 132.304 150.289 130.005 149.649Z" fill="#FFC727"/>
<path d="M140.921 162.848C138.647 162.215 137.231 159.311 137.726 156.131C137.976 154.525 138.669 153.083 139.678 152.069C140.72 151.019 141.976 150.547 143.213 150.74C144.455 150.931 145.504 151.764 146.179 153.081C146.832 154.354 147.053 155.938 146.803 157.543C146.279 160.904 143.818 163.322 141.316 162.933C141.183 162.912 141.052 162.883 140.921 162.848ZM143.393 151.622C143.293 151.594 143.191 151.571 143.087 151.556C142.118 151.405 141.115 151.793 140.262 152.649C139.376 153.542 138.765 154.822 138.54 156.257C138.088 159.169 139.382 161.799 141.443 162.118C143.496 162.437 145.534 160.328 145.989 157.417C146.211 155.983 146.018 154.576 145.445 153.457C144.954 152.497 144.233 151.855 143.393 151.622Z" fill="#FFC727"/>
<path d="M134.427 155.609L134 154.902C135.045 154.27 137.346 153.558 138.587 155.384L137.906 155.847C136.796 154.211 134.523 155.552 134.427 155.609Z" fill="#FFC727"/>
<path d="M107.019 152.95L106.353 152.464C106.581 152.153 108.626 149.43 110.492 149.417C112.236 149.411 123.002 152.134 123.459 152.251L123.256 153.05C120.17 152.267 111.845 150.233 110.498 150.243C109.266 150.25 107.57 152.199 107.019 152.95Z" fill="#FFC727"/>
<path d="M116.331 152.612C116.331 152.612 113.652 145.369 110.476 146.169C107.298 146.968 108.194 156.684 111.138 158.752C114.081 160.819 116.048 158.132 116.048 158.132L116.331 152.612Z" fill="#D3766A"/>
<path d="M110.801 148.948C110.751 148.93 110.721 149.001 110.761 149.031C112.805 150.555 113.454 152.991 113.722 155.41C113.263 154.386 112.458 153.68 111.113 154.192C111.043 154.219 111.076 154.327 111.144 154.33C112.133 154.375 112.766 154.714 113.203 155.63C113.512 156.279 113.642 157.03 113.803 157.728C113.856 157.96 114.253 157.948 114.238 157.691C114.237 157.672 114.235 157.652 114.233 157.633C115.053 154.734 113.855 150.06 110.801 148.948Z" fill="#263238"/>
</svg>
