<svg width="191" height="100" viewBox="0 0 191 100" fill="none" xmlns="http://www.w3.org/2000/svg">
<path d="M4 20C4 8.95431 12.9543 0 24 0H164C175.046 0 184 8.95431 184 20V80C184 91.0457 175.046 100 164 100H24C12.9543 100 4 91.0457 4 80V20Z" fill="#FFC727"/>
<path d="M189.353 94L190 84.6374L2.58893 49L0 86.4825L189.353 94Z" fill="white" fill-opacity="0.27"/>
<path d="M190.383 78L191 69.2087L4.70901 14L3 38.3575L190.383 78Z" fill="white" fill-opacity="0.27"/>
<path d="M23.8153 87.128C22.9619 87.128 22.1673 86.984 21.4313 86.696C20.7059 86.408 20.0766 86.008 19.5433 85.496C19.0099 84.9733 18.5939 84.3653 18.2953 83.672C17.9966 82.9787 17.8473 82.2213 17.8473 81.4C17.8473 80.5787 17.9966 79.8213 18.2953 79.128C18.5939 78.4347 19.0099 77.832 19.5433 77.32C20.0766 76.7973 20.7059 76.392 21.4313 76.104C22.1566 75.816 22.9513 75.672 23.8153 75.672C24.6686 75.672 25.4526 75.816 26.1673 76.104C26.8926 76.3813 27.5219 76.7813 28.0553 77.304C28.5993 77.816 29.0153 78.4187 29.3033 79.112C29.6019 79.8053 29.7513 80.568 29.7513 81.4C29.7513 82.232 29.6019 82.9947 29.3033 83.688C29.0153 84.3813 28.5993 84.9893 28.0553 85.512C27.5219 86.024 26.8926 86.424 26.1673 86.712C25.4526 86.9893 24.6686 87.128 23.8153 87.128ZM23.8153 85.704C24.4339 85.704 25.0046 85.5973 25.5273 85.384C26.0606 85.1707 26.5193 84.872 26.9033 84.488C27.2979 84.0933 27.6019 83.6347 27.8153 83.112C28.0393 82.5893 28.1513 82.0187 28.1513 81.4C28.1513 80.7813 28.0393 80.2107 27.8153 79.688C27.6019 79.1653 27.2979 78.712 26.9033 78.328C26.5193 77.9333 26.0606 77.6293 25.5273 77.416C25.0046 77.2027 24.4339 77.096 23.8153 77.096C23.1859 77.096 22.6046 77.2027 22.0713 77.416C21.5486 77.6293 21.0899 77.9333 20.6953 78.328C20.3006 78.712 19.9913 79.1653 19.7673 79.688C19.5539 80.2107 19.4473 80.7813 19.4473 81.4C19.4473 82.0187 19.5539 82.5893 19.7673 83.112C19.9913 83.6347 20.3006 84.0933 20.6953 84.488C21.0899 84.872 21.5486 85.1707 22.0713 85.384C22.6046 85.5973 23.1859 85.704 23.8153 85.704ZM33.1378 87V75.8H41.5858V77.16H34.7218V80.36H38.2098C39.5431 80.36 40.5564 80.6373 41.2498 81.192C41.9431 81.7467 42.2898 82.552 42.2898 83.608C42.2898 84.696 41.9111 85.5333 41.1538 86.12C40.4071 86.7067 39.3351 87 37.9378 87H33.1378ZM34.7218 85.736H37.8738C38.8018 85.736 39.5004 85.56 39.9698 85.208C40.4498 84.856 40.6898 84.3333 40.6898 83.64C40.6898 82.296 39.7511 81.624 37.8738 81.624H34.7218V85.736ZM45.6409 87V75.8H50.0089C50.9902 75.8 51.8275 75.9547 52.5209 76.264C53.2142 76.5733 53.7475 77.0213 54.1209 77.608C54.4942 78.1947 54.6809 78.8933 54.6809 79.704C54.6809 80.5147 54.4942 81.2133 54.1209 81.8C53.7475 82.376 53.2142 82.824 52.5209 83.144C51.8275 83.4533 50.9902 83.608 50.0089 83.608H46.5209L47.2409 82.856V87H45.6409ZM47.2409 83.016L46.5209 82.216H49.9609C50.9849 82.216 51.7582 81.9973 52.2809 81.56C52.8142 81.1227 53.0809 80.504 53.0809 79.704C53.0809 78.904 52.8142 78.2853 52.2809 77.848C51.7582 77.4107 50.9849 77.192 49.9609 77.192H46.5209L47.2409 76.392V83.016ZM55.592 87L60.664 75.8H62.248L67.336 87H65.656L61.128 76.696H61.768L57.24 87H55.592ZM57.752 84.2L58.184 82.92H64.488L64.952 84.2H57.752ZM68.837 85.784L69.397 84.6C69.8877 84.984 70.4263 85.272 71.013 85.464C71.6103 85.656 72.2023 85.7573 72.789 85.768C73.3757 85.768 73.9143 85.688 74.405 85.528C74.9063 85.368 75.3063 85.128 75.605 84.808C75.9037 84.488 76.053 84.0933 76.053 83.624C76.053 83.048 75.8183 82.6107 75.349 82.312C74.8903 82.0133 74.2503 81.864 73.429 81.864H70.933V80.568H73.317C74.0317 80.568 74.5863 80.424 74.981 80.136C75.3863 79.8373 75.589 79.4267 75.589 78.904C75.589 78.5093 75.4663 78.1787 75.221 77.912C74.9863 77.6347 74.661 77.4267 74.245 77.288C73.8397 77.1493 73.3757 77.08 72.853 77.08C72.341 77.0693 71.813 77.1387 71.269 77.288C70.725 77.4267 70.2023 77.6507 69.701 77.96L69.189 76.648C69.8717 76.264 70.581 75.9973 71.317 75.848C72.0637 75.688 72.7837 75.64 73.477 75.704C74.1703 75.7573 74.7943 75.9173 75.349 76.184C75.9143 76.44 76.3623 76.7813 76.693 77.208C77.0343 77.624 77.205 78.1253 77.205 78.712C77.205 79.2453 77.0663 79.72 76.789 80.136C76.5117 80.5413 76.1277 80.856 75.637 81.08C75.1463 81.2933 74.5757 81.4 73.925 81.4L73.989 80.968C74.7357 80.968 75.381 81.0907 75.925 81.336C76.4797 81.5707 76.9063 81.9067 77.205 82.344C77.5143 82.7813 77.669 83.288 77.669 83.864C77.669 84.408 77.5303 84.8933 77.253 85.32C76.9757 85.736 76.597 86.088 76.117 86.376C75.6477 86.6533 75.109 86.856 74.501 86.984C73.9037 87.112 73.2743 87.1547 72.613 87.112C71.9517 87.0693 71.2957 86.9413 70.645 86.728C70.005 86.5147 69.4023 86.2 68.837 85.784ZM86.1746 87.128C85.3213 87.128 84.5266 86.984 83.7906 86.696C83.0653 86.408 82.436 86.008 81.9026 85.496C81.3693 84.9733 80.9533 84.3653 80.6546 83.672C80.356 82.9787 80.2066 82.2213 80.2066 81.4C80.2066 80.5787 80.356 79.8213 80.6546 79.128C80.9533 78.4347 81.3693 77.832 81.9026 77.32C82.436 76.7973 83.0653 76.392 83.7906 76.104C84.516 75.816 85.3106 75.672 86.1746 75.672C87.028 75.672 87.812 75.816 88.5266 76.104C89.252 76.3813 89.8813 76.7813 90.4146 77.304C90.9586 77.816 91.3746 78.4187 91.6626 79.112C91.9613 79.8053 92.1106 80.568 92.1106 81.4C92.1106 82.232 91.9613 82.9947 91.6626 83.688C91.3746 84.3813 90.9586 84.9893 90.4146 85.512C89.8813 86.024 89.252 86.424 88.5266 86.712C87.812 86.9893 87.028 87.128 86.1746 87.128ZM86.1746 85.704C86.7933 85.704 87.364 85.5973 87.8866 85.384C88.42 85.1707 88.8786 84.872 89.2626 84.488C89.6573 84.0933 89.9613 83.6347 90.1746 83.112C90.3986 82.5893 90.5106 82.0187 90.5106 81.4C90.5106 80.7813 90.3986 80.2107 90.1746 79.688C89.9613 79.1653 89.6573 78.712 89.2626 78.328C88.8786 77.9333 88.42 77.6293 87.8866 77.416C87.364 77.2027 86.7933 77.096 86.1746 77.096C85.5453 77.096 84.964 77.2027 84.4306 77.416C83.908 77.6293 83.4493 77.9333 83.0546 78.328C82.66 78.712 82.3506 79.1653 82.1266 79.688C81.9133 80.2107 81.8066 80.7813 81.8066 81.4C81.8066 82.0187 81.9133 82.5893 82.1266 83.112C82.3506 83.6347 82.66 84.0933 83.0546 84.488C83.4493 84.872 83.908 85.1707 84.4306 85.384C84.964 85.5973 85.5453 85.704 86.1746 85.704ZM95.4971 87V75.8H100.313C101.529 75.8 102.484 76.0453 103.177 76.536C103.87 77.0267 104.217 77.7413 104.217 78.68C104.217 79.5973 103.886 80.3013 103.225 80.792C102.564 81.272 101.694 81.512 100.617 81.512L100.905 81.032C102.153 81.032 103.108 81.2827 103.769 81.784C104.441 82.2747 104.777 82.9947 104.777 83.944C104.777 84.904 104.425 85.656 103.721 86.2C103.028 86.7333 101.993 87 100.617 87H95.4971ZM97.0811 85.736H100.585C101.438 85.736 102.078 85.5813 102.505 85.272C102.942 84.952 103.161 84.4667 103.161 83.816C103.161 83.1653 102.942 82.6907 102.505 82.392C102.078 82.0933 101.438 81.944 100.585 81.944H97.0811V85.736ZM97.0811 80.728H100.201C100.98 80.728 101.572 80.5733 101.977 80.264C102.393 79.9547 102.601 79.5013 102.601 78.904C102.601 78.296 102.393 77.8373 101.977 77.528C101.572 77.2187 100.98 77.064 100.201 77.064H97.0811V80.728ZM106.698 87L111.77 75.8H113.354L118.442 87H116.762L112.234 76.696H112.874L108.346 87H106.698ZM108.858 84.2L109.29 82.92H115.594L116.058 84.2H108.858ZM129.207 75.8H130.807V87H129.207V75.8ZM122.775 87H121.175V75.8H122.775V87ZM129.351 82.008H122.615V80.616H129.351V82.008ZM135.1 87V75.8H136.684V84.44L143.308 75.8H144.78V87H143.212V78.376L136.572 87H135.1ZM150.528 80.632H156.288V81.992H150.528V80.632ZM150.672 85.608H157.2V87H149.072V75.8H156.976V77.192H150.672V85.608Z" fill="black"/>
<path d="M122.471 10.5936L75.8144 28.547C74.7285 28.971 74.7285 30.4747 75.8144 30.8986L125.191 49.8979C125.493 50.0164 125.83 50.0164 126.133 49.8979L175.509 30.8986C176.601 30.4747 176.601 28.971 175.509 28.547L128.853 10.5936C126.802 9.80214 124.521 9.80214 122.471 10.5936Z" fill="#668594"/>
<path d="M108.759 27.4844L93.2856 37.6199L108.51 43.4819L108.759 27.4844Z" fill="#455A64"/>
<path d="M142.565 27.4844L158.038 37.6199L142.819 43.4819L142.565 27.4844Z" fill="#455A64"/>
<path d="M148.831 62.3171H102.492L106.784 29.5984C106.852 29.0905 107.079 28.6156 107.432 28.2375C107.785 27.8595 108.248 27.5965 108.759 27.4842C121.073 24.801 132.372 24.784 142.657 27.4333C143.146 27.5575 143.586 27.8228 143.92 28.1947C144.254 28.5666 144.466 29.0281 144.528 29.5192L148.831 62.3171Z" fill="#668594"/>
<path d="M114.09 34.7368C114.158 34.2287 114.384 33.7533 114.737 33.3751C115.091 32.9969 115.554 32.7342 116.065 32.6226C126.346 30.3841 135.92 30.0016 144.788 31.4751L144.528 29.5192C144.466 29.0281 144.254 28.5666 143.92 28.1947C143.586 27.8228 143.146 27.5575 142.657 27.4333C132.376 24.784 121.077 24.801 108.759 27.4842C108.248 27.5965 107.785 27.8595 107.432 28.2375C107.079 28.6156 106.852 29.0905 106.784 29.5984L102.492 62.3171H110.474L114.09 34.7368Z" fill="#455A64"/>
<path d="M125.665 65.104C138.459 65.104 148.831 63.8563 148.831 62.3171C148.831 60.778 138.459 59.5303 125.665 59.5303C112.87 59.5303 102.498 60.778 102.498 62.3171C102.498 63.8563 112.87 65.104 125.665 65.104Z" fill="#455A64"/>
<path d="M160.186 57.1166C160.034 57.1173 159.884 57.0886 159.743 57.032C159.603 56.9755 159.475 56.8922 159.368 56.7871C159.26 56.682 159.175 56.557 159.117 56.4195C159.06 56.282 159.03 56.1347 159.031 55.986V23.8891C159.031 23.5893 159.153 23.3017 159.369 23.0897C159.586 22.8777 159.88 22.7585 160.186 22.7585C160.493 22.7585 160.786 22.8777 161.003 23.0897C161.22 23.3017 161.341 23.5893 161.341 23.8891V55.986C161.341 56.2858 161.22 56.5734 161.003 56.7854C160.786 56.9975 160.493 57.1166 160.186 57.1166Z" fill="#455A64"/>
<path d="M160.024 68.2245C158.963 68.223 157.946 67.8098 157.196 67.0754C156.445 66.3411 156.023 65.3456 156.022 64.3071V58.0211C156.061 57.0086 156.5 56.0504 157.245 55.3477C157.991 54.645 158.986 54.2524 160.021 54.2524C161.057 54.2524 162.052 54.645 162.797 55.3477C163.543 56.0504 163.982 57.0086 164.021 58.0211V64.3071C164.02 65.3446 163.598 66.3393 162.849 67.0735C162.1 67.8076 161.084 68.2215 160.024 68.2245Z" fill="#668594"/>
<path d="M158.037 66.455V60.1691C158.037 59.5074 158.207 58.8563 158.533 58.2768C158.859 57.6972 159.33 57.208 159.902 56.8551C160.474 56.5021 161.128 56.2969 161.803 56.2586C162.478 56.2203 163.152 56.3501 163.761 56.636C163.432 55.7768 162.805 55.0581 161.99 54.6056C161.174 54.1531 160.222 53.9956 159.3 54.1606C158.377 54.3256 157.544 54.8027 156.945 55.5084C156.345 56.214 156.019 57.1034 156.022 58.021V64.3069C156.023 65.0458 156.237 65.7694 156.639 66.3945C157.042 67.0195 157.617 67.5206 158.297 67.84C158.125 67.3977 158.037 66.9283 158.037 66.455Z" fill="#455A64"/>
</svg>

