<svg width="191" height="100" viewBox="0 0 191 100" fill="none" xmlns="http://www.w3.org/2000/svg">
<path d="M2 20C2 8.95431 10.9543 0 22 0H162C173.046 0 182 8.95431 182 20V80C182 91.0457 173.046 100 162 100H22C10.9543 100 2 91.0457 2 80V20Z" fill="#FFC727"/>
<path d="M1.64684 84L1 74.6374L188.411 39L191 76.4825L1.64684 84Z" fill="white" fill-opacity="0.27"/>
<path d="M0.617064 68L0 59.2087L186.291 4L188 28.3575L0.617064 68Z" fill="white" fill-opacity="0.27"/>
<path d="M21.7848 82.128C20.9315 82.128 20.1421 81.9893 19.4168 81.712C18.7021 81.424 18.0781 81.024 17.5448 80.512C17.0221 79.9893 16.6115 79.3813 16.3128 78.688C16.0141 77.9947 15.8648 77.232 15.8648 76.4C15.8648 75.568 16.0141 74.8053 16.3128 74.112C16.6115 73.4187 17.0275 72.816 17.5608 72.304C18.0941 71.7813 18.7181 71.3813 19.4328 71.104C20.1581 70.816 20.9475 70.672 21.8008 70.672C22.6648 70.672 23.4595 70.8213 24.1848 71.12C24.9208 71.408 25.5448 71.84 26.0568 72.416L25.0168 73.424C24.5901 72.976 24.1101 72.6453 23.5768 72.432C23.0435 72.208 22.4728 72.096 21.8648 72.096C21.2355 72.096 20.6488 72.2027 20.1048 72.416C19.5715 72.6293 19.1075 72.928 18.7128 73.312C18.3181 73.696 18.0088 74.1547 17.7848 74.688C17.5715 75.2107 17.4648 75.7813 17.4648 76.4C17.4648 77.0187 17.5715 77.5947 17.7848 78.128C18.0088 78.6507 18.3181 79.104 18.7128 79.488C19.1075 79.872 19.5715 80.1707 20.1048 80.384C20.6488 80.5973 21.2355 80.704 21.8648 80.704C22.4728 80.704 23.0435 80.5973 23.5768 80.384C24.1101 80.16 24.5901 79.8187 25.0168 79.36L26.0568 80.368C25.5448 80.944 24.9208 81.3813 24.1848 81.68C23.4595 81.9787 22.6595 82.128 21.7848 82.128ZM29.0612 82V70.8H38.7092V82H37.1412V71.776L37.5252 72.192H30.2452L30.6452 71.776V82H29.0612ZM48.0418 82.128C47.1885 82.128 46.3938 81.984 45.6578 81.696C44.9325 81.408 44.3031 81.008 43.7698 80.496C43.2365 79.9733 42.8205 79.3653 42.5218 78.672C42.2231 77.9787 42.0738 77.2213 42.0738 76.4C42.0738 75.5787 42.2231 74.8213 42.5218 74.128C42.8205 73.4347 43.2365 72.832 43.7698 72.32C44.3031 71.7973 44.9325 71.392 45.6578 71.104C46.3831 70.816 47.1778 70.672 48.0418 70.672C48.8951 70.672 49.6791 70.816 50.3938 71.104C51.1191 71.3813 51.7485 71.7813 52.2818 72.304C52.8258 72.816 53.2418 73.4187 53.5298 74.112C53.8285 74.8053 53.9778 75.568 53.9778 76.4C53.9778 77.232 53.8285 77.9947 53.5298 78.688C53.2418 79.3813 52.8258 79.9893 52.2818 80.512C51.7485 81.024 51.1191 81.424 50.3938 81.712C49.6791 81.9893 48.8951 82.128 48.0418 82.128ZM48.0418 80.704C48.6605 80.704 49.2311 80.5973 49.7538 80.384C50.2871 80.1707 50.7458 79.872 51.1298 79.488C51.5245 79.0933 51.8285 78.6347 52.0418 78.112C52.2658 77.5893 52.3778 77.0187 52.3778 76.4C52.3778 75.7813 52.2658 75.2107 52.0418 74.688C51.8285 74.1653 51.5245 73.712 51.1298 73.328C50.7458 72.9333 50.2871 72.6293 49.7538 72.416C49.2311 72.2027 48.6605 72.096 48.0418 72.096C47.4125 72.096 46.8311 72.2027 46.2978 72.416C45.7751 72.6293 45.3165 72.9333 44.9218 73.328C44.5271 73.712 44.2178 74.1653 43.9938 74.688C43.7805 75.2107 43.6738 75.7813 43.6738 76.4C43.6738 77.0187 43.7805 77.5893 43.9938 78.112C44.2178 78.6347 44.5271 79.0933 44.9218 79.488C45.3165 79.872 45.7751 80.1707 46.2978 80.384C46.8311 80.5973 47.4125 80.704 48.0418 80.704ZM57.3643 82V70.8H61.7323C62.7136 70.8 63.551 70.9547 64.2443 71.264C64.9376 71.5733 65.471 72.0213 65.8443 72.608C66.2176 73.1947 66.4043 73.8933 66.4043 74.704C66.4043 75.5147 66.2176 76.2133 65.8443 76.8C65.471 77.376 64.9376 77.824 64.2443 78.144C63.551 78.4533 62.7136 78.608 61.7323 78.608H58.2443L58.9643 77.856V82H57.3643ZM58.9643 78.016L58.2443 77.216H61.6843C62.7083 77.216 63.4816 76.9973 64.0043 76.56C64.5376 76.1227 64.8043 75.504 64.8043 74.704C64.8043 73.904 64.5376 73.2853 64.0043 72.848C63.4816 72.4107 62.7083 72.192 61.6843 72.192H58.2443L58.9643 71.392V78.016ZM71.3586 82V71.776L71.7586 72.192H67.5346V70.8H76.7666V72.192H72.5426L72.9266 71.776V82H71.3586Z" fill="black"/>
<g clip-path="url(#clip0_55_9731)">
<path fill-rule="evenodd" clip-rule="evenodd" d="M161.766 14.669C139.73 -2.18292 102.308 30.8736 118.179 52.978C124.518 61.8132 113.369 69.3084 109.787 72.3864C106.225 75.462 101.186 86.5794 101.186 86.5794L104.681 89.2381L108.16 91.9183C108.16 91.9183 117.576 84.152 119.616 79.9101C121.655 75.6682 125.977 62.9303 136.161 66.7441C161.641 76.2952 183.785 31.5424 161.766 14.669Z" fill="#E4B225"/>
<path fill-rule="evenodd" clip-rule="evenodd" d="M151.557 66.2609C161.755 61.7644 169.403 49.5295 170.616 37.4744C157.76 34.1503 144.008 23.6394 137.441 12.0777C126.12 16.3956 116.306 26.9713 114.627 37.9895C121.304 39.204 128.956 42.6793 136.123 48.1661C143.29 53.6528 148.642 60.1324 151.557 66.2609ZM108.16 91.9182C108.16 91.9182 117.004 84.6328 119.398 80.3052C117.676 79.2423 115.937 78.0469 114.242 76.7491C112.546 75.4513 110.938 74.0842 109.463 72.6994C105.91 76.1399 101.186 86.5794 101.186 86.5794L104.681 89.2381L108.16 91.9182Z" fill="#FFA000"/>
<path fill-rule="evenodd" clip-rule="evenodd" d="M108.16 91.9183C108.16 91.9183 117.004 84.6328 119.398 80.3053C117.676 79.2424 115.937 78.0469 114.242 76.7491L104.681 89.2381L108.16 91.9183Z" fill="#FF8F00"/>
<path fill-rule="evenodd" clip-rule="evenodd" d="M119.616 79.9101C121.655 75.6682 125.977 62.9303 136.161 66.7441C141.579 68.7813 146.842 68.3521 151.557 66.2609C148.642 60.1323 143.29 53.6528 136.123 48.166L114.242 76.7491C115.937 78.0468 117.676 79.2423 119.398 80.3052C119.478 80.179 119.555 80.0338 119.616 79.9101Z" fill="#CEA01E"/>
<path fill-rule="evenodd" clip-rule="evenodd" d="M151.557 66.2609C161.755 61.7644 169.402 49.5295 170.616 37.4744C164.187 35.8029 157.54 32.3482 151.663 27.8661L136.123 48.1661C143.29 53.6528 148.642 60.1324 151.557 66.2609Z" fill="#FF8F00"/>
<path fill-rule="evenodd" clip-rule="evenodd" d="M151.663 27.8661C157.54 32.3483 164.187 35.8029 170.616 37.4744C171.488 28.7995 169.019 20.2215 161.766 14.669L151.663 27.8661Z" fill="#CEA01E"/>
<path fill-rule="evenodd" clip-rule="evenodd" d="M105.132 68.1082C103.98 65.2348 102.432 62.7223 100.799 60.5874C99.3787 61.7976 98.1557 63.0396 97.1499 64.1756C98.1468 65.5853 99.0665 67.1403 99.8902 68.843C101.734 69.0801 103.545 68.7817 105.132 68.1082Z" fill="white"/>
<path fill-rule="evenodd" clip-rule="evenodd" d="M99.8904 68.8429C99.0667 67.1403 98.1469 65.5853 97.15 64.1755C96.2593 65.1613 95.5339 66.0866 94.9426 66.8591C96.3324 67.889 97.9685 68.597 99.8121 68.8341C99.831 68.8315 99.8714 68.8455 99.8904 68.8429Z" fill="#C7C7C7"/>
<path fill-rule="evenodd" clip-rule="evenodd" d="M94.9425 66.859C95.5339 66.0865 96.2592 65.1613 97.15 64.1755C98.1558 63.0395 99.3788 61.7976 100.799 60.5873C99.7236 59.1687 98.5928 57.9116 97.5036 56.8225C96.1644 58.0606 95.0147 59.2735 94.0632 60.383C93.1446 61.4496 92.4269 62.4317 91.8898 63.1777C92.6025 64.6252 93.6575 65.8923 94.9425 66.859Z" fill="#C7C7C7"/>
<path fill-rule="evenodd" clip-rule="evenodd" d="M91.8897 63.1778C92.4268 62.4317 93.1446 61.4497 94.0631 60.3831C92.9803 59.1968 91.8822 58.186 90.9015 57.3331C90.6377 59.4115 91.0206 61.4233 91.8897 63.1778Z" fill="#C7C7C7"/>
<path fill-rule="evenodd" clip-rule="evenodd" d="M94.0631 60.383C95.0146 59.2736 96.1644 58.0606 97.5035 56.8225C95.6596 54.9855 93.9164 53.617 92.6579 52.7046C91.753 54.02 91.1297 55.5678 90.9103 57.2548C90.8939 57.2762 90.8964 57.2952 90.9015 57.333C91.8822 58.1859 92.9803 59.1967 94.0631 60.383Z" fill="white"/>
<path fill-rule="evenodd" clip-rule="evenodd" d="M105.133 68.1083C106.777 67.4272 108.229 66.3091 109.315 64.9118C106.81 63.0277 104.771 60.8887 103.119 58.7563C102.02 57.3023 101.08 55.885 100.302 54.5233C99.0263 52.3216 98.1624 50.3158 97.6252 48.8836C95.6208 49.6124 93.8724 50.9627 92.6579 52.7047C93.9165 53.6171 95.6596 54.9856 97.5036 56.8226C98.5928 57.9117 99.7236 59.1687 100.799 60.5874C102.432 62.7224 103.98 65.2348 105.133 68.1083Z" fill="#C7C7C7"/>
<path fill-rule="evenodd" clip-rule="evenodd" d="M100.302 54.5231C101.582 53.5628 102.947 52.6682 104.46 51.8696C103.699 50.6406 103.06 49.4532 102.549 48.3644C102.511 48.3695 102.492 48.372 102.471 48.3555C100.784 48.1362 99.1332 48.3361 97.6252 48.8834C98.1624 50.3157 99.0263 52.3214 100.302 54.5231Z" fill="white"/>
<path fill-rule="evenodd" clip-rule="evenodd" d="M103.119 58.7563C104.437 57.7909 105.897 56.8838 107.465 56.0587C108.494 55.5365 109.55 55.0685 110.689 54.6473C109.989 53.0054 108.89 51.5513 107.49 50.4457C106.411 50.8782 105.414 51.3576 104.46 51.8698C102.947 52.6683 101.582 53.5629 100.302 54.5232C101.08 55.8849 102.02 57.3022 103.119 58.7563Z" fill="#C7C7C7"/>
<path fill-rule="evenodd" clip-rule="evenodd" d="M104.46 51.8697C105.414 51.3575 106.411 50.8782 107.491 50.4456C106.093 49.3589 104.414 48.618 102.549 48.3645C103.06 49.4533 103.7 50.6406 104.46 51.8697ZM111.372 59.9349C111.626 58.0699 111.347 56.2564 110.689 54.6473C109.55 55.0685 108.494 55.5364 107.465 56.0587C108.611 57.4294 109.887 58.7635 111.364 60.0132C111.361 59.9942 111.375 59.9538 111.372 59.9349Z" fill="#C7C7C7"/>
<path fill-rule="evenodd" clip-rule="evenodd" d="M109.315 64.9117C110.386 63.5358 111.108 61.8592 111.364 60.0132C109.887 58.7635 108.611 57.4294 107.465 56.0587C105.897 56.8837 104.437 57.7909 103.12 58.7562C104.771 60.8887 106.81 63.0276 109.315 64.9117Z" fill="white"/>
</g>
<defs>
<clipPath id="clip0_55_9731">
<rect width="82.839" height="82.839" fill="white" transform="translate(84.9077 14.8134) rotate(-7.56485)"/>
</clipPath>
</defs>
</svg>
