<svg width="191" height="100" viewBox="0 0 191 100" fill="none" xmlns="http://www.w3.org/2000/svg">
<path d="M0 20C0 8.95431 8.95431 0 20 0H160C171.046 0 180 8.95431 180 20V80C180 91.0457 171.046 100 160 100H20C8.95431 100 0 91.0457 0 80V20Z" fill="#FFC727"/>
<path d="M1.64684 92L1 82.6374L188.411 47L191 84.4825L1.64684 92Z" fill="white" fill-opacity="0.27"/>
<path d="M0.617064 76L0 67.2087L186.291 12L188 36.3575L0.617064 76Z" fill="white" fill-opacity="0.27"/>
<path d="M94 12C94 9.791 95.791 8 98 8H154C156.209 8 158 9.791 158 12V68C158 70.209 156.209 72 154 72H98C95.791 72 94 70.209 94 68V12Z" fill="#455A64"/>
<path d="M154 12H98V68H154V12Z" fill="white"/>
<path d="M112 54H98V68H112V54Z" fill="#668594"/>
<path d="M126 40H112V54H126V40Z" fill="#668594"/>
<path d="M140 26H126V40H140V26Z" fill="#668594"/>
<path d="M140 54H126V68H140V54Z" fill="#668594"/>
<path d="M154 12H140V26H154V12Z" fill="#668594"/>
<path d="M126 12H112V26H126V12Z" fill="#455A64"/>
<path d="M126 26H112L126 12V26Z" fill="#668594"/>
<path d="M112 26H98V40H112V26Z" fill="#455A64"/>
<path d="M112 40H98L112 26V40Z" fill="#668594"/>
<path d="M154 40H140V54H154V40Z" fill="#668594"/>
<path d="M119 51C121.209 51 123 49.2091 123 47C123 44.7909 121.209 43 119 43C116.791 43 115 44.7909 115 47C115 49.2091 116.791 51 119 51Z" fill="white"/>
<path d="M147 51C149.209 51 151 49.2091 151 47C151 44.7909 149.209 43 147 43C144.791 43 143 44.7909 143 47C143 49.2091 144.791 51 147 51Z" fill="white"/>
<path d="M133 65C135.209 65 137 63.2091 137 61C137 58.7909 135.209 57 133 57C130.791 57 129 58.7909 129 61C129 63.2091 130.791 65 133 65Z" fill="white"/>
<path d="M105 65C107.209 65 109 63.2091 109 61C109 58.7909 107.209 57 105 57C102.791 57 101 58.7909 101 61C101 63.2091 102.791 65 105 65Z" fill="white"/>
<path d="M14.744 70V58.8H16.328V67.44L22.952 58.8H24.424V70H22.856V61.376L16.216 70H14.744ZM28.7159 70V58.8H36.0599L36.0439 60.192H29.8999L30.2839 59.792L30.2999 70H28.7159ZM38.7659 70V58.8H43.1339C44.1152 58.8 44.9525 58.9547 45.6459 59.264C46.3392 59.5733 46.8725 60.0213 47.2459 60.608C47.6192 61.1947 47.8059 61.8933 47.8059 62.704C47.8059 63.5147 47.6192 64.2133 47.2459 64.8C46.8725 65.376 46.3392 65.824 45.6459 66.144C44.9525 66.4533 44.1152 66.608 43.1339 66.608H39.6459L40.3659 65.856V70H38.7659ZM40.3659 66.016L39.6459 65.216H43.0859C44.1099 65.216 44.8832 64.9973 45.4059 64.56C45.9392 64.1227 46.2059 63.504 46.2059 62.704C46.2059 61.904 45.9392 61.2853 45.4059 60.848C44.8832 60.4107 44.1099 60.192 43.0859 60.192H39.6459L40.3659 59.392V66.016ZM55.7435 62.704C57.0662 62.704 58.0848 63.0027 58.7995 63.6C59.5142 64.1867 59.8715 65.0667 59.8715 66.24C59.8715 67.4773 59.4822 68.416 58.7035 69.056C57.9355 69.6853 56.8528 70 55.4555 70H50.8315V58.8H52.4155V62.704H55.7435ZM55.3915 68.736C56.3195 68.736 57.0288 68.528 57.5195 68.112C58.0208 67.696 58.2715 67.0827 58.2715 66.272C58.2715 65.4827 58.0262 64.9013 57.5355 64.528C57.0448 64.1547 56.3302 63.968 55.3915 63.968H52.4155V68.736H55.3915ZM61.6475 70V58.8H63.2315V70H61.6475ZM22.776 78.8H24.376V90H22.776V78.8ZM16.344 90H14.744V78.8H16.344V90ZM22.92 85.008H16.184V83.616H22.92V85.008ZM27.117 90L32.189 78.8H33.773L38.861 90H37.181L32.653 79.696H33.293L28.765 90H27.117ZM29.277 87.2L29.709 85.92H36.013L36.477 87.2H29.277ZM46.4458 90.128C45.5924 90.128 44.8031 89.9893 44.0778 89.712C43.3631 89.424 42.7391 89.024 42.2058 88.512C41.6831 87.9893 41.2724 87.3813 40.9738 86.688C40.6751 85.9947 40.5258 85.232 40.5258 84.4C40.5258 83.568 40.6751 82.8053 40.9738 82.112C41.2724 81.4187 41.6884 80.816 42.2218 80.304C42.7551 79.7813 43.3791 79.3813 44.0938 79.104C44.8191 78.816 45.6084 78.672 46.4618 78.672C47.3258 78.672 48.1204 78.8213 48.8458 79.12C49.5818 79.408 50.2058 79.84 50.7178 80.416L49.6778 81.424C49.2511 80.976 48.7711 80.6453 48.2378 80.432C47.7044 80.208 47.1338 80.096 46.5258 80.096C45.8964 80.096 45.3098 80.2027 44.7658 80.416C44.2324 80.6293 43.7684 80.928 43.3738 81.312C42.9791 81.696 42.6698 82.1547 42.4458 82.688C42.2324 83.2107 42.1258 83.7813 42.1258 84.4C42.1258 85.0187 42.2324 85.5947 42.4458 86.128C42.6698 86.6507 42.9791 87.104 43.3738 87.488C43.7684 87.872 44.2324 88.1707 44.7658 88.384C45.3098 88.5973 45.8964 88.704 46.5258 88.704C47.1338 88.704 47.7044 88.5973 48.2378 88.384C48.7711 88.16 49.2511 87.8187 49.6778 87.36L50.7178 88.368C50.2058 88.944 49.5818 89.3813 48.8458 89.68C48.1204 89.9787 47.3204 90.128 46.4458 90.128ZM55.8851 90V79.776L56.2851 80.192H52.0611V78.8H61.2931V80.192H57.0691L57.4531 79.776V90H55.8851ZM68.9215 90.128C68.0682 90.128 67.2735 89.984 66.5375 89.696C65.8122 89.408 65.1828 89.008 64.6495 88.496C64.1162 87.9733 63.7002 87.3653 63.4015 86.672C63.1028 85.9787 62.9535 85.2213 62.9535 84.4C62.9535 83.5787 63.1028 82.8213 63.4015 82.128C63.7002 81.4347 64.1162 80.832 64.6495 80.32C65.1828 79.7973 65.8122 79.392 66.5375 79.104C67.2628 78.816 68.0575 78.672 68.9215 78.672C69.7748 78.672 70.5588 78.816 71.2735 79.104C71.9988 79.3813 72.6282 79.7813 73.1615 80.304C73.7055 80.816 74.1215 81.4187 74.4095 82.112C74.7082 82.8053 74.8575 83.568 74.8575 84.4C74.8575 85.232 74.7082 85.9947 74.4095 86.688C74.1215 87.3813 73.7055 87.9893 73.1615 88.512C72.6282 89.024 71.9988 89.424 71.2735 89.712C70.5588 89.9893 69.7748 90.128 68.9215 90.128ZM68.9215 88.704C69.5402 88.704 70.1108 88.5973 70.6335 88.384C71.1668 88.1707 71.6255 87.872 72.0095 87.488C72.4042 87.0933 72.7082 86.6347 72.9215 86.112C73.1455 85.5893 73.2575 85.0187 73.2575 84.4C73.2575 83.7813 73.1455 83.2107 72.9215 82.688C72.7082 82.1653 72.4042 81.712 72.0095 81.328C71.6255 80.9333 71.1668 80.6293 70.6335 80.416C70.1108 80.2027 69.5402 80.096 68.9215 80.096C68.2922 80.096 67.7108 80.2027 67.1775 80.416C66.6548 80.6293 66.1962 80.9333 65.8015 81.328C65.4068 81.712 65.0975 82.1653 64.8735 82.688C64.6602 83.2107 64.5535 83.7813 64.5535 84.4C64.5535 85.0187 64.6602 85.5893 64.8735 86.112C65.0975 86.6347 65.4068 87.0933 65.8015 87.488C66.1962 87.872 66.6548 88.1707 67.1775 88.384C67.7108 88.5973 68.2922 88.704 68.9215 88.704ZM77.4035 90.128C77.2435 90.128 77.0835 90.1173 76.9235 90.096C76.7635 90.0747 76.5875 90.0427 76.3955 90L76.5075 88.576C76.6782 88.6187 76.8488 88.64 77.0195 88.64C77.4888 88.64 77.8622 88.4533 78.1395 88.08C78.4168 87.7067 78.6195 87.1413 78.7475 86.384C78.8862 85.6267 78.9768 84.672 79.0195 83.52L79.1955 78.8H87.0835V90H85.5155V79.776L85.8995 80.192H80.2195L80.5715 79.76L80.4435 83.472C80.4115 84.5813 80.3368 85.552 80.2195 86.384C80.1022 87.216 79.9262 87.9093 79.6915 88.464C79.4568 89.0187 79.1528 89.4347 78.7795 89.712C78.4168 89.9893 77.9582 90.128 77.4035 90.128ZM96.2841 82.704C97.6068 82.704 98.6255 83.0027 99.3401 83.6C100.055 84.1867 100.412 85.0667 100.412 86.24C100.412 87.4773 100.023 88.416 99.2441 89.056C98.4761 89.6853 97.3935 90 95.9961 90H91.3721V78.8H92.9561V82.704H96.2841ZM95.9321 88.736C96.8601 88.736 97.5695 88.528 98.0601 88.112C98.5615 87.696 98.8121 87.0827 98.8121 86.272C98.8121 85.4827 98.5668 84.9013 98.0761 84.528C97.5855 84.1547 96.8708 83.968 95.9321 83.968H92.9561V88.736H95.9321ZM111.61 78.8H113.21V90H111.61V78.8ZM105.178 90H103.578V78.8H105.178V90ZM111.754 85.008H105.018V83.616H111.754V85.008ZM122.415 82.704C123.738 82.704 124.757 83.0027 125.471 83.6C126.186 84.1867 126.543 85.0667 126.543 86.24C126.543 87.4773 126.154 88.416 125.375 89.056C124.607 89.6853 123.525 90 122.127 90H117.503V78.8H119.087V82.704H122.415ZM122.063 88.736C122.991 88.736 123.701 88.528 124.191 88.112C124.693 87.696 124.943 87.0827 124.943 86.272C124.943 85.4827 124.698 84.9013 124.207 84.528C123.717 84.1547 123.002 83.968 122.063 83.968H119.087V88.736H122.063ZM128.319 90V78.8H129.903V90H128.319ZM135.65 83.632H141.41V84.992H135.65V83.632ZM135.794 88.608H142.322V90H134.194V78.8H142.098V80.192H135.794V88.608Z" fill="black"/>
</svg>
