<svg width="191" height="114" viewBox="0 0 191 114" fill="none" xmlns="http://www.w3.org/2000/svg">
<path d="M4 31C4 19.9543 12.9543 11 24 11H164C175.046 11 184 19.9543 184 31V91C184 102.046 175.046 111 164 111H24C12.9543 111 4 102.046 4 91V31Z" fill="#FFC727"/>
<path d="M189.353 103L190 93.6374L2.58893 58L0 95.4825L189.353 103Z" fill="white" fill-opacity="0.27"/>
<path d="M190.383 87L191 78.2087L4.70901 23L3 47.3575L190.383 87Z" fill="white" fill-opacity="0.27"/>
<path d="M21.2117 96V85.776L21.6117 86.192H17.3877V84.8H26.6197V86.192H22.3957L22.7797 85.776V96H21.2117ZM30.8203 89.632H36.5803V90.992H30.8203V89.632ZM30.9643 94.608H37.4923V96H29.3643V84.8H37.2683V86.192H30.9643V94.608ZM39.2529 96L44.3249 84.8H45.9089L50.9969 96H49.3169L44.7889 85.696H45.4289L40.9009 96H39.2529ZM41.4129 93.2L41.8449 91.92H48.1489L48.6129 93.2H41.4129ZM55.4554 96V85.776L55.8554 86.192H51.6314V84.8H60.8634V86.192H56.6394L57.0234 85.776V96H55.4554ZM63.6081 96V84.8H67.9761C68.9574 84.8 69.7947 84.9547 70.4881 85.264C71.1814 85.5733 71.7147 86.0213 72.0881 86.608C72.4614 87.1947 72.6481 87.8933 72.6481 88.704C72.6481 89.5147 72.4614 90.2133 72.0881 90.8C71.7147 91.376 71.1814 91.824 70.4881 92.144C69.7947 92.4533 68.9574 92.608 67.9761 92.608H64.4881L65.2081 91.856V96H63.6081ZM65.2081 92.016L64.4881 91.216H67.9281C68.9521 91.216 69.7254 90.9973 70.2481 90.56C70.7814 90.1227 71.0481 89.504 71.0481 88.704C71.0481 87.904 70.7814 87.2853 70.2481 86.848C69.7254 86.4107 68.9521 86.192 67.9281 86.192H64.4881L65.2081 85.392V92.016ZM80.5857 88.704C81.9084 88.704 82.927 89.0027 83.6417 89.6C84.3564 90.1867 84.7137 91.0667 84.7137 92.24C84.7137 93.4773 84.3244 94.416 83.5457 95.056C82.7777 95.6853 81.695 96 80.2977 96H75.6737V84.8H77.2577V88.704H80.5857ZM80.2337 94.736C81.1617 94.736 81.871 94.528 82.3617 94.112C82.863 93.696 83.1137 93.0827 83.1137 92.272C83.1137 91.4827 82.8684 90.9013 82.3777 90.528C81.887 90.1547 81.1724 89.968 80.2337 89.968H77.2577V94.736H80.2337ZM86.4897 96V84.8H88.0737V96H86.4897Z" fill="black"/>
<path d="M132.788 41.5624C135.875 50.3499 126.375 70.2999 117.825 73.3874L97.875 17.8124C115.212 11.6374 123.525 15.1999 123.525 15.1999L132.788 41.5624Z" fill="#FF8F00"/>
<path d="M86 58.6625C89.0875 67.45 109.275 76.7125 117.825 73.625L97.875 17.8125C80.5375 23.9875 76.5 32.0625 76.5 32.0625L86 58.6625Z" fill="#FFA000"/>
<path d="M121.387 37.5249C121.387 37.5249 116.162 33.7249 109.037 35.3874C109.037 35.3874 109.75 30.3999 113.787 30.3999C119.487 30.1624 121.387 37.5249 121.387 37.5249Z" fill="#693D14"/>
<path d="M110.938 53.9124C119.013 51.0624 124.238 53.9124 124.238 53.9124C124.238 53.9124 117.588 45.3624 109.038 48.4499C100.488 51.5374 100.725 62.2249 100.725 62.2249C100.725 62.2249 102.863 56.7624 110.938 53.9124Z" fill="#693D14"/>
<path d="M92.1748 47.9751C92.1748 47.9751 93.5998 41.5626 100.25 38.4751C100.25 38.4751 96.4498 35.1501 93.3623 37.7626C89.0873 41.0876 92.1748 47.9751 92.1748 47.9751Z" fill="#693D14"/>
<path d="M162.95 80.5126C160.1 90.4876 138.725 102.125 128.988 99.2751L147.038 36.5751C166.513 42.2751 171.5 50.8251 171.5 50.8251L162.95 80.5126Z" fill="#C7C7C7"/>
<path d="M110.225 65.3126C107.375 75.2876 119.25 96.6626 128.988 99.2751L147.038 36.5751C127.563 31.1126 118.775 35.6251 118.775 35.6251L110.225 65.3126Z" fill="#E0E0E0"/>
<path d="M157.962 66.7374C157.962 66.7374 154.4 61.7499 145.375 60.5624C145.375 60.5624 148.937 56.9999 153.212 58.1874C158.2 59.6124 157.962 66.7374 157.962 66.7374Z" fill="#694A14"/>
<path d="M121.863 56.2875C121.863 56.2875 127.563 53.9125 135.638 57.7125C135.638 57.7125 134.45 52.725 130.175 51.5375C125.425 50.1125 121.863 56.2875 121.863 56.2875Z" fill="#694A14"/>
<path d="M135.638 76.0001C125.425 73.1501 122.338 66.2626 122.338 66.2626C122.338 66.2626 122.813 79.5626 133.738 82.6501C144.663 85.7376 152.025 74.8126 152.025 74.8126C152.025 74.8126 145.85 79.0876 135.638 76.0001Z" fill="#694A14"/>
</svg>
